G04 EAGLE Gerber RS-274X export*
G75*
%MOMM*%
%FSLAX34Y34*%
%LPD*%
%INTop Copper*%
%IPPOS*%
%AMOC8*
5,1,8,0,0,1.08239X$1,22.5*%
G01*
%ADD10C,2.184400*%
%ADD11R,1.500000X1.500000*%
%ADD12R,1.803000X1.600000*%
%ADD13R,1.600000X1.803000*%
%ADD14C,1.473200*%
%ADD15C,1.422400*%
%ADD16R,1.422400X1.422400*%
%ADD17C,3.422400*%
%ADD18R,1.108000X1.108000*%
%ADD19C,1.108000*%
%ADD20C,1.006400*%
%ADD21C,0.200000*%
%ADD22C,0.152400*%
%ADD23C,0.756400*%
%ADD24C,2.000000*%
%ADD25C,2.000000*%

G36*
X918325Y35434D02*
X918325Y35434D01*
X918421Y35439D01*
X918464Y35454D01*
X918509Y35461D01*
X918597Y35500D01*
X918688Y35532D01*
X918722Y35557D01*
X918766Y35577D01*
X918864Y35660D01*
X918937Y35713D01*
X941857Y58633D01*
X941914Y58710D01*
X941979Y58782D01*
X941999Y58823D01*
X942026Y58859D01*
X942060Y58949D01*
X942102Y59035D01*
X942108Y59077D01*
X942125Y59123D01*
X942134Y59239D01*
X942137Y59249D01*
X942138Y59265D01*
X942149Y59340D01*
X942149Y745850D01*
X942136Y745945D01*
X942131Y746041D01*
X942116Y746084D01*
X942109Y746129D01*
X942070Y746217D01*
X942038Y746308D01*
X942013Y746342D01*
X941993Y746386D01*
X941910Y746484D01*
X941892Y746508D01*
X941880Y746527D01*
X941874Y746533D01*
X941857Y746557D01*
X920277Y768137D01*
X920200Y768194D01*
X920128Y768259D01*
X920087Y768279D01*
X920051Y768306D01*
X919961Y768340D01*
X919875Y768382D01*
X919833Y768388D01*
X919787Y768405D01*
X919660Y768415D01*
X919570Y768429D01*
X90690Y768429D01*
X90595Y768416D01*
X90499Y768411D01*
X90456Y768396D01*
X90411Y768389D01*
X90323Y768350D01*
X90232Y768318D01*
X90198Y768293D01*
X90154Y768273D01*
X90057Y768190D01*
X89983Y768137D01*
X84083Y762237D01*
X84080Y762232D01*
X84075Y762228D01*
X84038Y762176D01*
X83914Y762011D01*
X83907Y761992D01*
X83896Y761977D01*
X83679Y761542D01*
X63276Y741139D01*
X61750Y741139D01*
X61686Y741130D01*
X61622Y741131D01*
X61547Y741110D01*
X61471Y741099D01*
X61412Y741073D01*
X61350Y741056D01*
X61284Y741015D01*
X61214Y740983D01*
X61165Y740941D01*
X61110Y740908D01*
X61058Y740850D01*
X61000Y740800D01*
X60964Y740746D01*
X60921Y740698D01*
X60888Y740629D01*
X60845Y740564D01*
X60826Y740502D01*
X60798Y740445D01*
X60787Y740375D01*
X60763Y740294D01*
X60762Y740209D01*
X60751Y740140D01*
X60751Y55280D01*
X60764Y55185D01*
X60769Y55089D01*
X60784Y55046D01*
X60791Y55001D01*
X60830Y54913D01*
X60862Y54822D01*
X60887Y54788D01*
X60907Y54744D01*
X60990Y54647D01*
X61043Y54573D01*
X79903Y35713D01*
X79980Y35656D01*
X80052Y35591D01*
X80093Y35571D01*
X80129Y35544D01*
X80219Y35510D01*
X80305Y35468D01*
X80347Y35462D01*
X80393Y35445D01*
X80521Y35435D01*
X80610Y35421D01*
X918230Y35421D01*
X918325Y35434D01*
G37*
%LPC*%
G36*
X101224Y55875D02*
X101224Y55875D01*
X75305Y81794D01*
X75305Y385846D01*
X207863Y518403D01*
X207920Y518480D01*
X207985Y518551D01*
X208005Y518592D01*
X208032Y518629D01*
X208066Y518719D01*
X208108Y518805D01*
X208114Y518847D01*
X208131Y518893D01*
X208141Y519020D01*
X208155Y519110D01*
X208155Y621261D01*
X208154Y621271D01*
X208155Y621280D01*
X208134Y621410D01*
X208115Y621541D01*
X208112Y621549D01*
X208110Y621559D01*
X208053Y621678D01*
X207999Y621797D01*
X207993Y621805D01*
X207989Y621813D01*
X207901Y621912D01*
X207816Y622012D01*
X207808Y622017D01*
X207802Y622024D01*
X207736Y622064D01*
X207580Y622166D01*
X207557Y622173D01*
X207538Y622184D01*
X206678Y622541D01*
X204691Y624528D01*
X203615Y627125D01*
X203615Y629935D01*
X204691Y632532D01*
X206678Y634519D01*
X209275Y635595D01*
X212085Y635595D01*
X214682Y634519D01*
X216669Y632532D01*
X217745Y629935D01*
X217745Y627125D01*
X216669Y624528D01*
X214682Y622541D01*
X213822Y622184D01*
X213813Y622180D01*
X213804Y622177D01*
X213692Y622108D01*
X213579Y622041D01*
X213572Y622034D01*
X213564Y622029D01*
X213476Y621931D01*
X213386Y621835D01*
X213382Y621827D01*
X213375Y621820D01*
X213318Y621702D01*
X213258Y621584D01*
X213256Y621574D01*
X213252Y621566D01*
X213240Y621490D01*
X213206Y621307D01*
X213208Y621283D01*
X213205Y621261D01*
X213205Y516604D01*
X80647Y384047D01*
X80590Y383970D01*
X80525Y383899D01*
X80505Y383858D01*
X80478Y383821D01*
X80444Y383731D01*
X80402Y383645D01*
X80396Y383603D01*
X80379Y383557D01*
X80369Y383430D01*
X80355Y383340D01*
X80355Y84300D01*
X80368Y84205D01*
X80373Y84109D01*
X80388Y84065D01*
X80395Y84020D01*
X80434Y83933D01*
X80466Y83842D01*
X80491Y83808D01*
X80511Y83764D01*
X80594Y83666D01*
X80647Y83593D01*
X103023Y61217D01*
X103100Y61160D01*
X103171Y61095D01*
X103212Y61075D01*
X103249Y61048D01*
X103339Y61014D01*
X103425Y60972D01*
X103467Y60966D01*
X103513Y60949D01*
X103640Y60939D01*
X103730Y60925D01*
X344620Y60925D01*
X344715Y60938D01*
X344811Y60943D01*
X344855Y60958D01*
X344900Y60965D01*
X344987Y61004D01*
X345078Y61036D01*
X345112Y61061D01*
X345156Y61081D01*
X345254Y61164D01*
X345327Y61217D01*
X362723Y78613D01*
X362780Y78690D01*
X362845Y78761D01*
X362865Y78802D01*
X362892Y78839D01*
X362926Y78929D01*
X362968Y79015D01*
X362974Y79057D01*
X362991Y79103D01*
X363001Y79226D01*
X363003Y79234D01*
X363003Y79244D01*
X363015Y79320D01*
X363015Y132346D01*
X377744Y147075D01*
X432511Y147075D01*
X432521Y147076D01*
X432530Y147075D01*
X432660Y147096D01*
X432790Y147115D01*
X432799Y147118D01*
X432808Y147120D01*
X432928Y147177D01*
X433047Y147231D01*
X433055Y147237D01*
X433063Y147241D01*
X433161Y147328D01*
X433262Y147414D01*
X433267Y147422D01*
X433274Y147428D01*
X433314Y147494D01*
X433416Y147650D01*
X433423Y147673D01*
X433434Y147692D01*
X433671Y148264D01*
X435516Y150109D01*
X438024Y151148D01*
X438126Y151208D01*
X438231Y151264D01*
X438248Y151280D01*
X438267Y151291D01*
X438348Y151378D01*
X438433Y151460D01*
X438445Y151480D01*
X438460Y151497D01*
X438514Y151603D01*
X438572Y151706D01*
X438578Y151728D01*
X438588Y151748D01*
X438610Y151865D01*
X438637Y151980D01*
X438636Y152003D01*
X438640Y152025D01*
X438629Y152143D01*
X438623Y152262D01*
X438615Y152284D01*
X438613Y152306D01*
X438569Y152416D01*
X438530Y152528D01*
X438518Y152546D01*
X438509Y152568D01*
X438394Y152715D01*
X438349Y152777D01*
X438149Y152977D01*
X438149Y167803D01*
X438136Y167898D01*
X438131Y167994D01*
X438116Y168037D01*
X438109Y168082D01*
X438070Y168170D01*
X438038Y168260D01*
X438013Y168295D01*
X437993Y168339D01*
X437910Y168436D01*
X437857Y168509D01*
X435847Y170520D01*
X435821Y170539D01*
X435800Y170563D01*
X435708Y170623D01*
X435621Y170689D01*
X435591Y170700D01*
X435564Y170718D01*
X435459Y170750D01*
X435357Y170788D01*
X435325Y170791D01*
X435294Y170800D01*
X435185Y170802D01*
X435076Y170810D01*
X435044Y170804D01*
X435012Y170804D01*
X434907Y170775D01*
X434800Y170753D01*
X434771Y170737D01*
X434740Y170729D01*
X434647Y170671D01*
X434551Y170620D01*
X434528Y170598D01*
X434500Y170581D01*
X434427Y170500D01*
X434349Y170423D01*
X434333Y170395D01*
X434311Y170371D01*
X434264Y170273D01*
X434210Y170178D01*
X434202Y170147D01*
X434188Y170118D01*
X434174Y170028D01*
X434145Y169903D01*
X434147Y169855D01*
X434141Y169813D01*
X434141Y168371D01*
X432787Y165104D01*
X430286Y162603D01*
X427018Y161249D01*
X423482Y161249D01*
X420214Y162603D01*
X417713Y165104D01*
X416359Y168371D01*
X416359Y171908D01*
X417713Y175176D01*
X420214Y177677D01*
X423482Y179031D01*
X424923Y179031D01*
X424955Y179035D01*
X424987Y179033D01*
X425094Y179055D01*
X425202Y179071D01*
X425232Y179084D01*
X425263Y179090D01*
X425360Y179142D01*
X425459Y179187D01*
X425484Y179208D01*
X425512Y179223D01*
X425590Y179299D01*
X425673Y179370D01*
X425691Y179397D01*
X425714Y179420D01*
X425768Y179515D01*
X425828Y179606D01*
X425837Y179637D01*
X425853Y179665D01*
X425878Y179772D01*
X425910Y179876D01*
X425911Y179908D01*
X425918Y179939D01*
X425913Y180049D01*
X425914Y180158D01*
X425905Y180189D01*
X425904Y180221D01*
X425868Y180324D01*
X425839Y180430D01*
X425822Y180457D01*
X425811Y180488D01*
X425758Y180561D01*
X425691Y180670D01*
X425655Y180702D01*
X425630Y180737D01*
X308847Y297520D01*
X308821Y297539D01*
X308800Y297563D01*
X308708Y297623D01*
X308621Y297689D01*
X308591Y297700D01*
X308564Y297718D01*
X308459Y297750D01*
X308357Y297788D01*
X308325Y297791D01*
X308294Y297800D01*
X308185Y297802D01*
X308076Y297810D01*
X308044Y297804D01*
X308012Y297804D01*
X307907Y297775D01*
X307800Y297753D01*
X307771Y297737D01*
X307740Y297729D01*
X307647Y297671D01*
X307551Y297620D01*
X307528Y297598D01*
X307500Y297581D01*
X307427Y297500D01*
X307349Y297423D01*
X307333Y297395D01*
X307311Y297371D01*
X307264Y297273D01*
X307210Y297178D01*
X307202Y297147D01*
X307188Y297118D01*
X307174Y297028D01*
X307145Y296903D01*
X307147Y296855D01*
X307141Y296813D01*
X307141Y295371D01*
X305787Y292104D01*
X303286Y289603D01*
X300018Y288249D01*
X296482Y288249D01*
X293214Y289603D01*
X290713Y292104D01*
X289359Y295371D01*
X289359Y298908D01*
X290713Y302176D01*
X293214Y304677D01*
X295670Y305694D01*
X295772Y305755D01*
X295876Y305811D01*
X295893Y305826D01*
X295912Y305838D01*
X295993Y305924D01*
X296078Y306007D01*
X296090Y306027D01*
X296105Y306044D01*
X296159Y306149D01*
X296218Y306253D01*
X296223Y306275D01*
X296233Y306295D01*
X296255Y306412D01*
X296282Y306527D01*
X296281Y306550D01*
X296286Y306572D01*
X296274Y306690D01*
X296268Y306809D01*
X296261Y306830D01*
X296258Y306853D01*
X296215Y306963D01*
X296176Y307075D01*
X296163Y307093D01*
X296154Y307115D01*
X296039Y307262D01*
X295994Y307324D01*
X284333Y318985D01*
X284257Y319042D01*
X284185Y319107D01*
X284144Y319127D01*
X284108Y319154D01*
X284018Y319188D01*
X283931Y319230D01*
X283889Y319236D01*
X283844Y319253D01*
X283716Y319263D01*
X283627Y319277D01*
X281789Y319277D01*
X281780Y319276D01*
X281771Y319277D01*
X281641Y319256D01*
X281510Y319237D01*
X281502Y319234D01*
X281492Y319232D01*
X281373Y319175D01*
X281253Y319121D01*
X281246Y319115D01*
X281238Y319111D01*
X281139Y319023D01*
X281039Y318938D01*
X281034Y318930D01*
X281027Y318924D01*
X280987Y318858D01*
X280885Y318702D01*
X280878Y318679D01*
X280866Y318660D01*
X280387Y317504D01*
X277886Y315003D01*
X274618Y313649D01*
X271082Y313649D01*
X267814Y315003D01*
X265313Y317504D01*
X263959Y320771D01*
X263959Y322321D01*
X263955Y322353D01*
X263957Y322385D01*
X263935Y322492D01*
X263919Y322600D01*
X263906Y322630D01*
X263900Y322661D01*
X263848Y322758D01*
X263803Y322857D01*
X263782Y322882D01*
X263767Y322910D01*
X263691Y322988D01*
X263620Y323071D01*
X263593Y323089D01*
X263570Y323112D01*
X263475Y323166D01*
X263384Y323226D01*
X263353Y323235D01*
X263325Y323251D01*
X263219Y323276D01*
X263114Y323308D01*
X263082Y323309D01*
X263051Y323316D01*
X262941Y323311D01*
X262832Y323312D01*
X262801Y323303D01*
X262769Y323302D01*
X262666Y323266D01*
X262560Y323237D01*
X262533Y323220D01*
X262502Y323209D01*
X262429Y323156D01*
X262320Y323089D01*
X262288Y323053D01*
X262253Y323028D01*
X260135Y320909D01*
X260117Y320885D01*
X260096Y320867D01*
X260061Y320815D01*
X260013Y320761D01*
X259993Y320720D01*
X259966Y320684D01*
X259953Y320649D01*
X259941Y320631D01*
X259926Y320581D01*
X259890Y320507D01*
X259884Y320465D01*
X259867Y320420D01*
X259863Y320375D01*
X259859Y320361D01*
X259858Y320311D01*
X259857Y320292D01*
X259843Y320203D01*
X259843Y317569D01*
X249630Y307356D01*
X249559Y307261D01*
X249483Y307169D01*
X249474Y307149D01*
X249460Y307130D01*
X249419Y307019D01*
X249372Y306910D01*
X249369Y306888D01*
X249361Y306866D01*
X249352Y306748D01*
X249337Y306630D01*
X249341Y306608D01*
X249339Y306585D01*
X249363Y306469D01*
X249382Y306352D01*
X249392Y306331D01*
X249397Y306309D01*
X249452Y306205D01*
X249503Y306097D01*
X249518Y306080D01*
X249529Y306060D01*
X249612Y305975D01*
X249691Y305887D01*
X249709Y305875D01*
X249726Y305858D01*
X249888Y305766D01*
X249954Y305726D01*
X252486Y304677D01*
X254987Y302176D01*
X256341Y298908D01*
X256341Y295371D01*
X254987Y292104D01*
X252486Y289603D01*
X249218Y288249D01*
X245682Y288249D01*
X242414Y289603D01*
X239913Y292104D01*
X238559Y295371D01*
X238559Y296921D01*
X238555Y296953D01*
X238557Y296985D01*
X238535Y297092D01*
X238519Y297200D01*
X238506Y297230D01*
X238500Y297261D01*
X238448Y297358D01*
X238403Y297457D01*
X238382Y297482D01*
X238367Y297510D01*
X238291Y297588D01*
X238220Y297671D01*
X238193Y297689D01*
X238170Y297712D01*
X238075Y297766D01*
X237984Y297826D01*
X237953Y297835D01*
X237925Y297851D01*
X237818Y297876D01*
X237714Y297908D01*
X237682Y297909D01*
X237651Y297916D01*
X237541Y297911D01*
X237432Y297912D01*
X237401Y297903D01*
X237369Y297902D01*
X237266Y297866D01*
X237160Y297837D01*
X237133Y297820D01*
X237102Y297809D01*
X237029Y297756D01*
X236920Y297689D01*
X236888Y297653D01*
X236853Y297628D01*
X211366Y272141D01*
X211347Y272115D01*
X211323Y272094D01*
X211263Y272002D01*
X211197Y271915D01*
X211186Y271885D01*
X211168Y271858D01*
X211136Y271753D01*
X211098Y271651D01*
X211095Y271619D01*
X211086Y271588D01*
X211084Y271479D01*
X211076Y271370D01*
X211082Y271338D01*
X211082Y271306D01*
X211111Y271201D01*
X211133Y271094D01*
X211149Y271065D01*
X211157Y271034D01*
X211215Y270941D01*
X211266Y270845D01*
X211288Y270822D01*
X211305Y270794D01*
X211386Y270721D01*
X211463Y270643D01*
X211491Y270627D01*
X211515Y270605D01*
X211613Y270558D01*
X211708Y270504D01*
X211739Y270496D01*
X211768Y270482D01*
X211858Y270468D01*
X211983Y270439D01*
X212031Y270441D01*
X212073Y270435D01*
X229387Y270435D01*
X230280Y269542D01*
X230280Y266034D01*
X230289Y265970D01*
X230288Y265906D01*
X230309Y265831D01*
X230320Y265755D01*
X230346Y265696D01*
X230363Y265634D01*
X230404Y265568D01*
X230436Y265498D01*
X230478Y265449D01*
X230511Y265394D01*
X230569Y265342D01*
X230619Y265284D01*
X230673Y265248D01*
X230721Y265205D01*
X230790Y265172D01*
X230855Y265129D01*
X230917Y265110D01*
X230974Y265082D01*
X231044Y265071D01*
X231125Y265047D01*
X231210Y265046D01*
X231279Y265035D01*
X236176Y265035D01*
X249435Y251776D01*
X249435Y245659D01*
X249436Y245649D01*
X249435Y245640D01*
X249456Y245510D01*
X249475Y245380D01*
X249478Y245371D01*
X249480Y245362D01*
X249537Y245242D01*
X249591Y245123D01*
X249597Y245115D01*
X249601Y245107D01*
X249688Y245009D01*
X249774Y244908D01*
X249782Y244903D01*
X249788Y244896D01*
X249854Y244856D01*
X250010Y244754D01*
X250033Y244747D01*
X250052Y244736D01*
X250624Y244499D01*
X252469Y242654D01*
X253467Y240244D01*
X253467Y237636D01*
X252469Y235226D01*
X250624Y233381D01*
X248214Y232383D01*
X245606Y232383D01*
X243196Y233381D01*
X241351Y235226D01*
X240353Y237636D01*
X240353Y240244D01*
X241351Y242654D01*
X243196Y244499D01*
X243768Y244736D01*
X243777Y244740D01*
X243786Y244743D01*
X243898Y244812D01*
X244011Y244879D01*
X244018Y244886D01*
X244026Y244891D01*
X244114Y244989D01*
X244204Y245085D01*
X244208Y245093D01*
X244215Y245100D01*
X244272Y245219D01*
X244332Y245336D01*
X244334Y245346D01*
X244338Y245354D01*
X244350Y245431D01*
X244384Y245614D01*
X244382Y245637D01*
X244385Y245659D01*
X244385Y249270D01*
X244376Y249333D01*
X244377Y249388D01*
X244369Y249417D01*
X244367Y249461D01*
X244352Y249505D01*
X244345Y249550D01*
X244312Y249624D01*
X244302Y249660D01*
X244293Y249675D01*
X244274Y249728D01*
X244249Y249762D01*
X244229Y249806D01*
X244165Y249881D01*
X244154Y249900D01*
X244139Y249913D01*
X244093Y249977D01*
X234377Y259693D01*
X234300Y259750D01*
X234229Y259815D01*
X234188Y259835D01*
X234151Y259862D01*
X234061Y259896D01*
X233975Y259938D01*
X233933Y259944D01*
X233887Y259961D01*
X233760Y259971D01*
X233670Y259985D01*
X231279Y259985D01*
X231215Y259976D01*
X231151Y259977D01*
X231076Y259956D01*
X231000Y259945D01*
X230941Y259919D01*
X230879Y259902D01*
X230813Y259861D01*
X230743Y259829D01*
X230694Y259787D01*
X230639Y259754D01*
X230587Y259696D01*
X230529Y259646D01*
X230493Y259592D01*
X230450Y259544D01*
X230417Y259475D01*
X230374Y259410D01*
X230355Y259348D01*
X230327Y259291D01*
X230316Y259221D01*
X230292Y259140D01*
X230291Y259055D01*
X230280Y258986D01*
X230280Y252278D01*
X229387Y251385D01*
X210550Y251385D01*
X210486Y251376D01*
X210422Y251377D01*
X210347Y251356D01*
X210271Y251345D01*
X210212Y251319D01*
X210150Y251302D01*
X210084Y251261D01*
X210014Y251229D01*
X209965Y251187D01*
X209910Y251154D01*
X209858Y251096D01*
X209800Y251046D01*
X209764Y250992D01*
X209721Y250944D01*
X209688Y250875D01*
X209645Y250810D01*
X209626Y250748D01*
X209598Y250691D01*
X209587Y250621D01*
X209563Y250540D01*
X209562Y250455D01*
X209551Y250386D01*
X209551Y246725D01*
X209564Y246630D01*
X209569Y246534D01*
X209584Y246491D01*
X209591Y246446D01*
X209630Y246358D01*
X209662Y246268D01*
X209687Y246233D01*
X209707Y246189D01*
X209790Y246092D01*
X209843Y246019D01*
X213575Y242287D01*
X213651Y242230D01*
X213723Y242165D01*
X213764Y242145D01*
X213800Y242118D01*
X213890Y242084D01*
X213977Y242042D01*
X214019Y242036D01*
X214064Y242019D01*
X214192Y242009D01*
X214281Y241995D01*
X229387Y241995D01*
X230280Y241102D01*
X230280Y223838D01*
X229387Y222945D01*
X223424Y222945D01*
X223360Y222936D01*
X223296Y222937D01*
X223221Y222916D01*
X223145Y222905D01*
X223086Y222879D01*
X223024Y222862D01*
X222958Y222821D01*
X222888Y222789D01*
X222839Y222747D01*
X222784Y222714D01*
X222732Y222656D01*
X222674Y222606D01*
X222638Y222552D01*
X222595Y222504D01*
X222561Y222435D01*
X222519Y222370D01*
X222500Y222308D01*
X222472Y222251D01*
X222461Y222181D01*
X222437Y222100D01*
X222436Y222015D01*
X222425Y221946D01*
X222425Y216504D01*
X216967Y211047D01*
X216910Y210970D01*
X216845Y210899D01*
X216825Y210858D01*
X216798Y210821D01*
X216764Y210731D01*
X216722Y210645D01*
X216716Y210603D01*
X216699Y210557D01*
X216691Y210457D01*
X216687Y210444D01*
X216686Y210414D01*
X216675Y210340D01*
X216675Y193850D01*
X216688Y193755D01*
X216693Y193659D01*
X216708Y193615D01*
X216715Y193570D01*
X216754Y193483D01*
X216786Y193392D01*
X216811Y193358D01*
X216831Y193314D01*
X216914Y193216D01*
X216967Y193143D01*
X222803Y187307D01*
X224575Y185536D01*
X224575Y179385D01*
X224576Y179376D01*
X224575Y179366D01*
X224596Y179236D01*
X224615Y179106D01*
X224618Y179097D01*
X224620Y179088D01*
X224677Y178968D01*
X224731Y178849D01*
X224737Y178842D01*
X224741Y178833D01*
X224829Y178734D01*
X224914Y178635D01*
X224922Y178630D01*
X224928Y178622D01*
X224994Y178582D01*
X225150Y178480D01*
X225173Y178473D01*
X225192Y178462D01*
X227086Y177677D01*
X229587Y175176D01*
X230941Y171908D01*
X230941Y168371D01*
X229587Y165104D01*
X227086Y162603D01*
X223818Y161249D01*
X220282Y161249D01*
X217014Y162603D01*
X214513Y165104D01*
X213159Y168371D01*
X213159Y171908D01*
X214513Y175176D01*
X217014Y177677D01*
X218908Y178462D01*
X218917Y178467D01*
X218926Y178469D01*
X219038Y178539D01*
X219151Y178606D01*
X219158Y178612D01*
X219166Y178617D01*
X219254Y178715D01*
X219344Y178811D01*
X219348Y178820D01*
X219355Y178827D01*
X219412Y178945D01*
X219472Y179063D01*
X219474Y179072D01*
X219478Y179081D01*
X219490Y179156D01*
X219524Y179340D01*
X219522Y179364D01*
X219525Y179385D01*
X219525Y183030D01*
X219512Y183125D01*
X219507Y183221D01*
X219492Y183265D01*
X219485Y183310D01*
X219446Y183397D01*
X219414Y183488D01*
X219389Y183522D01*
X219369Y183566D01*
X219286Y183664D01*
X219233Y183737D01*
X213397Y189573D01*
X211625Y191344D01*
X211625Y212846D01*
X217083Y218303D01*
X217140Y218380D01*
X217205Y218451D01*
X217225Y218492D01*
X217252Y218529D01*
X217286Y218619D01*
X217328Y218705D01*
X217334Y218747D01*
X217351Y218793D01*
X217361Y218920D01*
X217375Y219010D01*
X217375Y221946D01*
X217366Y222010D01*
X217367Y222074D01*
X217346Y222149D01*
X217335Y222225D01*
X217309Y222284D01*
X217292Y222346D01*
X217251Y222412D01*
X217219Y222482D01*
X217177Y222531D01*
X217144Y222586D01*
X217086Y222638D01*
X217036Y222696D01*
X216982Y222732D01*
X216934Y222775D01*
X216865Y222808D01*
X216800Y222851D01*
X216738Y222870D01*
X216681Y222898D01*
X216611Y222909D01*
X216530Y222933D01*
X216445Y222934D01*
X216376Y222945D01*
X210093Y222945D01*
X209200Y223838D01*
X209200Y239780D01*
X209187Y239875D01*
X209182Y239971D01*
X209167Y240014D01*
X209160Y240059D01*
X209121Y240147D01*
X209089Y240237D01*
X209064Y240272D01*
X209044Y240316D01*
X208961Y240413D01*
X208908Y240486D01*
X204977Y244417D01*
X204977Y272219D01*
X242893Y310135D01*
X245527Y310135D01*
X245622Y310148D01*
X245718Y310153D01*
X245761Y310168D01*
X245806Y310175D01*
X245893Y310214D01*
X245984Y310246D01*
X246019Y310271D01*
X246063Y310291D01*
X246160Y310374D01*
X246233Y310427D01*
X247750Y311943D01*
X247769Y311969D01*
X247793Y311990D01*
X247853Y312082D01*
X247919Y312169D01*
X247930Y312199D01*
X247948Y312226D01*
X247980Y312331D01*
X248018Y312433D01*
X248021Y312465D01*
X248030Y312496D01*
X248032Y312605D01*
X248040Y312714D01*
X248034Y312746D01*
X248034Y312778D01*
X248005Y312883D01*
X247983Y312990D01*
X247967Y313019D01*
X247959Y313050D01*
X247901Y313143D01*
X247850Y313239D01*
X247828Y313262D01*
X247811Y313290D01*
X247730Y313363D01*
X247653Y313441D01*
X247625Y313457D01*
X247601Y313479D01*
X247503Y313526D01*
X247408Y313580D01*
X247377Y313588D01*
X247348Y313602D01*
X247258Y313616D01*
X247133Y313645D01*
X247085Y313643D01*
X247043Y313649D01*
X245682Y313649D01*
X242414Y315003D01*
X239913Y317504D01*
X238559Y320771D01*
X238559Y324308D01*
X239913Y327576D01*
X242414Y330077D01*
X245682Y331431D01*
X249218Y331431D01*
X252486Y330077D01*
X254987Y327576D01*
X255981Y325177D01*
X256041Y325075D01*
X256097Y324970D01*
X256113Y324954D01*
X256125Y324934D01*
X256211Y324853D01*
X256294Y324768D01*
X256314Y324757D01*
X256330Y324741D01*
X256436Y324688D01*
X256539Y324629D01*
X256561Y324624D01*
X256582Y324613D01*
X256698Y324591D01*
X256814Y324564D01*
X256837Y324565D01*
X256859Y324561D01*
X256977Y324572D01*
X257095Y324578D01*
X257117Y324586D01*
X257140Y324588D01*
X257250Y324632D01*
X257362Y324671D01*
X257379Y324684D01*
X257402Y324693D01*
X257548Y324807D01*
X257611Y324853D01*
X267277Y334519D01*
X461935Y334519D01*
X462030Y334532D01*
X462126Y334537D01*
X462169Y334552D01*
X462214Y334559D01*
X462302Y334598D01*
X462392Y334630D01*
X462427Y334655D01*
X462471Y334675D01*
X462568Y334758D01*
X462641Y334811D01*
X486930Y359099D01*
X486949Y359125D01*
X486973Y359146D01*
X487033Y359238D01*
X487099Y359325D01*
X487110Y359355D01*
X487128Y359382D01*
X487160Y359487D01*
X487198Y359589D01*
X487201Y359621D01*
X487210Y359652D01*
X487212Y359761D01*
X487220Y359870D01*
X487214Y359902D01*
X487214Y359934D01*
X487185Y360039D01*
X487163Y360146D01*
X487147Y360175D01*
X487139Y360206D01*
X487081Y360299D01*
X487030Y360395D01*
X487008Y360418D01*
X486991Y360446D01*
X486910Y360519D01*
X486833Y360597D01*
X486805Y360613D01*
X486781Y360635D01*
X486683Y360682D01*
X486588Y360736D01*
X486557Y360744D01*
X486528Y360758D01*
X486438Y360772D01*
X486313Y360801D01*
X486265Y360799D01*
X486223Y360805D01*
X302658Y360805D01*
X298422Y362560D01*
X286987Y373995D01*
X286935Y374034D01*
X286890Y374080D01*
X286823Y374118D01*
X286761Y374164D01*
X286701Y374187D01*
X286645Y374219D01*
X286570Y374236D01*
X286497Y374264D01*
X286433Y374269D01*
X286371Y374284D01*
X286293Y374280D01*
X286216Y374286D01*
X286153Y374273D01*
X286089Y374269D01*
X286016Y374244D01*
X285940Y374228D01*
X285883Y374198D01*
X285822Y374177D01*
X285766Y374135D01*
X285691Y374096D01*
X285630Y374036D01*
X285573Y373995D01*
X260308Y348730D01*
X256072Y346975D01*
X233774Y346975D01*
X233710Y346966D01*
X233646Y346967D01*
X233571Y346946D01*
X233495Y346935D01*
X233436Y346909D01*
X233374Y346892D01*
X233308Y346851D01*
X233238Y346819D01*
X233189Y346777D01*
X233134Y346744D01*
X233082Y346686D01*
X233024Y346636D01*
X232988Y346582D01*
X232945Y346534D01*
X232912Y346465D01*
X232869Y346400D01*
X232850Y346338D01*
X232822Y346281D01*
X232811Y346211D01*
X232787Y346130D01*
X232786Y346045D01*
X232775Y345976D01*
X232775Y326963D01*
X232781Y326921D01*
X232778Y326880D01*
X232798Y326796D01*
X232815Y326683D01*
X232839Y326630D01*
X232851Y326580D01*
X233575Y324832D01*
X233575Y320248D01*
X231820Y316012D01*
X228578Y312770D01*
X224342Y311015D01*
X219758Y311015D01*
X215522Y312770D01*
X211480Y316812D01*
X209725Y321048D01*
X209725Y360792D01*
X210634Y362987D01*
X210645Y363027D01*
X210663Y363065D01*
X210676Y363150D01*
X210704Y363260D01*
X210702Y363319D01*
X210710Y363369D01*
X210710Y367132D01*
X211603Y368025D01*
X214062Y368025D01*
X214157Y368038D01*
X214254Y368043D01*
X214297Y368058D01*
X214342Y368065D01*
X214429Y368104D01*
X214520Y368136D01*
X214554Y368161D01*
X214599Y368181D01*
X214685Y368255D01*
X218958Y370025D01*
X248592Y370025D01*
X248687Y370038D01*
X248784Y370043D01*
X248827Y370058D01*
X248872Y370065D01*
X248959Y370104D01*
X249050Y370136D01*
X249084Y370161D01*
X249129Y370181D01*
X249226Y370264D01*
X249299Y370317D01*
X259065Y380083D01*
X259084Y380109D01*
X259109Y380130D01*
X259169Y380222D01*
X259234Y380309D01*
X259246Y380339D01*
X259263Y380366D01*
X259295Y380470D01*
X259334Y380573D01*
X259336Y380605D01*
X259346Y380636D01*
X259347Y380745D01*
X259356Y380854D01*
X259349Y380886D01*
X259349Y380918D01*
X259320Y381023D01*
X259298Y381130D01*
X259283Y381159D01*
X259274Y381190D01*
X259217Y381283D01*
X259166Y381379D01*
X259143Y381402D01*
X259126Y381430D01*
X259045Y381503D01*
X258969Y381581D01*
X258941Y381597D01*
X258917Y381619D01*
X258819Y381666D01*
X258723Y381720D01*
X258692Y381728D01*
X258663Y381742D01*
X258574Y381756D01*
X258449Y381785D01*
X258400Y381783D01*
X258358Y381789D01*
X258024Y381789D01*
X256074Y382597D01*
X254581Y384090D01*
X254539Y384192D01*
X254534Y384201D01*
X254531Y384210D01*
X254462Y384322D01*
X254395Y384435D01*
X254388Y384442D01*
X254383Y384450D01*
X254286Y384538D01*
X254189Y384628D01*
X254181Y384632D01*
X254174Y384639D01*
X254055Y384696D01*
X253938Y384756D01*
X253929Y384758D01*
X253920Y384762D01*
X253844Y384774D01*
X253661Y384808D01*
X253637Y384806D01*
X253616Y384809D01*
X232789Y384809D01*
X232725Y384800D01*
X232661Y384801D01*
X232586Y384780D01*
X232510Y384769D01*
X232451Y384743D01*
X232389Y384726D01*
X232323Y384685D01*
X232253Y384653D01*
X232204Y384611D01*
X232149Y384578D01*
X232097Y384520D01*
X232039Y384470D01*
X232003Y384416D01*
X231960Y384368D01*
X231927Y384299D01*
X231884Y384234D01*
X231865Y384172D01*
X231837Y384115D01*
X231826Y384045D01*
X231802Y383964D01*
X231801Y383879D01*
X231790Y383810D01*
X231790Y378308D01*
X230897Y377415D01*
X211603Y377415D01*
X210710Y378308D01*
X210710Y395572D01*
X211603Y396465D01*
X230897Y396465D01*
X231790Y395572D01*
X231790Y390382D01*
X231799Y390318D01*
X231798Y390254D01*
X231819Y390179D01*
X231830Y390103D01*
X231856Y390044D01*
X231873Y389982D01*
X231914Y389916D01*
X231946Y389846D01*
X231988Y389797D01*
X232021Y389742D01*
X232079Y389690D01*
X232129Y389632D01*
X232183Y389596D01*
X232231Y389553D01*
X232300Y389520D01*
X232365Y389477D01*
X232427Y389458D01*
X232484Y389430D01*
X232554Y389419D01*
X232635Y389395D01*
X232720Y389394D01*
X232789Y389383D01*
X253616Y389383D01*
X253625Y389384D01*
X253634Y389383D01*
X253764Y389404D01*
X253895Y389423D01*
X253903Y389426D01*
X253913Y389428D01*
X254032Y389485D01*
X254152Y389539D01*
X254159Y389545D01*
X254168Y389549D01*
X254266Y389637D01*
X254366Y389722D01*
X254371Y389730D01*
X254378Y389736D01*
X254418Y389802D01*
X254520Y389958D01*
X254528Y389981D01*
X254539Y390000D01*
X254581Y390102D01*
X256074Y391595D01*
X258024Y392403D01*
X260136Y392403D01*
X262086Y391595D01*
X263579Y390102D01*
X264387Y388152D01*
X264387Y387818D01*
X264391Y387786D01*
X264389Y387753D01*
X264411Y387647D01*
X264427Y387538D01*
X264440Y387509D01*
X264446Y387477D01*
X264498Y387381D01*
X264543Y387281D01*
X264564Y387257D01*
X264579Y387228D01*
X264655Y387150D01*
X264726Y387067D01*
X264753Y387049D01*
X264776Y387026D01*
X264871Y386973D01*
X264962Y386913D01*
X264993Y386903D01*
X265021Y386887D01*
X265128Y386862D01*
X265232Y386830D01*
X265264Y386830D01*
X265295Y386822D01*
X265405Y386828D01*
X265514Y386827D01*
X265545Y386835D01*
X265577Y386837D01*
X265680Y386873D01*
X265786Y386902D01*
X265813Y386919D01*
X265844Y386929D01*
X265917Y386983D01*
X266026Y387050D01*
X266058Y387086D01*
X266093Y387111D01*
X274463Y395481D01*
X274520Y395558D01*
X274585Y395629D01*
X274605Y395670D01*
X274632Y395707D01*
X274666Y395797D01*
X274708Y395883D01*
X274714Y395925D01*
X274731Y395970D01*
X274741Y396098D01*
X274755Y396188D01*
X274755Y420542D01*
X274742Y420637D01*
X274737Y420734D01*
X274722Y420777D01*
X274715Y420822D01*
X274676Y420909D01*
X274644Y421000D01*
X274619Y421034D01*
X274599Y421079D01*
X274516Y421176D01*
X274463Y421249D01*
X273040Y422672D01*
X271285Y426908D01*
X271285Y524872D01*
X273054Y529142D01*
X273115Y529209D01*
X273135Y529250D01*
X273162Y529287D01*
X273196Y529377D01*
X273238Y529463D01*
X273244Y529505D01*
X273261Y529550D01*
X273271Y529678D01*
X273285Y529768D01*
X273285Y531638D01*
X273276Y531702D01*
X273277Y531766D01*
X273256Y531841D01*
X273245Y531917D01*
X273219Y531976D01*
X273202Y532038D01*
X273161Y532104D01*
X273129Y532174D01*
X273087Y532223D01*
X273054Y532278D01*
X272996Y532330D01*
X272946Y532388D01*
X272892Y532424D01*
X272844Y532467D01*
X272775Y532500D01*
X272710Y532543D01*
X272648Y532562D01*
X272591Y532590D01*
X272521Y532601D01*
X272440Y532625D01*
X272355Y532626D01*
X272286Y532637D01*
X269585Y532637D01*
X269490Y532624D01*
X269394Y532619D01*
X269351Y532604D01*
X269306Y532597D01*
X269218Y532558D01*
X269128Y532526D01*
X269093Y532501D01*
X269049Y532481D01*
X268952Y532398D01*
X268879Y532345D01*
X115355Y378821D01*
X115298Y378745D01*
X115233Y378673D01*
X115213Y378632D01*
X115186Y378596D01*
X115152Y378506D01*
X115110Y378419D01*
X115104Y378377D01*
X115087Y378332D01*
X115077Y378204D01*
X115063Y378115D01*
X115063Y211673D01*
X115076Y211578D01*
X115081Y211482D01*
X115096Y211439D01*
X115103Y211394D01*
X115142Y211306D01*
X115174Y211216D01*
X115199Y211181D01*
X115219Y211137D01*
X115302Y211040D01*
X115355Y210967D01*
X160129Y166193D01*
X160167Y166164D01*
X160199Y166129D01*
X160280Y166080D01*
X160355Y166023D01*
X160399Y166007D01*
X160440Y165982D01*
X160531Y165957D01*
X160619Y165924D01*
X160666Y165920D01*
X160712Y165908D01*
X160806Y165909D01*
X160900Y165902D01*
X160946Y165912D01*
X160994Y165913D01*
X161084Y165941D01*
X161176Y165960D01*
X161218Y165982D01*
X161264Y165996D01*
X161342Y166048D01*
X161425Y166092D01*
X161459Y166126D01*
X161499Y166152D01*
X161560Y166223D01*
X161627Y166289D01*
X161650Y166331D01*
X161681Y166367D01*
X161720Y166453D01*
X161766Y166534D01*
X161777Y166581D01*
X161796Y166624D01*
X161809Y166717D01*
X161831Y166809D01*
X161828Y166857D01*
X161835Y166904D01*
X161822Y166985D01*
X161817Y167091D01*
X161795Y167153D01*
X161786Y167208D01*
X161587Y167820D01*
X161536Y168141D01*
X170250Y168141D01*
X170313Y168150D01*
X170378Y168149D01*
X170452Y168170D01*
X170529Y168181D01*
X170588Y168207D01*
X170650Y168224D01*
X170716Y168265D01*
X170786Y168297D01*
X170835Y168339D01*
X170890Y168372D01*
X170941Y168430D01*
X171000Y168480D01*
X171036Y168534D01*
X171079Y168582D01*
X171112Y168651D01*
X171155Y168716D01*
X171174Y168778D01*
X171202Y168835D01*
X171212Y168905D01*
X171237Y168986D01*
X171238Y169071D01*
X171249Y169140D01*
X171249Y170141D01*
X171251Y170141D01*
X171251Y169140D01*
X171260Y169076D01*
X171259Y169012D01*
X171280Y168937D01*
X171291Y168861D01*
X171317Y168802D01*
X171334Y168740D01*
X171375Y168674D01*
X171407Y168604D01*
X171449Y168555D01*
X171482Y168500D01*
X171540Y168448D01*
X171590Y168390D01*
X171644Y168354D01*
X171692Y168311D01*
X171761Y168278D01*
X171826Y168235D01*
X171888Y168216D01*
X171946Y168188D01*
X172015Y168177D01*
X172096Y168153D01*
X172181Y168152D01*
X172250Y168141D01*
X180964Y168141D01*
X180913Y167820D01*
X180431Y166337D01*
X179723Y164948D01*
X178806Y163686D01*
X177704Y162584D01*
X176442Y161667D01*
X175424Y161148D01*
X175385Y161121D01*
X175342Y161101D01*
X175270Y161040D01*
X175194Y160986D01*
X175164Y160949D01*
X175127Y160918D01*
X175076Y160839D01*
X175017Y160766D01*
X174999Y160722D01*
X174973Y160682D01*
X174946Y160592D01*
X174910Y160505D01*
X174905Y160458D01*
X174891Y160412D01*
X174889Y160318D01*
X174879Y160225D01*
X174888Y160178D01*
X174887Y160130D01*
X174912Y160039D01*
X174928Y159947D01*
X174949Y159904D01*
X174962Y159858D01*
X175011Y159778D01*
X175053Y159694D01*
X175085Y159659D01*
X175110Y159618D01*
X175180Y159555D01*
X175243Y159486D01*
X175284Y159461D01*
X175320Y159429D01*
X175404Y159388D01*
X175484Y159340D01*
X175530Y159327D01*
X175573Y159306D01*
X175655Y159294D01*
X175757Y159266D01*
X175822Y159267D01*
X175878Y159259D01*
X183043Y159259D01*
X183138Y159272D01*
X183234Y159277D01*
X183277Y159292D01*
X183322Y159299D01*
X183410Y159338D01*
X183500Y159370D01*
X183535Y159395D01*
X183579Y159415D01*
X183676Y159498D01*
X183749Y159551D01*
X188696Y164498D01*
X188702Y164506D01*
X188709Y164511D01*
X188786Y164618D01*
X188865Y164724D01*
X188869Y164732D01*
X188874Y164740D01*
X188918Y164864D01*
X188965Y164987D01*
X188966Y164997D01*
X188969Y165006D01*
X188976Y165137D01*
X188987Y165269D01*
X188985Y165278D01*
X188985Y165287D01*
X188967Y165363D01*
X188929Y165545D01*
X188918Y165566D01*
X188913Y165587D01*
X187759Y168371D01*
X187759Y171908D01*
X189113Y175176D01*
X191614Y177677D01*
X194882Y179031D01*
X198418Y179031D01*
X201686Y177677D01*
X204187Y175176D01*
X205541Y171908D01*
X205541Y168371D01*
X204187Y165104D01*
X201686Y162603D01*
X198418Y161249D01*
X194882Y161249D01*
X193401Y161863D01*
X193392Y161865D01*
X193383Y161870D01*
X193254Y161900D01*
X193128Y161933D01*
X193118Y161932D01*
X193109Y161935D01*
X192976Y161928D01*
X192846Y161924D01*
X192837Y161921D01*
X192827Y161920D01*
X192703Y161877D01*
X192578Y161836D01*
X192570Y161831D01*
X192561Y161828D01*
X192499Y161782D01*
X192345Y161677D01*
X192329Y161659D01*
X192312Y161646D01*
X185351Y154685D01*
X165169Y154685D01*
X110489Y209365D01*
X110489Y380423D01*
X267277Y537211D01*
X304963Y537211D01*
X305058Y537224D01*
X305154Y537229D01*
X305197Y537244D01*
X305242Y537251D01*
X305330Y537290D01*
X305420Y537322D01*
X305455Y537347D01*
X305499Y537367D01*
X305596Y537450D01*
X305669Y537503D01*
X387926Y619759D01*
X387945Y619785D01*
X387969Y619806D01*
X388029Y619898D01*
X388095Y619985D01*
X388106Y620015D01*
X388124Y620042D01*
X388156Y620147D01*
X388194Y620249D01*
X388197Y620281D01*
X388206Y620312D01*
X388208Y620421D01*
X388216Y620530D01*
X388210Y620562D01*
X388210Y620594D01*
X388181Y620699D01*
X388159Y620806D01*
X388143Y620835D01*
X388135Y620866D01*
X388077Y620959D01*
X388026Y621055D01*
X388004Y621078D01*
X387987Y621106D01*
X387906Y621179D01*
X387829Y621257D01*
X387801Y621273D01*
X387777Y621295D01*
X387679Y621342D01*
X387584Y621396D01*
X387553Y621404D01*
X387524Y621418D01*
X387434Y621432D01*
X387309Y621461D01*
X387261Y621459D01*
X387219Y621465D01*
X387075Y621465D01*
X384478Y622541D01*
X382491Y624528D01*
X381415Y627125D01*
X381415Y629935D01*
X382491Y632532D01*
X384478Y634519D01*
X387075Y635595D01*
X389885Y635595D01*
X392482Y634519D01*
X394469Y632532D01*
X395545Y629935D01*
X395545Y627125D01*
X395487Y626984D01*
X395457Y626870D01*
X395422Y626756D01*
X395422Y626733D01*
X395417Y626711D01*
X395420Y626593D01*
X395419Y626474D01*
X395425Y626452D01*
X395426Y626429D01*
X395462Y626317D01*
X395494Y626202D01*
X395506Y626183D01*
X395513Y626161D01*
X395580Y626063D01*
X395642Y625962D01*
X395659Y625947D01*
X395672Y625928D01*
X395763Y625853D01*
X395851Y625773D01*
X395872Y625763D01*
X395889Y625749D01*
X395998Y625702D01*
X396105Y625650D01*
X396127Y625647D01*
X396149Y625637D01*
X396333Y625615D01*
X396410Y625603D01*
X643723Y625603D01*
X643732Y625604D01*
X643741Y625603D01*
X643871Y625624D01*
X644002Y625643D01*
X644010Y625646D01*
X644020Y625648D01*
X644139Y625705D01*
X644259Y625759D01*
X644266Y625765D01*
X644274Y625769D01*
X644373Y625857D01*
X644473Y625942D01*
X644478Y625950D01*
X644485Y625956D01*
X644525Y626022D01*
X644627Y626178D01*
X644634Y626201D01*
X644646Y626220D01*
X645558Y628422D01*
X647435Y630299D01*
X647445Y630312D01*
X647447Y630314D01*
X647452Y630321D01*
X647455Y630325D01*
X647479Y630346D01*
X647539Y630438D01*
X647605Y630525D01*
X647616Y630555D01*
X647634Y630582D01*
X647666Y630687D01*
X647704Y630789D01*
X647707Y630821D01*
X647716Y630852D01*
X647717Y630961D01*
X647726Y631070D01*
X647719Y631102D01*
X647720Y631134D01*
X647691Y631239D01*
X647668Y631346D01*
X647653Y631375D01*
X647645Y631406D01*
X647587Y631499D01*
X647536Y631595D01*
X647513Y631618D01*
X647496Y631646D01*
X647415Y631719D01*
X647339Y631797D01*
X647311Y631813D01*
X647287Y631835D01*
X647189Y631882D01*
X647094Y631936D01*
X647062Y631944D01*
X647033Y631958D01*
X646944Y631972D01*
X646819Y632001D01*
X646771Y631999D01*
X646729Y632005D01*
X534378Y632005D01*
X530142Y633760D01*
X526900Y637002D01*
X525145Y641238D01*
X525145Y645822D01*
X526900Y650058D01*
X530142Y653300D01*
X534378Y655055D01*
X655172Y655055D01*
X659408Y653300D01*
X660249Y652459D01*
X660326Y652402D01*
X660397Y652337D01*
X660438Y652317D01*
X660475Y652290D01*
X660516Y652275D01*
X661620Y651170D01*
X661628Y651148D01*
X661653Y651114D01*
X661673Y651069D01*
X661756Y650972D01*
X661809Y650899D01*
X662650Y650058D01*
X664405Y645822D01*
X664405Y641238D01*
X662650Y637002D01*
X661809Y636161D01*
X661752Y636084D01*
X661687Y636013D01*
X661667Y635972D01*
X661640Y635935D01*
X661625Y635894D01*
X660520Y634790D01*
X660498Y634782D01*
X660464Y634757D01*
X660419Y634737D01*
X660322Y634654D01*
X660249Y634601D01*
X659408Y633760D01*
X657309Y632890D01*
X657281Y632874D01*
X657250Y632864D01*
X657203Y632831D01*
X657170Y632816D01*
X657138Y632789D01*
X657066Y632747D01*
X657044Y632723D01*
X657017Y632705D01*
X656965Y632641D01*
X656955Y632633D01*
X656946Y632618D01*
X656873Y632541D01*
X656859Y632512D01*
X656838Y632487D01*
X656795Y632387D01*
X656745Y632289D01*
X656739Y632258D01*
X656727Y632228D01*
X656713Y632120D01*
X656693Y632012D01*
X656696Y631980D01*
X656692Y631948D01*
X656710Y631840D01*
X656720Y631732D01*
X656732Y631702D01*
X656737Y631670D01*
X656784Y631571D01*
X656825Y631470D01*
X656844Y631444D01*
X656858Y631415D01*
X656931Y631333D01*
X656998Y631247D01*
X657024Y631229D01*
X657046Y631204D01*
X657123Y631157D01*
X657227Y631082D01*
X657272Y631066D01*
X657309Y631044D01*
X657772Y630852D01*
X660202Y628422D01*
X661517Y625248D01*
X661517Y621812D01*
X660202Y618638D01*
X657772Y616208D01*
X654598Y614893D01*
X651162Y614893D01*
X647988Y616208D01*
X645558Y618638D01*
X644823Y620412D01*
X644818Y620421D01*
X644816Y620430D01*
X644746Y620542D01*
X644679Y620655D01*
X644672Y620662D01*
X644668Y620670D01*
X644569Y620758D01*
X644474Y620848D01*
X644465Y620852D01*
X644458Y620859D01*
X644339Y620916D01*
X644222Y620976D01*
X644213Y620978D01*
X644204Y620982D01*
X644128Y620994D01*
X643945Y621028D01*
X643921Y621026D01*
X643900Y621029D01*
X396077Y621029D01*
X395982Y621016D01*
X395886Y621011D01*
X395843Y620996D01*
X395798Y620989D01*
X395710Y620950D01*
X395620Y620918D01*
X395585Y620893D01*
X395541Y620873D01*
X395444Y620790D01*
X395371Y620737D01*
X309459Y534826D01*
X309440Y534800D01*
X309416Y534779D01*
X309356Y534687D01*
X309290Y534600D01*
X309279Y534570D01*
X309261Y534543D01*
X309229Y534438D01*
X309191Y534336D01*
X309188Y534304D01*
X309179Y534273D01*
X309177Y534164D01*
X309169Y534055D01*
X309175Y534023D01*
X309175Y533991D01*
X309204Y533886D01*
X309226Y533779D01*
X309242Y533750D01*
X309250Y533719D01*
X309308Y533626D01*
X309359Y533530D01*
X309381Y533507D01*
X309398Y533479D01*
X309479Y533406D01*
X309556Y533328D01*
X309584Y533312D01*
X309608Y533290D01*
X309706Y533243D01*
X309801Y533189D01*
X309832Y533181D01*
X309861Y533167D01*
X309951Y533153D01*
X310076Y533124D01*
X310124Y533126D01*
X310166Y533120D01*
X319882Y533120D01*
X320775Y532227D01*
X320775Y512933D01*
X319882Y512040D01*
X315706Y512040D01*
X315642Y512031D01*
X315578Y512032D01*
X315503Y512011D01*
X315427Y512000D01*
X315368Y511974D01*
X315306Y511957D01*
X315240Y511916D01*
X315170Y511884D01*
X315121Y511842D01*
X315066Y511809D01*
X315014Y511751D01*
X314956Y511701D01*
X314920Y511647D01*
X314877Y511599D01*
X314844Y511530D01*
X314801Y511465D01*
X314782Y511403D01*
X314754Y511346D01*
X314743Y511276D01*
X314719Y511195D01*
X314718Y511110D01*
X314707Y511041D01*
X314707Y493613D01*
X314720Y493518D01*
X314725Y493422D01*
X314740Y493379D01*
X314747Y493334D01*
X314786Y493246D01*
X314818Y493156D01*
X314843Y493121D01*
X314863Y493077D01*
X314946Y492980D01*
X314999Y492907D01*
X337459Y470447D01*
X339091Y468815D01*
X339091Y433212D01*
X339092Y433202D01*
X339091Y433193D01*
X339112Y433063D01*
X339131Y432932D01*
X339134Y432924D01*
X339136Y432914D01*
X339193Y432795D01*
X339247Y432675D01*
X339253Y432668D01*
X339257Y432660D01*
X339345Y432561D01*
X339430Y432461D01*
X339438Y432456D01*
X339444Y432449D01*
X339510Y432409D01*
X339666Y432307D01*
X339689Y432300D01*
X339708Y432288D01*
X341082Y431719D01*
X343069Y429732D01*
X344145Y427135D01*
X344145Y424325D01*
X343069Y421728D01*
X341082Y419741D01*
X338485Y418665D01*
X335675Y418665D01*
X333078Y419741D01*
X331091Y421728D01*
X330015Y424325D01*
X330015Y427135D01*
X331091Y429732D01*
X333078Y431719D01*
X333900Y432060D01*
X333909Y432065D01*
X333918Y432067D01*
X334030Y432136D01*
X334143Y432203D01*
X334150Y432210D01*
X334158Y432215D01*
X334246Y432313D01*
X334336Y432409D01*
X334340Y432418D01*
X334347Y432425D01*
X334404Y432543D01*
X334464Y432661D01*
X334466Y432670D01*
X334470Y432678D01*
X334482Y432754D01*
X334516Y432938D01*
X334514Y432962D01*
X334517Y432983D01*
X334517Y466507D01*
X334504Y466602D01*
X334499Y466698D01*
X334484Y466741D01*
X334477Y466786D01*
X334438Y466874D01*
X334406Y466965D01*
X334381Y466999D01*
X334361Y467043D01*
X334278Y467140D01*
X334225Y467213D01*
X323581Y477858D01*
X323555Y477877D01*
X323534Y477901D01*
X323442Y477961D01*
X323355Y478027D01*
X323325Y478038D01*
X323298Y478056D01*
X323193Y478088D01*
X323091Y478126D01*
X323059Y478129D01*
X323028Y478138D01*
X322919Y478140D01*
X322810Y478148D01*
X322778Y478142D01*
X322746Y478142D01*
X322641Y478113D01*
X322534Y478091D01*
X322505Y478075D01*
X322474Y478067D01*
X322381Y478009D01*
X322285Y477958D01*
X322262Y477936D01*
X322234Y477919D01*
X322161Y477838D01*
X322083Y477761D01*
X322067Y477733D01*
X322045Y477709D01*
X321998Y477611D01*
X321944Y477516D01*
X321936Y477485D01*
X321922Y477456D01*
X321908Y477366D01*
X321879Y477241D01*
X321881Y477193D01*
X321875Y477151D01*
X321875Y462133D01*
X320982Y461240D01*
X315706Y461240D01*
X315642Y461231D01*
X315578Y461232D01*
X315503Y461211D01*
X315427Y461200D01*
X315368Y461174D01*
X315306Y461157D01*
X315240Y461116D01*
X315170Y461084D01*
X315121Y461042D01*
X315066Y461009D01*
X315014Y460951D01*
X314956Y460901D01*
X314920Y460847D01*
X314877Y460799D01*
X314844Y460730D01*
X314801Y460665D01*
X314782Y460603D01*
X314754Y460546D01*
X314743Y460476D01*
X314719Y460395D01*
X314718Y460310D01*
X314707Y460241D01*
X314707Y432791D01*
X314708Y432781D01*
X314707Y432772D01*
X314728Y432641D01*
X314747Y432512D01*
X314750Y432503D01*
X314752Y432494D01*
X314809Y432374D01*
X314863Y432255D01*
X314869Y432247D01*
X314873Y432239D01*
X314961Y432140D01*
X315046Y432040D01*
X315054Y432035D01*
X315060Y432028D01*
X315126Y431988D01*
X315282Y431886D01*
X315305Y431879D01*
X315324Y431868D01*
X315682Y431719D01*
X317669Y429732D01*
X318745Y427135D01*
X318745Y424325D01*
X317669Y421728D01*
X315682Y419741D01*
X313085Y418665D01*
X310275Y418665D01*
X307678Y419741D01*
X305691Y421728D01*
X304615Y424325D01*
X304615Y427135D01*
X305691Y429732D01*
X307678Y431719D01*
X309516Y432481D01*
X309524Y432485D01*
X309534Y432488D01*
X309647Y432558D01*
X309759Y432624D01*
X309766Y432631D01*
X309774Y432636D01*
X309862Y432734D01*
X309952Y432830D01*
X309956Y432838D01*
X309963Y432845D01*
X310020Y432964D01*
X310080Y433081D01*
X310082Y433091D01*
X310086Y433099D01*
X310098Y433175D01*
X310132Y433358D01*
X310130Y433382D01*
X310133Y433404D01*
X310133Y460241D01*
X310124Y460305D01*
X310125Y460369D01*
X310104Y460444D01*
X310093Y460520D01*
X310067Y460579D01*
X310050Y460641D01*
X310009Y460707D01*
X309977Y460777D01*
X309935Y460826D01*
X309902Y460881D01*
X309844Y460933D01*
X309794Y460991D01*
X309740Y461027D01*
X309692Y461070D01*
X309623Y461103D01*
X309558Y461146D01*
X309496Y461165D01*
X309439Y461193D01*
X309369Y461204D01*
X309288Y461228D01*
X309203Y461229D01*
X309134Y461240D01*
X303718Y461240D01*
X302825Y462133D01*
X302825Y481427D01*
X303718Y482320D01*
X316706Y482320D01*
X316738Y482324D01*
X316770Y482322D01*
X316877Y482344D01*
X316985Y482360D01*
X317015Y482373D01*
X317046Y482379D01*
X317143Y482431D01*
X317242Y482476D01*
X317267Y482497D01*
X317295Y482512D01*
X317373Y482588D01*
X317456Y482659D01*
X317474Y482686D01*
X317497Y482709D01*
X317551Y482804D01*
X317611Y482895D01*
X317620Y482926D01*
X317636Y482954D01*
X317661Y483061D01*
X317693Y483165D01*
X317694Y483197D01*
X317701Y483228D01*
X317696Y483338D01*
X317697Y483447D01*
X317688Y483478D01*
X317687Y483510D01*
X317651Y483613D01*
X317622Y483719D01*
X317605Y483746D01*
X317594Y483777D01*
X317541Y483850D01*
X317474Y483959D01*
X317438Y483991D01*
X317413Y484026D01*
X310133Y491305D01*
X310133Y511041D01*
X310124Y511105D01*
X310125Y511169D01*
X310104Y511244D01*
X310093Y511320D01*
X310067Y511379D01*
X310050Y511441D01*
X310009Y511507D01*
X309977Y511577D01*
X309935Y511626D01*
X309902Y511681D01*
X309844Y511733D01*
X309794Y511791D01*
X309740Y511827D01*
X309692Y511870D01*
X309623Y511903D01*
X309558Y511946D01*
X309496Y511965D01*
X309439Y511993D01*
X309369Y512004D01*
X309288Y512028D01*
X309203Y512029D01*
X309134Y512040D01*
X302618Y512040D01*
X301725Y512933D01*
X301725Y531638D01*
X301716Y531702D01*
X301717Y531766D01*
X301696Y531841D01*
X301685Y531917D01*
X301659Y531976D01*
X301642Y532038D01*
X301601Y532104D01*
X301569Y532174D01*
X301527Y532223D01*
X301494Y532278D01*
X301436Y532330D01*
X301386Y532388D01*
X301332Y532424D01*
X301284Y532467D01*
X301215Y532500D01*
X301150Y532543D01*
X301088Y532562D01*
X301031Y532590D01*
X300961Y532601D01*
X300880Y532625D01*
X300795Y532626D01*
X300726Y532637D01*
X293334Y532637D01*
X293270Y532628D01*
X293206Y532629D01*
X293131Y532608D01*
X293055Y532597D01*
X292996Y532571D01*
X292934Y532554D01*
X292868Y532513D01*
X292798Y532481D01*
X292749Y532439D01*
X292694Y532406D01*
X292642Y532348D01*
X292584Y532298D01*
X292548Y532244D01*
X292505Y532196D01*
X292472Y532127D01*
X292429Y532062D01*
X292410Y532000D01*
X292382Y531943D01*
X292371Y531873D01*
X292347Y531792D01*
X292346Y531707D01*
X292335Y531638D01*
X292335Y529768D01*
X292348Y529673D01*
X292353Y529576D01*
X292368Y529533D01*
X292375Y529488D01*
X292414Y529401D01*
X292446Y529310D01*
X292471Y529276D01*
X292491Y529231D01*
X292565Y529145D01*
X294335Y524872D01*
X294335Y476927D01*
X294341Y476886D01*
X294338Y476844D01*
X294358Y476760D01*
X294375Y476648D01*
X294399Y476594D01*
X294411Y476544D01*
X295435Y474072D01*
X295435Y469488D01*
X294411Y467016D01*
X294400Y466975D01*
X294382Y466938D01*
X294369Y466853D01*
X294341Y466742D01*
X294343Y466684D01*
X294335Y466633D01*
X294335Y434388D01*
X294348Y434293D01*
X294353Y434196D01*
X294368Y434153D01*
X294375Y434108D01*
X294414Y434021D01*
X294446Y433930D01*
X294471Y433896D01*
X294491Y433851D01*
X294574Y433754D01*
X294627Y433681D01*
X296050Y432258D01*
X297805Y428022D01*
X297805Y396188D01*
X297818Y396093D01*
X297823Y395996D01*
X297838Y395953D01*
X297845Y395908D01*
X297884Y395821D01*
X297916Y395730D01*
X297941Y395696D01*
X297961Y395651D01*
X298044Y395554D01*
X298062Y395529D01*
X298074Y395510D01*
X298080Y395505D01*
X298097Y395481D01*
X309431Y384147D01*
X309508Y384090D01*
X309579Y384025D01*
X309620Y384005D01*
X309657Y383978D01*
X309747Y383944D01*
X309833Y383902D01*
X309875Y383896D01*
X309920Y383879D01*
X310048Y383869D01*
X310138Y383855D01*
X473356Y383855D01*
X473420Y383864D01*
X473484Y383863D01*
X473559Y383884D01*
X473635Y383895D01*
X473694Y383921D01*
X473756Y383938D01*
X473822Y383979D01*
X473892Y384011D01*
X473941Y384053D01*
X473996Y384086D01*
X474048Y384144D01*
X474106Y384194D01*
X474142Y384248D01*
X474185Y384296D01*
X474218Y384365D01*
X474261Y384430D01*
X474280Y384492D01*
X474308Y384549D01*
X474319Y384619D01*
X474343Y384700D01*
X474344Y384785D01*
X474355Y384854D01*
X474355Y404642D01*
X476110Y408878D01*
X489003Y421771D01*
X489060Y421848D01*
X489125Y421919D01*
X489145Y421960D01*
X489172Y421997D01*
X489206Y422087D01*
X489248Y422173D01*
X489254Y422215D01*
X489271Y422260D01*
X489281Y422388D01*
X489295Y422478D01*
X489295Y455412D01*
X491050Y459648D01*
X491483Y460081D01*
X491540Y460158D01*
X491605Y460229D01*
X491625Y460270D01*
X491652Y460307D01*
X491686Y460397D01*
X491728Y460483D01*
X491734Y460525D01*
X491751Y460570D01*
X491761Y460698D01*
X491775Y460788D01*
X491775Y463247D01*
X492668Y464140D01*
X496431Y464140D01*
X496472Y464146D01*
X496514Y464143D01*
X496597Y464163D01*
X496710Y464180D01*
X496764Y464204D01*
X496813Y464216D01*
X499008Y465125D01*
X503592Y465125D01*
X505787Y464216D01*
X505827Y464205D01*
X505865Y464187D01*
X505950Y464174D01*
X506060Y464146D01*
X506119Y464148D01*
X506169Y464140D01*
X510302Y464140D01*
X510366Y464149D01*
X510430Y464148D01*
X510505Y464169D01*
X510581Y464180D01*
X510640Y464206D01*
X510702Y464223D01*
X510768Y464264D01*
X510838Y464296D01*
X510887Y464338D01*
X510942Y464371D01*
X510994Y464429D01*
X511052Y464479D01*
X511088Y464533D01*
X511131Y464581D01*
X511164Y464650D01*
X511207Y464715D01*
X511226Y464777D01*
X511254Y464834D01*
X511265Y464904D01*
X511289Y464985D01*
X511290Y465070D01*
X511301Y465139D01*
X511301Y476435D01*
X597985Y563119D01*
X605191Y563119D01*
X605286Y563132D01*
X605382Y563137D01*
X605425Y563152D01*
X605470Y563159D01*
X605558Y563198D01*
X605648Y563230D01*
X605683Y563255D01*
X605727Y563275D01*
X605824Y563358D01*
X605897Y563411D01*
X608426Y565939D01*
X608445Y565965D01*
X608469Y565986D01*
X608529Y566078D01*
X608595Y566165D01*
X608606Y566195D01*
X608624Y566222D01*
X608656Y566327D01*
X608694Y566429D01*
X608697Y566461D01*
X608706Y566492D01*
X608708Y566601D01*
X608716Y566710D01*
X608710Y566742D01*
X608710Y566774D01*
X608681Y566879D01*
X608659Y566986D01*
X608643Y567015D01*
X608635Y567046D01*
X608577Y567139D01*
X608526Y567235D01*
X608504Y567258D01*
X608487Y567286D01*
X608406Y567359D01*
X608329Y567437D01*
X608301Y567453D01*
X608277Y567475D01*
X608179Y567522D01*
X608084Y567576D01*
X608053Y567584D01*
X608024Y567598D01*
X607934Y567612D01*
X607809Y567641D01*
X607761Y567639D01*
X607719Y567645D01*
X604878Y567645D01*
X600642Y569400D01*
X599709Y570333D01*
X599632Y570390D01*
X599561Y570455D01*
X599520Y570475D01*
X599483Y570502D01*
X599393Y570536D01*
X599307Y570578D01*
X599265Y570584D01*
X599220Y570601D01*
X599092Y570611D01*
X599002Y570625D01*
X396718Y570625D01*
X392482Y572380D01*
X389240Y575622D01*
X387485Y579858D01*
X387485Y584442D01*
X389240Y588678D01*
X392482Y591920D01*
X396718Y593675D01*
X606482Y593675D01*
X610718Y591920D01*
X616940Y585698D01*
X618695Y581462D01*
X618695Y578621D01*
X618699Y578589D01*
X618697Y578557D01*
X618719Y578450D01*
X618735Y578342D01*
X618748Y578312D01*
X618754Y578281D01*
X618806Y578184D01*
X618851Y578085D01*
X618872Y578060D01*
X618887Y578032D01*
X618963Y577954D01*
X619034Y577871D01*
X619061Y577853D01*
X619084Y577830D01*
X619179Y577776D01*
X619270Y577716D01*
X619301Y577707D01*
X619329Y577691D01*
X619436Y577666D01*
X619540Y577634D01*
X619572Y577633D01*
X619603Y577626D01*
X619713Y577631D01*
X619822Y577630D01*
X619853Y577639D01*
X619885Y577640D01*
X619988Y577676D01*
X620094Y577705D01*
X620121Y577722D01*
X620152Y577733D01*
X620225Y577786D01*
X620334Y577853D01*
X620366Y577889D01*
X620401Y577914D01*
X643951Y601465D01*
X644008Y601541D01*
X644073Y601613D01*
X644093Y601654D01*
X644120Y601690D01*
X644154Y601780D01*
X644196Y601866D01*
X644202Y601909D01*
X644219Y601954D01*
X644229Y602082D01*
X644243Y602171D01*
X644243Y605248D01*
X645558Y608422D01*
X647988Y610852D01*
X651162Y612167D01*
X654598Y612167D01*
X657772Y610852D01*
X660202Y608422D01*
X661517Y605248D01*
X661517Y601812D01*
X660202Y598638D01*
X657772Y596208D01*
X654598Y594893D01*
X651162Y594893D01*
X647988Y596208D01*
X647281Y596914D01*
X647230Y596953D01*
X647185Y596999D01*
X647118Y597037D01*
X647056Y597084D01*
X646996Y597106D01*
X646940Y597138D01*
X646864Y597156D01*
X646792Y597183D01*
X646728Y597188D01*
X646665Y597203D01*
X646588Y597199D01*
X646511Y597205D01*
X646448Y597192D01*
X646384Y597189D01*
X646310Y597163D01*
X646235Y597147D01*
X646178Y597117D01*
X646117Y597096D01*
X646061Y597055D01*
X645986Y597015D01*
X645925Y596956D01*
X645868Y596914D01*
X609876Y560923D01*
X609857Y560897D01*
X609833Y560876D01*
X609773Y560784D01*
X609707Y560697D01*
X609696Y560667D01*
X609678Y560640D01*
X609646Y560535D01*
X609608Y560433D01*
X609605Y560401D01*
X609596Y560370D01*
X609594Y560261D01*
X609586Y560152D01*
X609592Y560120D01*
X609592Y560088D01*
X609621Y559983D01*
X609643Y559876D01*
X609659Y559847D01*
X609667Y559816D01*
X609725Y559723D01*
X609776Y559627D01*
X609798Y559604D01*
X609815Y559576D01*
X609896Y559503D01*
X609973Y559425D01*
X610001Y559409D01*
X610025Y559387D01*
X610123Y559340D01*
X610218Y559286D01*
X610249Y559278D01*
X610278Y559264D01*
X610368Y559250D01*
X610493Y559221D01*
X610541Y559223D01*
X610583Y559217D01*
X610877Y559217D01*
X617727Y556379D01*
X622969Y551137D01*
X623679Y549424D01*
X623723Y549350D01*
X623759Y549270D01*
X623795Y549229D01*
X623822Y549182D01*
X623886Y549122D01*
X623942Y549056D01*
X623988Y549026D01*
X624028Y548989D01*
X624105Y548949D01*
X624178Y548902D01*
X624231Y548886D01*
X624280Y548861D01*
X624365Y548845D01*
X624448Y548819D01*
X624503Y548819D01*
X624557Y548808D01*
X624643Y548817D01*
X624730Y548816D01*
X624783Y548830D01*
X624837Y548835D01*
X624918Y548868D01*
X625002Y548891D01*
X625049Y548920D01*
X625099Y548940D01*
X625168Y548993D01*
X625242Y549039D01*
X625278Y549080D01*
X625322Y549113D01*
X625373Y549184D01*
X625431Y549248D01*
X625455Y549298D01*
X625487Y549342D01*
X625516Y549424D01*
X625554Y549502D01*
X625562Y549552D01*
X625581Y549608D01*
X625588Y549721D01*
X625601Y549807D01*
X625601Y554159D01*
X627233Y555791D01*
X647112Y575670D01*
X647151Y575722D01*
X647197Y575767D01*
X647235Y575834D01*
X647282Y575896D01*
X647304Y575956D01*
X647336Y576012D01*
X647354Y576087D01*
X647381Y576160D01*
X647386Y576224D01*
X647401Y576286D01*
X647397Y576364D01*
X647403Y576441D01*
X647390Y576504D01*
X647387Y576568D01*
X647361Y576641D01*
X647345Y576717D01*
X647315Y576774D01*
X647294Y576834D01*
X647253Y576891D01*
X647213Y576966D01*
X647154Y577027D01*
X647112Y577083D01*
X645558Y578638D01*
X644243Y581812D01*
X644243Y585248D01*
X645558Y588422D01*
X647988Y590852D01*
X651162Y592167D01*
X654598Y592167D01*
X657772Y590852D01*
X660202Y588422D01*
X661517Y585248D01*
X661517Y581812D01*
X660202Y578638D01*
X657772Y576208D01*
X654598Y574893D01*
X653217Y574893D01*
X653122Y574880D01*
X653026Y574875D01*
X652983Y574860D01*
X652938Y574853D01*
X652850Y574814D01*
X652759Y574782D01*
X652725Y574757D01*
X652681Y574737D01*
X652584Y574654D01*
X652511Y574601D01*
X651782Y573873D01*
X651763Y573847D01*
X651739Y573826D01*
X651679Y573734D01*
X651613Y573647D01*
X651602Y573617D01*
X651584Y573590D01*
X651552Y573485D01*
X651514Y573383D01*
X651511Y573351D01*
X651502Y573320D01*
X651500Y573211D01*
X651492Y573102D01*
X651498Y573070D01*
X651498Y573038D01*
X651527Y572933D01*
X651549Y572826D01*
X651565Y572797D01*
X651573Y572766D01*
X651631Y572673D01*
X651682Y572577D01*
X651704Y572554D01*
X651721Y572526D01*
X651802Y572453D01*
X651879Y572375D01*
X651907Y572359D01*
X651931Y572337D01*
X652029Y572290D01*
X652124Y572236D01*
X652155Y572228D01*
X652184Y572214D01*
X652274Y572200D01*
X652399Y572171D01*
X652447Y572173D01*
X652489Y572167D01*
X654598Y572167D01*
X657772Y570852D01*
X660202Y568422D01*
X661517Y565248D01*
X661517Y561812D01*
X660202Y558638D01*
X657772Y556208D01*
X654598Y554893D01*
X651162Y554893D01*
X647988Y556208D01*
X645558Y558638D01*
X644243Y561812D01*
X644243Y563921D01*
X644239Y563953D01*
X644241Y563985D01*
X644219Y564092D01*
X644203Y564200D01*
X644190Y564230D01*
X644184Y564261D01*
X644132Y564358D01*
X644087Y564457D01*
X644066Y564482D01*
X644051Y564510D01*
X643975Y564588D01*
X643904Y564671D01*
X643877Y564689D01*
X643854Y564712D01*
X643759Y564766D01*
X643668Y564826D01*
X643637Y564835D01*
X643609Y564851D01*
X643502Y564876D01*
X643398Y564908D01*
X643366Y564909D01*
X643335Y564916D01*
X643225Y564911D01*
X643116Y564912D01*
X643085Y564903D01*
X643053Y564902D01*
X642950Y564866D01*
X642844Y564837D01*
X642817Y564820D01*
X642786Y564809D01*
X642713Y564756D01*
X642604Y564689D01*
X642572Y564653D01*
X642537Y564628D01*
X630467Y552557D01*
X630410Y552481D01*
X630345Y552409D01*
X630325Y552368D01*
X630298Y552332D01*
X630264Y552242D01*
X630222Y552155D01*
X630216Y552113D01*
X630199Y552068D01*
X630189Y551940D01*
X630175Y551851D01*
X630175Y532453D01*
X564552Y466831D01*
X564533Y466805D01*
X564509Y466784D01*
X564449Y466692D01*
X564383Y466605D01*
X564372Y466575D01*
X564354Y466548D01*
X564322Y466443D01*
X564284Y466341D01*
X564281Y466309D01*
X564272Y466278D01*
X564270Y466169D01*
X564262Y466060D01*
X564268Y466028D01*
X564268Y465996D01*
X564297Y465891D01*
X564319Y465784D01*
X564335Y465755D01*
X564343Y465724D01*
X564401Y465631D01*
X564452Y465535D01*
X564474Y465512D01*
X564491Y465484D01*
X564572Y465411D01*
X564649Y465333D01*
X564677Y465317D01*
X564701Y465295D01*
X564799Y465248D01*
X564894Y465194D01*
X564925Y465186D01*
X564954Y465172D01*
X565044Y465158D01*
X565169Y465129D01*
X565217Y465131D01*
X565259Y465125D01*
X615702Y465125D01*
X619938Y463370D01*
X623180Y460128D01*
X624935Y455892D01*
X624935Y451308D01*
X623180Y447072D01*
X619938Y443830D01*
X615702Y442075D01*
X527448Y442075D01*
X525253Y442984D01*
X525213Y442995D01*
X525175Y443013D01*
X525090Y443026D01*
X524980Y443054D01*
X524921Y443052D01*
X524871Y443060D01*
X521108Y443060D01*
X520629Y443540D01*
X520603Y443560D01*
X520582Y443584D01*
X520490Y443644D01*
X520403Y443709D01*
X520373Y443721D01*
X520346Y443738D01*
X520241Y443770D01*
X520139Y443809D01*
X520107Y443811D01*
X520076Y443821D01*
X519967Y443822D01*
X519858Y443831D01*
X519826Y443824D01*
X519794Y443825D01*
X519689Y443795D01*
X519582Y443773D01*
X519553Y443758D01*
X519522Y443749D01*
X519429Y443692D01*
X519333Y443641D01*
X519310Y443618D01*
X519282Y443601D01*
X519209Y443520D01*
X519131Y443444D01*
X519115Y443416D01*
X519093Y443392D01*
X519046Y443294D01*
X518992Y443199D01*
X518984Y443167D01*
X518970Y443138D01*
X518956Y443049D01*
X518927Y442924D01*
X518929Y442876D01*
X518923Y442834D01*
X518923Y428536D01*
X518927Y428504D01*
X518925Y428472D01*
X518947Y428365D01*
X518963Y428257D01*
X518976Y428228D01*
X518982Y428196D01*
X519034Y428100D01*
X519079Y428000D01*
X519100Y427976D01*
X519115Y427947D01*
X519191Y427869D01*
X519262Y427786D01*
X519289Y427768D01*
X519312Y427745D01*
X519407Y427691D01*
X519498Y427632D01*
X519529Y427622D01*
X519557Y427606D01*
X519663Y427581D01*
X519768Y427549D01*
X519800Y427549D01*
X519832Y427541D01*
X519941Y427547D01*
X520050Y427545D01*
X520081Y427554D01*
X520113Y427556D01*
X520216Y427591D01*
X520322Y427621D01*
X520349Y427638D01*
X520380Y427648D01*
X520453Y427702D01*
X520562Y427769D01*
X520594Y427805D01*
X520628Y427830D01*
X524391Y427830D01*
X524432Y427836D01*
X524474Y427833D01*
X524557Y427853D01*
X524670Y427870D01*
X524724Y427894D01*
X524773Y427906D01*
X526968Y428815D01*
X629162Y428815D01*
X633398Y427060D01*
X663760Y396698D01*
X665515Y392462D01*
X665515Y320388D01*
X663760Y316152D01*
X660378Y312770D01*
X658658Y312057D01*
X658583Y312013D01*
X658504Y311977D01*
X658462Y311941D01*
X658415Y311914D01*
X658356Y311850D01*
X658290Y311794D01*
X658260Y311748D01*
X658222Y311708D01*
X658183Y311631D01*
X658135Y311558D01*
X658119Y311505D01*
X658094Y311456D01*
X658078Y311371D01*
X658053Y311288D01*
X658052Y311233D01*
X658042Y311179D01*
X658050Y311093D01*
X658049Y311006D01*
X658064Y310953D01*
X658069Y310899D01*
X658101Y310818D01*
X658124Y310734D01*
X658153Y310687D01*
X658173Y310637D01*
X658227Y310568D01*
X658272Y310494D01*
X658313Y310458D01*
X658347Y310414D01*
X658417Y310363D01*
X658482Y310305D01*
X658531Y310281D01*
X658576Y310249D01*
X658658Y310220D01*
X658736Y310182D01*
X658786Y310174D01*
X658841Y310155D01*
X658955Y310148D01*
X659040Y310135D01*
X797999Y310135D01*
X820713Y287421D01*
X820721Y287415D01*
X820726Y287408D01*
X820833Y287331D01*
X820939Y287252D01*
X820948Y287248D01*
X820955Y287243D01*
X821079Y287199D01*
X821202Y287152D01*
X821212Y287151D01*
X821221Y287148D01*
X821352Y287140D01*
X821484Y287130D01*
X821493Y287132D01*
X821502Y287132D01*
X821578Y287150D01*
X821760Y287188D01*
X821781Y287199D01*
X821802Y287204D01*
X821904Y287247D01*
X824016Y287247D01*
X825966Y286439D01*
X827459Y284946D01*
X828267Y282996D01*
X828267Y280884D01*
X827522Y279086D01*
X827492Y278972D01*
X827458Y278858D01*
X827458Y278835D01*
X827452Y278813D01*
X827456Y278695D01*
X827454Y278576D01*
X827460Y278554D01*
X827461Y278531D01*
X827498Y278419D01*
X827529Y278304D01*
X827541Y278285D01*
X827548Y278263D01*
X827615Y278165D01*
X827677Y278064D01*
X827694Y278049D01*
X827707Y278030D01*
X827799Y277955D01*
X827887Y277875D01*
X827907Y277865D01*
X827925Y277851D01*
X828034Y277804D01*
X828141Y277752D01*
X828162Y277749D01*
X828184Y277739D01*
X828369Y277717D01*
X828445Y277705D01*
X870396Y277705D01*
X870460Y277714D01*
X870524Y277713D01*
X870599Y277734D01*
X870675Y277745D01*
X870734Y277771D01*
X870796Y277788D01*
X870862Y277829D01*
X870932Y277861D01*
X870981Y277903D01*
X871036Y277936D01*
X871088Y277994D01*
X871146Y278044D01*
X871182Y278098D01*
X871225Y278146D01*
X871258Y278215D01*
X871301Y278280D01*
X871320Y278342D01*
X871348Y278399D01*
X871359Y278469D01*
X871383Y278550D01*
X871384Y278635D01*
X871395Y278704D01*
X871395Y298190D01*
X871389Y298231D01*
X871392Y298272D01*
X871373Y298350D01*
X871373Y298351D01*
X871371Y298357D01*
X871355Y298469D01*
X871331Y298522D01*
X871319Y298572D01*
X870473Y300614D01*
X870473Y305566D01*
X871319Y307608D01*
X871330Y307648D01*
X871348Y307686D01*
X871361Y307771D01*
X871389Y307881D01*
X871387Y307940D01*
X871395Y307990D01*
X871395Y325566D01*
X871386Y325630D01*
X871387Y325694D01*
X871366Y325769D01*
X871355Y325845D01*
X871329Y325904D01*
X871312Y325966D01*
X871271Y326032D01*
X871239Y326102D01*
X871197Y326151D01*
X871164Y326206D01*
X871106Y326258D01*
X871056Y326316D01*
X871002Y326352D01*
X870954Y326395D01*
X870885Y326428D01*
X870820Y326471D01*
X870758Y326490D01*
X870701Y326518D01*
X870631Y326529D01*
X870550Y326553D01*
X870465Y326554D01*
X870396Y326565D01*
X827308Y326565D01*
X823072Y328320D01*
X727910Y423482D01*
X726155Y427718D01*
X726155Y432302D01*
X727910Y436538D01*
X731152Y439780D01*
X735388Y441535D01*
X739972Y441535D01*
X744208Y439780D01*
X834081Y349907D01*
X834158Y349850D01*
X834229Y349785D01*
X834270Y349765D01*
X834307Y349738D01*
X834397Y349704D01*
X834483Y349662D01*
X834525Y349656D01*
X834570Y349639D01*
X834698Y349629D01*
X834788Y349615D01*
X878020Y349615D01*
X878061Y349621D01*
X878102Y349618D01*
X878186Y349638D01*
X878299Y349655D01*
X878352Y349679D01*
X878402Y349691D01*
X880444Y350537D01*
X885396Y350537D01*
X889971Y348642D01*
X893472Y345141D01*
X895367Y340566D01*
X895367Y335614D01*
X894521Y333572D01*
X894510Y333532D01*
X894492Y333494D01*
X894481Y333419D01*
X894460Y333351D01*
X894460Y333334D01*
X894451Y333299D01*
X894453Y333240D01*
X894445Y333190D01*
X894445Y307990D01*
X894451Y307949D01*
X894448Y307908D01*
X894468Y307824D01*
X894485Y307711D01*
X894509Y307658D01*
X894521Y307608D01*
X895367Y305566D01*
X895367Y300614D01*
X894521Y298572D01*
X894510Y298532D01*
X894492Y298494D01*
X894479Y298409D01*
X894472Y298382D01*
X894471Y298378D01*
X894471Y298377D01*
X894451Y298299D01*
X894453Y298240D01*
X894445Y298190D01*
X894445Y272990D01*
X894451Y272949D01*
X894448Y272908D01*
X894468Y272824D01*
X894485Y272711D01*
X894509Y272658D01*
X894521Y272608D01*
X895367Y270566D01*
X895367Y265614D01*
X893472Y261039D01*
X893259Y260827D01*
X893234Y260794D01*
X893203Y260766D01*
X893158Y260692D01*
X893090Y260601D01*
X893069Y260546D01*
X893043Y260503D01*
X892690Y259652D01*
X889448Y256410D01*
X885212Y254655D01*
X717938Y254655D01*
X717843Y254642D01*
X717746Y254637D01*
X717703Y254622D01*
X717658Y254615D01*
X717571Y254576D01*
X717480Y254544D01*
X717446Y254519D01*
X717401Y254499D01*
X717304Y254416D01*
X717231Y254363D01*
X674038Y211170D01*
X669802Y209415D01*
X626158Y209415D01*
X621922Y211170D01*
X618680Y214412D01*
X618137Y215722D01*
X618093Y215797D01*
X618057Y215876D01*
X618022Y215917D01*
X617994Y215965D01*
X617930Y216024D01*
X617874Y216090D01*
X617828Y216120D01*
X617788Y216157D01*
X617711Y216197D01*
X617638Y216244D01*
X617585Y216260D01*
X617536Y216285D01*
X617451Y216301D01*
X617368Y216327D01*
X617313Y216327D01*
X617259Y216338D01*
X617173Y216329D01*
X617086Y216330D01*
X617033Y216316D01*
X616979Y216311D01*
X616898Y216278D01*
X616814Y216255D01*
X616768Y216226D01*
X616717Y216206D01*
X616648Y216153D01*
X616574Y216107D01*
X616538Y216066D01*
X616494Y216033D01*
X616443Y215962D01*
X616385Y215898D01*
X616361Y215848D01*
X616329Y215804D01*
X616300Y215722D01*
X616262Y215644D01*
X616254Y215594D01*
X616235Y215538D01*
X616229Y215449D01*
X616227Y215440D01*
X616226Y215414D01*
X616215Y215339D01*
X616215Y191314D01*
X606246Y181345D01*
X591524Y181345D01*
X587357Y185513D01*
X587280Y185570D01*
X587209Y185635D01*
X587168Y185655D01*
X587131Y185682D01*
X587041Y185716D01*
X586955Y185758D01*
X586913Y185764D01*
X586867Y185781D01*
X586740Y185791D01*
X586650Y185805D01*
X572610Y185805D01*
X572515Y185792D01*
X572419Y185787D01*
X572375Y185772D01*
X572330Y185765D01*
X572243Y185726D01*
X572152Y185694D01*
X572118Y185669D01*
X572074Y185649D01*
X571976Y185566D01*
X571903Y185513D01*
X567357Y180967D01*
X567300Y180890D01*
X567235Y180819D01*
X567215Y180778D01*
X567188Y180741D01*
X567154Y180651D01*
X567112Y180565D01*
X567106Y180523D01*
X567089Y180477D01*
X567079Y180350D01*
X567065Y180260D01*
X567065Y172841D01*
X567077Y172755D01*
X567080Y172668D01*
X567097Y172616D01*
X567105Y172562D01*
X567140Y172483D01*
X567167Y172400D01*
X567198Y172355D01*
X567221Y172305D01*
X567277Y172239D01*
X567326Y172167D01*
X567368Y172132D01*
X567404Y172091D01*
X567477Y172043D01*
X567544Y171988D01*
X567594Y171966D01*
X567640Y171936D01*
X567723Y171911D01*
X567803Y171877D01*
X567857Y171870D01*
X567910Y171854D01*
X567997Y171853D01*
X568083Y171842D01*
X568137Y171851D01*
X568192Y171850D01*
X568276Y171873D01*
X568361Y171887D01*
X568411Y171911D01*
X568464Y171925D01*
X568538Y171971D01*
X568616Y172008D01*
X568657Y172045D01*
X568704Y172073D01*
X568762Y172138D01*
X568827Y172195D01*
X568853Y172239D01*
X568893Y172283D01*
X568942Y172385D01*
X568987Y172459D01*
X570113Y175176D01*
X572614Y177677D01*
X575882Y179031D01*
X579418Y179031D01*
X582686Y177677D01*
X585187Y175176D01*
X586541Y171908D01*
X586541Y168371D01*
X585187Y165104D01*
X582686Y162603D01*
X579418Y161249D01*
X575882Y161249D01*
X572614Y162603D01*
X570113Y165104D01*
X568987Y167821D01*
X568943Y167896D01*
X568907Y167975D01*
X568872Y168017D01*
X568844Y168064D01*
X568780Y168123D01*
X568724Y168189D01*
X568678Y168220D01*
X568638Y168257D01*
X568561Y168296D01*
X568488Y168344D01*
X568435Y168360D01*
X568386Y168385D01*
X568301Y168401D01*
X568218Y168426D01*
X568163Y168427D01*
X568109Y168437D01*
X568023Y168429D01*
X567936Y168430D01*
X567883Y168415D01*
X567829Y168410D01*
X567748Y168378D01*
X567664Y168355D01*
X567617Y168326D01*
X567567Y168306D01*
X567498Y168252D01*
X567424Y168207D01*
X567388Y168166D01*
X567344Y168132D01*
X567293Y168062D01*
X567235Y167997D01*
X567211Y167948D01*
X567179Y167903D01*
X567150Y167822D01*
X567112Y167744D01*
X567104Y167693D01*
X567085Y167638D01*
X567078Y167524D01*
X567065Y167439D01*
X567065Y155894D01*
X557417Y146247D01*
X557360Y146170D01*
X557295Y146099D01*
X557275Y146058D01*
X557248Y146021D01*
X557214Y145931D01*
X557172Y145845D01*
X557166Y145803D01*
X557149Y145757D01*
X557139Y145630D01*
X557125Y145540D01*
X557125Y123324D01*
X557133Y123263D01*
X557133Y123227D01*
X557133Y123225D01*
X557133Y123196D01*
X557154Y123121D01*
X557165Y123045D01*
X557191Y122986D01*
X557208Y122924D01*
X557249Y122858D01*
X557281Y122788D01*
X557323Y122739D01*
X557356Y122684D01*
X557414Y122632D01*
X557464Y122574D01*
X557518Y122538D01*
X557566Y122495D01*
X557635Y122462D01*
X557700Y122419D01*
X557762Y122400D01*
X557819Y122372D01*
X557889Y122361D01*
X557970Y122337D01*
X558055Y122336D01*
X558124Y122325D01*
X562732Y122325D01*
X563625Y121432D01*
X563625Y105394D01*
X563634Y105330D01*
X563633Y105266D01*
X563654Y105191D01*
X563665Y105115D01*
X563691Y105056D01*
X563708Y104994D01*
X563749Y104928D01*
X563781Y104858D01*
X563823Y104809D01*
X563856Y104754D01*
X563914Y104702D01*
X563964Y104644D01*
X564018Y104608D01*
X564066Y104565D01*
X564135Y104532D01*
X564200Y104489D01*
X564262Y104470D01*
X564319Y104442D01*
X564389Y104431D01*
X564470Y104407D01*
X564555Y104406D01*
X564624Y104395D01*
X599176Y104395D01*
X599240Y104404D01*
X599304Y104403D01*
X599379Y104424D01*
X599455Y104435D01*
X599514Y104461D01*
X599576Y104478D01*
X599642Y104519D01*
X599712Y104551D01*
X599761Y104593D01*
X599816Y104626D01*
X599868Y104684D01*
X599926Y104734D01*
X599962Y104788D01*
X600005Y104836D01*
X600038Y104905D01*
X600081Y104970D01*
X600100Y105032D01*
X600128Y105089D01*
X600139Y105159D01*
X600163Y105240D01*
X600164Y105325D01*
X600175Y105394D01*
X600175Y111014D01*
X600166Y111078D01*
X600167Y111142D01*
X600146Y111217D01*
X600135Y111293D01*
X600109Y111352D01*
X600092Y111414D01*
X600051Y111480D01*
X600019Y111550D01*
X599977Y111599D01*
X599944Y111654D01*
X599886Y111706D01*
X599836Y111764D01*
X599782Y111800D01*
X599734Y111843D01*
X599665Y111876D01*
X599600Y111919D01*
X599538Y111938D01*
X599481Y111966D01*
X599411Y111977D01*
X599330Y112001D01*
X599245Y112002D01*
X599176Y112013D01*
X584584Y112013D01*
X584575Y112012D01*
X584566Y112013D01*
X584436Y111992D01*
X584305Y111973D01*
X584297Y111970D01*
X584287Y111968D01*
X584168Y111911D01*
X584048Y111857D01*
X584041Y111851D01*
X584032Y111847D01*
X583934Y111759D01*
X583834Y111674D01*
X583829Y111666D01*
X583822Y111660D01*
X583782Y111594D01*
X583680Y111438D01*
X583672Y111415D01*
X583661Y111396D01*
X583619Y111294D01*
X582126Y109801D01*
X580176Y108993D01*
X578064Y108993D01*
X576114Y109801D01*
X574621Y111294D01*
X573813Y113244D01*
X573813Y115356D01*
X574621Y117306D01*
X576114Y118799D01*
X578064Y119607D01*
X580176Y119607D01*
X582126Y118799D01*
X583619Y117306D01*
X583661Y117204D01*
X583666Y117195D01*
X583669Y117186D01*
X583738Y117074D01*
X583805Y116961D01*
X583812Y116954D01*
X583817Y116946D01*
X583914Y116858D01*
X584011Y116768D01*
X584019Y116764D01*
X584026Y116757D01*
X584145Y116700D01*
X584262Y116640D01*
X584271Y116638D01*
X584280Y116634D01*
X584356Y116622D01*
X584539Y116588D01*
X584563Y116590D01*
X584584Y116587D01*
X599176Y116587D01*
X599240Y116596D01*
X599304Y116595D01*
X599379Y116616D01*
X599455Y116627D01*
X599514Y116653D01*
X599576Y116670D01*
X599642Y116711D01*
X599712Y116743D01*
X599761Y116785D01*
X599816Y116818D01*
X599868Y116876D01*
X599926Y116926D01*
X599962Y116980D01*
X600005Y117028D01*
X600038Y117097D01*
X600081Y117162D01*
X600100Y117224D01*
X600128Y117281D01*
X600139Y117351D01*
X600163Y117432D01*
X600164Y117517D01*
X600175Y117586D01*
X600175Y121872D01*
X601068Y122765D01*
X617332Y122765D01*
X618225Y121872D01*
X618225Y105394D01*
X618234Y105330D01*
X618233Y105266D01*
X618254Y105191D01*
X618265Y105115D01*
X618291Y105056D01*
X618308Y104994D01*
X618349Y104928D01*
X618381Y104858D01*
X618423Y104809D01*
X618456Y104754D01*
X618514Y104702D01*
X618564Y104644D01*
X618618Y104608D01*
X618666Y104565D01*
X618735Y104532D01*
X618800Y104489D01*
X618862Y104470D01*
X618919Y104442D01*
X618989Y104431D01*
X619070Y104407D01*
X619155Y104406D01*
X619224Y104395D01*
X623479Y104395D01*
X623574Y104408D01*
X623670Y104413D01*
X623713Y104428D01*
X623758Y104435D01*
X623846Y104474D01*
X623936Y104506D01*
X623971Y104531D01*
X624015Y104551D01*
X624112Y104634D01*
X624185Y104687D01*
X633037Y113539D01*
X799523Y113539D01*
X808377Y104685D01*
X808385Y104679D01*
X808391Y104672D01*
X808497Y104594D01*
X808603Y104516D01*
X808612Y104512D01*
X808619Y104507D01*
X808743Y104463D01*
X808867Y104416D01*
X808876Y104415D01*
X808885Y104412D01*
X809016Y104404D01*
X809148Y104394D01*
X809157Y104396D01*
X809166Y104396D01*
X809242Y104414D01*
X809424Y104452D01*
X809445Y104463D01*
X809466Y104468D01*
X813494Y106137D01*
X818446Y106137D01*
X823021Y104242D01*
X826522Y100741D01*
X828417Y96166D01*
X828417Y91214D01*
X826522Y86639D01*
X823021Y83138D01*
X818446Y81243D01*
X813494Y81243D01*
X808919Y83138D01*
X805418Y86639D01*
X803523Y91214D01*
X803523Y96166D01*
X805290Y100432D01*
X805293Y100441D01*
X805297Y100449D01*
X805328Y100578D01*
X805360Y100705D01*
X805360Y100714D01*
X805362Y100723D01*
X805355Y100856D01*
X805351Y100987D01*
X805348Y100996D01*
X805348Y101005D01*
X805305Y101130D01*
X805264Y101255D01*
X805258Y101263D01*
X805255Y101272D01*
X805210Y101334D01*
X805105Y101488D01*
X805086Y101503D01*
X805074Y101520D01*
X797921Y108673D01*
X797845Y108730D01*
X797773Y108795D01*
X797732Y108815D01*
X797696Y108842D01*
X797606Y108876D01*
X797519Y108918D01*
X797477Y108924D01*
X797432Y108941D01*
X797304Y108951D01*
X797215Y108965D01*
X771457Y108965D01*
X771425Y108961D01*
X771393Y108963D01*
X771286Y108941D01*
X771178Y108925D01*
X771148Y108912D01*
X771117Y108906D01*
X771020Y108854D01*
X770921Y108809D01*
X770896Y108788D01*
X770868Y108773D01*
X770790Y108697D01*
X770707Y108626D01*
X770689Y108599D01*
X770666Y108576D01*
X770612Y108481D01*
X770552Y108390D01*
X770543Y108359D01*
X770527Y108331D01*
X770502Y108224D01*
X770470Y108120D01*
X770469Y108088D01*
X770462Y108057D01*
X770467Y107947D01*
X770466Y107838D01*
X770475Y107807D01*
X770476Y107775D01*
X770512Y107672D01*
X770541Y107566D01*
X770558Y107539D01*
X770569Y107508D01*
X770622Y107435D01*
X770689Y107326D01*
X770725Y107294D01*
X770750Y107259D01*
X773340Y104670D01*
X773348Y104664D01*
X773354Y104656D01*
X773461Y104579D01*
X773566Y104500D01*
X773575Y104497D01*
X773582Y104491D01*
X773706Y104447D01*
X773830Y104401D01*
X773839Y104400D01*
X773848Y104397D01*
X773980Y104389D01*
X774111Y104379D01*
X774120Y104381D01*
X774130Y104380D01*
X774205Y104399D01*
X774387Y104437D01*
X774408Y104448D01*
X774429Y104453D01*
X778494Y106137D01*
X783446Y106137D01*
X788021Y104242D01*
X791522Y100741D01*
X793417Y96166D01*
X793417Y91214D01*
X791522Y86639D01*
X788021Y83138D01*
X783446Y81243D01*
X778494Y81243D01*
X773919Y83138D01*
X770418Y86639D01*
X768523Y91214D01*
X768523Y96166D01*
X770275Y100395D01*
X770277Y100404D01*
X770282Y100412D01*
X770313Y100541D01*
X770345Y100668D01*
X770345Y100677D01*
X770347Y100687D01*
X770340Y100819D01*
X770336Y100950D01*
X770333Y100959D01*
X770333Y100968D01*
X770289Y101093D01*
X770249Y101218D01*
X770243Y101226D01*
X770240Y101235D01*
X770195Y101297D01*
X770090Y101451D01*
X770071Y101466D01*
X770058Y101484D01*
X765917Y105625D01*
X765841Y105682D01*
X765769Y105747D01*
X765728Y105767D01*
X765692Y105794D01*
X765602Y105828D01*
X765515Y105870D01*
X765473Y105876D01*
X765428Y105893D01*
X765300Y105903D01*
X765211Y105917D01*
X753757Y105917D01*
X753726Y105913D01*
X753693Y105915D01*
X753586Y105893D01*
X753478Y105877D01*
X753449Y105864D01*
X753417Y105858D01*
X753321Y105806D01*
X753221Y105761D01*
X753197Y105740D01*
X753168Y105725D01*
X753090Y105649D01*
X753007Y105578D01*
X752989Y105551D01*
X752966Y105528D01*
X752912Y105433D01*
X752853Y105342D01*
X752843Y105311D01*
X752827Y105283D01*
X752802Y105177D01*
X752770Y105072D01*
X752770Y105040D01*
X752762Y105009D01*
X752768Y104899D01*
X752766Y104790D01*
X752775Y104759D01*
X752777Y104727D01*
X752812Y104624D01*
X752842Y104518D01*
X752859Y104491D01*
X752869Y104460D01*
X752922Y104387D01*
X752990Y104278D01*
X753026Y104246D01*
X753051Y104211D01*
X756522Y100741D01*
X758417Y96166D01*
X758417Y91214D01*
X756522Y86639D01*
X753021Y83138D01*
X748446Y81243D01*
X743494Y81243D01*
X738919Y83138D01*
X735418Y86639D01*
X733523Y91214D01*
X733523Y96166D01*
X735418Y100741D01*
X738889Y104211D01*
X738908Y104237D01*
X738933Y104258D01*
X738993Y104350D01*
X739058Y104437D01*
X739070Y104467D01*
X739087Y104494D01*
X739119Y104599D01*
X739158Y104701D01*
X739160Y104733D01*
X739170Y104764D01*
X739171Y104873D01*
X739180Y104982D01*
X739173Y105014D01*
X739174Y105046D01*
X739144Y105151D01*
X739122Y105258D01*
X739107Y105287D01*
X739098Y105318D01*
X739041Y105411D01*
X738990Y105507D01*
X738967Y105530D01*
X738950Y105558D01*
X738869Y105631D01*
X738793Y105709D01*
X738765Y105725D01*
X738741Y105747D01*
X738643Y105794D01*
X738548Y105848D01*
X738516Y105856D01*
X738487Y105870D01*
X738398Y105884D01*
X738273Y105913D01*
X738225Y105911D01*
X738183Y105917D01*
X718757Y105917D01*
X718726Y105913D01*
X718693Y105915D01*
X718586Y105893D01*
X718478Y105877D01*
X718449Y105864D01*
X718417Y105858D01*
X718321Y105806D01*
X718221Y105761D01*
X718197Y105740D01*
X718168Y105725D01*
X718090Y105649D01*
X718007Y105578D01*
X717989Y105551D01*
X717966Y105528D01*
X717912Y105433D01*
X717853Y105342D01*
X717843Y105311D01*
X717827Y105283D01*
X717802Y105177D01*
X717770Y105072D01*
X717770Y105040D01*
X717762Y105009D01*
X717768Y104899D01*
X717766Y104790D01*
X717775Y104759D01*
X717777Y104727D01*
X717812Y104624D01*
X717842Y104518D01*
X717859Y104491D01*
X717869Y104460D01*
X717922Y104387D01*
X717990Y104278D01*
X718026Y104246D01*
X718051Y104211D01*
X721522Y100741D01*
X723417Y96166D01*
X723417Y91214D01*
X721522Y86639D01*
X718021Y83138D01*
X713446Y81243D01*
X708494Y81243D01*
X703919Y83138D01*
X700418Y86639D01*
X698523Y91214D01*
X698523Y96166D01*
X700418Y100741D01*
X703889Y104211D01*
X703908Y104237D01*
X703933Y104258D01*
X703993Y104350D01*
X704058Y104437D01*
X704070Y104467D01*
X704087Y104494D01*
X704119Y104599D01*
X704158Y104701D01*
X704160Y104733D01*
X704170Y104764D01*
X704171Y104873D01*
X704180Y104982D01*
X704173Y105014D01*
X704174Y105046D01*
X704144Y105151D01*
X704122Y105258D01*
X704107Y105287D01*
X704098Y105318D01*
X704041Y105411D01*
X703990Y105507D01*
X703967Y105530D01*
X703950Y105558D01*
X703869Y105631D01*
X703793Y105709D01*
X703765Y105725D01*
X703741Y105747D01*
X703643Y105794D01*
X703548Y105848D01*
X703516Y105856D01*
X703487Y105870D01*
X703398Y105884D01*
X703273Y105913D01*
X703225Y105911D01*
X703183Y105917D01*
X683757Y105917D01*
X683726Y105913D01*
X683693Y105915D01*
X683586Y105893D01*
X683478Y105877D01*
X683449Y105864D01*
X683417Y105858D01*
X683321Y105806D01*
X683221Y105761D01*
X683197Y105740D01*
X683168Y105725D01*
X683090Y105649D01*
X683007Y105578D01*
X682989Y105551D01*
X682966Y105528D01*
X682912Y105433D01*
X682853Y105342D01*
X682843Y105311D01*
X682827Y105283D01*
X682802Y105177D01*
X682770Y105072D01*
X682770Y105040D01*
X682762Y105009D01*
X682768Y104899D01*
X682766Y104790D01*
X682775Y104759D01*
X682777Y104727D01*
X682812Y104624D01*
X682842Y104518D01*
X682859Y104491D01*
X682869Y104460D01*
X682922Y104387D01*
X682990Y104278D01*
X683026Y104246D01*
X683051Y104211D01*
X686522Y100741D01*
X688417Y96166D01*
X688417Y91214D01*
X686522Y86639D01*
X683021Y83138D01*
X678446Y81243D01*
X673494Y81243D01*
X669268Y82994D01*
X669259Y82996D01*
X669251Y83001D01*
X669122Y83031D01*
X668995Y83064D01*
X668986Y83064D01*
X668976Y83066D01*
X668844Y83059D01*
X668713Y83055D01*
X668704Y83052D01*
X668695Y83051D01*
X668570Y83008D01*
X668445Y82967D01*
X668437Y82962D01*
X668428Y82959D01*
X668366Y82913D01*
X668212Y82808D01*
X668197Y82790D01*
X668179Y82777D01*
X662363Y76961D01*
X634561Y76961D01*
X622661Y88861D01*
X622585Y88918D01*
X622513Y88983D01*
X622472Y89003D01*
X622436Y89030D01*
X622346Y89064D01*
X622259Y89106D01*
X622217Y89112D01*
X622172Y89129D01*
X622044Y89139D01*
X621955Y89153D01*
X619683Y89153D01*
X619640Y89147D01*
X619597Y89150D01*
X619501Y89127D01*
X619403Y89113D01*
X619364Y89096D01*
X619322Y89086D01*
X619236Y89038D01*
X619146Y88997D01*
X619114Y88969D01*
X619076Y88948D01*
X619007Y88878D01*
X618932Y88814D01*
X618909Y88778D01*
X618878Y88747D01*
X618832Y88661D01*
X618778Y88578D01*
X618765Y88537D01*
X618745Y88499D01*
X618724Y88403D01*
X618695Y88308D01*
X618695Y88265D01*
X618686Y88223D01*
X618693Y88125D01*
X618692Y88026D01*
X618703Y87985D01*
X618706Y87942D01*
X618737Y87862D01*
X618767Y87754D01*
X618798Y87703D01*
X618817Y87654D01*
X619068Y87221D01*
X619241Y86575D01*
X619241Y80739D01*
X610200Y80739D01*
X610136Y80730D01*
X610072Y80731D01*
X609998Y80710D01*
X609921Y80699D01*
X609862Y80673D01*
X609800Y80656D01*
X609734Y80615D01*
X609664Y80583D01*
X609615Y80541D01*
X609560Y80508D01*
X609509Y80450D01*
X609450Y80400D01*
X609414Y80346D01*
X609371Y80298D01*
X609338Y80229D01*
X609295Y80164D01*
X609276Y80102D01*
X609248Y80045D01*
X609238Y79975D01*
X609213Y79894D01*
X609212Y79809D01*
X609201Y79740D01*
X609201Y78739D01*
X609199Y78739D01*
X609199Y79740D01*
X609190Y79804D01*
X609191Y79868D01*
X609170Y79943D01*
X609159Y80019D01*
X609133Y80078D01*
X609116Y80140D01*
X609075Y80206D01*
X609043Y80276D01*
X609001Y80325D01*
X608968Y80380D01*
X608910Y80432D01*
X608860Y80490D01*
X608806Y80526D01*
X608758Y80569D01*
X608689Y80602D01*
X608624Y80645D01*
X608562Y80664D01*
X608504Y80692D01*
X608435Y80702D01*
X608354Y80727D01*
X608269Y80728D01*
X608200Y80739D01*
X599159Y80739D01*
X599159Y86575D01*
X599332Y87221D01*
X599583Y87654D01*
X599599Y87694D01*
X599622Y87730D01*
X599651Y87825D01*
X599688Y87916D01*
X599692Y87959D01*
X599705Y88000D01*
X599706Y88098D01*
X599716Y88197D01*
X599708Y88239D01*
X599708Y88282D01*
X599682Y88377D01*
X599664Y88474D01*
X599645Y88512D01*
X599633Y88554D01*
X599581Y88638D01*
X599537Y88726D01*
X599508Y88757D01*
X599485Y88794D01*
X599412Y88860D01*
X599345Y88932D01*
X599308Y88954D01*
X599276Y88983D01*
X599187Y89026D01*
X599102Y89076D01*
X599061Y89087D01*
X599022Y89106D01*
X598938Y89119D01*
X598829Y89147D01*
X598769Y89145D01*
X598717Y89153D01*
X564752Y89153D01*
X564720Y89149D01*
X564688Y89151D01*
X564581Y89129D01*
X564473Y89113D01*
X564444Y89100D01*
X564412Y89094D01*
X564316Y89042D01*
X564216Y88997D01*
X564192Y88976D01*
X564163Y88961D01*
X564085Y88885D01*
X564002Y88814D01*
X563984Y88787D01*
X563961Y88764D01*
X563907Y88669D01*
X563847Y88578D01*
X563838Y88547D01*
X563822Y88519D01*
X563797Y88412D01*
X563765Y88308D01*
X563765Y88276D01*
X563757Y88244D01*
X563763Y88135D01*
X563761Y88026D01*
X563770Y87995D01*
X563771Y87963D01*
X563807Y87860D01*
X563836Y87754D01*
X563853Y87727D01*
X563864Y87696D01*
X563917Y87623D01*
X563985Y87514D01*
X564021Y87482D01*
X564046Y87447D01*
X564133Y87360D01*
X564468Y86781D01*
X564641Y86135D01*
X564641Y80299D01*
X555600Y80299D01*
X555536Y80290D01*
X555472Y80291D01*
X555398Y80270D01*
X555321Y80259D01*
X555262Y80233D01*
X555200Y80216D01*
X555134Y80175D01*
X555064Y80143D01*
X555015Y80101D01*
X554960Y80068D01*
X554909Y80010D01*
X554850Y79960D01*
X554814Y79906D01*
X554771Y79858D01*
X554738Y79789D01*
X554695Y79724D01*
X554676Y79662D01*
X554648Y79605D01*
X554638Y79535D01*
X554613Y79454D01*
X554612Y79369D01*
X554601Y79300D01*
X554601Y78299D01*
X554599Y78299D01*
X554599Y79300D01*
X554590Y79364D01*
X554591Y79428D01*
X554570Y79503D01*
X554559Y79579D01*
X554533Y79638D01*
X554516Y79700D01*
X554475Y79766D01*
X554443Y79836D01*
X554401Y79885D01*
X554368Y79940D01*
X554310Y79992D01*
X554260Y80050D01*
X554206Y80086D01*
X554158Y80129D01*
X554089Y80162D01*
X554024Y80205D01*
X553962Y80224D01*
X553904Y80252D01*
X553835Y80262D01*
X553754Y80287D01*
X553669Y80288D01*
X553600Y80299D01*
X544559Y80299D01*
X544559Y86135D01*
X544732Y86781D01*
X545067Y87360D01*
X545154Y87447D01*
X545174Y87473D01*
X545198Y87494D01*
X545258Y87586D01*
X545324Y87673D01*
X545335Y87703D01*
X545353Y87730D01*
X545385Y87835D01*
X545423Y87937D01*
X545426Y87969D01*
X545435Y88000D01*
X545436Y88109D01*
X545445Y88218D01*
X545438Y88250D01*
X545439Y88282D01*
X545410Y88387D01*
X545387Y88494D01*
X545372Y88523D01*
X545364Y88554D01*
X545306Y88647D01*
X545255Y88743D01*
X545232Y88766D01*
X545215Y88794D01*
X545134Y88867D01*
X545058Y88945D01*
X545030Y88961D01*
X545006Y88983D01*
X544908Y89030D01*
X544813Y89084D01*
X544781Y89092D01*
X544752Y89106D01*
X544663Y89120D01*
X544538Y89149D01*
X544490Y89147D01*
X544448Y89153D01*
X507703Y89153D01*
X507692Y89152D01*
X507681Y89153D01*
X507552Y89132D01*
X507423Y89113D01*
X507414Y89109D01*
X507403Y89107D01*
X507285Y89051D01*
X507167Y88997D01*
X507158Y88990D01*
X507149Y88986D01*
X507051Y88899D01*
X506952Y88814D01*
X506946Y88805D01*
X506938Y88798D01*
X506870Y88688D01*
X506798Y88578D01*
X506795Y88567D01*
X506789Y88558D01*
X506753Y88433D01*
X506715Y88308D01*
X506715Y88297D01*
X506712Y88287D01*
X506713Y88156D01*
X506712Y88026D01*
X506715Y88016D01*
X506715Y88005D01*
X506752Y87880D01*
X506787Y87754D01*
X506793Y87745D01*
X506796Y87735D01*
X506866Y87626D01*
X506935Y87514D01*
X506943Y87507D01*
X506949Y87498D01*
X507048Y87413D01*
X507144Y87325D01*
X507154Y87321D01*
X507162Y87314D01*
X507236Y87281D01*
X507398Y87202D01*
X507422Y87199D01*
X507444Y87189D01*
X507561Y87158D01*
X508140Y86823D01*
X508613Y86350D01*
X508948Y85771D01*
X509121Y85125D01*
X509121Y79289D01*
X500080Y79289D01*
X500016Y79280D01*
X499952Y79281D01*
X499878Y79260D01*
X499801Y79249D01*
X499742Y79223D01*
X499680Y79206D01*
X499614Y79165D01*
X499544Y79133D01*
X499495Y79091D01*
X499440Y79058D01*
X499389Y79000D01*
X499330Y78950D01*
X499294Y78896D01*
X499251Y78848D01*
X499218Y78779D01*
X499175Y78714D01*
X499156Y78652D01*
X499128Y78595D01*
X499118Y78525D01*
X499093Y78444D01*
X499092Y78359D01*
X499081Y78290D01*
X499081Y77289D01*
X499079Y77289D01*
X499079Y78290D01*
X499070Y78354D01*
X499071Y78418D01*
X499050Y78493D01*
X499039Y78569D01*
X499013Y78628D01*
X498996Y78690D01*
X498955Y78756D01*
X498923Y78826D01*
X498881Y78875D01*
X498848Y78930D01*
X498790Y78982D01*
X498740Y79040D01*
X498686Y79076D01*
X498638Y79119D01*
X498569Y79152D01*
X498504Y79195D01*
X498442Y79214D01*
X498384Y79242D01*
X498315Y79252D01*
X498234Y79277D01*
X498149Y79278D01*
X498080Y79289D01*
X489039Y79289D01*
X489039Y85125D01*
X489212Y85771D01*
X489547Y86350D01*
X490020Y86823D01*
X490599Y87158D01*
X490716Y87189D01*
X490726Y87193D01*
X490737Y87195D01*
X490855Y87248D01*
X490975Y87299D01*
X490984Y87306D01*
X490993Y87311D01*
X491092Y87395D01*
X491193Y87478D01*
X491200Y87487D01*
X491208Y87494D01*
X491279Y87604D01*
X491353Y87711D01*
X491356Y87721D01*
X491362Y87730D01*
X491400Y87855D01*
X491441Y87979D01*
X491441Y87990D01*
X491445Y88000D01*
X491446Y88130D01*
X491451Y88261D01*
X491448Y88271D01*
X491448Y88282D01*
X491414Y88407D01*
X491382Y88534D01*
X491376Y88543D01*
X491373Y88554D01*
X491305Y88664D01*
X491239Y88777D01*
X491231Y88784D01*
X491225Y88794D01*
X491128Y88881D01*
X491033Y88971D01*
X491024Y88975D01*
X491016Y88983D01*
X490898Y89040D01*
X490782Y89099D01*
X490772Y89101D01*
X490762Y89106D01*
X490682Y89118D01*
X490505Y89152D01*
X490481Y89150D01*
X490457Y89153D01*
X444061Y89153D01*
X432053Y101161D01*
X432053Y121343D01*
X445477Y134767D01*
X445534Y134843D01*
X445599Y134915D01*
X445619Y134956D01*
X445646Y134992D01*
X445680Y135082D01*
X445722Y135169D01*
X445728Y135211D01*
X445745Y135256D01*
X445755Y135384D01*
X445769Y135473D01*
X445769Y139404D01*
X445765Y139436D01*
X445767Y139468D01*
X445745Y139575D01*
X445729Y139683D01*
X445716Y139713D01*
X445710Y139744D01*
X445658Y139841D01*
X445613Y139940D01*
X445592Y139965D01*
X445577Y139993D01*
X445501Y140072D01*
X445430Y140155D01*
X445403Y140172D01*
X445380Y140195D01*
X445285Y140249D01*
X445194Y140309D01*
X445163Y140319D01*
X445135Y140334D01*
X445029Y140360D01*
X444924Y140392D01*
X444892Y140392D01*
X444861Y140399D01*
X444751Y140394D01*
X444642Y140395D01*
X444611Y140387D01*
X444579Y140385D01*
X444476Y140349D01*
X444370Y140320D01*
X444343Y140303D01*
X444312Y140293D01*
X444239Y140239D01*
X444130Y140172D01*
X444098Y140136D01*
X444063Y140111D01*
X442944Y138991D01*
X440534Y137993D01*
X437926Y137993D01*
X435516Y138991D01*
X433671Y140836D01*
X433434Y141408D01*
X433430Y141417D01*
X433427Y141426D01*
X433358Y141538D01*
X433291Y141651D01*
X433284Y141658D01*
X433279Y141666D01*
X433181Y141754D01*
X433085Y141844D01*
X433077Y141848D01*
X433070Y141855D01*
X432951Y141912D01*
X432834Y141972D01*
X432824Y141974D01*
X432816Y141978D01*
X432739Y141990D01*
X432556Y142024D01*
X432533Y142022D01*
X432511Y142025D01*
X380250Y142025D01*
X380155Y142012D01*
X380059Y142007D01*
X380015Y141992D01*
X379970Y141985D01*
X379883Y141946D01*
X379792Y141914D01*
X379758Y141889D01*
X379714Y141869D01*
X379616Y141786D01*
X379543Y141733D01*
X368357Y130547D01*
X368300Y130470D01*
X368235Y130399D01*
X368215Y130358D01*
X368188Y130321D01*
X368154Y130231D01*
X368112Y130145D01*
X368106Y130103D01*
X368089Y130057D01*
X368079Y129930D01*
X368065Y129840D01*
X368065Y76814D01*
X347126Y55875D01*
X101224Y55875D01*
G37*
%LPD*%
G36*
X594191Y199166D02*
X594191Y199166D01*
X594200Y199165D01*
X594330Y199186D01*
X594460Y199205D01*
X594469Y199208D01*
X594478Y199210D01*
X594598Y199267D01*
X594717Y199321D01*
X594725Y199327D01*
X594733Y199331D01*
X594831Y199418D01*
X594932Y199504D01*
X594937Y199512D01*
X594944Y199518D01*
X594984Y199584D01*
X595086Y199740D01*
X595093Y199763D01*
X595104Y199782D01*
X595341Y200354D01*
X597186Y202199D01*
X599596Y203197D01*
X600401Y203197D01*
X600433Y203201D01*
X600465Y203199D01*
X600572Y203221D01*
X600680Y203237D01*
X600710Y203250D01*
X600741Y203256D01*
X600838Y203308D01*
X600937Y203353D01*
X600962Y203374D01*
X600990Y203389D01*
X601068Y203465D01*
X601151Y203536D01*
X601169Y203563D01*
X601192Y203586D01*
X601246Y203681D01*
X601306Y203772D01*
X601315Y203803D01*
X601331Y203831D01*
X601356Y203938D01*
X601388Y204042D01*
X601389Y204074D01*
X601396Y204105D01*
X601391Y204215D01*
X601392Y204324D01*
X601383Y204355D01*
X601382Y204387D01*
X601346Y204490D01*
X601317Y204596D01*
X601300Y204623D01*
X601289Y204654D01*
X601236Y204727D01*
X601169Y204836D01*
X601133Y204868D01*
X601108Y204903D01*
X588097Y217913D01*
X588021Y217970D01*
X587949Y218035D01*
X587908Y218055D01*
X587872Y218082D01*
X587782Y218116D01*
X587695Y218158D01*
X587653Y218164D01*
X587608Y218181D01*
X587480Y218191D01*
X587391Y218205D01*
X576313Y218205D01*
X575420Y219098D01*
X575420Y236362D01*
X576313Y237255D01*
X595607Y237255D01*
X596500Y236362D01*
X596500Y219098D01*
X595646Y218245D01*
X595608Y218194D01*
X595562Y218149D01*
X595523Y218081D01*
X595477Y218019D01*
X595454Y217959D01*
X595423Y217903D01*
X595405Y217828D01*
X595377Y217755D01*
X595372Y217691D01*
X595358Y217629D01*
X595362Y217551D01*
X595356Y217474D01*
X595369Y217411D01*
X595372Y217347D01*
X595397Y217274D01*
X595413Y217198D01*
X595443Y217141D01*
X595464Y217081D01*
X595506Y217024D01*
X595546Y216949D01*
X595605Y216888D01*
X595646Y216832D01*
X609459Y203018D01*
X609485Y202999D01*
X609506Y202975D01*
X609598Y202915D01*
X609685Y202849D01*
X609715Y202838D01*
X609742Y202820D01*
X609847Y202788D01*
X609949Y202750D01*
X609981Y202747D01*
X610012Y202738D01*
X610121Y202736D01*
X610230Y202728D01*
X610262Y202734D01*
X610294Y202734D01*
X610399Y202763D01*
X610506Y202785D01*
X610535Y202801D01*
X610566Y202809D01*
X610659Y202867D01*
X610755Y202918D01*
X610778Y202940D01*
X610806Y202957D01*
X610879Y203038D01*
X610957Y203115D01*
X610973Y203143D01*
X610995Y203167D01*
X611042Y203265D01*
X611096Y203360D01*
X611104Y203391D01*
X611118Y203420D01*
X611132Y203510D01*
X611161Y203635D01*
X611159Y203683D01*
X611165Y203725D01*
X611165Y215630D01*
X611152Y215725D01*
X611147Y215821D01*
X611132Y215865D01*
X611125Y215910D01*
X611086Y215997D01*
X611054Y216088D01*
X611029Y216122D01*
X611009Y216166D01*
X610926Y216264D01*
X610873Y216337D01*
X603115Y224094D01*
X603115Y250710D01*
X603102Y250805D01*
X603097Y250901D01*
X603082Y250945D01*
X603075Y250990D01*
X603036Y251077D01*
X603004Y251168D01*
X602979Y251202D01*
X602959Y251246D01*
X602876Y251344D01*
X602823Y251417D01*
X600887Y253353D01*
X600810Y253410D01*
X600739Y253475D01*
X600698Y253495D01*
X600661Y253522D01*
X600571Y253556D01*
X600485Y253598D01*
X600443Y253604D01*
X600397Y253621D01*
X600270Y253631D01*
X600180Y253645D01*
X597499Y253645D01*
X597435Y253636D01*
X597371Y253637D01*
X597296Y253616D01*
X597220Y253605D01*
X597161Y253579D01*
X597099Y253562D01*
X597033Y253521D01*
X596963Y253489D01*
X596914Y253447D01*
X596859Y253414D01*
X596807Y253356D01*
X596749Y253306D01*
X596713Y253252D01*
X596670Y253204D01*
X596637Y253135D01*
X596594Y253070D01*
X596575Y253008D01*
X596547Y252951D01*
X596536Y252881D01*
X596512Y252800D01*
X596511Y252715D01*
X596500Y252646D01*
X596500Y247538D01*
X595607Y246645D01*
X576313Y246645D01*
X575420Y247538D01*
X575420Y264802D01*
X576313Y265695D01*
X595607Y265695D01*
X596500Y264802D01*
X596500Y259694D01*
X596509Y259630D01*
X596508Y259566D01*
X596529Y259491D01*
X596540Y259415D01*
X596566Y259356D01*
X596583Y259294D01*
X596624Y259228D01*
X596656Y259158D01*
X596698Y259109D01*
X596731Y259054D01*
X596789Y259002D01*
X596839Y258944D01*
X596893Y258908D01*
X596941Y258865D01*
X597010Y258832D01*
X597075Y258789D01*
X597137Y258770D01*
X597194Y258742D01*
X597264Y258731D01*
X597345Y258707D01*
X597430Y258706D01*
X597499Y258695D01*
X602686Y258695D01*
X609605Y251776D01*
X609605Y249684D01*
X608457Y248537D01*
X608400Y248460D01*
X608335Y248389D01*
X608315Y248348D01*
X608288Y248311D01*
X608254Y248221D01*
X608212Y248135D01*
X608206Y248093D01*
X608189Y248047D01*
X608179Y247920D01*
X608165Y247830D01*
X608165Y226600D01*
X608178Y226505D01*
X608183Y226409D01*
X608198Y226365D01*
X608205Y226320D01*
X608244Y226233D01*
X608276Y226142D01*
X608301Y226108D01*
X608321Y226064D01*
X608404Y225966D01*
X608457Y225893D01*
X615219Y219131D01*
X615245Y219112D01*
X615266Y219087D01*
X615358Y219027D01*
X615445Y218962D01*
X615475Y218950D01*
X615502Y218933D01*
X615607Y218901D01*
X615709Y218862D01*
X615741Y218860D01*
X615772Y218850D01*
X615881Y218849D01*
X615990Y218840D01*
X616022Y218847D01*
X616054Y218847D01*
X616159Y218876D01*
X616266Y218898D01*
X616295Y218913D01*
X616326Y218922D01*
X616419Y218979D01*
X616515Y219031D01*
X616538Y219053D01*
X616566Y219070D01*
X616639Y219151D01*
X616717Y219227D01*
X616733Y219255D01*
X616755Y219279D01*
X616802Y219378D01*
X616856Y219473D01*
X616864Y219504D01*
X616878Y219533D01*
X616892Y219622D01*
X616921Y219747D01*
X616919Y219796D01*
X616925Y219838D01*
X616925Y223232D01*
X618680Y227468D01*
X621922Y230710D01*
X626158Y232465D01*
X662322Y232465D01*
X662417Y232478D01*
X662514Y232483D01*
X662557Y232498D01*
X662602Y232505D01*
X662689Y232544D01*
X662780Y232576D01*
X662814Y232601D01*
X662859Y232621D01*
X662956Y232704D01*
X663029Y232757D01*
X706222Y275950D01*
X710521Y277731D01*
X710595Y277775D01*
X710674Y277811D01*
X710716Y277846D01*
X710763Y277874D01*
X710823Y277938D01*
X710889Y277994D01*
X710919Y278040D01*
X710956Y278080D01*
X710996Y278157D01*
X711043Y278230D01*
X711059Y278283D01*
X711084Y278332D01*
X711100Y278417D01*
X711126Y278500D01*
X711126Y278555D01*
X711136Y278609D01*
X711128Y278695D01*
X711129Y278782D01*
X711115Y278835D01*
X711109Y278889D01*
X711077Y278970D01*
X711054Y279054D01*
X711025Y279101D01*
X711005Y279151D01*
X710952Y279220D01*
X710906Y279294D01*
X710865Y279331D01*
X710831Y279374D01*
X710761Y279424D01*
X710697Y279483D01*
X710647Y279507D01*
X710603Y279539D01*
X710521Y279568D01*
X710443Y279606D01*
X710392Y279614D01*
X710337Y279633D01*
X710223Y279640D01*
X710138Y279653D01*
X635523Y279653D01*
X635491Y279649D01*
X635458Y279651D01*
X635352Y279629D01*
X635243Y279613D01*
X635214Y279600D01*
X635182Y279594D01*
X635086Y279542D01*
X634986Y279497D01*
X634962Y279476D01*
X634933Y279461D01*
X634855Y279385D01*
X634772Y279314D01*
X634754Y279287D01*
X634731Y279264D01*
X634678Y279169D01*
X634618Y279078D01*
X634608Y279047D01*
X634592Y279019D01*
X634567Y278913D01*
X634535Y278808D01*
X634535Y278776D01*
X634527Y278745D01*
X634533Y278635D01*
X634531Y278526D01*
X634540Y278495D01*
X634542Y278463D01*
X634577Y278360D01*
X634607Y278254D01*
X634624Y278227D01*
X634634Y278196D01*
X634688Y278123D01*
X634755Y278014D01*
X634791Y277982D01*
X634816Y277947D01*
X635987Y276776D01*
X637341Y273508D01*
X637341Y269971D01*
X635987Y266704D01*
X633486Y264203D01*
X630218Y262849D01*
X626682Y262849D01*
X623414Y264203D01*
X620913Y266704D01*
X619559Y269971D01*
X619559Y273508D01*
X620913Y276776D01*
X623414Y279277D01*
X625870Y280294D01*
X625972Y280355D01*
X626076Y280411D01*
X626093Y280426D01*
X626112Y280438D01*
X626193Y280524D01*
X626278Y280607D01*
X626290Y280627D01*
X626305Y280644D01*
X626359Y280749D01*
X626418Y280853D01*
X626423Y280875D01*
X626433Y280895D01*
X626455Y281012D01*
X626482Y281127D01*
X626481Y281150D01*
X626486Y281172D01*
X626474Y281290D01*
X626468Y281409D01*
X626461Y281430D01*
X626458Y281453D01*
X626415Y281563D01*
X626376Y281675D01*
X626363Y281693D01*
X626354Y281715D01*
X626267Y281827D01*
X626236Y281876D01*
X626215Y281895D01*
X626194Y281924D01*
X589133Y318985D01*
X589057Y319042D01*
X588985Y319107D01*
X588944Y319127D01*
X588908Y319154D01*
X588818Y319188D01*
X588732Y319230D01*
X588689Y319236D01*
X588644Y319253D01*
X588516Y319263D01*
X588427Y319277D01*
X586589Y319277D01*
X586580Y319276D01*
X586571Y319277D01*
X586441Y319256D01*
X586310Y319237D01*
X586302Y319234D01*
X586292Y319232D01*
X586173Y319175D01*
X586053Y319121D01*
X586046Y319115D01*
X586038Y319111D01*
X585939Y319023D01*
X585839Y318938D01*
X585834Y318930D01*
X585827Y318924D01*
X585787Y318858D01*
X585685Y318702D01*
X585678Y318679D01*
X585666Y318660D01*
X585187Y317504D01*
X582686Y315003D01*
X579418Y313649D01*
X575882Y313649D01*
X572614Y315003D01*
X570141Y317476D01*
X570115Y317495D01*
X570094Y317520D01*
X570002Y317580D01*
X569915Y317645D01*
X569885Y317657D01*
X569858Y317674D01*
X569753Y317706D01*
X569651Y317745D01*
X569619Y317747D01*
X569588Y317757D01*
X569479Y317758D01*
X569370Y317767D01*
X569338Y317760D01*
X569306Y317761D01*
X569201Y317731D01*
X569094Y317709D01*
X569065Y317694D01*
X569034Y317685D01*
X568941Y317628D01*
X568845Y317577D01*
X568822Y317554D01*
X568794Y317537D01*
X568721Y317456D01*
X568643Y317380D01*
X568627Y317352D01*
X568605Y317328D01*
X568558Y317230D01*
X568504Y317134D01*
X568496Y317103D01*
X568482Y317074D01*
X568468Y316985D01*
X568439Y316860D01*
X568441Y316812D01*
X568435Y316769D01*
X568435Y302954D01*
X561797Y296317D01*
X561740Y296240D01*
X561675Y296169D01*
X561655Y296128D01*
X561628Y296091D01*
X561594Y296001D01*
X561552Y295915D01*
X561546Y295873D01*
X561529Y295827D01*
X561519Y295700D01*
X561505Y295610D01*
X561505Y219930D01*
X561518Y219835D01*
X561523Y219739D01*
X561538Y219695D01*
X561545Y219650D01*
X561584Y219563D01*
X561616Y219472D01*
X561641Y219438D01*
X561661Y219394D01*
X561744Y219296D01*
X561797Y219223D01*
X581563Y199457D01*
X581640Y199400D01*
X581711Y199335D01*
X581752Y199315D01*
X581789Y199288D01*
X581879Y199254D01*
X581965Y199212D01*
X582007Y199206D01*
X582053Y199189D01*
X582180Y199179D01*
X582270Y199165D01*
X594181Y199165D01*
X594191Y199166D01*
G37*
G36*
X539354Y256878D02*
X539354Y256878D01*
X539386Y256878D01*
X539491Y256907D01*
X539598Y256929D01*
X539627Y256945D01*
X539658Y256953D01*
X539751Y257011D01*
X539847Y257062D01*
X539870Y257084D01*
X539898Y257101D01*
X539971Y257182D01*
X540049Y257259D01*
X540065Y257287D01*
X540087Y257311D01*
X540134Y257409D01*
X540188Y257504D01*
X540196Y257535D01*
X540210Y257564D01*
X540224Y257654D01*
X540253Y257779D01*
X540251Y257827D01*
X540257Y257869D01*
X540257Y292031D01*
X549109Y300883D01*
X549166Y300959D01*
X549231Y301031D01*
X549251Y301072D01*
X549278Y301108D01*
X549312Y301198D01*
X549354Y301285D01*
X549360Y301327D01*
X549377Y301372D01*
X549387Y301500D01*
X549401Y301589D01*
X549401Y313429D01*
X549400Y313438D01*
X549401Y313448D01*
X549380Y313578D01*
X549361Y313708D01*
X549358Y313717D01*
X549356Y313726D01*
X549299Y313846D01*
X549245Y313965D01*
X549239Y313972D01*
X549235Y313981D01*
X549147Y314080D01*
X549062Y314179D01*
X549054Y314185D01*
X549048Y314192D01*
X548982Y314232D01*
X548826Y314334D01*
X548803Y314341D01*
X548784Y314352D01*
X547214Y315003D01*
X544713Y317504D01*
X543359Y320771D01*
X543359Y324308D01*
X544713Y327576D01*
X547214Y330077D01*
X550482Y331431D01*
X551415Y331431D01*
X551447Y331435D01*
X551479Y331433D01*
X551586Y331455D01*
X551694Y331471D01*
X551724Y331484D01*
X551755Y331490D01*
X551852Y331542D01*
X551951Y331587D01*
X551976Y331608D01*
X552004Y331623D01*
X552082Y331699D01*
X552165Y331770D01*
X552183Y331797D01*
X552206Y331820D01*
X552260Y331915D01*
X552320Y332006D01*
X552329Y332037D01*
X552345Y332065D01*
X552370Y332172D01*
X552402Y332276D01*
X552403Y332308D01*
X552410Y332339D01*
X552405Y332449D01*
X552406Y332558D01*
X552397Y332589D01*
X552396Y332621D01*
X552360Y332724D01*
X552331Y332830D01*
X552314Y332857D01*
X552303Y332888D01*
X552250Y332961D01*
X552183Y333070D01*
X552147Y333102D01*
X552122Y333137D01*
X521969Y363289D01*
X521969Y376591D01*
X521956Y376686D01*
X521951Y376782D01*
X521936Y376825D01*
X521929Y376870D01*
X521890Y376957D01*
X521858Y377048D01*
X521833Y377083D01*
X521813Y377127D01*
X521730Y377224D01*
X521677Y377297D01*
X521067Y377908D01*
X521041Y377927D01*
X521020Y377951D01*
X520928Y378011D01*
X520841Y378077D01*
X520811Y378088D01*
X520784Y378106D01*
X520679Y378138D01*
X520577Y378176D01*
X520545Y378179D01*
X520514Y378188D01*
X520405Y378190D01*
X520296Y378198D01*
X520264Y378192D01*
X520232Y378192D01*
X520127Y378163D01*
X520020Y378141D01*
X519991Y378125D01*
X519960Y378117D01*
X519867Y378059D01*
X519771Y378008D01*
X519748Y377986D01*
X519720Y377969D01*
X519647Y377887D01*
X519569Y377811D01*
X519553Y377783D01*
X519531Y377759D01*
X519484Y377661D01*
X519430Y377566D01*
X519422Y377534D01*
X519408Y377506D01*
X519394Y377416D01*
X519365Y377291D01*
X519367Y377243D01*
X519361Y377201D01*
X519361Y373829D01*
X512779Y373829D01*
X512779Y380411D01*
X516151Y380411D01*
X516183Y380415D01*
X516215Y380413D01*
X516322Y380435D01*
X516430Y380451D01*
X516460Y380464D01*
X516491Y380470D01*
X516587Y380522D01*
X516687Y380567D01*
X516712Y380588D01*
X516740Y380603D01*
X516818Y380679D01*
X516901Y380750D01*
X516919Y380777D01*
X516942Y380800D01*
X516996Y380895D01*
X517056Y380986D01*
X517065Y381017D01*
X517081Y381045D01*
X517106Y381151D01*
X517138Y381256D01*
X517139Y381288D01*
X517146Y381319D01*
X517141Y381429D01*
X517142Y381538D01*
X517133Y381569D01*
X517132Y381601D01*
X517096Y381704D01*
X517067Y381810D01*
X517050Y381837D01*
X517039Y381868D01*
X516986Y381941D01*
X516919Y382050D01*
X516883Y382082D01*
X516858Y382117D01*
X514349Y384625D01*
X514349Y388307D01*
X514345Y388339D01*
X514347Y388371D01*
X514325Y388478D01*
X514309Y388586D01*
X514296Y388616D01*
X514290Y388647D01*
X514238Y388744D01*
X514193Y388843D01*
X514172Y388868D01*
X514157Y388896D01*
X514081Y388974D01*
X514010Y389057D01*
X513983Y389075D01*
X513960Y389098D01*
X513865Y389152D01*
X513774Y389212D01*
X513743Y389221D01*
X513715Y389237D01*
X513608Y389262D01*
X513504Y389294D01*
X513472Y389295D01*
X513441Y389302D01*
X513331Y389297D01*
X513222Y389298D01*
X513191Y389289D01*
X513159Y389288D01*
X513056Y389252D01*
X512950Y389223D01*
X512923Y389206D01*
X512892Y389195D01*
X512819Y389142D01*
X512710Y389075D01*
X512678Y389039D01*
X512643Y389014D01*
X505746Y382117D01*
X505727Y382091D01*
X505703Y382070D01*
X505643Y381978D01*
X505577Y381891D01*
X505566Y381861D01*
X505548Y381834D01*
X505516Y381729D01*
X505478Y381627D01*
X505475Y381595D01*
X505466Y381564D01*
X505464Y381455D01*
X505456Y381346D01*
X505462Y381314D01*
X505462Y381282D01*
X505491Y381177D01*
X505513Y381070D01*
X505529Y381041D01*
X505537Y381010D01*
X505595Y380917D01*
X505646Y380821D01*
X505668Y380798D01*
X505685Y380770D01*
X505766Y380697D01*
X505843Y380619D01*
X505871Y380603D01*
X505895Y380581D01*
X505993Y380534D01*
X506088Y380480D01*
X506119Y380472D01*
X506148Y380458D01*
X506238Y380444D01*
X506363Y380415D01*
X506411Y380417D01*
X506453Y380411D01*
X509781Y380411D01*
X509781Y373829D01*
X503199Y373829D01*
X503199Y377157D01*
X503195Y377189D01*
X503197Y377221D01*
X503175Y377328D01*
X503159Y377436D01*
X503146Y377465D01*
X503140Y377497D01*
X503088Y377594D01*
X503043Y377693D01*
X503022Y377718D01*
X503007Y377746D01*
X502931Y377825D01*
X502860Y377907D01*
X502833Y377925D01*
X502810Y377948D01*
X502715Y378002D01*
X502624Y378062D01*
X502593Y378071D01*
X502565Y378087D01*
X502459Y378112D01*
X502354Y378144D01*
X502322Y378145D01*
X502291Y378152D01*
X502181Y378147D01*
X502072Y378148D01*
X502041Y378139D01*
X502009Y378138D01*
X501906Y378102D01*
X501800Y378073D01*
X501773Y378056D01*
X501742Y378045D01*
X501669Y377992D01*
X501560Y377925D01*
X501528Y377889D01*
X501493Y377864D01*
X500927Y377297D01*
X500870Y377221D01*
X500805Y377149D01*
X500785Y377108D01*
X500758Y377072D01*
X500724Y376982D01*
X500682Y376895D01*
X500676Y376853D01*
X500659Y376808D01*
X500649Y376680D01*
X500635Y376591D01*
X500635Y366337D01*
X496240Y361942D01*
X496169Y361847D01*
X496093Y361756D01*
X496084Y361735D01*
X496071Y361717D01*
X496029Y361606D01*
X495982Y361497D01*
X495979Y361474D01*
X495971Y361453D01*
X495962Y361334D01*
X495948Y361217D01*
X495951Y361194D01*
X495949Y361171D01*
X495974Y361055D01*
X495993Y360938D01*
X496002Y360918D01*
X496007Y360895D01*
X496063Y360791D01*
X496114Y360684D01*
X496129Y360667D01*
X496139Y360646D01*
X496222Y360561D01*
X496301Y360473D01*
X496319Y360462D01*
X496336Y360444D01*
X496498Y360353D01*
X496564Y360312D01*
X498306Y359591D01*
X499799Y358098D01*
X500607Y356148D01*
X500607Y354036D01*
X500118Y352856D01*
X500116Y352847D01*
X500111Y352839D01*
X500080Y352710D01*
X500048Y352583D01*
X500048Y352574D01*
X500046Y352564D01*
X500053Y352432D01*
X500057Y352301D01*
X500060Y352292D01*
X500060Y352283D01*
X500104Y352158D01*
X500144Y352033D01*
X500150Y352025D01*
X500153Y352016D01*
X500198Y351954D01*
X500303Y351800D01*
X500322Y351785D01*
X500335Y351767D01*
X514351Y337751D01*
X514351Y281777D01*
X514364Y281682D01*
X514369Y281586D01*
X514384Y281543D01*
X514391Y281498D01*
X514430Y281410D01*
X514462Y281320D01*
X514487Y281285D01*
X514507Y281241D01*
X514590Y281144D01*
X514643Y281071D01*
X538551Y257162D01*
X538577Y257143D01*
X538598Y257119D01*
X538690Y257059D01*
X538777Y256993D01*
X538807Y256982D01*
X538834Y256964D01*
X538939Y256932D01*
X539041Y256894D01*
X539073Y256891D01*
X539104Y256882D01*
X539213Y256880D01*
X539322Y256872D01*
X539354Y256878D01*
G37*
%LPC*%
G36*
X94964Y81753D02*
X94964Y81753D01*
X90389Y83648D01*
X86888Y87149D01*
X84993Y91724D01*
X84993Y96676D01*
X86888Y101251D01*
X90389Y104752D01*
X94964Y106647D01*
X99916Y106647D01*
X103825Y105028D01*
X103834Y105025D01*
X103842Y105021D01*
X103971Y104990D01*
X104098Y104958D01*
X104107Y104958D01*
X104117Y104956D01*
X104249Y104962D01*
X104380Y104967D01*
X104389Y104969D01*
X104398Y104970D01*
X104523Y105013D01*
X104648Y105054D01*
X104656Y105059D01*
X104665Y105062D01*
X104727Y105108D01*
X104881Y105213D01*
X104896Y105232D01*
X104914Y105244D01*
X142043Y142373D01*
X143814Y144145D01*
X227470Y144145D01*
X227565Y144158D01*
X227661Y144163D01*
X227705Y144178D01*
X227750Y144185D01*
X227837Y144224D01*
X227928Y144256D01*
X227962Y144281D01*
X228006Y144301D01*
X228104Y144384D01*
X228177Y144437D01*
X244134Y160395D01*
X244205Y160489D01*
X244281Y160581D01*
X244290Y160602D01*
X244303Y160620D01*
X244345Y160731D01*
X244392Y160840D01*
X244395Y160863D01*
X244403Y160884D01*
X244412Y161002D01*
X244427Y161120D01*
X244423Y161143D01*
X244425Y161165D01*
X244401Y161281D01*
X244382Y161399D01*
X244372Y161419D01*
X244367Y161441D01*
X244312Y161546D01*
X244261Y161653D01*
X244245Y161670D01*
X244235Y161690D01*
X244152Y161775D01*
X244073Y161864D01*
X244055Y161875D01*
X244038Y161892D01*
X243876Y161984D01*
X243810Y162024D01*
X242414Y162603D01*
X239913Y165104D01*
X238559Y168371D01*
X238559Y171908D01*
X239913Y175176D01*
X242414Y177677D01*
X245682Y179031D01*
X249218Y179031D01*
X252486Y177677D01*
X254987Y175176D01*
X256341Y171908D01*
X256341Y168371D01*
X254987Y165104D01*
X252486Y162603D01*
X250592Y161818D01*
X250583Y161813D01*
X250574Y161811D01*
X250462Y161741D01*
X250349Y161674D01*
X250342Y161668D01*
X250334Y161663D01*
X250246Y161565D01*
X250156Y161469D01*
X250152Y161460D01*
X250145Y161453D01*
X250088Y161335D01*
X250028Y161217D01*
X250026Y161208D01*
X250022Y161199D01*
X250010Y161123D01*
X249976Y160940D01*
X249978Y160916D01*
X249975Y160895D01*
X249975Y159094D01*
X229976Y139095D01*
X146320Y139095D01*
X146225Y139082D01*
X146129Y139077D01*
X146085Y139062D01*
X146040Y139055D01*
X145953Y139016D01*
X145862Y138984D01*
X145828Y138959D01*
X145784Y138939D01*
X145686Y138856D01*
X145613Y138803D01*
X108484Y101674D01*
X108479Y101666D01*
X108471Y101660D01*
X108394Y101553D01*
X108315Y101448D01*
X108312Y101439D01*
X108306Y101432D01*
X108262Y101308D01*
X108215Y101184D01*
X108215Y101175D01*
X108211Y101166D01*
X108204Y101034D01*
X108194Y100903D01*
X108196Y100894D01*
X108195Y100884D01*
X108213Y100809D01*
X108251Y100627D01*
X108262Y100606D01*
X108268Y100585D01*
X109887Y96676D01*
X109887Y91724D01*
X107992Y87149D01*
X104491Y83648D01*
X99916Y81753D01*
X94964Y81753D01*
G37*
%LPD*%
%LPC*%
G36*
X129964Y81753D02*
X129964Y81753D01*
X125389Y83648D01*
X121888Y87149D01*
X119993Y91724D01*
X119993Y96676D01*
X121888Y101251D01*
X125389Y104752D01*
X129964Y106647D01*
X134916Y106647D01*
X138825Y105028D01*
X138834Y105025D01*
X138842Y105021D01*
X138971Y104990D01*
X139098Y104958D01*
X139107Y104958D01*
X139117Y104956D01*
X139249Y104962D01*
X139380Y104967D01*
X139389Y104969D01*
X139398Y104970D01*
X139523Y105013D01*
X139648Y105054D01*
X139656Y105059D01*
X139665Y105062D01*
X139727Y105108D01*
X139881Y105213D01*
X139896Y105232D01*
X139914Y105244D01*
X168763Y134093D01*
X170534Y135865D01*
X234590Y135865D01*
X234685Y135878D01*
X234781Y135883D01*
X234825Y135898D01*
X234870Y135905D01*
X234957Y135944D01*
X235048Y135976D01*
X235082Y136001D01*
X235126Y136021D01*
X235224Y136104D01*
X235297Y136157D01*
X264527Y165388D01*
X264533Y165395D01*
X264541Y165401D01*
X264618Y165508D01*
X264697Y165614D01*
X264700Y165622D01*
X264706Y165630D01*
X264749Y165753D01*
X264796Y165877D01*
X264797Y165887D01*
X264800Y165896D01*
X264808Y166027D01*
X264818Y166159D01*
X264816Y166168D01*
X264817Y166177D01*
X264798Y166253D01*
X264760Y166435D01*
X264749Y166456D01*
X264744Y166477D01*
X263959Y168371D01*
X263959Y171908D01*
X265313Y175176D01*
X267814Y177677D01*
X271082Y179031D01*
X274618Y179031D01*
X277886Y177677D01*
X280387Y175176D01*
X281741Y171908D01*
X281741Y168371D01*
X280387Y165104D01*
X277886Y162603D01*
X274618Y161249D01*
X271082Y161249D01*
X269187Y162034D01*
X269178Y162036D01*
X269169Y162041D01*
X269041Y162072D01*
X268914Y162104D01*
X268904Y162104D01*
X268895Y162106D01*
X268762Y162099D01*
X268632Y162095D01*
X268623Y162092D01*
X268613Y162092D01*
X268489Y162048D01*
X268364Y162008D01*
X268356Y162002D01*
X268347Y161999D01*
X268285Y161954D01*
X268131Y161849D01*
X268115Y161830D01*
X268098Y161817D01*
X238867Y132587D01*
X237096Y130815D01*
X173040Y130815D01*
X172945Y130802D01*
X172849Y130797D01*
X172805Y130782D01*
X172760Y130775D01*
X172673Y130736D01*
X172582Y130704D01*
X172548Y130679D01*
X172504Y130659D01*
X172406Y130576D01*
X172333Y130523D01*
X143484Y101674D01*
X143479Y101666D01*
X143471Y101660D01*
X143394Y101553D01*
X143315Y101448D01*
X143312Y101439D01*
X143306Y101432D01*
X143262Y101308D01*
X143215Y101184D01*
X143215Y101175D01*
X143211Y101166D01*
X143204Y101034D01*
X143194Y100903D01*
X143196Y100894D01*
X143195Y100884D01*
X143213Y100809D01*
X143251Y100627D01*
X143262Y100606D01*
X143268Y100585D01*
X144887Y96676D01*
X144887Y91724D01*
X142992Y87149D01*
X139491Y83648D01*
X134916Y81753D01*
X129964Y81753D01*
G37*
%LPD*%
%LPC*%
G36*
X164964Y81753D02*
X164964Y81753D01*
X160389Y83648D01*
X156888Y87149D01*
X154993Y91724D01*
X154993Y96676D01*
X156888Y101251D01*
X160389Y104752D01*
X164964Y106647D01*
X169916Y106647D01*
X173825Y105028D01*
X173834Y105025D01*
X173842Y105021D01*
X173971Y104990D01*
X174098Y104958D01*
X174107Y104958D01*
X174117Y104956D01*
X174249Y104962D01*
X174380Y104967D01*
X174389Y104969D01*
X174398Y104970D01*
X174523Y105013D01*
X174648Y105054D01*
X174656Y105059D01*
X174665Y105062D01*
X174727Y105108D01*
X174881Y105213D01*
X174896Y105232D01*
X174914Y105244D01*
X198084Y128415D01*
X255210Y128415D01*
X255305Y128428D01*
X255401Y128433D01*
X255445Y128448D01*
X255490Y128455D01*
X255577Y128494D01*
X255668Y128526D01*
X255702Y128551D01*
X255746Y128571D01*
X255844Y128654D01*
X255917Y128707D01*
X290806Y163597D01*
X290845Y163648D01*
X290891Y163693D01*
X290929Y163761D01*
X290976Y163823D01*
X290998Y163883D01*
X291030Y163939D01*
X291048Y164014D01*
X291075Y164086D01*
X291080Y164151D01*
X291095Y164213D01*
X291091Y164291D01*
X291097Y164368D01*
X291084Y164431D01*
X291081Y164495D01*
X291055Y164568D01*
X291039Y164644D01*
X291009Y164701D01*
X290988Y164761D01*
X290947Y164818D01*
X290907Y164893D01*
X290863Y164938D01*
X290847Y164964D01*
X290827Y164981D01*
X290806Y165010D01*
X290713Y165104D01*
X289359Y168371D01*
X289359Y171908D01*
X290713Y175176D01*
X293214Y177677D01*
X296482Y179031D01*
X300018Y179031D01*
X303286Y177677D01*
X305787Y175176D01*
X307141Y171908D01*
X307141Y168371D01*
X305787Y165104D01*
X303286Y162603D01*
X300018Y161249D01*
X296482Y161249D01*
X296475Y161252D01*
X296466Y161254D01*
X296457Y161259D01*
X296427Y161266D01*
X296401Y161279D01*
X296323Y161291D01*
X296202Y161322D01*
X296192Y161322D01*
X296183Y161324D01*
X296129Y161321D01*
X296097Y161326D01*
X296091Y161326D01*
X296021Y161316D01*
X295920Y161313D01*
X295911Y161310D01*
X295901Y161310D01*
X295851Y161292D01*
X295811Y161286D01*
X295742Y161255D01*
X295652Y161226D01*
X295644Y161220D01*
X295635Y161217D01*
X295597Y161189D01*
X295555Y161170D01*
X295492Y161117D01*
X295419Y161067D01*
X295403Y161048D01*
X295386Y161035D01*
X257716Y123365D01*
X200590Y123365D01*
X200495Y123352D01*
X200399Y123347D01*
X200355Y123332D01*
X200310Y123325D01*
X200223Y123286D01*
X200132Y123254D01*
X200098Y123229D01*
X200054Y123209D01*
X199956Y123126D01*
X199883Y123073D01*
X178484Y101674D01*
X178479Y101666D01*
X178471Y101660D01*
X178394Y101553D01*
X178315Y101448D01*
X178312Y101439D01*
X178306Y101432D01*
X178262Y101308D01*
X178215Y101184D01*
X178215Y101175D01*
X178212Y101166D01*
X178204Y101034D01*
X178194Y100903D01*
X178196Y100894D01*
X178195Y100884D01*
X178213Y100809D01*
X178251Y100627D01*
X178263Y100606D01*
X178268Y100585D01*
X179887Y96676D01*
X179887Y91724D01*
X177992Y87149D01*
X174491Y83648D01*
X169916Y81753D01*
X164964Y81753D01*
G37*
%LPD*%
%LPC*%
G36*
X199964Y81753D02*
X199964Y81753D01*
X195389Y83648D01*
X191888Y87149D01*
X189993Y91724D01*
X189993Y96676D01*
X191888Y101251D01*
X195389Y104752D01*
X199964Y106647D01*
X204916Y106647D01*
X208825Y105028D01*
X208834Y105025D01*
X208842Y105021D01*
X208971Y104990D01*
X209098Y104958D01*
X209107Y104958D01*
X209117Y104956D01*
X209249Y104962D01*
X209380Y104967D01*
X209389Y104969D01*
X209398Y104970D01*
X209523Y105013D01*
X209648Y105054D01*
X209656Y105059D01*
X209665Y105062D01*
X209727Y105108D01*
X209881Y105213D01*
X209896Y105232D01*
X209914Y105244D01*
X223033Y118363D01*
X224804Y120135D01*
X282520Y120135D01*
X282615Y120148D01*
X282711Y120153D01*
X282755Y120168D01*
X282800Y120175D01*
X282887Y120214D01*
X282978Y120246D01*
X283012Y120271D01*
X283056Y120291D01*
X283154Y120374D01*
X283227Y120427D01*
X321323Y158523D01*
X321380Y158600D01*
X321445Y158671D01*
X321465Y158712D01*
X321492Y158749D01*
X321526Y158839D01*
X321568Y158925D01*
X321574Y158967D01*
X321591Y159013D01*
X321601Y159140D01*
X321615Y159230D01*
X321615Y160692D01*
X321614Y160701D01*
X321615Y160711D01*
X321594Y160841D01*
X321575Y160971D01*
X321572Y160980D01*
X321570Y160989D01*
X321513Y161109D01*
X321459Y161228D01*
X321453Y161235D01*
X321449Y161244D01*
X321361Y161343D01*
X321276Y161442D01*
X321268Y161448D01*
X321262Y161455D01*
X321196Y161494D01*
X321040Y161597D01*
X321017Y161604D01*
X320998Y161615D01*
X318614Y162603D01*
X316113Y165104D01*
X314759Y168371D01*
X314759Y171908D01*
X316113Y175176D01*
X318614Y177677D01*
X321882Y179031D01*
X325418Y179031D01*
X328686Y177677D01*
X331187Y175176D01*
X332541Y171908D01*
X332541Y168371D01*
X331187Y165104D01*
X328686Y162603D01*
X327282Y162021D01*
X327273Y162016D01*
X327264Y162014D01*
X327152Y161944D01*
X327039Y161877D01*
X327032Y161870D01*
X327024Y161865D01*
X326936Y161767D01*
X326846Y161672D01*
X326842Y161663D01*
X326835Y161656D01*
X326778Y161537D01*
X326718Y161420D01*
X326716Y161411D01*
X326712Y161402D01*
X326700Y161326D01*
X326666Y161143D01*
X326668Y161119D01*
X326665Y161098D01*
X326665Y156724D01*
X285026Y115085D01*
X227310Y115085D01*
X227215Y115072D01*
X227119Y115067D01*
X227075Y115052D01*
X227030Y115045D01*
X226943Y115006D01*
X226852Y114974D01*
X226818Y114949D01*
X226774Y114929D01*
X226676Y114846D01*
X226603Y114793D01*
X213484Y101674D01*
X213479Y101666D01*
X213471Y101660D01*
X213394Y101553D01*
X213315Y101448D01*
X213312Y101439D01*
X213306Y101432D01*
X213262Y101308D01*
X213215Y101184D01*
X213215Y101175D01*
X213211Y101166D01*
X213204Y101034D01*
X213194Y100903D01*
X213196Y100894D01*
X213195Y100884D01*
X213213Y100809D01*
X213251Y100627D01*
X213262Y100606D01*
X213268Y100585D01*
X214887Y96676D01*
X214887Y91724D01*
X212992Y87149D01*
X209491Y83648D01*
X204916Y81753D01*
X199964Y81753D01*
G37*
%LPD*%
%LPC*%
G36*
X603463Y712443D02*
X603463Y712443D01*
X596613Y715281D01*
X591371Y720523D01*
X588533Y727373D01*
X588533Y734787D01*
X591371Y741637D01*
X596613Y746879D01*
X603463Y749717D01*
X610877Y749717D01*
X617727Y746879D01*
X622969Y741637D01*
X625807Y734787D01*
X625807Y727373D01*
X622969Y720523D01*
X617727Y715281D01*
X610877Y712443D01*
X603463Y712443D01*
G37*
%LPD*%
%LPC*%
G36*
X383138Y102025D02*
X383138Y102025D01*
X382245Y102918D01*
X382245Y119182D01*
X383138Y120075D01*
X399402Y120075D01*
X400295Y119182D01*
X400295Y115944D01*
X400304Y115880D01*
X400303Y115816D01*
X400324Y115741D01*
X400335Y115665D01*
X400361Y115606D01*
X400378Y115544D01*
X400419Y115478D01*
X400451Y115408D01*
X400493Y115359D01*
X400526Y115304D01*
X400584Y115252D01*
X400634Y115194D01*
X400688Y115158D01*
X400736Y115115D01*
X400805Y115082D01*
X400870Y115039D01*
X400932Y115020D01*
X400989Y114992D01*
X401059Y114981D01*
X401140Y114957D01*
X401225Y114956D01*
X401294Y114945D01*
X412091Y114945D01*
X412101Y114946D01*
X412110Y114945D01*
X412240Y114966D01*
X412370Y114985D01*
X412379Y114988D01*
X412388Y114990D01*
X412508Y115047D01*
X412627Y115101D01*
X412635Y115107D01*
X412643Y115111D01*
X412741Y115198D01*
X412842Y115284D01*
X412847Y115292D01*
X412854Y115298D01*
X412894Y115364D01*
X412996Y115520D01*
X413003Y115543D01*
X413014Y115562D01*
X413251Y116134D01*
X415096Y117979D01*
X417506Y118977D01*
X420114Y118977D01*
X422524Y117979D01*
X424369Y116134D01*
X425367Y113724D01*
X425367Y111116D01*
X424369Y108706D01*
X422524Y106861D01*
X420114Y105863D01*
X417506Y105863D01*
X415096Y106861D01*
X413251Y108706D01*
X413014Y109278D01*
X413010Y109287D01*
X413007Y109296D01*
X412938Y109408D01*
X412871Y109521D01*
X412864Y109528D01*
X412859Y109536D01*
X412761Y109624D01*
X412665Y109714D01*
X412657Y109718D01*
X412650Y109725D01*
X412531Y109782D01*
X412414Y109842D01*
X412404Y109844D01*
X412396Y109848D01*
X412319Y109860D01*
X412136Y109894D01*
X412113Y109892D01*
X412091Y109895D01*
X401294Y109895D01*
X401230Y109886D01*
X401166Y109887D01*
X401091Y109866D01*
X401015Y109855D01*
X400956Y109829D01*
X400894Y109812D01*
X400828Y109771D01*
X400758Y109739D01*
X400709Y109697D01*
X400654Y109664D01*
X400602Y109606D01*
X400544Y109556D01*
X400508Y109502D01*
X400465Y109454D01*
X400432Y109385D01*
X400389Y109320D01*
X400370Y109258D01*
X400342Y109201D01*
X400331Y109131D01*
X400307Y109050D01*
X400306Y108965D01*
X400295Y108896D01*
X400295Y102918D01*
X399402Y102025D01*
X383138Y102025D01*
G37*
%LPD*%
%LPC*%
G36*
X304964Y81753D02*
X304964Y81753D01*
X300389Y83648D01*
X296888Y87149D01*
X294993Y91724D01*
X294993Y96676D01*
X296888Y101251D01*
X300389Y104752D01*
X304964Y106647D01*
X309916Y106647D01*
X314491Y104752D01*
X317992Y101251D01*
X319887Y96676D01*
X319887Y91724D01*
X317992Y87149D01*
X314491Y83648D01*
X309916Y81753D01*
X304964Y81753D01*
G37*
%LPD*%
%LPC*%
G36*
X234964Y81753D02*
X234964Y81753D01*
X230389Y83648D01*
X226888Y87149D01*
X224993Y91724D01*
X224993Y96676D01*
X226888Y101251D01*
X230389Y104752D01*
X234964Y106647D01*
X239916Y106647D01*
X244491Y104752D01*
X247992Y101251D01*
X249887Y96676D01*
X249887Y91724D01*
X247992Y87149D01*
X244491Y83648D01*
X239916Y81753D01*
X234964Y81753D01*
G37*
%LPD*%
%LPC*%
G36*
X269964Y81753D02*
X269964Y81753D01*
X265389Y83648D01*
X261888Y87149D01*
X259993Y91724D01*
X259993Y96676D01*
X261888Y101251D01*
X265389Y104752D01*
X269964Y106647D01*
X274916Y106647D01*
X279491Y104752D01*
X282992Y101251D01*
X284887Y96676D01*
X284887Y91724D01*
X282992Y87149D01*
X279491Y83648D01*
X274916Y81753D01*
X269964Y81753D01*
G37*
%LPD*%
%LPC*%
G36*
X339964Y81753D02*
X339964Y81753D01*
X335389Y83648D01*
X331888Y87149D01*
X329993Y91724D01*
X329993Y96676D01*
X331888Y101251D01*
X335389Y104752D01*
X339964Y106647D01*
X344916Y106647D01*
X349491Y104752D01*
X352992Y101251D01*
X354887Y96676D01*
X354887Y91724D01*
X352992Y87149D01*
X349491Y83648D01*
X344916Y81753D01*
X339964Y81753D01*
G37*
%LPD*%
%LPC*%
G36*
X880444Y185643D02*
X880444Y185643D01*
X875869Y187538D01*
X872368Y191039D01*
X870473Y195614D01*
X870473Y200566D01*
X872368Y205141D01*
X875869Y208642D01*
X880444Y210537D01*
X885396Y210537D01*
X889971Y208642D01*
X893472Y205141D01*
X895367Y200566D01*
X895367Y195614D01*
X893472Y191039D01*
X889971Y187538D01*
X885396Y185643D01*
X880444Y185643D01*
G37*
%LPD*%
%LPC*%
G36*
X848494Y81243D02*
X848494Y81243D01*
X843919Y83138D01*
X840418Y86639D01*
X838523Y91214D01*
X838523Y96166D01*
X840418Y100741D01*
X843919Y104242D01*
X848494Y106137D01*
X853446Y106137D01*
X858021Y104242D01*
X861522Y100741D01*
X863417Y96166D01*
X863417Y91214D01*
X861522Y86639D01*
X858021Y83138D01*
X853446Y81243D01*
X848494Y81243D01*
G37*
%LPD*%
%LPC*%
G36*
X880444Y220643D02*
X880444Y220643D01*
X875869Y222538D01*
X872368Y226039D01*
X870473Y230614D01*
X870473Y235566D01*
X872368Y240141D01*
X875869Y243642D01*
X880444Y245537D01*
X885396Y245537D01*
X889971Y243642D01*
X893472Y240141D01*
X895367Y235566D01*
X895367Y230614D01*
X893472Y226039D01*
X889971Y222538D01*
X885396Y220643D01*
X880444Y220643D01*
G37*
%LPD*%
%LPC*%
G36*
X883494Y81243D02*
X883494Y81243D01*
X878919Y83138D01*
X875418Y86639D01*
X873523Y91214D01*
X873523Y96166D01*
X875418Y100741D01*
X878919Y104242D01*
X883494Y106137D01*
X888446Y106137D01*
X893021Y104242D01*
X896522Y100741D01*
X898417Y96166D01*
X898417Y91214D01*
X896522Y86639D01*
X893021Y83138D01*
X888446Y81243D01*
X883494Y81243D01*
G37*
%LPD*%
%LPC*%
G36*
X880444Y150643D02*
X880444Y150643D01*
X875869Y152538D01*
X872368Y156039D01*
X870473Y160614D01*
X870473Y165566D01*
X872368Y170141D01*
X875869Y173642D01*
X880444Y175537D01*
X885396Y175537D01*
X889971Y173642D01*
X893472Y170141D01*
X895367Y165566D01*
X895367Y160614D01*
X893472Y156039D01*
X889971Y152538D01*
X885396Y150643D01*
X880444Y150643D01*
G37*
%LPD*%
%LPC*%
G36*
X652840Y464972D02*
X652840Y464972D01*
X652790Y465030D01*
X652736Y465066D01*
X652688Y465109D01*
X652619Y465142D01*
X652554Y465185D01*
X652492Y465204D01*
X652434Y465232D01*
X652365Y465243D01*
X652284Y465267D01*
X652199Y465268D01*
X652130Y465279D01*
X643384Y465279D01*
X643465Y465790D01*
X643934Y467235D01*
X644624Y468589D01*
X645517Y469818D01*
X646592Y470893D01*
X647821Y471786D01*
X649175Y472476D01*
X650620Y472945D01*
X650915Y472992D01*
X650923Y472994D01*
X650931Y472995D01*
X651058Y473036D01*
X651184Y473075D01*
X651191Y473079D01*
X651199Y473082D01*
X651310Y473157D01*
X651420Y473230D01*
X651426Y473236D01*
X651432Y473241D01*
X651517Y473343D01*
X651603Y473444D01*
X651606Y473452D01*
X651612Y473459D01*
X651664Y473581D01*
X651719Y473702D01*
X651720Y473710D01*
X651723Y473718D01*
X651739Y473849D01*
X651758Y473981D01*
X651757Y473989D01*
X651758Y473998D01*
X651737Y474128D01*
X651718Y474260D01*
X651714Y474268D01*
X651713Y474276D01*
X651656Y474396D01*
X651601Y474517D01*
X651595Y474523D01*
X651592Y474531D01*
X651503Y474630D01*
X651417Y474731D01*
X651410Y474735D01*
X651404Y474741D01*
X651341Y474780D01*
X651181Y474885D01*
X651159Y474891D01*
X651141Y474902D01*
X647988Y476208D01*
X645558Y478638D01*
X644243Y481812D01*
X644243Y485248D01*
X645558Y488422D01*
X647988Y490852D01*
X651162Y492167D01*
X654598Y492167D01*
X657772Y490852D01*
X660202Y488422D01*
X661517Y485248D01*
X661517Y481812D01*
X660202Y478638D01*
X657772Y476208D01*
X654619Y474902D01*
X654612Y474898D01*
X654604Y474895D01*
X654491Y474826D01*
X654376Y474758D01*
X654370Y474752D01*
X654363Y474748D01*
X654274Y474649D01*
X654183Y474553D01*
X654180Y474545D01*
X654174Y474539D01*
X654116Y474420D01*
X654056Y474301D01*
X654054Y474293D01*
X654050Y474285D01*
X654028Y474155D01*
X654003Y474024D01*
X654004Y474016D01*
X654002Y474007D01*
X654017Y473875D01*
X654030Y473743D01*
X654033Y473736D01*
X654034Y473727D01*
X654086Y473604D01*
X654135Y473481D01*
X654140Y473475D01*
X654143Y473467D01*
X654227Y473363D01*
X654308Y473259D01*
X654315Y473254D01*
X654320Y473248D01*
X654429Y473172D01*
X654537Y473094D01*
X654545Y473091D01*
X654552Y473086D01*
X654622Y473064D01*
X654803Y472999D01*
X654825Y472998D01*
X654845Y472992D01*
X655140Y472945D01*
X656585Y472476D01*
X657939Y471786D01*
X659168Y470893D01*
X660243Y469818D01*
X661136Y468589D01*
X661826Y467235D01*
X662295Y465790D01*
X662376Y465279D01*
X653630Y465279D01*
X653567Y465270D01*
X653502Y465271D01*
X653428Y465250D01*
X653351Y465239D01*
X653293Y465213D01*
X653231Y465196D01*
X653165Y465155D01*
X653094Y465123D01*
X653045Y465081D01*
X652991Y465048D01*
X652939Y464990D01*
X652880Y464940D01*
X652878Y464937D01*
X652840Y464972D01*
G37*
%LPD*%
%LPC*%
G36*
X753682Y161249D02*
X753682Y161249D01*
X750414Y162603D01*
X747913Y165104D01*
X746559Y168371D01*
X746559Y171908D01*
X747913Y175176D01*
X750414Y177677D01*
X753682Y179031D01*
X757218Y179031D01*
X760486Y177677D01*
X762987Y175176D01*
X764341Y171908D01*
X764341Y168371D01*
X762987Y165104D01*
X760486Y162603D01*
X757218Y161249D01*
X753682Y161249D01*
G37*
%LPD*%
%LPC*%
G36*
X194882Y288249D02*
X194882Y288249D01*
X191614Y289603D01*
X189113Y292104D01*
X187759Y295371D01*
X187759Y298908D01*
X189113Y302176D01*
X191614Y304677D01*
X194882Y306031D01*
X198418Y306031D01*
X201686Y304677D01*
X204187Y302176D01*
X205541Y298908D01*
X205541Y295371D01*
X204187Y292104D01*
X201686Y289603D01*
X198418Y288249D01*
X194882Y288249D01*
G37*
%LPD*%
%LPC*%
G36*
X283782Y192999D02*
X283782Y192999D01*
X280514Y194353D01*
X278013Y196854D01*
X276659Y200121D01*
X276659Y203658D01*
X278013Y206926D01*
X280514Y209427D01*
X283782Y210781D01*
X287318Y210781D01*
X290586Y209427D01*
X293087Y206926D01*
X294441Y203658D01*
X294441Y200121D01*
X293087Y196854D01*
X290586Y194353D01*
X287318Y192999D01*
X283782Y192999D01*
G37*
%LPD*%
%LPC*%
G36*
X232982Y192999D02*
X232982Y192999D01*
X229714Y194353D01*
X227213Y196854D01*
X225859Y200121D01*
X225859Y203658D01*
X227213Y206926D01*
X229714Y209427D01*
X232982Y210781D01*
X236518Y210781D01*
X239786Y209427D01*
X242287Y206926D01*
X243641Y203658D01*
X243641Y200121D01*
X242287Y196854D01*
X239786Y194353D01*
X236518Y192999D01*
X232982Y192999D01*
G37*
%LPD*%
%LPC*%
G36*
X334582Y192999D02*
X334582Y192999D01*
X331314Y194353D01*
X328813Y196854D01*
X327459Y200121D01*
X327459Y203658D01*
X328813Y206926D01*
X331314Y209427D01*
X334582Y210781D01*
X338118Y210781D01*
X341386Y209427D01*
X343887Y206926D01*
X345241Y203658D01*
X345241Y200121D01*
X343887Y196854D01*
X341386Y194353D01*
X338118Y192999D01*
X334582Y192999D01*
G37*
%LPD*%
%LPC*%
G36*
X258382Y192999D02*
X258382Y192999D01*
X255114Y194353D01*
X252613Y196854D01*
X251259Y200121D01*
X251259Y203658D01*
X252613Y206926D01*
X255114Y209427D01*
X258382Y210781D01*
X261918Y210781D01*
X265186Y209427D01*
X267687Y206926D01*
X269041Y203658D01*
X269041Y200121D01*
X267687Y196854D01*
X265186Y194353D01*
X261918Y192999D01*
X258382Y192999D01*
G37*
%LPD*%
%LPC*%
G36*
X626682Y186649D02*
X626682Y186649D01*
X623414Y188003D01*
X620913Y190504D01*
X619559Y193771D01*
X619559Y197308D01*
X620913Y200576D01*
X623414Y203077D01*
X626682Y204431D01*
X630218Y204431D01*
X633486Y203077D01*
X635987Y200576D01*
X637341Y197308D01*
X637341Y193771D01*
X635987Y190504D01*
X633486Y188003D01*
X630218Y186649D01*
X626682Y186649D01*
G37*
%LPD*%
%LPC*%
G36*
X702882Y161249D02*
X702882Y161249D01*
X699614Y162603D01*
X697113Y165104D01*
X695759Y168371D01*
X695759Y171908D01*
X697113Y175176D01*
X699614Y177677D01*
X702882Y179031D01*
X706418Y179031D01*
X709686Y177677D01*
X712187Y175176D01*
X713541Y171908D01*
X713541Y168371D01*
X712187Y165104D01*
X709686Y162603D01*
X706418Y161249D01*
X702882Y161249D01*
G37*
%LPD*%
%LPC*%
G36*
X753682Y313649D02*
X753682Y313649D01*
X750414Y315003D01*
X747913Y317504D01*
X746559Y320771D01*
X746559Y324308D01*
X747913Y327576D01*
X750414Y330077D01*
X753682Y331431D01*
X757218Y331431D01*
X760486Y330077D01*
X762987Y327576D01*
X764341Y324308D01*
X764341Y320771D01*
X762987Y317504D01*
X760486Y315003D01*
X757218Y313649D01*
X753682Y313649D01*
G37*
%LPD*%
%LPC*%
G36*
X652082Y161249D02*
X652082Y161249D01*
X648814Y162603D01*
X646313Y165104D01*
X644959Y168371D01*
X644959Y171908D01*
X646313Y175176D01*
X648814Y177677D01*
X652082Y179031D01*
X655618Y179031D01*
X658886Y177677D01*
X661387Y175176D01*
X662741Y171908D01*
X662741Y168371D01*
X661387Y165104D01*
X658886Y162603D01*
X655618Y161249D01*
X652082Y161249D01*
G37*
%LPD*%
%LPC*%
G36*
X626682Y161249D02*
X626682Y161249D01*
X623414Y162603D01*
X620913Y165104D01*
X619559Y168371D01*
X619559Y171908D01*
X620913Y175176D01*
X623414Y177677D01*
X626682Y179031D01*
X630218Y179031D01*
X633486Y177677D01*
X635987Y175176D01*
X637341Y171908D01*
X637341Y168371D01*
X635987Y165104D01*
X633486Y162603D01*
X630218Y161249D01*
X626682Y161249D01*
G37*
%LPD*%
%LPC*%
G36*
X601282Y161249D02*
X601282Y161249D01*
X598014Y162603D01*
X595513Y165104D01*
X594159Y168371D01*
X594159Y171908D01*
X595513Y175176D01*
X598014Y177677D01*
X601282Y179031D01*
X604818Y179031D01*
X608086Y177677D01*
X610587Y175176D01*
X611941Y171908D01*
X611941Y168371D01*
X610587Y165104D01*
X608086Y162603D01*
X604818Y161249D01*
X601282Y161249D01*
G37*
%LPD*%
%LPC*%
G36*
X398082Y161249D02*
X398082Y161249D01*
X394814Y162603D01*
X392313Y165104D01*
X390959Y168371D01*
X390959Y171908D01*
X392313Y175176D01*
X394814Y177677D01*
X398082Y179031D01*
X401618Y179031D01*
X404886Y177677D01*
X407387Y175176D01*
X408741Y171908D01*
X408741Y168371D01*
X407387Y165104D01*
X404886Y162603D01*
X401618Y161249D01*
X398082Y161249D01*
G37*
%LPD*%
%LPC*%
G36*
X347282Y161249D02*
X347282Y161249D01*
X344014Y162603D01*
X341513Y165104D01*
X340159Y168371D01*
X340159Y171908D01*
X341513Y175176D01*
X344014Y177677D01*
X347282Y179031D01*
X350818Y179031D01*
X354086Y177677D01*
X356587Y175176D01*
X357941Y171908D01*
X357941Y168371D01*
X356587Y165104D01*
X354086Y162603D01*
X350818Y161249D01*
X347282Y161249D01*
G37*
%LPD*%
%LPC*%
G36*
X677482Y161249D02*
X677482Y161249D01*
X674214Y162603D01*
X671713Y165104D01*
X670359Y168371D01*
X670359Y171908D01*
X671713Y175176D01*
X674214Y177677D01*
X677482Y179031D01*
X681018Y179031D01*
X684286Y177677D01*
X686787Y175176D01*
X688141Y171908D01*
X688141Y168371D01*
X686787Y165104D01*
X684286Y162603D01*
X681018Y161249D01*
X677482Y161249D01*
G37*
%LPD*%
%LPC*%
G36*
X309182Y192999D02*
X309182Y192999D01*
X305914Y194353D01*
X303413Y196854D01*
X302059Y200121D01*
X302059Y203658D01*
X303413Y206926D01*
X305914Y209427D01*
X309182Y210781D01*
X312718Y210781D01*
X315986Y209427D01*
X318487Y206926D01*
X319841Y203658D01*
X319841Y200121D01*
X318487Y196854D01*
X315986Y194353D01*
X312718Y192999D01*
X309182Y192999D01*
G37*
%LPD*%
%LPC*%
G36*
X728282Y161249D02*
X728282Y161249D01*
X725014Y162603D01*
X722513Y165104D01*
X721159Y168371D01*
X721159Y171908D01*
X722513Y175176D01*
X725014Y177677D01*
X728282Y179031D01*
X731818Y179031D01*
X735086Y177677D01*
X737587Y175176D01*
X738941Y171908D01*
X738941Y168371D01*
X737587Y165104D01*
X735086Y162603D01*
X731818Y161249D01*
X728282Y161249D01*
G37*
%LPD*%
%LPC*%
G36*
X677482Y313649D02*
X677482Y313649D01*
X674214Y315003D01*
X671713Y317504D01*
X670359Y320771D01*
X670359Y324308D01*
X671713Y327576D01*
X674214Y330077D01*
X677482Y331431D01*
X681018Y331431D01*
X684286Y330077D01*
X686787Y327576D01*
X688141Y324308D01*
X688141Y320771D01*
X686787Y317504D01*
X684286Y315003D01*
X681018Y313649D01*
X677482Y313649D01*
G37*
%LPD*%
%LPC*%
G36*
X271082Y288249D02*
X271082Y288249D01*
X267814Y289603D01*
X265313Y292104D01*
X263959Y295371D01*
X263959Y298908D01*
X265313Y302176D01*
X267814Y304677D01*
X271082Y306031D01*
X274618Y306031D01*
X277886Y304677D01*
X280387Y302176D01*
X281741Y298908D01*
X281741Y295371D01*
X280387Y292104D01*
X277886Y289603D01*
X274618Y288249D01*
X271082Y288249D01*
G37*
%LPD*%
%LPC*%
G36*
X702882Y313649D02*
X702882Y313649D01*
X699614Y315003D01*
X697113Y317504D01*
X695759Y320771D01*
X695759Y324308D01*
X697113Y327576D01*
X699614Y330077D01*
X702882Y331431D01*
X706418Y331431D01*
X709686Y330077D01*
X712187Y327576D01*
X713541Y324308D01*
X713541Y320771D01*
X712187Y317504D01*
X709686Y315003D01*
X706418Y313649D01*
X702882Y313649D01*
G37*
%LPD*%
%LPC*%
G36*
X169482Y313649D02*
X169482Y313649D01*
X166214Y315003D01*
X163713Y317504D01*
X162359Y320771D01*
X162359Y324308D01*
X163713Y327576D01*
X166214Y330077D01*
X169482Y331431D01*
X173018Y331431D01*
X176286Y330077D01*
X178787Y327576D01*
X180141Y324308D01*
X180141Y320771D01*
X178787Y317504D01*
X176286Y315003D01*
X173018Y313649D01*
X169482Y313649D01*
G37*
%LPD*%
%LPC*%
G36*
X728282Y313649D02*
X728282Y313649D01*
X725014Y315003D01*
X722513Y317504D01*
X721159Y320771D01*
X721159Y324308D01*
X722513Y327576D01*
X725014Y330077D01*
X728282Y331431D01*
X731818Y331431D01*
X735086Y330077D01*
X737587Y327576D01*
X738941Y324308D01*
X738941Y320771D01*
X737587Y317504D01*
X735086Y315003D01*
X731818Y313649D01*
X728282Y313649D01*
G37*
%LPD*%
%LPC*%
G36*
X372682Y161249D02*
X372682Y161249D01*
X369414Y162603D01*
X366913Y165104D01*
X365559Y168371D01*
X365559Y171908D01*
X366913Y175176D01*
X369414Y177677D01*
X372682Y179031D01*
X376218Y179031D01*
X379486Y177677D01*
X381987Y175176D01*
X383341Y171908D01*
X383341Y168371D01*
X381987Y165104D01*
X379486Y162603D01*
X376218Y161249D01*
X372682Y161249D01*
G37*
%LPD*%
%LPC*%
G36*
X443694Y732704D02*
X443694Y732704D01*
X443694Y750688D01*
X445912Y750396D01*
X448401Y749730D01*
X450781Y748744D01*
X453012Y747456D01*
X455056Y745887D01*
X456877Y744066D01*
X458446Y742022D01*
X459734Y739791D01*
X460720Y737411D01*
X461386Y734922D01*
X461678Y732704D01*
X443694Y732704D01*
G37*
%LPD*%
%LPC*%
G36*
X443694Y542204D02*
X443694Y542204D01*
X443694Y560188D01*
X445912Y559896D01*
X448401Y559230D01*
X450781Y558244D01*
X453012Y556956D01*
X455056Y555387D01*
X456877Y553566D01*
X458446Y551522D01*
X459734Y549291D01*
X460720Y546911D01*
X461386Y544422D01*
X461678Y542204D01*
X443694Y542204D01*
G37*
%LPD*%
%LPC*%
G36*
X422462Y732704D02*
X422462Y732704D01*
X422754Y734922D01*
X423420Y737411D01*
X424406Y739791D01*
X425694Y742022D01*
X427263Y744066D01*
X429084Y745887D01*
X431128Y747456D01*
X433359Y748744D01*
X435739Y749730D01*
X438228Y750396D01*
X440446Y750688D01*
X440446Y732704D01*
X422462Y732704D01*
G37*
%LPD*%
%LPC*%
G36*
X443694Y729456D02*
X443694Y729456D01*
X461678Y729456D01*
X461386Y727238D01*
X460720Y724749D01*
X459734Y722369D01*
X458446Y720138D01*
X456877Y718094D01*
X455056Y716273D01*
X453012Y714704D01*
X450781Y713416D01*
X448401Y712430D01*
X445912Y711764D01*
X443694Y711472D01*
X443694Y729456D01*
G37*
%LPD*%
%LPC*%
G36*
X443694Y538956D02*
X443694Y538956D01*
X461678Y538956D01*
X461386Y536738D01*
X460720Y534249D01*
X459734Y531869D01*
X458446Y529638D01*
X456877Y527594D01*
X455056Y525773D01*
X453012Y524204D01*
X450781Y522916D01*
X448401Y521930D01*
X445912Y521264D01*
X443694Y520972D01*
X443694Y538956D01*
G37*
%LPD*%
%LPC*%
G36*
X422462Y542204D02*
X422462Y542204D01*
X422754Y544422D01*
X423420Y546911D01*
X424406Y549291D01*
X425694Y551522D01*
X427263Y553566D01*
X429084Y555387D01*
X431128Y556956D01*
X433359Y558244D01*
X435739Y559230D01*
X438228Y559896D01*
X440446Y560188D01*
X440446Y542204D01*
X422462Y542204D01*
G37*
%LPD*%
%LPC*%
G36*
X438228Y711764D02*
X438228Y711764D01*
X435739Y712430D01*
X433359Y713416D01*
X431128Y714704D01*
X429084Y716273D01*
X427263Y718094D01*
X425694Y720138D01*
X424406Y722369D01*
X423420Y724749D01*
X422754Y727238D01*
X422462Y729456D01*
X440446Y729456D01*
X440446Y711472D01*
X438228Y711764D01*
G37*
%LPD*%
%LPC*%
G36*
X438228Y521264D02*
X438228Y521264D01*
X435739Y521930D01*
X433359Y522916D01*
X431128Y524204D01*
X429084Y525773D01*
X427263Y527594D01*
X425694Y529638D01*
X424406Y531869D01*
X423420Y534249D01*
X422754Y536738D01*
X422462Y538956D01*
X440446Y538956D01*
X440446Y520972D01*
X438228Y521264D01*
G37*
%LPD*%
%LPC*%
G36*
X871162Y454893D02*
X871162Y454893D01*
X867988Y456208D01*
X865558Y458638D01*
X864243Y461812D01*
X864243Y465248D01*
X865558Y468422D01*
X867988Y470852D01*
X871162Y472167D01*
X874598Y472167D01*
X877772Y470852D01*
X880202Y468422D01*
X881517Y465248D01*
X881517Y461812D01*
X880202Y458638D01*
X877772Y456208D01*
X874598Y454893D01*
X871162Y454893D01*
G37*
%LPD*%
%LPC*%
G36*
X871162Y554893D02*
X871162Y554893D01*
X867988Y556208D01*
X865558Y558638D01*
X864243Y561812D01*
X864243Y565248D01*
X865558Y568422D01*
X867988Y570852D01*
X871162Y572167D01*
X874598Y572167D01*
X877772Y570852D01*
X880202Y568422D01*
X881517Y565248D01*
X881517Y561812D01*
X880202Y558638D01*
X877772Y556208D01*
X874598Y554893D01*
X871162Y554893D01*
G37*
%LPD*%
%LPC*%
G36*
X871162Y634893D02*
X871162Y634893D01*
X867988Y636208D01*
X865558Y638638D01*
X864243Y641812D01*
X864243Y645248D01*
X865558Y648422D01*
X867988Y650852D01*
X871162Y652167D01*
X874598Y652167D01*
X877772Y650852D01*
X880202Y648422D01*
X881517Y645248D01*
X881517Y641812D01*
X880202Y638638D01*
X877772Y636208D01*
X874598Y634893D01*
X871162Y634893D01*
G37*
%LPD*%
%LPC*%
G36*
X871162Y614893D02*
X871162Y614893D01*
X867988Y616208D01*
X865558Y618638D01*
X864243Y621812D01*
X864243Y625248D01*
X865558Y628422D01*
X867988Y630852D01*
X871162Y632167D01*
X874598Y632167D01*
X877772Y630852D01*
X880202Y628422D01*
X881517Y625248D01*
X881517Y621812D01*
X880202Y618638D01*
X877772Y616208D01*
X874598Y614893D01*
X871162Y614893D01*
G37*
%LPD*%
%LPC*%
G36*
X871162Y594893D02*
X871162Y594893D01*
X867988Y596208D01*
X865558Y598638D01*
X864243Y601812D01*
X864243Y605248D01*
X865558Y608422D01*
X867988Y610852D01*
X871162Y612167D01*
X874598Y612167D01*
X877772Y610852D01*
X880202Y608422D01*
X881517Y605248D01*
X881517Y601812D01*
X880202Y598638D01*
X877772Y596208D01*
X874598Y594893D01*
X871162Y594893D01*
G37*
%LPD*%
%LPC*%
G36*
X871162Y574893D02*
X871162Y574893D01*
X867988Y576208D01*
X865558Y578638D01*
X864243Y581812D01*
X864243Y585248D01*
X865558Y588422D01*
X867988Y590852D01*
X871162Y592167D01*
X874598Y592167D01*
X877772Y590852D01*
X880202Y588422D01*
X881517Y585248D01*
X881517Y581812D01*
X880202Y578638D01*
X877772Y576208D01*
X874598Y574893D01*
X871162Y574893D01*
G37*
%LPD*%
%LPC*%
G36*
X651162Y534893D02*
X651162Y534893D01*
X647988Y536208D01*
X645558Y538638D01*
X644243Y541812D01*
X644243Y545248D01*
X645558Y548422D01*
X647988Y550852D01*
X651162Y552167D01*
X654598Y552167D01*
X657772Y550852D01*
X660202Y548422D01*
X661517Y545248D01*
X661517Y541812D01*
X660202Y538638D01*
X657772Y536208D01*
X654598Y534893D01*
X651162Y534893D01*
G37*
%LPD*%
%LPC*%
G36*
X871162Y534893D02*
X871162Y534893D01*
X867988Y536208D01*
X865558Y538638D01*
X864243Y541812D01*
X864243Y545248D01*
X865558Y548422D01*
X867988Y550852D01*
X871162Y552167D01*
X874598Y552167D01*
X877772Y550852D01*
X880202Y548422D01*
X881517Y545248D01*
X881517Y541812D01*
X880202Y538638D01*
X877772Y536208D01*
X874598Y534893D01*
X871162Y534893D01*
G37*
%LPD*%
%LPC*%
G36*
X651162Y514893D02*
X651162Y514893D01*
X647988Y516208D01*
X645558Y518638D01*
X644243Y521812D01*
X644243Y525248D01*
X645558Y528422D01*
X647988Y530852D01*
X651162Y532167D01*
X654598Y532167D01*
X657772Y530852D01*
X660202Y528422D01*
X661517Y525248D01*
X661517Y521812D01*
X660202Y518638D01*
X657772Y516208D01*
X654598Y514893D01*
X651162Y514893D01*
G37*
%LPD*%
%LPC*%
G36*
X871162Y514893D02*
X871162Y514893D01*
X867988Y516208D01*
X865558Y518638D01*
X864243Y521812D01*
X864243Y525248D01*
X865558Y528422D01*
X867988Y530852D01*
X871162Y532167D01*
X874598Y532167D01*
X877772Y530852D01*
X880202Y528422D01*
X881517Y525248D01*
X881517Y521812D01*
X880202Y518638D01*
X877772Y516208D01*
X874598Y514893D01*
X871162Y514893D01*
G37*
%LPD*%
%LPC*%
G36*
X651162Y494893D02*
X651162Y494893D01*
X647988Y496208D01*
X645558Y498638D01*
X644243Y501812D01*
X644243Y505248D01*
X645558Y508422D01*
X647988Y510852D01*
X651162Y512167D01*
X654598Y512167D01*
X657772Y510852D01*
X660202Y508422D01*
X661517Y505248D01*
X661517Y501812D01*
X660202Y498638D01*
X657772Y496208D01*
X654598Y494893D01*
X651162Y494893D01*
G37*
%LPD*%
%LPC*%
G36*
X871162Y494893D02*
X871162Y494893D01*
X867988Y496208D01*
X865558Y498638D01*
X864243Y501812D01*
X864243Y505248D01*
X865558Y508422D01*
X867988Y510852D01*
X871162Y512167D01*
X874598Y512167D01*
X877772Y510852D01*
X880202Y508422D01*
X881517Y505248D01*
X881517Y501812D01*
X880202Y498638D01*
X877772Y496208D01*
X874598Y494893D01*
X871162Y494893D01*
G37*
%LPD*%
%LPC*%
G36*
X871162Y474893D02*
X871162Y474893D01*
X867988Y476208D01*
X865558Y478638D01*
X864243Y481812D01*
X864243Y485248D01*
X865558Y488422D01*
X867988Y490852D01*
X871162Y492167D01*
X874598Y492167D01*
X877772Y490852D01*
X880202Y488422D01*
X881517Y485248D01*
X881517Y481812D01*
X880202Y478638D01*
X877772Y476208D01*
X874598Y474893D01*
X871162Y474893D01*
G37*
%LPD*%
%LPC*%
G36*
X234675Y621465D02*
X234675Y621465D01*
X232078Y622541D01*
X230091Y624528D01*
X229015Y627125D01*
X229015Y629935D01*
X230091Y632532D01*
X232078Y634519D01*
X234675Y635595D01*
X237485Y635595D01*
X240082Y634519D01*
X242069Y632532D01*
X243145Y629935D01*
X243145Y627125D01*
X242069Y624528D01*
X240082Y622541D01*
X237485Y621465D01*
X234675Y621465D01*
G37*
%LPD*%
%LPC*%
G36*
X260075Y621465D02*
X260075Y621465D01*
X257478Y622541D01*
X255491Y624528D01*
X254415Y627125D01*
X254415Y629935D01*
X255491Y632532D01*
X257478Y634519D01*
X260075Y635595D01*
X262885Y635595D01*
X265482Y634519D01*
X267469Y632532D01*
X268545Y629935D01*
X268545Y627125D01*
X267469Y624528D01*
X265482Y622541D01*
X262885Y621465D01*
X260075Y621465D01*
G37*
%LPD*%
%LPC*%
G36*
X285475Y621465D02*
X285475Y621465D01*
X282878Y622541D01*
X280891Y624528D01*
X279815Y627125D01*
X279815Y629935D01*
X280891Y632532D01*
X282878Y634519D01*
X285475Y635595D01*
X288285Y635595D01*
X290882Y634519D01*
X292869Y632532D01*
X293945Y629935D01*
X293945Y627125D01*
X292869Y624528D01*
X290882Y622541D01*
X288285Y621465D01*
X285475Y621465D01*
G37*
%LPD*%
%LPC*%
G36*
X361675Y621465D02*
X361675Y621465D01*
X359078Y622541D01*
X357091Y624528D01*
X356015Y627125D01*
X356015Y629935D01*
X357091Y632532D01*
X359078Y634519D01*
X361675Y635595D01*
X364485Y635595D01*
X367082Y634519D01*
X369069Y632532D01*
X370145Y629935D01*
X370145Y627125D01*
X369069Y624528D01*
X367082Y622541D01*
X364485Y621465D01*
X361675Y621465D01*
G37*
%LPD*%
%LPC*%
G36*
X310875Y621465D02*
X310875Y621465D01*
X308278Y622541D01*
X306291Y624528D01*
X305215Y627125D01*
X305215Y629935D01*
X306291Y632532D01*
X308278Y634519D01*
X310875Y635595D01*
X313685Y635595D01*
X316282Y634519D01*
X318269Y632532D01*
X319345Y629935D01*
X319345Y627125D01*
X318269Y624528D01*
X316282Y622541D01*
X313685Y621465D01*
X310875Y621465D01*
G37*
%LPD*%
%LPC*%
G36*
X336275Y621465D02*
X336275Y621465D01*
X333678Y622541D01*
X331691Y624528D01*
X330615Y627125D01*
X330615Y629935D01*
X331691Y632532D01*
X333678Y634519D01*
X336275Y635595D01*
X339085Y635595D01*
X341682Y634519D01*
X343669Y632532D01*
X344745Y629935D01*
X344745Y627125D01*
X343669Y624528D01*
X341682Y622541D01*
X339085Y621465D01*
X336275Y621465D01*
G37*
%LPD*%
%LPC*%
G36*
X183875Y621465D02*
X183875Y621465D01*
X181278Y622541D01*
X179291Y624528D01*
X178215Y627125D01*
X178215Y629935D01*
X179291Y632532D01*
X181278Y634519D01*
X183875Y635595D01*
X186685Y635595D01*
X189282Y634519D01*
X191269Y632532D01*
X192345Y629935D01*
X192345Y627125D01*
X191269Y624528D01*
X189282Y622541D01*
X186685Y621465D01*
X183875Y621465D01*
G37*
%LPD*%
%LPC*%
G36*
X884919Y410089D02*
X884919Y410089D01*
X884919Y421404D01*
X886072Y421221D01*
X888088Y420566D01*
X889976Y419604D01*
X891690Y418359D01*
X893189Y416860D01*
X894434Y415146D01*
X895396Y413258D01*
X896051Y411242D01*
X896234Y410089D01*
X884919Y410089D01*
G37*
%LPD*%
%LPC*%
G36*
X884919Y375089D02*
X884919Y375089D01*
X884919Y386404D01*
X886072Y386221D01*
X888088Y385566D01*
X889976Y384604D01*
X891690Y383359D01*
X893189Y381860D01*
X894434Y380146D01*
X895396Y378258D01*
X896051Y376242D01*
X896234Y375089D01*
X884919Y375089D01*
G37*
%LPD*%
%LPC*%
G36*
X869606Y375089D02*
X869606Y375089D01*
X869752Y376011D01*
X869789Y376242D01*
X870444Y378258D01*
X871406Y380146D01*
X872651Y381860D01*
X874150Y383359D01*
X875864Y384604D01*
X877752Y385566D01*
X879768Y386221D01*
X880921Y386404D01*
X880921Y375089D01*
X869606Y375089D01*
G37*
%LPD*%
%LPC*%
G36*
X869606Y410089D02*
X869606Y410089D01*
X869748Y410984D01*
X869748Y410985D01*
X869789Y411242D01*
X870444Y413258D01*
X871406Y415146D01*
X872651Y416860D01*
X874150Y418359D01*
X875864Y419604D01*
X877752Y420566D01*
X879768Y421221D01*
X880921Y421404D01*
X880921Y410089D01*
X869606Y410089D01*
G37*
%LPD*%
%LPC*%
G36*
X884919Y406091D02*
X884919Y406091D01*
X896234Y406091D01*
X896051Y404938D01*
X895396Y402922D01*
X894434Y401034D01*
X893189Y399320D01*
X891690Y397821D01*
X889976Y396576D01*
X888088Y395614D01*
X886072Y394959D01*
X884919Y394776D01*
X884919Y406091D01*
G37*
%LPD*%
%LPC*%
G36*
X884919Y371091D02*
X884919Y371091D01*
X896234Y371091D01*
X896051Y369938D01*
X895396Y367922D01*
X894434Y366034D01*
X893189Y364320D01*
X891690Y362821D01*
X889976Y361576D01*
X888088Y360614D01*
X886072Y359959D01*
X884919Y359776D01*
X884919Y371091D01*
G37*
%LPD*%
%LPC*%
G36*
X879768Y394959D02*
X879768Y394959D01*
X877752Y395614D01*
X875864Y396576D01*
X874150Y397821D01*
X872651Y399320D01*
X871406Y401034D01*
X870444Y402922D01*
X869789Y404938D01*
X869606Y406091D01*
X880921Y406091D01*
X880921Y394776D01*
X879768Y394959D01*
G37*
%LPD*%
%LPC*%
G36*
X879768Y359959D02*
X879768Y359959D01*
X877752Y360614D01*
X875864Y361576D01*
X874150Y362821D01*
X872651Y364320D01*
X871406Y366034D01*
X870444Y367922D01*
X869789Y369938D01*
X869606Y371091D01*
X880921Y371091D01*
X880921Y359776D01*
X879768Y359959D01*
G37*
%LPD*%
%LPC*%
G36*
X393269Y78049D02*
X393269Y78049D01*
X393269Y86091D01*
X399105Y86091D01*
X399751Y85918D01*
X400330Y85583D01*
X400803Y85110D01*
X401138Y84531D01*
X401311Y83885D01*
X401311Y78049D01*
X393269Y78049D01*
G37*
%LPD*%
%LPC*%
G36*
X447339Y77709D02*
X447339Y77709D01*
X447339Y85751D01*
X453175Y85751D01*
X453821Y85578D01*
X454400Y85243D01*
X454873Y84770D01*
X455208Y84191D01*
X455381Y83545D01*
X455381Y77709D01*
X447339Y77709D01*
G37*
%LPD*%
%LPC*%
G36*
X381229Y78049D02*
X381229Y78049D01*
X381229Y83885D01*
X381402Y84531D01*
X381737Y85110D01*
X382210Y85583D01*
X382789Y85918D01*
X383435Y86091D01*
X389271Y86091D01*
X389271Y78049D01*
X381229Y78049D01*
G37*
%LPD*%
%LPC*%
G36*
X501079Y67249D02*
X501079Y67249D01*
X501079Y75291D01*
X509121Y75291D01*
X509121Y69455D01*
X508948Y68809D01*
X508613Y68230D01*
X508140Y67757D01*
X507561Y67422D01*
X506915Y67249D01*
X501079Y67249D01*
G37*
%LPD*%
%LPC*%
G36*
X556599Y68259D02*
X556599Y68259D01*
X556599Y76301D01*
X564641Y76301D01*
X564641Y70465D01*
X564468Y69819D01*
X564133Y69240D01*
X563660Y68767D01*
X563081Y68432D01*
X562435Y68259D01*
X556599Y68259D01*
G37*
%LPD*%
%LPC*%
G36*
X611199Y68699D02*
X611199Y68699D01*
X611199Y76741D01*
X619241Y76741D01*
X619241Y70905D01*
X619068Y70259D01*
X618733Y69680D01*
X618260Y69207D01*
X617681Y68872D01*
X617035Y68699D01*
X611199Y68699D01*
G37*
%LPD*%
%LPC*%
G36*
X435299Y77709D02*
X435299Y77709D01*
X435299Y83545D01*
X435472Y84191D01*
X435807Y84770D01*
X436280Y85243D01*
X436859Y85578D01*
X437505Y85751D01*
X443341Y85751D01*
X443341Y77709D01*
X435299Y77709D01*
G37*
%LPD*%
%LPC*%
G36*
X447339Y65669D02*
X447339Y65669D01*
X447339Y73711D01*
X455381Y73711D01*
X455381Y67875D01*
X455208Y67229D01*
X454873Y66650D01*
X454400Y66177D01*
X453821Y65842D01*
X453175Y65669D01*
X447339Y65669D01*
G37*
%LPD*%
%LPC*%
G36*
X393269Y66009D02*
X393269Y66009D01*
X393269Y74051D01*
X401311Y74051D01*
X401311Y68215D01*
X401138Y67569D01*
X400803Y66990D01*
X400330Y66517D01*
X399751Y66182D01*
X399105Y66009D01*
X393269Y66009D01*
G37*
%LPD*%
%LPC*%
G36*
X437505Y65669D02*
X437505Y65669D01*
X436859Y65842D01*
X436280Y66177D01*
X435807Y66650D01*
X435472Y67229D01*
X435299Y67875D01*
X435299Y73711D01*
X443341Y73711D01*
X443341Y65669D01*
X437505Y65669D01*
G37*
%LPD*%
%LPC*%
G36*
X383435Y66009D02*
X383435Y66009D01*
X382789Y66182D01*
X382210Y66517D01*
X381737Y66990D01*
X381402Y67569D01*
X381229Y68215D01*
X381229Y74051D01*
X389271Y74051D01*
X389271Y66009D01*
X383435Y66009D01*
G37*
%LPD*%
%LPC*%
G36*
X491245Y67249D02*
X491245Y67249D01*
X490599Y67422D01*
X490020Y67757D01*
X489547Y68230D01*
X489212Y68809D01*
X489039Y69455D01*
X489039Y75291D01*
X497081Y75291D01*
X497081Y67249D01*
X491245Y67249D01*
G37*
%LPD*%
%LPC*%
G36*
X546765Y68259D02*
X546765Y68259D01*
X546119Y68432D01*
X545540Y68767D01*
X545067Y69240D01*
X544732Y69819D01*
X544559Y70465D01*
X544559Y76301D01*
X552601Y76301D01*
X552601Y68259D01*
X546765Y68259D01*
G37*
%LPD*%
%LPC*%
G36*
X601365Y68699D02*
X601365Y68699D01*
X600719Y68872D01*
X600140Y69207D01*
X599667Y69680D01*
X599332Y70259D01*
X599159Y70905D01*
X599159Y76741D01*
X607201Y76741D01*
X607201Y68699D01*
X601365Y68699D01*
G37*
%LPD*%
%LPC*%
G36*
X654629Y461781D02*
X654629Y461781D01*
X662376Y461781D01*
X662295Y461270D01*
X661826Y459825D01*
X661136Y458471D01*
X660243Y457242D01*
X659168Y456167D01*
X657939Y455274D01*
X656585Y454584D01*
X655140Y454115D01*
X654629Y454034D01*
X654629Y461781D01*
G37*
%LPD*%
%LPC*%
G36*
X650620Y454115D02*
X650620Y454115D01*
X649175Y454584D01*
X647821Y455274D01*
X646592Y456167D01*
X645517Y457242D01*
X644624Y458471D01*
X643934Y459825D01*
X643465Y461270D01*
X643384Y461781D01*
X651131Y461781D01*
X651131Y454034D01*
X650620Y454115D01*
G37*
%LPD*%
%LPC*%
G36*
X512779Y370831D02*
X512779Y370831D01*
X519361Y370831D01*
X519361Y366455D01*
X519188Y365809D01*
X518853Y365230D01*
X518380Y364757D01*
X517801Y364422D01*
X517155Y364249D01*
X512779Y364249D01*
X512779Y370831D01*
G37*
%LPD*%
%LPC*%
G36*
X505405Y364249D02*
X505405Y364249D01*
X504759Y364422D01*
X504180Y364757D01*
X503707Y365230D01*
X503372Y365809D01*
X503199Y366455D01*
X503199Y370831D01*
X509781Y370831D01*
X509781Y364249D01*
X505405Y364249D01*
G37*
%LPD*%
%LPC*%
G36*
X198649Y324539D02*
X198649Y324539D01*
X198649Y332254D01*
X198970Y332203D01*
X200453Y331721D01*
X201842Y331013D01*
X203104Y330096D01*
X204206Y328994D01*
X205123Y327732D01*
X205831Y326343D01*
X206313Y324860D01*
X206364Y324539D01*
X198649Y324539D01*
G37*
%LPD*%
%LPC*%
G36*
X173249Y172139D02*
X173249Y172139D01*
X173249Y179854D01*
X173570Y179803D01*
X175053Y179321D01*
X176442Y178613D01*
X177704Y177696D01*
X178806Y176594D01*
X179723Y175332D01*
X180431Y173943D01*
X180913Y172460D01*
X180964Y172139D01*
X173249Y172139D01*
G37*
%LPD*%
%LPC*%
G36*
X630449Y248339D02*
X630449Y248339D01*
X630449Y256054D01*
X630770Y256003D01*
X632253Y255521D01*
X633642Y254813D01*
X634904Y253896D01*
X636006Y252794D01*
X636923Y251532D01*
X637631Y250143D01*
X638113Y248660D01*
X638164Y248339D01*
X630449Y248339D01*
G37*
%LPD*%
%LPC*%
G36*
X528849Y324539D02*
X528849Y324539D01*
X528849Y332254D01*
X529170Y332203D01*
X530653Y331721D01*
X532042Y331013D01*
X533304Y330096D01*
X534406Y328994D01*
X535323Y327732D01*
X536031Y326343D01*
X536513Y324860D01*
X536564Y324539D01*
X528849Y324539D01*
G37*
%LPD*%
%LPC*%
G36*
X630449Y244341D02*
X630449Y244341D01*
X638164Y244341D01*
X638113Y244020D01*
X637631Y242537D01*
X636923Y241148D01*
X636006Y239886D01*
X634904Y238784D01*
X633642Y237867D01*
X632253Y237159D01*
X630770Y236677D01*
X630449Y236626D01*
X630449Y244341D01*
G37*
%LPD*%
%LPC*%
G36*
X618736Y248339D02*
X618736Y248339D01*
X618787Y248660D01*
X619269Y250143D01*
X619977Y251532D01*
X620894Y252794D01*
X621996Y253896D01*
X623258Y254813D01*
X624647Y255521D01*
X626130Y256003D01*
X626451Y256054D01*
X626451Y248339D01*
X618736Y248339D01*
G37*
%LPD*%
%LPC*%
G36*
X186936Y324539D02*
X186936Y324539D01*
X186987Y324860D01*
X187469Y326343D01*
X188177Y327732D01*
X189094Y328994D01*
X190196Y330096D01*
X191458Y331013D01*
X192847Y331721D01*
X194330Y332203D01*
X194651Y332254D01*
X194651Y324539D01*
X186936Y324539D01*
G37*
%LPD*%
%LPC*%
G36*
X517136Y324539D02*
X517136Y324539D01*
X517187Y324860D01*
X517669Y326343D01*
X518377Y327732D01*
X519294Y328994D01*
X520396Y330096D01*
X521658Y331013D01*
X523047Y331721D01*
X524530Y332203D01*
X524851Y332254D01*
X524851Y324539D01*
X517136Y324539D01*
G37*
%LPD*%
%LPC*%
G36*
X198649Y320541D02*
X198649Y320541D01*
X206364Y320541D01*
X206313Y320220D01*
X205831Y318737D01*
X205123Y317348D01*
X204206Y316086D01*
X203104Y314984D01*
X201842Y314067D01*
X200453Y313359D01*
X198970Y312877D01*
X198649Y312826D01*
X198649Y320541D01*
G37*
%LPD*%
%LPC*%
G36*
X528849Y320541D02*
X528849Y320541D01*
X536564Y320541D01*
X536513Y320220D01*
X536031Y318737D01*
X535323Y317348D01*
X534406Y316086D01*
X533304Y314984D01*
X532042Y314067D01*
X530653Y313359D01*
X529170Y312877D01*
X528849Y312826D01*
X528849Y320541D01*
G37*
%LPD*%
%LPC*%
G36*
X161536Y172139D02*
X161536Y172139D01*
X161540Y172164D01*
X161587Y172460D01*
X162069Y173943D01*
X162777Y175332D01*
X163694Y176594D01*
X164796Y177696D01*
X166058Y178613D01*
X167447Y179321D01*
X168930Y179803D01*
X169251Y179854D01*
X169251Y172139D01*
X161536Y172139D01*
G37*
%LPD*%
%LPC*%
G36*
X626130Y236677D02*
X626130Y236677D01*
X624647Y237159D01*
X623258Y237867D01*
X621996Y238784D01*
X620894Y239886D01*
X619977Y241148D01*
X619269Y242537D01*
X618787Y244020D01*
X618736Y244341D01*
X626451Y244341D01*
X626451Y236626D01*
X626130Y236677D01*
G37*
%LPD*%
%LPC*%
G36*
X194330Y312877D02*
X194330Y312877D01*
X192847Y313359D01*
X191458Y314067D01*
X190196Y314984D01*
X189094Y316086D01*
X188177Y317348D01*
X187469Y318737D01*
X186987Y320220D01*
X186936Y320541D01*
X194651Y320541D01*
X194651Y312826D01*
X194330Y312877D01*
G37*
%LPD*%
%LPC*%
G36*
X524530Y312877D02*
X524530Y312877D01*
X523047Y313359D01*
X521658Y314067D01*
X520396Y314984D01*
X519294Y316086D01*
X518377Y317348D01*
X517669Y318737D01*
X517187Y320220D01*
X517136Y320541D01*
X524851Y320541D01*
X524851Y312826D01*
X524530Y312877D01*
G37*
%LPD*%
%LPC*%
G36*
X262379Y427229D02*
X262379Y427229D01*
X262379Y433671D01*
X263237Y433500D01*
X264708Y432891D01*
X266031Y432007D01*
X267157Y430881D01*
X268041Y429558D01*
X268650Y428087D01*
X268821Y427229D01*
X262379Y427229D01*
G37*
%LPD*%
%LPC*%
G36*
X262379Y424231D02*
X262379Y424231D01*
X268821Y424231D01*
X268650Y423373D01*
X268041Y421902D01*
X267157Y420579D01*
X266031Y419453D01*
X264708Y418569D01*
X263237Y417960D01*
X262379Y417789D01*
X262379Y424231D01*
G37*
%LPD*%
%LPC*%
G36*
X252939Y427229D02*
X252939Y427229D01*
X253110Y428087D01*
X253719Y429558D01*
X254603Y430881D01*
X255729Y432007D01*
X257052Y432891D01*
X258523Y433500D01*
X259381Y433671D01*
X259381Y427229D01*
X252939Y427229D01*
G37*
%LPD*%
%LPC*%
G36*
X258523Y417960D02*
X258523Y417960D01*
X257052Y418569D01*
X255729Y419453D01*
X254603Y420579D01*
X253719Y421902D01*
X253110Y423373D01*
X252939Y424231D01*
X259381Y424231D01*
X259381Y417789D01*
X258523Y417960D01*
G37*
%LPD*%
%LPC*%
G36*
X196649Y322539D02*
X196649Y322539D01*
X196649Y322541D01*
X196651Y322541D01*
X196651Y322539D01*
X196649Y322539D01*
G37*
%LPD*%
%LPC*%
G36*
X882919Y408089D02*
X882919Y408089D01*
X882919Y408091D01*
X882921Y408091D01*
X882921Y408089D01*
X882919Y408089D01*
G37*
%LPD*%
%LPC*%
G36*
X882919Y373089D02*
X882919Y373089D01*
X882919Y373091D01*
X882921Y373091D01*
X882921Y373089D01*
X882919Y373089D01*
G37*
%LPD*%
%LPC*%
G36*
X628449Y246339D02*
X628449Y246339D01*
X628449Y246341D01*
X628451Y246341D01*
X628451Y246339D01*
X628449Y246339D01*
G37*
%LPD*%
%LPC*%
G36*
X526849Y322539D02*
X526849Y322539D01*
X526849Y322541D01*
X526851Y322541D01*
X526851Y322539D01*
X526849Y322539D01*
G37*
%LPD*%
%LPC*%
G36*
X391269Y76049D02*
X391269Y76049D01*
X391269Y76051D01*
X391271Y76051D01*
X391271Y76049D01*
X391269Y76049D01*
G37*
%LPD*%
%LPC*%
G36*
X445339Y75709D02*
X445339Y75709D01*
X445339Y75711D01*
X445341Y75711D01*
X445341Y75709D01*
X445339Y75709D01*
G37*
%LPD*%
D10*
X237440Y94200D03*
X202440Y94200D03*
X167440Y94200D03*
X132440Y94200D03*
X97440Y94200D03*
X272440Y94200D03*
X307440Y94200D03*
X342440Y94200D03*
X780970Y93690D03*
X745970Y93690D03*
X710970Y93690D03*
X675970Y93690D03*
X640970Y93690D03*
X815970Y93690D03*
X850970Y93690D03*
X885970Y93690D03*
X882920Y303090D03*
X882920Y268090D03*
X882920Y233090D03*
X882920Y198090D03*
X882920Y163090D03*
X882920Y338090D03*
X882920Y373090D03*
X882920Y408090D03*
D11*
X609200Y78740D03*
X609200Y113740D03*
X445340Y75710D03*
X445340Y110710D03*
X499080Y77290D03*
X499080Y112290D03*
X391270Y76050D03*
X391270Y111050D03*
X554600Y78300D03*
X554600Y113300D03*
D12*
X221250Y386940D03*
X221250Y358500D03*
X451120Y225260D03*
X451120Y253700D03*
X502540Y226580D03*
X502540Y255020D03*
X585960Y256170D03*
X585960Y227730D03*
X219740Y260910D03*
X219740Y232470D03*
D13*
X529740Y453600D03*
X501300Y453600D03*
X529260Y417290D03*
X500820Y417290D03*
X311250Y522580D03*
X282810Y522580D03*
X312350Y471780D03*
X283910Y471780D03*
D14*
X222050Y170140D03*
X247450Y170140D03*
X272850Y170140D03*
X298250Y170140D03*
X323650Y170140D03*
X349050Y170140D03*
X374450Y170140D03*
X399850Y170140D03*
X425250Y170140D03*
X450650Y170140D03*
X476050Y170140D03*
X501450Y170140D03*
X501450Y322540D03*
X476050Y322540D03*
X450650Y322540D03*
X425250Y322540D03*
X399850Y322540D03*
X374450Y322540D03*
X349050Y322540D03*
X323650Y322540D03*
X298250Y322540D03*
X272850Y322540D03*
X247450Y322540D03*
X196650Y170140D03*
X222050Y322540D03*
X196650Y322540D03*
X171250Y170140D03*
X171250Y322540D03*
X526850Y170140D03*
X526850Y322540D03*
X552250Y170140D03*
X577650Y170140D03*
X603050Y170140D03*
X628450Y170140D03*
X653850Y170140D03*
X679250Y170140D03*
X704650Y170140D03*
X730050Y170140D03*
X755450Y170140D03*
X755450Y322540D03*
X730050Y322540D03*
X704650Y322540D03*
X679250Y322540D03*
X653850Y322540D03*
X628450Y322540D03*
X603050Y322540D03*
X577650Y322540D03*
X552250Y322540D03*
X628450Y195540D03*
X628450Y246340D03*
X628450Y271740D03*
X628450Y220940D03*
X628450Y297140D03*
X196650Y297140D03*
X247450Y297140D03*
X272850Y297140D03*
X298250Y297140D03*
X234750Y201890D03*
X260150Y201890D03*
X285550Y201890D03*
X310950Y201890D03*
X336350Y201890D03*
D15*
X652880Y463530D03*
X652880Y483530D03*
X652880Y503530D03*
X652880Y523530D03*
X652880Y543530D03*
X652880Y563530D03*
X652880Y583530D03*
X652880Y603530D03*
X652880Y623530D03*
D16*
X652880Y643530D03*
D15*
X872880Y463530D03*
X872880Y483530D03*
X872880Y503530D03*
X872880Y523530D03*
X872880Y543530D03*
X872880Y563530D03*
X872880Y583530D03*
X872880Y603530D03*
X872880Y623530D03*
X872880Y643530D03*
D17*
X442070Y540580D03*
X607170Y540580D03*
X607170Y731080D03*
X442070Y731080D03*
D18*
X485880Y372330D03*
X511280Y372330D03*
X536680Y372330D03*
X562080Y372330D03*
D19*
X185280Y628530D03*
X210680Y628530D03*
X236080Y628530D03*
X261480Y628530D03*
X286880Y628530D03*
X312280Y628530D03*
X337680Y628530D03*
X363080Y628530D03*
X388480Y628530D03*
X260880Y425730D03*
X286280Y425730D03*
X311680Y425730D03*
X337080Y425730D03*
D20*
X600900Y196640D03*
D21*
X580810Y196640D01*
X558980Y218470D01*
X558980Y297070D01*
X565910Y304000D01*
X565910Y339110D01*
X556880Y348140D01*
D20*
X556880Y348140D03*
D22*
X284988Y321564D02*
X274320Y321564D01*
X284988Y321564D02*
X298704Y307848D01*
X301752Y307848D01*
X440436Y169164D01*
X440436Y153924D01*
X448056Y146304D01*
X448056Y134112D01*
X434340Y120396D01*
X434340Y102108D01*
X445008Y91440D01*
X623316Y91440D01*
X635508Y79248D01*
X661416Y79248D01*
X675132Y92964D01*
X274320Y321564D02*
X272850Y322540D01*
X675132Y92964D02*
X675970Y93690D01*
X432816Y187452D02*
X298704Y321564D01*
X298250Y322540D01*
D23*
X432816Y187452D03*
D22*
X429768Y216408D02*
X324612Y321564D01*
X323650Y322540D01*
D23*
X429768Y216408D03*
D22*
X312420Y492252D02*
X312420Y521208D01*
X312420Y492252D02*
X336804Y467868D01*
X336804Y426720D01*
X312420Y521208D02*
X311250Y522580D01*
X336804Y426720D02*
X337080Y425730D01*
X312420Y426720D02*
X312420Y470916D01*
X312350Y471780D01*
X312420Y426720D02*
X311680Y425730D01*
X502920Y321564D02*
X502920Y256032D01*
X502540Y255020D01*
X502920Y321564D02*
X501450Y322540D01*
X477012Y321564D02*
X477012Y259080D01*
X498348Y237744D01*
X512064Y237744D01*
X515112Y234696D01*
X515112Y205740D01*
X513588Y204216D01*
X513588Y131064D01*
X545592Y99060D01*
X626364Y99060D01*
X635508Y108204D01*
X766572Y108204D01*
X780288Y94488D01*
X477012Y321564D02*
X476050Y322540D01*
X780288Y94488D02*
X780970Y93690D01*
X551688Y300228D02*
X551688Y321564D01*
X551688Y300228D02*
X542544Y291084D01*
X542544Y106680D01*
X547116Y102108D01*
X624840Y102108D01*
X633984Y111252D01*
X798576Y111252D01*
X815340Y94488D01*
X551688Y321564D02*
X552250Y322540D01*
X815340Y94488D02*
X815970Y93690D01*
X589788Y321564D02*
X579120Y321564D01*
X589788Y321564D02*
X629412Y281940D01*
X813816Y281940D01*
X579120Y321564D02*
X577650Y322540D01*
D23*
X813816Y281940D03*
D22*
X611124Y321564D02*
X603504Y321564D01*
X611124Y321564D02*
X624840Y307848D01*
X797052Y307848D01*
X822960Y281940D01*
X603504Y321564D02*
X603050Y322540D01*
D23*
X822960Y281940D03*
D24*
X628450Y322540D02*
X628450Y351000D01*
X603600Y375850D01*
X565600Y375850D01*
X562080Y372330D01*
X529740Y453600D02*
X613410Y453600D01*
D20*
X613410Y453600D03*
X603600Y375850D03*
D24*
X536680Y372330D02*
X536680Y397490D01*
X536680Y408432D01*
X529260Y417290D02*
X626870Y417290D01*
X653990Y390170D01*
X653990Y322680D01*
X653850Y322540D01*
D22*
X536680Y408432D02*
X536448Y408432D01*
D25*
X536680Y397490D03*
D24*
X445000Y76050D02*
X391270Y76050D01*
X445000Y76050D02*
X445340Y75710D01*
X497500Y75710D01*
X499080Y77290D01*
X553590Y77290D01*
X554600Y78300D01*
X555040Y78740D01*
X609200Y78740D01*
X126340Y215050D02*
X126340Y374830D01*
X177240Y425730D02*
X260880Y425730D01*
X126340Y215050D02*
X171250Y170140D01*
X126340Y374830D02*
X150390Y398880D01*
X177240Y425730D01*
X511280Y372330D02*
X511280Y356030D01*
X526850Y340460D02*
X526850Y322540D01*
X526850Y340460D02*
X511280Y356030D01*
X196650Y352620D02*
X196650Y322540D01*
X196650Y352620D02*
X150390Y398880D01*
X526850Y322540D02*
X526850Y284360D01*
D20*
X526850Y284360D03*
D24*
X652880Y463530D02*
X715500Y463530D01*
X785270Y533300D01*
X785270Y669890D01*
X754560Y700600D01*
X662430Y700600D01*
X646190Y684360D01*
X443710Y684360D01*
X442070Y686000D01*
D20*
X442070Y686000D03*
D24*
X609200Y78740D02*
X626710Y61230D01*
D20*
X781300Y197970D03*
D24*
X912830Y77000D02*
X897060Y61230D01*
X912830Y77000D02*
X912830Y109330D01*
X846950Y132320D02*
X781300Y197970D01*
X897060Y61230D02*
X626710Y61230D01*
X889840Y132320D02*
X912830Y109330D01*
X889840Y132320D02*
X846950Y132320D01*
D22*
X652272Y623316D02*
X394716Y623316D01*
X306324Y534924D01*
X268224Y534924D01*
X112776Y379476D01*
X112776Y210312D01*
X166116Y156972D01*
X184404Y156972D01*
X196596Y169164D01*
X652272Y623316D02*
X652880Y623530D01*
X196650Y170140D02*
X196596Y169164D01*
D21*
X222050Y170140D02*
X222050Y184490D01*
X214150Y192390D01*
X214150Y211800D01*
X219900Y217550D01*
X219900Y232310D01*
X219740Y232470D01*
D22*
X649224Y603504D02*
X652272Y603504D01*
X649224Y603504D02*
X606552Y560832D01*
X598932Y560832D01*
X513588Y475488D01*
X513588Y393192D01*
X498348Y377952D01*
X498348Y367284D01*
X463296Y332232D01*
X268224Y332232D01*
X257556Y321564D01*
X257556Y318516D01*
X246888Y307848D01*
X243840Y307848D01*
X207264Y271272D01*
X207264Y245364D01*
X219456Y233172D01*
X652272Y603504D02*
X652880Y603530D01*
X219456Y233172D02*
X219740Y232470D01*
D21*
X144860Y141620D02*
X97440Y94200D01*
X144860Y141620D02*
X228930Y141620D01*
X247450Y160140D01*
X247450Y170140D01*
X171580Y133340D02*
X132440Y94200D01*
X236050Y133340D02*
X272850Y170140D01*
X236050Y133340D02*
X171580Y133340D01*
X199130Y125890D02*
X167440Y94200D01*
X199130Y125890D02*
X256670Y125890D01*
X298250Y167470D01*
X298250Y170140D01*
X324140Y157770D02*
X283980Y117610D01*
X324140Y157770D02*
X324140Y169650D01*
X323650Y170140D01*
X225850Y117610D02*
X202440Y94200D01*
X225850Y117610D02*
X283980Y117610D01*
D22*
X451104Y246888D02*
X451104Y252984D01*
X451104Y246888D02*
X438912Y234696D01*
X438912Y181356D01*
X449580Y170688D01*
X451104Y252984D02*
X451120Y253700D01*
X449580Y170688D02*
X450650Y170140D01*
D21*
X210680Y517650D02*
X210680Y628530D01*
X210680Y517650D02*
X77830Y384800D01*
X77830Y82840D01*
X102270Y58400D01*
X346080Y58400D01*
X365540Y77860D01*
X365540Y131300D01*
X378790Y144550D01*
X439230Y144550D01*
D20*
X439230Y144550D03*
D24*
X222050Y322540D02*
X221250Y323340D01*
X221250Y358500D01*
X882920Y338090D02*
X882920Y266180D01*
X881010Y266180D01*
X667510Y220940D02*
X628450Y220940D01*
X667510Y220940D02*
X712750Y266180D01*
X881010Y266180D02*
X882920Y268090D01*
X881010Y266180D02*
X712750Y266180D01*
X526850Y201730D02*
X526850Y170140D01*
D20*
X526850Y201730D03*
D24*
X253780Y358500D02*
X221250Y358500D01*
X286280Y391000D02*
X286280Y425730D01*
X286280Y391000D02*
X253780Y358500D01*
X286280Y425730D02*
X282810Y429200D01*
X282810Y472880D01*
X283910Y471780D01*
X282810Y472880D02*
X282810Y522580D01*
X485880Y402350D02*
X485880Y372330D01*
X485880Y402350D02*
X500820Y417290D01*
X500820Y453120D01*
X501300Y453600D01*
X485880Y372330D02*
X428740Y372330D01*
X304950Y372330D01*
X286280Y391000D01*
X829600Y338090D02*
X882920Y338090D01*
X829600Y338090D02*
X737680Y430010D01*
D20*
X737680Y430010D03*
D24*
X652880Y643530D02*
X536670Y643530D01*
D20*
X536670Y643530D03*
X428740Y372330D03*
D24*
X882920Y338090D02*
X882920Y268090D01*
D22*
X652272Y577596D02*
X652272Y582168D01*
X652272Y577596D02*
X627888Y553212D01*
X627888Y533400D01*
X560832Y466344D01*
X521208Y466344D01*
X516636Y461772D01*
X516636Y385572D01*
X524256Y377952D01*
X524256Y364236D01*
X562356Y326136D01*
X562356Y306324D01*
X553212Y297180D01*
X553212Y170688D01*
X652272Y582168D02*
X652880Y583530D01*
X553212Y170688D02*
X552250Y170140D01*
X586740Y222504D02*
X586740Y227076D01*
X586740Y222504D02*
X609600Y199644D01*
X609600Y193548D01*
X605028Y188976D01*
X592836Y188976D01*
X589788Y192024D01*
X565404Y192024D01*
X559308Y185928D01*
X586740Y227076D02*
X585960Y227730D01*
D23*
X559308Y185928D03*
D22*
X579120Y114300D02*
X608076Y114300D01*
X536448Y156972D02*
X536448Y161544D01*
X539496Y164592D01*
X539496Y252984D01*
X512064Y280416D01*
X512064Y336804D01*
X495300Y353568D01*
X495300Y355092D01*
X259080Y387096D02*
X222504Y387096D01*
X608076Y114300D02*
X609200Y113740D01*
X222504Y387096D02*
X221250Y386940D01*
D23*
X579120Y114300D03*
X536448Y156972D03*
X495300Y355092D03*
X259080Y387096D03*
D21*
X451120Y225260D02*
X451120Y196450D01*
X463530Y184040D01*
X463530Y144190D01*
X445340Y126000D02*
X445340Y110710D01*
X445340Y126000D02*
X463530Y144190D01*
X499080Y145720D02*
X499080Y112290D01*
X499080Y145720D02*
X488660Y156140D01*
X488660Y196470D01*
X502540Y210350D02*
X502540Y226580D01*
X502540Y210350D02*
X488660Y196470D01*
X392640Y112420D02*
X391270Y111050D01*
X392640Y112420D02*
X418810Y112420D01*
D20*
X418810Y112420D03*
X246910Y238940D03*
D21*
X246910Y250730D01*
X235130Y262510D01*
X221340Y262510D01*
X219740Y260910D01*
X554600Y147000D02*
X554600Y113300D01*
X564540Y156940D02*
X564540Y181720D01*
X571150Y188330D01*
X588110Y188330D01*
X592570Y183870D01*
X605200Y183870D01*
X613690Y192360D01*
X613690Y217090D01*
X605640Y225140D01*
X605640Y249290D01*
X607080Y250730D01*
X601640Y256170D01*
X585960Y256170D01*
X564540Y156940D02*
X554600Y147000D01*
D20*
X399010Y582150D03*
D24*
X604190Y582150D01*
X607170Y579170D01*
D20*
X607170Y579170D03*
M02*
