G04 EAGLE Gerber RS-274X export*
G75*
%MOMM*%
%FSLAX34Y34*%
%LPD*%
%INBottom Copper*%
%IPPOS*%
%AMOC8*
5,1,8,0,0,1.08239X$1,22.5*%
G01*
%ADD10C,2.184400*%
%ADD11C,1.473200*%
%ADD12C,1.422400*%
%ADD13R,1.422400X1.422400*%
%ADD14C,3.422400*%
%ADD15R,1.108000X1.108000*%
%ADD16C,1.108000*%
%ADD17C,0.200000*%
%ADD18C,1.006400*%
%ADD19C,0.152400*%
%ADD20C,0.756400*%
%ADD21C,2.000000*%

G36*
X912045Y32834D02*
X912045Y32834D01*
X912141Y32839D01*
X912184Y32854D01*
X912229Y32861D01*
X912317Y32900D01*
X912408Y32932D01*
X912442Y32957D01*
X912486Y32977D01*
X912584Y33060D01*
X912657Y33113D01*
X941927Y62383D01*
X941984Y62460D01*
X942049Y62532D01*
X942069Y62573D01*
X942096Y62609D01*
X942130Y62699D01*
X942172Y62785D01*
X942178Y62827D01*
X942195Y62873D01*
X942205Y63001D01*
X942219Y63090D01*
X942219Y734350D01*
X942211Y734409D01*
X942211Y734422D01*
X942207Y734438D01*
X942206Y734445D01*
X942201Y734541D01*
X942186Y734584D01*
X942179Y734629D01*
X942140Y734717D01*
X942108Y734808D01*
X942083Y734842D01*
X942063Y734886D01*
X941980Y734984D01*
X941927Y735057D01*
X913407Y763577D01*
X913330Y763634D01*
X913258Y763699D01*
X913217Y763719D01*
X913181Y763746D01*
X913091Y763780D01*
X913005Y763822D01*
X912963Y763828D01*
X912917Y763845D01*
X912790Y763855D01*
X912700Y763869D01*
X99680Y763869D01*
X99585Y763856D01*
X99489Y763851D01*
X99446Y763836D01*
X99401Y763829D01*
X99313Y763790D01*
X99222Y763758D01*
X99188Y763733D01*
X99144Y763713D01*
X99047Y763630D01*
X98973Y763577D01*
X94272Y758875D01*
X93976Y758699D01*
X68250Y758699D01*
X68155Y758686D01*
X68059Y758681D01*
X68016Y758666D01*
X67971Y758659D01*
X67883Y758620D01*
X67792Y758588D01*
X67758Y758563D01*
X67714Y758543D01*
X67617Y758460D01*
X67543Y758407D01*
X60393Y751257D01*
X60336Y751180D01*
X60271Y751108D01*
X60251Y751067D01*
X60224Y751031D01*
X60190Y750941D01*
X60148Y750855D01*
X60142Y750813D01*
X60125Y750767D01*
X60115Y750640D01*
X60101Y750550D01*
X60101Y57870D01*
X60114Y57775D01*
X60119Y57679D01*
X60134Y57636D01*
X60141Y57591D01*
X60180Y57503D01*
X60212Y57412D01*
X60237Y57378D01*
X60257Y57334D01*
X60340Y57237D01*
X60393Y57163D01*
X84443Y33113D01*
X84520Y33056D01*
X84592Y32991D01*
X84633Y32971D01*
X84669Y32944D01*
X84759Y32910D01*
X84845Y32868D01*
X84887Y32862D01*
X84933Y32845D01*
X85061Y32835D01*
X85150Y32821D01*
X911950Y32821D01*
X912045Y32834D01*
G37*
%LPC*%
G36*
X442537Y73913D02*
X442537Y73913D01*
X409193Y107257D01*
X409193Y116771D01*
X427189Y134767D01*
X427246Y134843D01*
X427311Y134915D01*
X427331Y134956D01*
X427358Y134992D01*
X427392Y135082D01*
X427434Y135169D01*
X427440Y135211D01*
X427457Y135256D01*
X427467Y135384D01*
X427481Y135473D01*
X427481Y135478D01*
X427477Y135508D01*
X427479Y135537D01*
X427479Y135539D01*
X427479Y135542D01*
X427457Y135649D01*
X427441Y135758D01*
X427428Y135787D01*
X427422Y135819D01*
X427370Y135915D01*
X427325Y136015D01*
X427304Y136039D01*
X427289Y136067D01*
X427213Y136146D01*
X427142Y136229D01*
X427115Y136246D01*
X427092Y136270D01*
X426997Y136323D01*
X426906Y136383D01*
X426875Y136393D01*
X426847Y136409D01*
X426740Y136434D01*
X426636Y136466D01*
X426604Y136466D01*
X426573Y136474D01*
X426463Y136468D01*
X426354Y136469D01*
X426323Y136461D01*
X426291Y136459D01*
X426188Y136423D01*
X426082Y136394D01*
X426055Y136377D01*
X426024Y136367D01*
X425951Y136313D01*
X425842Y136246D01*
X425810Y136210D01*
X425775Y136185D01*
X415026Y125435D01*
X377660Y125435D01*
X377565Y125422D01*
X377469Y125417D01*
X377425Y125402D01*
X377380Y125395D01*
X377293Y125356D01*
X377202Y125324D01*
X377168Y125299D01*
X377124Y125279D01*
X377026Y125196D01*
X376953Y125143D01*
X353484Y101674D01*
X353479Y101666D01*
X353471Y101660D01*
X353394Y101553D01*
X353315Y101448D01*
X353312Y101439D01*
X353306Y101432D01*
X353262Y101308D01*
X353215Y101184D01*
X353215Y101175D01*
X353212Y101166D01*
X353204Y101034D01*
X353194Y100903D01*
X353196Y100894D01*
X353195Y100884D01*
X353213Y100809D01*
X353251Y100627D01*
X353263Y100606D01*
X353268Y100585D01*
X354887Y96676D01*
X354887Y91724D01*
X352992Y87149D01*
X349491Y83648D01*
X344916Y81753D01*
X339964Y81753D01*
X335389Y83648D01*
X331888Y87149D01*
X329993Y91724D01*
X329993Y96676D01*
X331888Y101251D01*
X335389Y104752D01*
X339964Y106647D01*
X344916Y106647D01*
X348825Y105028D01*
X348834Y105025D01*
X348842Y105021D01*
X348971Y104990D01*
X349098Y104958D01*
X349107Y104958D01*
X349117Y104956D01*
X349249Y104962D01*
X349380Y104967D01*
X349389Y104969D01*
X349398Y104970D01*
X349523Y105013D01*
X349648Y105054D01*
X349656Y105059D01*
X349665Y105062D01*
X349727Y105108D01*
X349881Y105213D01*
X349896Y105232D01*
X349914Y105244D01*
X375154Y130485D01*
X412520Y130485D01*
X412615Y130498D01*
X412711Y130503D01*
X412755Y130518D01*
X412800Y130525D01*
X412887Y130564D01*
X412978Y130596D01*
X413012Y130621D01*
X413056Y130641D01*
X413154Y130724D01*
X413227Y130777D01*
X422433Y139983D01*
X422490Y140060D01*
X422555Y140131D01*
X422575Y140172D01*
X422602Y140209D01*
X422636Y140299D01*
X422678Y140385D01*
X422684Y140427D01*
X422701Y140473D01*
X422709Y140572D01*
X422713Y140586D01*
X422714Y140616D01*
X422725Y140690D01*
X422725Y160895D01*
X422724Y160904D01*
X422725Y160914D01*
X422704Y161044D01*
X422685Y161174D01*
X422682Y161183D01*
X422680Y161192D01*
X422623Y161312D01*
X422569Y161431D01*
X422563Y161438D01*
X422559Y161447D01*
X422471Y161546D01*
X422386Y161645D01*
X422378Y161650D01*
X422372Y161658D01*
X422306Y161698D01*
X422150Y161800D01*
X422127Y161807D01*
X422108Y161818D01*
X420214Y162603D01*
X417713Y165104D01*
X416359Y168371D01*
X416359Y171908D01*
X417713Y175176D01*
X420214Y177677D01*
X423482Y179031D01*
X427018Y179031D01*
X429148Y178149D01*
X429262Y178119D01*
X429376Y178085D01*
X429399Y178084D01*
X429421Y178079D01*
X429539Y178083D01*
X429658Y178081D01*
X429680Y178087D01*
X429703Y178088D01*
X429815Y178124D01*
X429930Y178156D01*
X429949Y178168D01*
X429971Y178175D01*
X430069Y178242D01*
X430170Y178304D01*
X430185Y178321D01*
X430204Y178334D01*
X430279Y178426D01*
X430359Y178514D01*
X430369Y178534D01*
X430383Y178552D01*
X430430Y178661D01*
X430482Y178767D01*
X430485Y178789D01*
X430495Y178811D01*
X430517Y178996D01*
X430529Y179072D01*
X430529Y181988D01*
X430528Y181997D01*
X430529Y182006D01*
X430508Y182136D01*
X430489Y182267D01*
X430486Y182275D01*
X430484Y182285D01*
X430427Y182404D01*
X430373Y182524D01*
X430367Y182531D01*
X430363Y182540D01*
X430275Y182638D01*
X430190Y182738D01*
X430182Y182743D01*
X430176Y182750D01*
X430110Y182790D01*
X429954Y182892D01*
X429931Y182900D01*
X429912Y182911D01*
X429810Y182953D01*
X428317Y184446D01*
X427509Y186396D01*
X427509Y188508D01*
X428317Y190458D01*
X429810Y191951D01*
X431760Y192759D01*
X433872Y192759D01*
X435822Y191951D01*
X437315Y190458D01*
X438123Y188508D01*
X438123Y186396D01*
X437315Y184446D01*
X435822Y182953D01*
X435720Y182911D01*
X435711Y182906D01*
X435702Y182903D01*
X435590Y182834D01*
X435477Y182767D01*
X435470Y182760D01*
X435462Y182755D01*
X435374Y182658D01*
X435284Y182561D01*
X435280Y182553D01*
X435273Y182546D01*
X435216Y182427D01*
X435156Y182310D01*
X435154Y182301D01*
X435150Y182292D01*
X435138Y182216D01*
X435104Y182033D01*
X435106Y182009D01*
X435103Y181988D01*
X435103Y178145D01*
X435116Y178050D01*
X435121Y177954D01*
X435136Y177911D01*
X435143Y177866D01*
X435182Y177778D01*
X435214Y177688D01*
X435239Y177653D01*
X435259Y177609D01*
X435342Y177512D01*
X435395Y177439D01*
X438151Y174683D01*
X438151Y152106D01*
X438160Y152042D01*
X438159Y151978D01*
X438180Y151903D01*
X438191Y151827D01*
X438217Y151768D01*
X438234Y151706D01*
X438275Y151640D01*
X438307Y151570D01*
X438349Y151521D01*
X438382Y151466D01*
X438440Y151414D01*
X438490Y151356D01*
X438544Y151320D01*
X438592Y151277D01*
X438661Y151244D01*
X438726Y151201D01*
X438788Y151182D01*
X438845Y151154D01*
X438915Y151143D01*
X438996Y151119D01*
X439081Y151118D01*
X439150Y151107D01*
X440534Y151107D01*
X442944Y150109D01*
X444789Y148264D01*
X445026Y147692D01*
X445030Y147683D01*
X445033Y147674D01*
X445102Y147562D01*
X445169Y147449D01*
X445176Y147442D01*
X445181Y147434D01*
X445279Y147346D01*
X445375Y147256D01*
X445383Y147252D01*
X445390Y147245D01*
X445509Y147188D01*
X445626Y147128D01*
X445636Y147126D01*
X445644Y147122D01*
X445721Y147110D01*
X445904Y147076D01*
X445927Y147078D01*
X445949Y147075D01*
X461350Y147075D01*
X461445Y147088D01*
X461541Y147093D01*
X461585Y147108D01*
X461630Y147115D01*
X461717Y147154D01*
X461808Y147186D01*
X461842Y147211D01*
X461886Y147231D01*
X461984Y147314D01*
X462057Y147367D01*
X473253Y158563D01*
X473310Y158640D01*
X473375Y158711D01*
X473395Y158752D01*
X473422Y158789D01*
X473456Y158879D01*
X473498Y158965D01*
X473504Y159007D01*
X473521Y159053D01*
X473531Y159180D01*
X473545Y159270D01*
X473545Y160887D01*
X473544Y160896D01*
X473545Y160905D01*
X473524Y161035D01*
X473505Y161166D01*
X473502Y161174D01*
X473500Y161184D01*
X473443Y161303D01*
X473389Y161423D01*
X473383Y161430D01*
X473379Y161438D01*
X473291Y161537D01*
X473206Y161637D01*
X473198Y161642D01*
X473192Y161649D01*
X473126Y161689D01*
X472970Y161791D01*
X472947Y161798D01*
X472928Y161810D01*
X471014Y162603D01*
X468513Y165104D01*
X467159Y168371D01*
X467159Y171908D01*
X468513Y175176D01*
X471014Y177677D01*
X474282Y179031D01*
X477818Y179031D01*
X481086Y177677D01*
X483587Y175176D01*
X484941Y171908D01*
X484941Y168371D01*
X483587Y165104D01*
X481086Y162603D01*
X479212Y161826D01*
X479203Y161822D01*
X479194Y161819D01*
X479082Y161749D01*
X478969Y161683D01*
X478962Y161676D01*
X478954Y161671D01*
X478866Y161573D01*
X478776Y161477D01*
X478772Y161469D01*
X478765Y161462D01*
X478708Y161343D01*
X478648Y161226D01*
X478646Y161216D01*
X478642Y161208D01*
X478630Y161132D01*
X478596Y160948D01*
X478598Y160925D01*
X478595Y160903D01*
X478595Y156764D01*
X463856Y142025D01*
X445949Y142025D01*
X445939Y142024D01*
X445930Y142025D01*
X445800Y142004D01*
X445670Y141985D01*
X445661Y141982D01*
X445652Y141980D01*
X445532Y141923D01*
X445413Y141869D01*
X445405Y141863D01*
X445397Y141859D01*
X445299Y141772D01*
X445198Y141686D01*
X445193Y141678D01*
X445186Y141672D01*
X445146Y141606D01*
X445044Y141450D01*
X445037Y141427D01*
X445026Y141408D01*
X444789Y140836D01*
X442944Y138991D01*
X440534Y137993D01*
X437926Y137993D01*
X435516Y138991D01*
X433761Y140747D01*
X433735Y140766D01*
X433714Y140791D01*
X433622Y140851D01*
X433535Y140916D01*
X433505Y140927D01*
X433478Y140945D01*
X433373Y140977D01*
X433271Y141016D01*
X433239Y141018D01*
X433208Y141028D01*
X433099Y141029D01*
X432990Y141037D01*
X432958Y141031D01*
X432926Y141031D01*
X432821Y141002D01*
X432714Y140980D01*
X432685Y140965D01*
X432654Y140956D01*
X432561Y140899D01*
X432465Y140847D01*
X432442Y140825D01*
X432414Y140808D01*
X432341Y140727D01*
X432263Y140651D01*
X432247Y140623D01*
X432225Y140599D01*
X432178Y140500D01*
X432124Y140405D01*
X432116Y140374D01*
X432102Y140345D01*
X432088Y140256D01*
X432059Y140131D01*
X432061Y140082D01*
X432055Y140040D01*
X432055Y133165D01*
X419572Y120683D01*
X419553Y120657D01*
X419529Y120636D01*
X419469Y120544D01*
X419403Y120457D01*
X419392Y120427D01*
X419374Y120400D01*
X419342Y120295D01*
X419304Y120193D01*
X419301Y120161D01*
X419292Y120130D01*
X419290Y120021D01*
X419282Y119912D01*
X419288Y119880D01*
X419288Y119848D01*
X419317Y119743D01*
X419339Y119636D01*
X419355Y119607D01*
X419363Y119576D01*
X419421Y119483D01*
X419472Y119387D01*
X419494Y119364D01*
X419511Y119336D01*
X419592Y119263D01*
X419669Y119185D01*
X419697Y119169D01*
X419721Y119147D01*
X419819Y119100D01*
X419914Y119046D01*
X419945Y119038D01*
X419974Y119024D01*
X420015Y119018D01*
X422524Y117979D01*
X424369Y116134D01*
X424606Y115562D01*
X424610Y115553D01*
X424613Y115544D01*
X424682Y115432D01*
X424749Y115319D01*
X424756Y115312D01*
X424761Y115304D01*
X424859Y115216D01*
X424955Y115126D01*
X424963Y115122D01*
X424970Y115115D01*
X425089Y115058D01*
X425206Y114998D01*
X425216Y114996D01*
X425224Y114992D01*
X425301Y114980D01*
X425484Y114946D01*
X425507Y114948D01*
X425529Y114945D01*
X442630Y114945D01*
X442725Y114958D01*
X442821Y114963D01*
X442865Y114978D01*
X442910Y114985D01*
X442997Y115024D01*
X443088Y115056D01*
X443122Y115081D01*
X443166Y115101D01*
X443264Y115184D01*
X443337Y115237D01*
X486703Y158603D01*
X486760Y158680D01*
X486825Y158751D01*
X486845Y158792D01*
X486872Y158829D01*
X486906Y158919D01*
X486948Y159005D01*
X486954Y159047D01*
X486971Y159093D01*
X486981Y159220D01*
X486995Y159310D01*
X486995Y184280D01*
X486982Y184375D01*
X486977Y184471D01*
X486962Y184515D01*
X486955Y184560D01*
X486916Y184647D01*
X486884Y184738D01*
X486859Y184772D01*
X486839Y184816D01*
X486756Y184914D01*
X486703Y184987D01*
X467777Y203913D01*
X467700Y203970D01*
X467629Y204035D01*
X467588Y204055D01*
X467551Y204082D01*
X467461Y204116D01*
X467375Y204158D01*
X467333Y204164D01*
X467287Y204181D01*
X467160Y204191D01*
X467070Y204205D01*
X418064Y204205D01*
X385287Y236983D01*
X385210Y237040D01*
X385139Y237105D01*
X385098Y237125D01*
X385061Y237152D01*
X384971Y237186D01*
X384885Y237228D01*
X384843Y237234D01*
X384797Y237251D01*
X384670Y237261D01*
X384580Y237275D01*
X253985Y237275D01*
X253976Y237274D01*
X253966Y237275D01*
X253836Y237254D01*
X253706Y237235D01*
X253697Y237232D01*
X253688Y237230D01*
X253569Y237173D01*
X253449Y237119D01*
X253442Y237113D01*
X253433Y237109D01*
X253335Y237021D01*
X253235Y236936D01*
X253229Y236928D01*
X253222Y236922D01*
X253182Y236856D01*
X253080Y236700D01*
X253073Y236677D01*
X253062Y236658D01*
X252469Y235226D01*
X250624Y233381D01*
X248214Y232383D01*
X245606Y232383D01*
X243196Y233381D01*
X241351Y235226D01*
X240353Y237636D01*
X240353Y240244D01*
X241351Y242654D01*
X241593Y242895D01*
X241612Y242921D01*
X241637Y242942D01*
X241697Y243034D01*
X241762Y243121D01*
X241773Y243151D01*
X241791Y243178D01*
X241823Y243283D01*
X241862Y243385D01*
X241864Y243417D01*
X241874Y243448D01*
X241875Y243557D01*
X241883Y243666D01*
X241877Y243698D01*
X241877Y243730D01*
X241848Y243835D01*
X241826Y243942D01*
X241811Y243971D01*
X241802Y244002D01*
X241745Y244095D01*
X241693Y244191D01*
X241671Y244214D01*
X241654Y244242D01*
X241573Y244315D01*
X241497Y244393D01*
X241469Y244409D01*
X241445Y244431D01*
X241346Y244478D01*
X241251Y244532D01*
X241220Y244540D01*
X241191Y244554D01*
X241101Y244568D01*
X240977Y244597D01*
X240928Y244595D01*
X240886Y244601D01*
X227653Y244601D01*
X156209Y316045D01*
X156209Y455099D01*
X232117Y531007D01*
X232174Y531083D01*
X232239Y531155D01*
X232259Y531196D01*
X232286Y531232D01*
X232320Y531322D01*
X232362Y531409D01*
X232368Y531451D01*
X232385Y531496D01*
X232395Y531624D01*
X232409Y531713D01*
X232409Y621796D01*
X232396Y621891D01*
X232391Y621987D01*
X232376Y622030D01*
X232369Y622075D01*
X232330Y622162D01*
X232298Y622253D01*
X232273Y622288D01*
X232253Y622332D01*
X232170Y622429D01*
X232117Y622502D01*
X230091Y624528D01*
X229015Y627125D01*
X229015Y629935D01*
X230091Y632532D01*
X232078Y634519D01*
X234675Y635595D01*
X237485Y635595D01*
X240082Y634519D01*
X242069Y632532D01*
X243145Y629935D01*
X243145Y627125D01*
X242069Y624528D01*
X240082Y622541D01*
X237600Y621513D01*
X237591Y621508D01*
X237582Y621505D01*
X237470Y621436D01*
X237357Y621369D01*
X237350Y621362D01*
X237342Y621357D01*
X237254Y621259D01*
X237164Y621163D01*
X237160Y621155D01*
X237153Y621148D01*
X237096Y621029D01*
X237036Y620912D01*
X237034Y620902D01*
X237030Y620894D01*
X237018Y620818D01*
X236984Y620635D01*
X236986Y620611D01*
X236983Y620589D01*
X236983Y533744D01*
X236987Y533712D01*
X236985Y533679D01*
X237007Y533573D01*
X237023Y533464D01*
X237036Y533435D01*
X237042Y533403D01*
X237094Y533307D01*
X237139Y533207D01*
X237160Y533183D01*
X237175Y533154D01*
X237251Y533076D01*
X237322Y532993D01*
X237349Y532975D01*
X237372Y532952D01*
X237467Y532899D01*
X237558Y532839D01*
X237589Y532829D01*
X237617Y532813D01*
X237724Y532788D01*
X237828Y532756D01*
X237860Y532756D01*
X237891Y532748D01*
X238001Y532754D01*
X238110Y532753D01*
X238141Y532761D01*
X238173Y532763D01*
X238276Y532799D01*
X238382Y532828D01*
X238409Y532845D01*
X238440Y532855D01*
X238513Y532909D01*
X238622Y532976D01*
X238654Y533012D01*
X238689Y533037D01*
X294189Y588538D01*
X297572Y591920D01*
X301808Y593675D01*
X401302Y593675D01*
X405538Y591920D01*
X408780Y588678D01*
X410535Y584442D01*
X410535Y579858D01*
X408780Y575622D01*
X405538Y572380D01*
X401302Y570625D01*
X309288Y570625D01*
X309193Y570612D01*
X309096Y570607D01*
X309053Y570592D01*
X309008Y570585D01*
X308921Y570546D01*
X308830Y570514D01*
X308796Y570489D01*
X308751Y570469D01*
X308654Y570386D01*
X308581Y570333D01*
X183067Y444819D01*
X183010Y444742D01*
X182945Y444671D01*
X182925Y444630D01*
X182898Y444593D01*
X182864Y444503D01*
X182822Y444417D01*
X182816Y444375D01*
X182799Y444330D01*
X182789Y444202D01*
X182775Y444112D01*
X182775Y320248D01*
X181020Y316012D01*
X177778Y312770D01*
X173542Y311015D01*
X170119Y311015D01*
X170087Y311011D01*
X170055Y311013D01*
X169948Y310991D01*
X169840Y310975D01*
X169810Y310962D01*
X169779Y310956D01*
X169682Y310904D01*
X169583Y310859D01*
X169558Y310838D01*
X169530Y310823D01*
X169452Y310747D01*
X169369Y310676D01*
X169351Y310649D01*
X169328Y310626D01*
X169274Y310531D01*
X169214Y310440D01*
X169205Y310409D01*
X169189Y310381D01*
X169164Y310274D01*
X169132Y310170D01*
X169131Y310138D01*
X169124Y310107D01*
X169129Y309997D01*
X169128Y309888D01*
X169137Y309857D01*
X169138Y309825D01*
X169174Y309722D01*
X169203Y309616D01*
X169220Y309589D01*
X169231Y309558D01*
X169284Y309485D01*
X169351Y309376D01*
X169387Y309344D01*
X169412Y309309D01*
X187325Y291397D01*
X187394Y291345D01*
X187457Y291286D01*
X187506Y291261D01*
X187550Y291228D01*
X187631Y291197D01*
X187709Y291158D01*
X187763Y291148D01*
X187814Y291129D01*
X187901Y291122D01*
X187986Y291106D01*
X188041Y291111D01*
X188095Y291107D01*
X188180Y291124D01*
X188267Y291133D01*
X188318Y291153D01*
X188371Y291164D01*
X188448Y291205D01*
X188529Y291237D01*
X188572Y291271D01*
X188620Y291297D01*
X188683Y291357D01*
X188751Y291411D01*
X188783Y291455D01*
X188822Y291494D01*
X188865Y291569D01*
X188916Y291639D01*
X188934Y291691D01*
X188961Y291739D01*
X188981Y291824D01*
X189010Y291905D01*
X189014Y291960D01*
X189026Y292013D01*
X189022Y292100D01*
X189027Y292187D01*
X189015Y292236D01*
X189012Y292295D01*
X188975Y292403D01*
X188954Y292486D01*
X187759Y295371D01*
X187759Y298908D01*
X189113Y302176D01*
X191614Y304677D01*
X194882Y306031D01*
X198418Y306031D01*
X201686Y304677D01*
X204187Y302176D01*
X205541Y298908D01*
X205541Y295371D01*
X204187Y292104D01*
X201686Y289603D01*
X198418Y288249D01*
X194882Y288249D01*
X191996Y289444D01*
X191912Y289466D01*
X191831Y289497D01*
X191776Y289501D01*
X191723Y289514D01*
X191636Y289512D01*
X191550Y289518D01*
X191496Y289507D01*
X191441Y289505D01*
X191359Y289478D01*
X191274Y289461D01*
X191225Y289435D01*
X191173Y289418D01*
X191101Y289369D01*
X191025Y289328D01*
X190985Y289290D01*
X190940Y289259D01*
X190885Y289192D01*
X190823Y289132D01*
X190796Y289084D01*
X190761Y289041D01*
X190726Y288962D01*
X190684Y288886D01*
X190671Y288833D01*
X190649Y288782D01*
X190639Y288696D01*
X190619Y288612D01*
X190622Y288557D01*
X190615Y288502D01*
X190629Y288417D01*
X190633Y288330D01*
X190651Y288278D01*
X190660Y288224D01*
X190697Y288146D01*
X190726Y288064D01*
X190756Y288022D01*
X190781Y287969D01*
X190857Y287884D01*
X190907Y287815D01*
X210391Y268331D01*
X210461Y268278D01*
X210524Y268219D01*
X210573Y268194D01*
X210617Y268161D01*
X210698Y268131D01*
X210776Y268091D01*
X210830Y268081D01*
X210881Y268062D01*
X210967Y268055D01*
X211053Y268039D01*
X211107Y268044D01*
X211162Y268040D01*
X211247Y268058D01*
X211333Y268066D01*
X211384Y268086D01*
X211438Y268098D01*
X211515Y268138D01*
X211595Y268170D01*
X211639Y268204D01*
X211687Y268230D01*
X211749Y268291D01*
X211818Y268344D01*
X211850Y268388D01*
X211889Y268427D01*
X211932Y268502D01*
X211983Y268573D01*
X212001Y268624D01*
X212028Y268672D01*
X212048Y268757D01*
X212077Y268838D01*
X212080Y268893D01*
X212093Y268947D01*
X212089Y269033D01*
X212094Y269120D01*
X212082Y269169D01*
X212079Y269228D01*
X212041Y269336D01*
X212021Y269419D01*
X210195Y273828D01*
X210195Y324502D01*
X211950Y328738D01*
X215522Y332310D01*
X219758Y334065D01*
X224342Y334065D01*
X228578Y332310D01*
X230703Y330185D01*
X230729Y330166D01*
X230750Y330141D01*
X230842Y330081D01*
X230929Y330016D01*
X230959Y330004D01*
X230986Y329987D01*
X231091Y329955D01*
X231193Y329916D01*
X231225Y329914D01*
X231256Y329904D01*
X231365Y329903D01*
X231474Y329894D01*
X231506Y329901D01*
X231538Y329901D01*
X231643Y329930D01*
X231750Y329952D01*
X231779Y329967D01*
X231810Y329976D01*
X231903Y330033D01*
X231999Y330084D01*
X232022Y330107D01*
X232050Y330124D01*
X232123Y330205D01*
X232201Y330281D01*
X232217Y330309D01*
X232239Y330333D01*
X232286Y330431D01*
X232340Y330527D01*
X232348Y330558D01*
X232362Y330587D01*
X232376Y330676D01*
X232405Y330801D01*
X232403Y330850D01*
X232409Y330892D01*
X232409Y349943D01*
X304780Y422314D01*
X304786Y422322D01*
X304793Y422328D01*
X304871Y422434D01*
X304950Y422540D01*
X304953Y422549D01*
X304959Y422556D01*
X305002Y422680D01*
X305049Y422804D01*
X305050Y422813D01*
X305053Y422822D01*
X305061Y422954D01*
X305071Y423085D01*
X305069Y423094D01*
X305070Y423104D01*
X305051Y423179D01*
X305013Y423361D01*
X305002Y423382D01*
X304997Y423403D01*
X304615Y424325D01*
X304615Y426985D01*
X304611Y427017D01*
X304613Y427049D01*
X304591Y427156D01*
X304575Y427264D01*
X304562Y427294D01*
X304556Y427325D01*
X304504Y427422D01*
X304459Y427521D01*
X304438Y427546D01*
X304423Y427574D01*
X304347Y427652D01*
X304276Y427735D01*
X304249Y427753D01*
X304226Y427776D01*
X304131Y427830D01*
X304040Y427890D01*
X304009Y427899D01*
X303981Y427915D01*
X303874Y427940D01*
X303770Y427972D01*
X303738Y427973D01*
X303707Y427980D01*
X303597Y427975D01*
X303488Y427976D01*
X303457Y427967D01*
X303425Y427966D01*
X303322Y427930D01*
X303216Y427901D01*
X303189Y427884D01*
X303158Y427873D01*
X303085Y427820D01*
X302976Y427753D01*
X302944Y427717D01*
X302909Y427692D01*
X264561Y389343D01*
X264555Y389335D01*
X264548Y389330D01*
X264471Y389223D01*
X264392Y389117D01*
X264388Y389108D01*
X264383Y389101D01*
X264339Y388977D01*
X264292Y388854D01*
X264291Y388844D01*
X264288Y388835D01*
X264280Y388704D01*
X264270Y388572D01*
X264272Y388563D01*
X264272Y388554D01*
X264290Y388478D01*
X264328Y388296D01*
X264339Y388275D01*
X264344Y388254D01*
X264387Y388152D01*
X264387Y386040D01*
X263579Y384090D01*
X262086Y382597D01*
X260136Y381789D01*
X258024Y381789D01*
X256074Y382597D01*
X254581Y384090D01*
X253773Y386040D01*
X253773Y388152D01*
X254581Y390102D01*
X256074Y391595D01*
X258024Y392403D01*
X260136Y392403D01*
X260238Y392360D01*
X260247Y392358D01*
X260255Y392353D01*
X260384Y392323D01*
X260511Y392290D01*
X260521Y392291D01*
X260530Y392288D01*
X260663Y392295D01*
X260793Y392299D01*
X260802Y392302D01*
X260812Y392303D01*
X260936Y392346D01*
X261061Y392387D01*
X261069Y392392D01*
X261078Y392395D01*
X261140Y392441D01*
X261294Y392546D01*
X261310Y392564D01*
X261327Y392577D01*
X285710Y416959D01*
X285729Y416985D01*
X285753Y417006D01*
X285813Y417098D01*
X285879Y417185D01*
X285890Y417215D01*
X285908Y417242D01*
X285940Y417347D01*
X285978Y417449D01*
X285981Y417481D01*
X285990Y417512D01*
X285992Y417621D01*
X286000Y417730D01*
X285994Y417762D01*
X285994Y417794D01*
X285965Y417899D01*
X285943Y418006D01*
X285927Y418035D01*
X285919Y418066D01*
X285861Y418159D01*
X285810Y418255D01*
X285788Y418278D01*
X285771Y418306D01*
X285690Y418379D01*
X285613Y418457D01*
X285585Y418473D01*
X285561Y418495D01*
X285463Y418542D01*
X285368Y418596D01*
X285337Y418604D01*
X285308Y418618D01*
X285218Y418632D01*
X285093Y418661D01*
X285045Y418659D01*
X285003Y418665D01*
X284875Y418665D01*
X282278Y419741D01*
X280291Y421728D01*
X279215Y424325D01*
X279215Y427135D01*
X280291Y429732D01*
X282278Y431719D01*
X284875Y432795D01*
X287685Y432795D01*
X290282Y431719D01*
X292269Y429732D01*
X293345Y427135D01*
X293345Y427007D01*
X293349Y426975D01*
X293347Y426943D01*
X293369Y426836D01*
X293385Y426728D01*
X293398Y426698D01*
X293404Y426667D01*
X293456Y426570D01*
X293501Y426471D01*
X293522Y426446D01*
X293537Y426418D01*
X293613Y426340D01*
X293684Y426257D01*
X293711Y426239D01*
X293734Y426216D01*
X293829Y426162D01*
X293920Y426102D01*
X293951Y426093D01*
X293979Y426077D01*
X294086Y426052D01*
X294190Y426020D01*
X294222Y426019D01*
X294253Y426012D01*
X294363Y426017D01*
X294472Y426016D01*
X294503Y426025D01*
X294535Y426026D01*
X294638Y426062D01*
X294744Y426091D01*
X294771Y426108D01*
X294802Y426119D01*
X294875Y426172D01*
X294984Y426239D01*
X295016Y426275D01*
X295051Y426300D01*
X305377Y436627D01*
X340799Y436627D01*
X419755Y357671D01*
X419831Y357614D01*
X419903Y357549D01*
X419944Y357529D01*
X419980Y357502D01*
X420070Y357468D01*
X420157Y357426D01*
X420199Y357420D01*
X420244Y357403D01*
X420372Y357393D01*
X420461Y357379D01*
X489836Y357379D01*
X489845Y357380D01*
X489854Y357379D01*
X489984Y357400D01*
X490115Y357419D01*
X490123Y357422D01*
X490133Y357424D01*
X490252Y357481D01*
X490372Y357535D01*
X490379Y357541D01*
X490388Y357545D01*
X490486Y357633D01*
X490586Y357718D01*
X490591Y357726D01*
X490598Y357732D01*
X490638Y357798D01*
X490740Y357954D01*
X490748Y357977D01*
X490759Y357996D01*
X490801Y358098D01*
X492294Y359591D01*
X494244Y360399D01*
X496356Y360399D01*
X498306Y359591D01*
X499799Y358098D01*
X500607Y356148D01*
X500607Y354036D01*
X499782Y352046D01*
X499753Y351932D01*
X499718Y351818D01*
X499718Y351795D01*
X499712Y351773D01*
X499716Y351655D01*
X499715Y351536D01*
X499721Y351514D01*
X499721Y351491D01*
X499758Y351379D01*
X499790Y351264D01*
X499802Y351245D01*
X499809Y351223D01*
X499876Y351125D01*
X499938Y351024D01*
X499955Y351009D01*
X499968Y350990D01*
X500059Y350915D01*
X500147Y350835D01*
X500168Y350825D01*
X500185Y350811D01*
X500294Y350764D01*
X500401Y350712D01*
X500422Y350709D01*
X500444Y350699D01*
X500629Y350677D01*
X500706Y350665D01*
X550161Y350665D01*
X550171Y350666D01*
X550180Y350665D01*
X550310Y350686D01*
X550440Y350705D01*
X550449Y350708D01*
X550458Y350710D01*
X550578Y350767D01*
X550697Y350821D01*
X550705Y350827D01*
X550713Y350831D01*
X550811Y350918D01*
X550912Y351004D01*
X550917Y351012D01*
X550924Y351018D01*
X550964Y351084D01*
X551066Y351240D01*
X551073Y351263D01*
X551084Y351282D01*
X551321Y351854D01*
X553166Y353699D01*
X555576Y354697D01*
X558184Y354697D01*
X560594Y353699D01*
X562439Y351854D01*
X563437Y349444D01*
X563437Y346836D01*
X562439Y344426D01*
X560594Y342581D01*
X558184Y341583D01*
X555576Y341583D01*
X553166Y342581D01*
X551321Y344426D01*
X551084Y344998D01*
X551080Y345007D01*
X551077Y345016D01*
X551008Y345128D01*
X550941Y345241D01*
X550934Y345248D01*
X550929Y345256D01*
X550831Y345344D01*
X550735Y345434D01*
X550727Y345438D01*
X550720Y345445D01*
X550601Y345502D01*
X550484Y345562D01*
X550474Y345564D01*
X550466Y345568D01*
X550389Y345580D01*
X550206Y345614D01*
X550183Y345612D01*
X550161Y345615D01*
X260540Y345615D01*
X260445Y345602D01*
X260349Y345597D01*
X260305Y345582D01*
X260260Y345575D01*
X260173Y345536D01*
X260082Y345504D01*
X260048Y345479D01*
X260004Y345459D01*
X259906Y345376D01*
X259833Y345323D01*
X250267Y335757D01*
X250210Y335680D01*
X250145Y335609D01*
X250125Y335568D01*
X250098Y335531D01*
X250064Y335441D01*
X250022Y335355D01*
X250016Y335313D01*
X249999Y335267D01*
X249989Y335140D01*
X249975Y335050D01*
X249975Y331785D01*
X249976Y331776D01*
X249975Y331766D01*
X249996Y331636D01*
X250015Y331506D01*
X250018Y331497D01*
X250020Y331488D01*
X250077Y331368D01*
X250131Y331249D01*
X250137Y331242D01*
X250141Y331233D01*
X250229Y331135D01*
X250314Y331035D01*
X250322Y331030D01*
X250328Y331022D01*
X250394Y330983D01*
X250550Y330880D01*
X250573Y330873D01*
X250592Y330862D01*
X252486Y330077D01*
X254987Y327576D01*
X256341Y324308D01*
X256341Y320771D01*
X254987Y317504D01*
X253896Y316413D01*
X253877Y316387D01*
X253852Y316366D01*
X253792Y316274D01*
X253727Y316187D01*
X253715Y316157D01*
X253698Y316130D01*
X253666Y316025D01*
X253627Y315923D01*
X253625Y315891D01*
X253615Y315860D01*
X253614Y315751D01*
X253605Y315642D01*
X253612Y315610D01*
X253611Y315578D01*
X253641Y315473D01*
X253663Y315366D01*
X253678Y315337D01*
X253687Y315306D01*
X253744Y315213D01*
X253795Y315117D01*
X253818Y315094D01*
X253835Y315066D01*
X253916Y314993D01*
X253992Y314915D01*
X254020Y314899D01*
X254044Y314877D01*
X254142Y314830D01*
X254238Y314776D01*
X254269Y314768D01*
X254298Y314754D01*
X254387Y314740D01*
X254512Y314711D01*
X254560Y314713D01*
X254603Y314707D01*
X265697Y314707D01*
X265729Y314711D01*
X265762Y314709D01*
X265869Y314731D01*
X265977Y314747D01*
X266006Y314760D01*
X266038Y314766D01*
X266134Y314818D01*
X266234Y314863D01*
X266258Y314884D01*
X266287Y314899D01*
X266365Y314975D01*
X266448Y315046D01*
X266466Y315073D01*
X266489Y315096D01*
X266542Y315191D01*
X266602Y315282D01*
X266612Y315313D01*
X266628Y315341D01*
X266653Y315447D01*
X266685Y315552D01*
X266685Y315584D01*
X266693Y315615D01*
X266687Y315725D01*
X266689Y315834D01*
X266680Y315865D01*
X266678Y315897D01*
X266643Y316000D01*
X266613Y316106D01*
X266596Y316133D01*
X266586Y316164D01*
X266532Y316237D01*
X266465Y316346D01*
X266429Y316378D01*
X266404Y316413D01*
X265313Y317504D01*
X263959Y320771D01*
X263959Y324308D01*
X265313Y327576D01*
X267814Y330077D01*
X271082Y331431D01*
X274618Y331431D01*
X277886Y330077D01*
X280387Y327576D01*
X281741Y324308D01*
X281741Y320771D01*
X280387Y317504D01*
X279296Y316413D01*
X279277Y316387D01*
X279252Y316366D01*
X279192Y316274D01*
X279127Y316187D01*
X279115Y316157D01*
X279098Y316130D01*
X279066Y316025D01*
X279027Y315923D01*
X279025Y315891D01*
X279015Y315860D01*
X279014Y315751D01*
X279005Y315642D01*
X279012Y315610D01*
X279011Y315578D01*
X279041Y315473D01*
X279063Y315366D01*
X279078Y315337D01*
X279087Y315306D01*
X279144Y315213D01*
X279195Y315117D01*
X279218Y315094D01*
X279235Y315066D01*
X279316Y314993D01*
X279392Y314915D01*
X279420Y314899D01*
X279444Y314877D01*
X279542Y314830D01*
X279638Y314776D01*
X279669Y314768D01*
X279698Y314754D01*
X279787Y314740D01*
X279912Y314711D01*
X279960Y314713D01*
X280003Y314707D01*
X291097Y314707D01*
X291129Y314711D01*
X291162Y314709D01*
X291269Y314731D01*
X291377Y314747D01*
X291406Y314760D01*
X291438Y314766D01*
X291534Y314818D01*
X291634Y314863D01*
X291658Y314884D01*
X291687Y314899D01*
X291765Y314975D01*
X291848Y315046D01*
X291866Y315073D01*
X291889Y315096D01*
X291942Y315191D01*
X292002Y315282D01*
X292012Y315313D01*
X292028Y315341D01*
X292053Y315447D01*
X292085Y315552D01*
X292085Y315584D01*
X292093Y315615D01*
X292087Y315725D01*
X292089Y315834D01*
X292080Y315865D01*
X292078Y315897D01*
X292043Y316000D01*
X292013Y316106D01*
X291996Y316133D01*
X291986Y316164D01*
X291932Y316237D01*
X291865Y316346D01*
X291829Y316378D01*
X291804Y316413D01*
X290713Y317504D01*
X289359Y320771D01*
X289359Y324308D01*
X290713Y327576D01*
X293214Y330077D01*
X296482Y331431D01*
X300018Y331431D01*
X303286Y330077D01*
X305787Y327576D01*
X307141Y324308D01*
X307141Y320771D01*
X305787Y317504D01*
X304696Y316413D01*
X304677Y316387D01*
X304652Y316366D01*
X304592Y316274D01*
X304527Y316187D01*
X304515Y316157D01*
X304498Y316130D01*
X304466Y316025D01*
X304427Y315923D01*
X304425Y315891D01*
X304415Y315860D01*
X304414Y315751D01*
X304405Y315642D01*
X304412Y315610D01*
X304411Y315578D01*
X304441Y315473D01*
X304463Y315366D01*
X304478Y315337D01*
X304487Y315306D01*
X304544Y315213D01*
X304595Y315117D01*
X304618Y315094D01*
X304635Y315066D01*
X304716Y314993D01*
X304792Y314915D01*
X304820Y314899D01*
X304844Y314877D01*
X304942Y314830D01*
X305038Y314776D01*
X305069Y314768D01*
X305098Y314754D01*
X305187Y314740D01*
X305312Y314711D01*
X305360Y314713D01*
X305403Y314707D01*
X316497Y314707D01*
X316529Y314711D01*
X316562Y314709D01*
X316669Y314731D01*
X316777Y314747D01*
X316806Y314760D01*
X316838Y314766D01*
X316934Y314818D01*
X317034Y314863D01*
X317058Y314884D01*
X317087Y314899D01*
X317165Y314975D01*
X317248Y315046D01*
X317266Y315073D01*
X317289Y315096D01*
X317342Y315191D01*
X317402Y315282D01*
X317412Y315313D01*
X317428Y315341D01*
X317453Y315447D01*
X317485Y315552D01*
X317485Y315584D01*
X317493Y315615D01*
X317487Y315725D01*
X317489Y315834D01*
X317480Y315865D01*
X317478Y315897D01*
X317443Y316000D01*
X317413Y316106D01*
X317396Y316133D01*
X317386Y316164D01*
X317332Y316237D01*
X317265Y316346D01*
X317229Y316378D01*
X317204Y316413D01*
X316113Y317504D01*
X314759Y320771D01*
X314759Y324308D01*
X316113Y327576D01*
X318614Y330077D01*
X321882Y331431D01*
X325418Y331431D01*
X328686Y330077D01*
X331187Y327576D01*
X332541Y324308D01*
X332541Y322947D01*
X332545Y322915D01*
X332543Y322883D01*
X332565Y322776D01*
X332581Y322668D01*
X332594Y322638D01*
X332600Y322607D01*
X332652Y322510D01*
X332697Y322411D01*
X332718Y322386D01*
X332733Y322358D01*
X332809Y322280D01*
X332880Y322197D01*
X332907Y322179D01*
X332930Y322156D01*
X333025Y322102D01*
X333116Y322042D01*
X333147Y322033D01*
X333175Y322017D01*
X333281Y321992D01*
X333386Y321960D01*
X333418Y321959D01*
X333449Y321952D01*
X333559Y321957D01*
X333668Y321956D01*
X333699Y321965D01*
X333731Y321966D01*
X333834Y322002D01*
X333940Y322031D01*
X333967Y322048D01*
X333998Y322059D01*
X334071Y322112D01*
X334180Y322179D01*
X334212Y322215D01*
X334247Y322240D01*
X335857Y323851D01*
X339302Y323851D01*
X339311Y323852D01*
X339321Y323851D01*
X339451Y323872D01*
X339581Y323891D01*
X339590Y323894D01*
X339599Y323896D01*
X339719Y323953D01*
X339838Y324007D01*
X339845Y324013D01*
X339854Y324017D01*
X339953Y324105D01*
X340052Y324190D01*
X340058Y324198D01*
X340065Y324204D01*
X340105Y324270D01*
X340207Y324426D01*
X340214Y324449D01*
X340225Y324468D01*
X341513Y327576D01*
X344014Y330077D01*
X347282Y331431D01*
X350818Y331431D01*
X354086Y330077D01*
X356587Y327576D01*
X357941Y324308D01*
X357941Y322439D01*
X357945Y322407D01*
X357943Y322375D01*
X357965Y322268D01*
X357981Y322160D01*
X357994Y322130D01*
X358000Y322099D01*
X358052Y322002D01*
X358097Y321903D01*
X358118Y321878D01*
X358133Y321850D01*
X358209Y321772D01*
X358280Y321689D01*
X358307Y321671D01*
X358330Y321648D01*
X358425Y321594D01*
X358516Y321534D01*
X358547Y321525D01*
X358575Y321509D01*
X358682Y321484D01*
X358786Y321452D01*
X358818Y321451D01*
X358849Y321444D01*
X358959Y321449D01*
X359068Y321448D01*
X359099Y321457D01*
X359131Y321458D01*
X359234Y321494D01*
X359340Y321523D01*
X359367Y321540D01*
X359398Y321551D01*
X359471Y321604D01*
X359580Y321671D01*
X359612Y321707D01*
X359647Y321732D01*
X360133Y322219D01*
X361765Y323851D01*
X364702Y323851D01*
X364711Y323852D01*
X364721Y323851D01*
X364851Y323872D01*
X364981Y323891D01*
X364990Y323894D01*
X364999Y323896D01*
X365119Y323953D01*
X365238Y324007D01*
X365245Y324013D01*
X365254Y324017D01*
X365353Y324105D01*
X365452Y324190D01*
X365458Y324198D01*
X365465Y324204D01*
X365505Y324270D01*
X365607Y324426D01*
X365614Y324449D01*
X365625Y324468D01*
X366913Y327576D01*
X369414Y330077D01*
X372682Y331431D01*
X376218Y331431D01*
X379486Y330077D01*
X381987Y327576D01*
X383341Y324308D01*
X383341Y320771D01*
X381987Y317504D01*
X379486Y315003D01*
X376218Y313649D01*
X372682Y313649D01*
X369414Y315003D01*
X366913Y317504D01*
X366434Y318660D01*
X366429Y318669D01*
X366426Y318678D01*
X366357Y318790D01*
X366290Y318903D01*
X366283Y318910D01*
X366278Y318918D01*
X366181Y319006D01*
X366084Y319096D01*
X366076Y319100D01*
X366069Y319107D01*
X365951Y319164D01*
X365833Y319224D01*
X365824Y319226D01*
X365815Y319230D01*
X365739Y319242D01*
X365556Y319276D01*
X365532Y319274D01*
X365511Y319277D01*
X364073Y319277D01*
X363978Y319264D01*
X363882Y319259D01*
X363839Y319244D01*
X363794Y319237D01*
X363706Y319198D01*
X363615Y319166D01*
X363581Y319141D01*
X363537Y319121D01*
X363440Y319038D01*
X363367Y318985D01*
X353099Y308717D01*
X351467Y307085D01*
X302496Y307085D01*
X302410Y307073D01*
X302323Y307070D01*
X302271Y307053D01*
X302217Y307045D01*
X302138Y307010D01*
X302055Y306983D01*
X302010Y306952D01*
X301960Y306929D01*
X301894Y306873D01*
X301822Y306824D01*
X301787Y306782D01*
X301746Y306746D01*
X301698Y306673D01*
X301643Y306606D01*
X301621Y306556D01*
X301591Y306510D01*
X301566Y306427D01*
X301532Y306347D01*
X301525Y306293D01*
X301509Y306240D01*
X301508Y306153D01*
X301497Y306067D01*
X301506Y306013D01*
X301505Y305958D01*
X301528Y305874D01*
X301542Y305789D01*
X301566Y305739D01*
X301580Y305686D01*
X301626Y305612D01*
X301663Y305534D01*
X301700Y305493D01*
X301728Y305446D01*
X301793Y305388D01*
X301851Y305323D01*
X301894Y305297D01*
X301938Y305257D01*
X302040Y305208D01*
X302114Y305163D01*
X303286Y304677D01*
X305787Y302176D01*
X307141Y298908D01*
X307141Y295371D01*
X305787Y292104D01*
X303286Y289603D01*
X300018Y288249D01*
X296482Y288249D01*
X293214Y289603D01*
X290713Y292104D01*
X289359Y295371D01*
X289359Y298908D01*
X290713Y302176D01*
X293214Y304677D01*
X294386Y305163D01*
X294461Y305207D01*
X294540Y305243D01*
X294582Y305278D01*
X294629Y305306D01*
X294688Y305370D01*
X294754Y305426D01*
X294784Y305472D01*
X294822Y305512D01*
X294861Y305589D01*
X294909Y305662D01*
X294925Y305715D01*
X294950Y305764D01*
X294966Y305849D01*
X294991Y305932D01*
X294992Y305987D01*
X295002Y306041D01*
X294994Y306127D01*
X294995Y306214D01*
X294980Y306267D01*
X294975Y306321D01*
X294943Y306402D01*
X294920Y306486D01*
X294891Y306533D01*
X294871Y306583D01*
X294817Y306652D01*
X294772Y306726D01*
X294731Y306762D01*
X294697Y306806D01*
X294627Y306857D01*
X294562Y306915D01*
X294513Y306939D01*
X294468Y306971D01*
X294386Y307000D01*
X294308Y307038D01*
X294258Y307046D01*
X294203Y307065D01*
X294089Y307072D01*
X294004Y307085D01*
X277096Y307085D01*
X277010Y307073D01*
X276923Y307070D01*
X276871Y307053D01*
X276817Y307045D01*
X276738Y307010D01*
X276655Y306983D01*
X276610Y306952D01*
X276560Y306929D01*
X276494Y306873D01*
X276422Y306824D01*
X276387Y306782D01*
X276346Y306746D01*
X276298Y306673D01*
X276243Y306606D01*
X276221Y306556D01*
X276191Y306510D01*
X276166Y306427D01*
X276132Y306347D01*
X276125Y306293D01*
X276109Y306240D01*
X276108Y306153D01*
X276097Y306067D01*
X276106Y306013D01*
X276105Y305958D01*
X276128Y305874D01*
X276142Y305789D01*
X276166Y305739D01*
X276180Y305686D01*
X276226Y305612D01*
X276263Y305534D01*
X276300Y305493D01*
X276328Y305446D01*
X276393Y305388D01*
X276451Y305323D01*
X276494Y305297D01*
X276538Y305257D01*
X276640Y305208D01*
X276714Y305163D01*
X277886Y304677D01*
X280387Y302176D01*
X281741Y298908D01*
X281741Y295371D01*
X280387Y292104D01*
X277886Y289603D01*
X274618Y288249D01*
X271082Y288249D01*
X267814Y289603D01*
X265313Y292104D01*
X263959Y295371D01*
X263959Y298908D01*
X265313Y302176D01*
X267814Y304677D01*
X268986Y305163D01*
X269061Y305207D01*
X269140Y305243D01*
X269182Y305278D01*
X269229Y305306D01*
X269288Y305370D01*
X269354Y305426D01*
X269384Y305472D01*
X269422Y305512D01*
X269461Y305589D01*
X269509Y305662D01*
X269525Y305715D01*
X269550Y305764D01*
X269566Y305849D01*
X269591Y305932D01*
X269592Y305987D01*
X269602Y306041D01*
X269594Y306127D01*
X269595Y306214D01*
X269580Y306267D01*
X269575Y306321D01*
X269543Y306402D01*
X269520Y306486D01*
X269491Y306533D01*
X269471Y306583D01*
X269417Y306652D01*
X269372Y306726D01*
X269331Y306762D01*
X269297Y306806D01*
X269227Y306857D01*
X269162Y306915D01*
X269113Y306939D01*
X269068Y306971D01*
X268986Y307000D01*
X268908Y307038D01*
X268858Y307046D01*
X268803Y307065D01*
X268689Y307072D01*
X268604Y307085D01*
X251696Y307085D01*
X251610Y307073D01*
X251523Y307070D01*
X251471Y307053D01*
X251417Y307045D01*
X251338Y307010D01*
X251255Y306983D01*
X251210Y306952D01*
X251160Y306929D01*
X251094Y306873D01*
X251022Y306824D01*
X250987Y306782D01*
X250946Y306746D01*
X250898Y306673D01*
X250843Y306606D01*
X250821Y306556D01*
X250791Y306510D01*
X250766Y306427D01*
X250732Y306347D01*
X250725Y306293D01*
X250709Y306240D01*
X250708Y306153D01*
X250697Y306067D01*
X250706Y306013D01*
X250705Y305958D01*
X250728Y305874D01*
X250742Y305789D01*
X250766Y305739D01*
X250780Y305686D01*
X250826Y305612D01*
X250863Y305534D01*
X250900Y305493D01*
X250928Y305446D01*
X250993Y305388D01*
X251051Y305323D01*
X251094Y305297D01*
X251138Y305257D01*
X251240Y305208D01*
X251314Y305163D01*
X252486Y304677D01*
X254987Y302176D01*
X256341Y298908D01*
X256341Y295371D01*
X254987Y292104D01*
X252486Y289603D01*
X249218Y288249D01*
X245682Y288249D01*
X242414Y289603D01*
X239913Y292104D01*
X238559Y295371D01*
X238559Y298908D01*
X239913Y302176D01*
X242414Y304677D01*
X243586Y305163D01*
X243661Y305207D01*
X243740Y305243D01*
X243782Y305278D01*
X243829Y305306D01*
X243888Y305370D01*
X243954Y305426D01*
X243984Y305472D01*
X244022Y305512D01*
X244061Y305589D01*
X244109Y305662D01*
X244125Y305715D01*
X244150Y305764D01*
X244166Y305849D01*
X244191Y305932D01*
X244192Y305987D01*
X244202Y306041D01*
X244194Y306127D01*
X244195Y306214D01*
X244180Y306267D01*
X244175Y306321D01*
X244143Y306402D01*
X244120Y306486D01*
X244091Y306533D01*
X244071Y306583D01*
X244017Y306652D01*
X243972Y306726D01*
X243931Y306762D01*
X243897Y306806D01*
X243827Y306857D01*
X243762Y306915D01*
X243713Y306939D01*
X243668Y306971D01*
X243586Y307000D01*
X243508Y307038D01*
X243458Y307046D01*
X243403Y307065D01*
X243289Y307072D01*
X243204Y307085D01*
X241369Y307085D01*
X234951Y313504D01*
X234925Y313523D01*
X234904Y313547D01*
X234812Y313607D01*
X234725Y313673D01*
X234695Y313684D01*
X234668Y313702D01*
X234563Y313734D01*
X234461Y313772D01*
X234429Y313775D01*
X234398Y313784D01*
X234289Y313786D01*
X234180Y313794D01*
X234148Y313788D01*
X234116Y313788D01*
X234011Y313759D01*
X233904Y313737D01*
X233875Y313721D01*
X233844Y313713D01*
X233751Y313655D01*
X233655Y313604D01*
X233632Y313582D01*
X233604Y313565D01*
X233531Y313484D01*
X233453Y313407D01*
X233437Y313379D01*
X233415Y313355D01*
X233368Y313257D01*
X233314Y313162D01*
X233306Y313131D01*
X233292Y313102D01*
X233278Y313012D01*
X233249Y312887D01*
X233251Y312839D01*
X233245Y312797D01*
X233245Y281308D01*
X233258Y281213D01*
X233263Y281116D01*
X233278Y281073D01*
X233285Y281028D01*
X233324Y280941D01*
X233356Y280850D01*
X233381Y280816D01*
X233401Y280771D01*
X233484Y280674D01*
X233537Y280601D01*
X242481Y271657D01*
X242558Y271600D01*
X242629Y271535D01*
X242670Y271515D01*
X242707Y271488D01*
X242797Y271454D01*
X242883Y271412D01*
X242925Y271406D01*
X242970Y271389D01*
X243098Y271379D01*
X243188Y271365D01*
X471032Y271365D01*
X475268Y269610D01*
X531331Y213547D01*
X531408Y213490D01*
X531479Y213425D01*
X531520Y213405D01*
X531557Y213378D01*
X531647Y213344D01*
X531733Y213302D01*
X531775Y213296D01*
X531820Y213279D01*
X531948Y213269D01*
X532038Y213255D01*
X567802Y213255D01*
X567897Y213268D01*
X567994Y213273D01*
X568037Y213288D01*
X568082Y213295D01*
X568169Y213334D01*
X568260Y213366D01*
X568294Y213391D01*
X568339Y213411D01*
X568436Y213494D01*
X568509Y213547D01*
X585152Y230190D01*
X589388Y231945D01*
X624703Y231945D01*
X624745Y231951D01*
X624786Y231948D01*
X624870Y231968D01*
X624983Y231985D01*
X625036Y232009D01*
X625086Y232021D01*
X626158Y232465D01*
X633202Y232465D01*
X637438Y230710D01*
X641200Y226948D01*
X642955Y222712D01*
X642955Y218128D01*
X641200Y213892D01*
X637958Y210650D01*
X633722Y208895D01*
X596868Y208895D01*
X596773Y208882D01*
X596676Y208877D01*
X596633Y208862D01*
X596588Y208855D01*
X596501Y208816D01*
X596410Y208784D01*
X596376Y208759D01*
X596331Y208739D01*
X596234Y208656D01*
X596161Y208603D01*
X579518Y191960D01*
X575282Y190205D01*
X564776Y190205D01*
X564658Y190189D01*
X564540Y190177D01*
X564519Y190169D01*
X564497Y190165D01*
X564389Y190117D01*
X564278Y190073D01*
X564260Y190059D01*
X564240Y190049D01*
X564150Y189972D01*
X564056Y189899D01*
X564043Y189881D01*
X564025Y189866D01*
X563960Y189766D01*
X563891Y189670D01*
X563883Y189649D01*
X563871Y189630D01*
X563836Y189516D01*
X563796Y189405D01*
X563795Y189382D01*
X563788Y189360D01*
X563787Y189242D01*
X563780Y189123D01*
X563785Y189102D01*
X563785Y189078D01*
X563834Y188899D01*
X563853Y188824D01*
X564596Y187030D01*
X564617Y186994D01*
X564630Y186955D01*
X564681Y186885D01*
X564739Y186787D01*
X564782Y186747D01*
X564812Y186706D01*
X573009Y178509D01*
X573017Y178503D01*
X573023Y178495D01*
X573130Y178418D01*
X573235Y178339D01*
X573244Y178336D01*
X573251Y178330D01*
X573375Y178287D01*
X573499Y178240D01*
X573508Y178239D01*
X573517Y178236D01*
X573649Y178228D01*
X573780Y178218D01*
X573789Y178220D01*
X573799Y178219D01*
X573874Y178238D01*
X574056Y178276D01*
X574077Y178287D01*
X574098Y178292D01*
X575882Y179031D01*
X579418Y179031D01*
X582686Y177677D01*
X585187Y175176D01*
X585433Y174583D01*
X585477Y174508D01*
X585513Y174429D01*
X585548Y174388D01*
X585576Y174340D01*
X585640Y174281D01*
X585696Y174215D01*
X585742Y174185D01*
X585782Y174148D01*
X585859Y174108D01*
X585932Y174061D01*
X585985Y174045D01*
X586034Y174020D01*
X586119Y174004D01*
X586202Y173978D01*
X586257Y173978D01*
X586311Y173967D01*
X586397Y173976D01*
X586484Y173975D01*
X586537Y173989D01*
X586591Y173994D01*
X586672Y174027D01*
X586756Y174050D01*
X586802Y174079D01*
X586853Y174099D01*
X586922Y174152D01*
X586996Y174198D01*
X587032Y174239D01*
X587076Y174272D01*
X587127Y174343D01*
X587185Y174407D01*
X587209Y174457D01*
X587241Y174501D01*
X587270Y174583D01*
X587308Y174661D01*
X587316Y174711D01*
X587335Y174767D01*
X587342Y174880D01*
X587355Y174966D01*
X587355Y186666D01*
X594364Y193674D01*
X594369Y193682D01*
X594377Y193688D01*
X594454Y193795D01*
X594533Y193900D01*
X594536Y193909D01*
X594542Y193916D01*
X594586Y194040D01*
X594633Y194164D01*
X594633Y194173D01*
X594636Y194182D01*
X594644Y194314D01*
X594654Y194445D01*
X594652Y194454D01*
X594653Y194464D01*
X594635Y194539D01*
X594597Y194721D01*
X594585Y194742D01*
X594580Y194763D01*
X594343Y195336D01*
X594343Y197944D01*
X595341Y200354D01*
X597186Y202199D01*
X599596Y203197D01*
X602204Y203197D01*
X604614Y202199D01*
X606459Y200354D01*
X607457Y197944D01*
X607457Y195336D01*
X606459Y192926D01*
X604614Y191081D01*
X602204Y190083D01*
X599596Y190083D01*
X599023Y190320D01*
X599014Y190323D01*
X599006Y190327D01*
X598876Y190358D01*
X598750Y190390D01*
X598741Y190390D01*
X598731Y190392D01*
X598599Y190386D01*
X598468Y190381D01*
X598459Y190378D01*
X598450Y190378D01*
X598325Y190335D01*
X598200Y190294D01*
X598192Y190289D01*
X598183Y190286D01*
X598121Y190240D01*
X597967Y190135D01*
X597952Y190116D01*
X597934Y190104D01*
X592697Y184867D01*
X592640Y184790D01*
X592575Y184719D01*
X592555Y184678D01*
X592528Y184641D01*
X592494Y184551D01*
X592452Y184465D01*
X592446Y184423D01*
X592429Y184377D01*
X592419Y184250D01*
X592405Y184160D01*
X592405Y172696D01*
X592414Y172634D01*
X592413Y172588D01*
X592418Y172568D01*
X592420Y172524D01*
X592437Y172471D01*
X592445Y172417D01*
X592480Y172338D01*
X592507Y172255D01*
X592538Y172210D01*
X592561Y172160D01*
X592617Y172094D01*
X592666Y172022D01*
X592708Y171988D01*
X592744Y171946D01*
X592817Y171898D01*
X592884Y171843D01*
X592934Y171821D01*
X592980Y171791D01*
X593063Y171766D01*
X593143Y171732D01*
X593197Y171725D01*
X593250Y171709D01*
X593337Y171708D01*
X593423Y171697D01*
X593477Y171706D01*
X593532Y171705D01*
X593616Y171728D01*
X593701Y171742D01*
X593751Y171766D01*
X593804Y171780D01*
X593878Y171826D01*
X593956Y171863D01*
X593997Y171900D01*
X594044Y171929D01*
X594102Y171993D01*
X594167Y172051D01*
X594193Y172094D01*
X594233Y172138D01*
X594280Y172235D01*
X594317Y172292D01*
X594320Y172302D01*
X594327Y172314D01*
X595513Y175176D01*
X598014Y177677D01*
X601282Y179031D01*
X604818Y179031D01*
X608086Y177677D01*
X610587Y175176D01*
X611941Y171908D01*
X611941Y168371D01*
X610587Y165104D01*
X608086Y162603D01*
X604818Y161249D01*
X601282Y161249D01*
X598014Y162603D01*
X595513Y165104D01*
X594327Y167966D01*
X594283Y168041D01*
X594247Y168120D01*
X594212Y168162D01*
X594184Y168209D01*
X594120Y168268D01*
X594064Y168334D01*
X594018Y168364D01*
X593978Y168402D01*
X593901Y168441D01*
X593828Y168489D01*
X593775Y168505D01*
X593726Y168530D01*
X593641Y168546D01*
X593558Y168571D01*
X593503Y168572D01*
X593449Y168582D01*
X593363Y168574D01*
X593276Y168575D01*
X593223Y168560D01*
X593169Y168555D01*
X593088Y168523D01*
X593004Y168500D01*
X592957Y168471D01*
X592907Y168450D01*
X592838Y168397D01*
X592764Y168351D01*
X592727Y168311D01*
X592684Y168277D01*
X592634Y168207D01*
X592575Y168142D01*
X592551Y168093D01*
X592519Y168048D01*
X592490Y167966D01*
X592452Y167888D01*
X592444Y167838D01*
X592425Y167783D01*
X592418Y167669D01*
X592405Y167584D01*
X592405Y146240D01*
X592418Y146145D01*
X592423Y146049D01*
X592438Y146005D01*
X592445Y145960D01*
X592484Y145873D01*
X592516Y145782D01*
X592541Y145748D01*
X592561Y145704D01*
X592644Y145606D01*
X592697Y145533D01*
X633496Y104734D01*
X633504Y104729D01*
X633510Y104721D01*
X633617Y104644D01*
X633722Y104565D01*
X633731Y104562D01*
X633738Y104556D01*
X633862Y104512D01*
X633986Y104465D01*
X633995Y104465D01*
X634004Y104462D01*
X634136Y104454D01*
X634267Y104444D01*
X634276Y104446D01*
X634286Y104445D01*
X634361Y104463D01*
X634543Y104501D01*
X634564Y104513D01*
X634585Y104518D01*
X638494Y106137D01*
X643446Y106137D01*
X648021Y104242D01*
X651522Y100741D01*
X653417Y96166D01*
X653417Y91214D01*
X651522Y86639D01*
X648123Y83241D01*
X648104Y83215D01*
X648079Y83194D01*
X648019Y83102D01*
X647954Y83015D01*
X647942Y82985D01*
X647925Y82958D01*
X647893Y82853D01*
X647854Y82751D01*
X647852Y82719D01*
X647842Y82688D01*
X647841Y82579D01*
X647832Y82470D01*
X647839Y82438D01*
X647838Y82406D01*
X647868Y82301D01*
X647890Y82194D01*
X647905Y82165D01*
X647914Y82134D01*
X647971Y82041D01*
X648022Y81945D01*
X648045Y81922D01*
X648062Y81894D01*
X648143Y81821D01*
X648219Y81743D01*
X648247Y81727D01*
X648271Y81705D01*
X648369Y81658D01*
X648464Y81604D01*
X648496Y81596D01*
X648525Y81582D01*
X648614Y81568D01*
X648739Y81539D01*
X648787Y81541D01*
X648829Y81535D01*
X668111Y81535D01*
X668142Y81539D01*
X668175Y81537D01*
X668282Y81559D01*
X668390Y81575D01*
X668419Y81588D01*
X668451Y81594D01*
X668547Y81646D01*
X668647Y81691D01*
X668671Y81712D01*
X668700Y81727D01*
X668778Y81803D01*
X668861Y81874D01*
X668879Y81901D01*
X668902Y81924D01*
X668956Y82019D01*
X669015Y82110D01*
X669025Y82141D01*
X669041Y82169D01*
X669066Y82275D01*
X669098Y82380D01*
X669098Y82412D01*
X669106Y82443D01*
X669100Y82553D01*
X669102Y82662D01*
X669093Y82693D01*
X669091Y82725D01*
X669056Y82828D01*
X669026Y82934D01*
X669009Y82961D01*
X668999Y82992D01*
X668946Y83065D01*
X668878Y83174D01*
X668842Y83206D01*
X668817Y83241D01*
X665418Y86639D01*
X663523Y91214D01*
X663523Y96166D01*
X665418Y100741D01*
X668919Y104242D01*
X673494Y106137D01*
X678446Y106137D01*
X683021Y104242D01*
X686522Y100741D01*
X688417Y96166D01*
X688417Y91214D01*
X686522Y86639D01*
X683123Y83241D01*
X683104Y83215D01*
X683079Y83194D01*
X683019Y83102D01*
X682954Y83015D01*
X682942Y82985D01*
X682925Y82958D01*
X682893Y82853D01*
X682854Y82751D01*
X682852Y82719D01*
X682842Y82688D01*
X682841Y82579D01*
X682832Y82470D01*
X682839Y82438D01*
X682838Y82406D01*
X682868Y82301D01*
X682890Y82194D01*
X682905Y82165D01*
X682914Y82134D01*
X682971Y82041D01*
X683022Y81945D01*
X683045Y81922D01*
X683062Y81894D01*
X683143Y81821D01*
X683219Y81743D01*
X683247Y81727D01*
X683271Y81705D01*
X683369Y81658D01*
X683464Y81604D01*
X683496Y81596D01*
X683525Y81582D01*
X683614Y81568D01*
X683739Y81539D01*
X683787Y81541D01*
X683829Y81535D01*
X703111Y81535D01*
X703142Y81539D01*
X703175Y81537D01*
X703282Y81559D01*
X703390Y81575D01*
X703419Y81588D01*
X703451Y81594D01*
X703547Y81646D01*
X703647Y81691D01*
X703671Y81712D01*
X703700Y81727D01*
X703778Y81803D01*
X703861Y81874D01*
X703879Y81901D01*
X703902Y81924D01*
X703956Y82019D01*
X704015Y82110D01*
X704025Y82141D01*
X704041Y82169D01*
X704066Y82275D01*
X704098Y82380D01*
X704098Y82412D01*
X704106Y82443D01*
X704100Y82553D01*
X704102Y82662D01*
X704093Y82693D01*
X704091Y82725D01*
X704056Y82828D01*
X704026Y82934D01*
X704009Y82961D01*
X703999Y82992D01*
X703946Y83065D01*
X703878Y83174D01*
X703842Y83206D01*
X703817Y83241D01*
X700418Y86639D01*
X698523Y91214D01*
X698523Y96166D01*
X700418Y100741D01*
X703919Y104242D01*
X708494Y106137D01*
X713446Y106137D01*
X717550Y104437D01*
X717559Y104434D01*
X717568Y104430D01*
X717697Y104399D01*
X717823Y104367D01*
X717833Y104367D01*
X717842Y104365D01*
X717975Y104371D01*
X718105Y104376D01*
X718114Y104378D01*
X718124Y104379D01*
X718249Y104422D01*
X718373Y104463D01*
X718381Y104468D01*
X718390Y104471D01*
X718453Y104517D01*
X718607Y104622D01*
X718622Y104640D01*
X718639Y104653D01*
X724477Y110491D01*
X752279Y110491D01*
X762763Y100007D01*
X762763Y87445D01*
X749231Y73913D01*
X442537Y73913D01*
G37*
%LPD*%
%LPC*%
G36*
X880444Y150643D02*
X880444Y150643D01*
X875869Y152538D01*
X872368Y156039D01*
X870473Y160614D01*
X870473Y165566D01*
X871319Y167608D01*
X871330Y167648D01*
X871348Y167686D01*
X871361Y167771D01*
X871389Y167881D01*
X871387Y167940D01*
X871395Y167990D01*
X871395Y193190D01*
X871389Y193231D01*
X871392Y193272D01*
X871372Y193356D01*
X871355Y193469D01*
X871331Y193522D01*
X871319Y193572D01*
X870473Y195614D01*
X870473Y200566D01*
X871319Y202608D01*
X871330Y202648D01*
X871348Y202686D01*
X871361Y202771D01*
X871389Y202881D01*
X871387Y202940D01*
X871395Y202990D01*
X871395Y228190D01*
X871389Y228231D01*
X871392Y228272D01*
X871372Y228356D01*
X871355Y228469D01*
X871331Y228522D01*
X871319Y228572D01*
X870473Y230614D01*
X870473Y235566D01*
X872368Y240141D01*
X875869Y243642D01*
X880444Y245537D01*
X885396Y245537D01*
X889971Y243642D01*
X893472Y240141D01*
X895367Y235566D01*
X895367Y230614D01*
X894521Y228572D01*
X894510Y228532D01*
X894492Y228494D01*
X894479Y228409D01*
X894451Y228299D01*
X894453Y228240D01*
X894445Y228190D01*
X894445Y223626D01*
X894449Y223594D01*
X894447Y223561D01*
X894469Y223455D01*
X894485Y223346D01*
X894498Y223317D01*
X894504Y223285D01*
X894556Y223189D01*
X894601Y223089D01*
X894622Y223065D01*
X894637Y223036D01*
X894713Y222958D01*
X894784Y222875D01*
X894811Y222857D01*
X894834Y222834D01*
X894929Y222781D01*
X895020Y222721D01*
X895051Y222711D01*
X895079Y222695D01*
X895186Y222670D01*
X895290Y222638D01*
X895322Y222638D01*
X895353Y222630D01*
X895463Y222636D01*
X895572Y222635D01*
X895603Y222643D01*
X895635Y222645D01*
X895738Y222681D01*
X895844Y222710D01*
X895871Y222727D01*
X895902Y222737D01*
X895975Y222791D01*
X896084Y222858D01*
X896116Y222894D01*
X896151Y222919D01*
X905183Y231951D01*
X905240Y232028D01*
X905305Y232099D01*
X905325Y232140D01*
X905352Y232177D01*
X905375Y232238D01*
X905381Y232247D01*
X905389Y232273D01*
X905428Y232353D01*
X905434Y232395D01*
X905451Y232440D01*
X905455Y232490D01*
X905463Y232517D01*
X905464Y232587D01*
X905475Y232658D01*
X905475Y638312D01*
X905462Y638407D01*
X905457Y638504D01*
X905442Y638547D01*
X905435Y638592D01*
X905396Y638679D01*
X905364Y638770D01*
X905339Y638804D01*
X905319Y638849D01*
X905236Y638946D01*
X905183Y639019D01*
X864999Y679203D01*
X864922Y679260D01*
X864851Y679325D01*
X864810Y679345D01*
X864773Y679372D01*
X864683Y679406D01*
X864597Y679448D01*
X864555Y679454D01*
X864510Y679471D01*
X864382Y679481D01*
X864292Y679495D01*
X636538Y679495D01*
X636443Y679482D01*
X636346Y679477D01*
X636303Y679462D01*
X636258Y679455D01*
X636171Y679416D01*
X636080Y679384D01*
X636046Y679359D01*
X636001Y679339D01*
X635904Y679256D01*
X635831Y679203D01*
X618987Y662359D01*
X618930Y662282D01*
X618865Y662211D01*
X618845Y662170D01*
X618818Y662133D01*
X618784Y662043D01*
X618742Y661957D01*
X618736Y661915D01*
X618719Y661870D01*
X618709Y661742D01*
X618695Y661652D01*
X618695Y555825D01*
X618708Y555731D01*
X618713Y555634D01*
X618728Y555591D01*
X618735Y555546D01*
X618774Y555459D01*
X618806Y555368D01*
X618831Y555333D01*
X618851Y555289D01*
X618934Y555192D01*
X618987Y555119D01*
X622969Y551137D01*
X625807Y544287D01*
X625807Y536873D01*
X622969Y530023D01*
X617727Y524781D01*
X610877Y521943D01*
X603463Y521943D01*
X596613Y524781D01*
X591371Y530023D01*
X588533Y536873D01*
X588533Y544287D01*
X591371Y551137D01*
X595353Y555119D01*
X595410Y555196D01*
X595475Y555267D01*
X595495Y555308D01*
X595522Y555344D01*
X595556Y555435D01*
X595598Y555521D01*
X595604Y555563D01*
X595621Y555608D01*
X595631Y555736D01*
X595645Y555825D01*
X595645Y669132D01*
X597400Y673368D01*
X621439Y697408D01*
X624822Y700790D01*
X629058Y702545D01*
X871772Y702545D01*
X876008Y700790D01*
X926770Y650028D01*
X928525Y645792D01*
X928525Y225178D01*
X926770Y220942D01*
X923388Y217559D01*
X895696Y189867D01*
X894737Y188909D01*
X894680Y188832D01*
X894615Y188761D01*
X894595Y188720D01*
X894568Y188683D01*
X894534Y188594D01*
X894492Y188507D01*
X894486Y188465D01*
X894469Y188420D01*
X894459Y188292D01*
X894445Y188202D01*
X894445Y167990D01*
X894451Y167949D01*
X894448Y167908D01*
X894468Y167824D01*
X894485Y167711D01*
X894509Y167658D01*
X894521Y167608D01*
X895367Y165566D01*
X895367Y160614D01*
X893472Y156039D01*
X889971Y152538D01*
X885396Y150643D01*
X880444Y150643D01*
G37*
%LPD*%
%LPC*%
G36*
X426448Y360805D02*
X426448Y360805D01*
X422212Y362560D01*
X418970Y365802D01*
X417215Y370038D01*
X417215Y456562D01*
X418970Y460798D01*
X452219Y494048D01*
X455602Y497430D01*
X459838Y499185D01*
X509712Y499185D01*
X509807Y499198D01*
X509904Y499203D01*
X509947Y499218D01*
X509992Y499225D01*
X510079Y499264D01*
X510170Y499296D01*
X510204Y499321D01*
X510249Y499341D01*
X510346Y499424D01*
X510419Y499477D01*
X524853Y513911D01*
X524910Y513988D01*
X524975Y514059D01*
X524995Y514100D01*
X525022Y514137D01*
X525056Y514227D01*
X525098Y514313D01*
X525104Y514355D01*
X525121Y514400D01*
X525131Y514528D01*
X525145Y514618D01*
X525145Y645822D01*
X526900Y650058D01*
X530142Y653300D01*
X534378Y655055D01*
X538962Y655055D01*
X543198Y653300D01*
X546440Y650058D01*
X548195Y645822D01*
X548195Y507138D01*
X546440Y502902D01*
X521428Y477890D01*
X517192Y476135D01*
X467318Y476135D01*
X467223Y476122D01*
X467126Y476117D01*
X467083Y476102D01*
X467038Y476095D01*
X466951Y476056D01*
X466860Y476024D01*
X466826Y475999D01*
X466781Y475979D01*
X466684Y475896D01*
X466611Y475843D01*
X440557Y449789D01*
X440500Y449712D01*
X440435Y449641D01*
X440415Y449600D01*
X440388Y449563D01*
X440354Y449473D01*
X440312Y449387D01*
X440306Y449345D01*
X440289Y449300D01*
X440279Y449172D01*
X440265Y449082D01*
X440265Y370038D01*
X438510Y365802D01*
X435268Y362560D01*
X431032Y360805D01*
X426448Y360805D01*
G37*
%LPD*%
%LPC*%
G36*
X735388Y418485D02*
X735388Y418485D01*
X731152Y420240D01*
X727910Y423482D01*
X726155Y427718D01*
X726155Y596702D01*
X726142Y596797D01*
X726137Y596894D01*
X726122Y596937D01*
X726115Y596982D01*
X726076Y597069D01*
X726044Y597160D01*
X726019Y597194D01*
X725999Y597239D01*
X725916Y597336D01*
X725863Y597409D01*
X685909Y637363D01*
X685832Y637420D01*
X685761Y637485D01*
X685720Y637505D01*
X685683Y637532D01*
X685593Y637566D01*
X685507Y637608D01*
X685465Y637614D01*
X685420Y637631D01*
X685292Y637641D01*
X685202Y637655D01*
X663718Y637655D01*
X663623Y637642D01*
X663526Y637637D01*
X663483Y637622D01*
X663438Y637615D01*
X663351Y637576D01*
X663260Y637544D01*
X663226Y637519D01*
X663181Y637499D01*
X663084Y637416D01*
X663011Y637363D01*
X661809Y636161D01*
X661752Y636084D01*
X661687Y636013D01*
X661667Y635972D01*
X661640Y635935D01*
X661625Y635894D01*
X660520Y634790D01*
X660498Y634782D01*
X660464Y634757D01*
X660419Y634737D01*
X660322Y634654D01*
X660249Y634601D01*
X659408Y633760D01*
X657309Y632890D01*
X657281Y632874D01*
X657250Y632864D01*
X657160Y632802D01*
X657066Y632747D01*
X657044Y632723D01*
X657017Y632705D01*
X656948Y632620D01*
X656873Y632541D01*
X656859Y632512D01*
X656838Y632487D01*
X656795Y632387D01*
X656745Y632289D01*
X656739Y632258D01*
X656727Y632228D01*
X656713Y632120D01*
X656693Y632012D01*
X656696Y631980D01*
X656692Y631948D01*
X656710Y631840D01*
X656720Y631732D01*
X656732Y631702D01*
X656737Y631670D01*
X656784Y631571D01*
X656825Y631470D01*
X656844Y631444D01*
X656858Y631415D01*
X656931Y631333D01*
X656998Y631247D01*
X657024Y631229D01*
X657046Y631204D01*
X657123Y631157D01*
X657227Y631082D01*
X657272Y631066D01*
X657309Y631044D01*
X657772Y630852D01*
X660202Y628422D01*
X661517Y625248D01*
X661517Y621812D01*
X660202Y618638D01*
X657772Y616208D01*
X654598Y614893D01*
X651162Y614893D01*
X647988Y616208D01*
X645558Y618638D01*
X644243Y621812D01*
X644243Y625248D01*
X645558Y628422D01*
X647988Y630852D01*
X648451Y631044D01*
X648479Y631060D01*
X648510Y631070D01*
X648600Y631132D01*
X648694Y631187D01*
X648716Y631211D01*
X648743Y631229D01*
X648812Y631313D01*
X648887Y631393D01*
X648901Y631422D01*
X648922Y631447D01*
X648965Y631547D01*
X649015Y631645D01*
X649021Y631676D01*
X649033Y631706D01*
X649047Y631814D01*
X649067Y631922D01*
X649064Y631954D01*
X649068Y631986D01*
X649050Y632094D01*
X649040Y632202D01*
X649028Y632232D01*
X649023Y632264D01*
X648976Y632363D01*
X648935Y632464D01*
X648916Y632490D01*
X648902Y632519D01*
X648829Y632601D01*
X648762Y632687D01*
X648736Y632706D01*
X648714Y632730D01*
X648637Y632777D01*
X648533Y632852D01*
X648488Y632868D01*
X648451Y632890D01*
X646352Y633760D01*
X645511Y634601D01*
X645434Y634658D01*
X645363Y634723D01*
X645322Y634743D01*
X645285Y634770D01*
X645244Y634785D01*
X644140Y635890D01*
X644132Y635912D01*
X644107Y635946D01*
X644087Y635991D01*
X644004Y636088D01*
X643951Y636161D01*
X643110Y637002D01*
X641355Y641238D01*
X641355Y645822D01*
X643110Y650058D01*
X643951Y650899D01*
X644008Y650976D01*
X644073Y651047D01*
X644093Y651088D01*
X644120Y651125D01*
X644135Y651166D01*
X645240Y652270D01*
X645262Y652278D01*
X645296Y652303D01*
X645341Y652323D01*
X645438Y652406D01*
X645511Y652459D01*
X652002Y658950D01*
X656238Y660705D01*
X692682Y660705D01*
X696918Y658950D01*
X747450Y608418D01*
X749205Y604182D01*
X749205Y427718D01*
X747450Y423482D01*
X744208Y420240D01*
X739972Y418485D01*
X735388Y418485D01*
G37*
%LPD*%
%LPC*%
G36*
X848494Y81243D02*
X848494Y81243D01*
X843919Y83138D01*
X840418Y86639D01*
X838523Y91214D01*
X838523Y96166D01*
X840305Y100468D01*
X840308Y100477D01*
X840312Y100486D01*
X840343Y100614D01*
X840375Y100741D01*
X840375Y100751D01*
X840377Y100760D01*
X840371Y100893D01*
X840366Y101023D01*
X840364Y101032D01*
X840363Y101042D01*
X840320Y101166D01*
X840279Y101292D01*
X840274Y101299D01*
X840271Y101308D01*
X840225Y101370D01*
X840120Y101525D01*
X840102Y101540D01*
X840089Y101557D01*
X811529Y130117D01*
X811529Y276476D01*
X811528Y276485D01*
X811529Y276494D01*
X811508Y276624D01*
X811489Y276755D01*
X811486Y276763D01*
X811484Y276773D01*
X811427Y276892D01*
X811373Y277012D01*
X811367Y277019D01*
X811363Y277028D01*
X811275Y277126D01*
X811190Y277226D01*
X811182Y277231D01*
X811176Y277238D01*
X811110Y277278D01*
X810954Y277380D01*
X810931Y277388D01*
X810912Y277399D01*
X810810Y277441D01*
X809317Y278934D01*
X808509Y280884D01*
X808509Y282996D01*
X809317Y284946D01*
X810810Y286439D01*
X812760Y287247D01*
X814872Y287247D01*
X816822Y286439D01*
X817681Y285579D01*
X817733Y285541D01*
X817778Y285495D01*
X817845Y285457D01*
X817907Y285410D01*
X817967Y285387D01*
X818023Y285356D01*
X818098Y285338D01*
X818171Y285311D01*
X818235Y285306D01*
X818297Y285291D01*
X818375Y285295D01*
X818452Y285289D01*
X818515Y285302D01*
X818579Y285305D01*
X818652Y285331D01*
X818728Y285346D01*
X818785Y285377D01*
X818846Y285398D01*
X818902Y285439D01*
X818977Y285479D01*
X819038Y285538D01*
X819095Y285579D01*
X819954Y286439D01*
X821904Y287247D01*
X824016Y287247D01*
X825966Y286439D01*
X827459Y284946D01*
X828267Y282996D01*
X828267Y280884D01*
X827459Y278934D01*
X825966Y277441D01*
X825864Y277399D01*
X825855Y277394D01*
X825846Y277391D01*
X825734Y277322D01*
X825621Y277255D01*
X825614Y277248D01*
X825606Y277243D01*
X825518Y277146D01*
X825428Y277049D01*
X825424Y277041D01*
X825417Y277034D01*
X825360Y276915D01*
X825300Y276798D01*
X825298Y276789D01*
X825294Y276780D01*
X825282Y276704D01*
X825248Y276521D01*
X825250Y276497D01*
X825247Y276476D01*
X825247Y158333D01*
X825260Y158238D01*
X825265Y158142D01*
X825280Y158099D01*
X825287Y158054D01*
X825326Y157966D01*
X825358Y157876D01*
X825383Y157841D01*
X825403Y157797D01*
X825486Y157700D01*
X825539Y157627D01*
X878451Y104715D01*
X878458Y104710D01*
X878464Y104702D01*
X878571Y104625D01*
X878676Y104546D01*
X878685Y104543D01*
X878693Y104537D01*
X878816Y104493D01*
X878940Y104446D01*
X878950Y104446D01*
X878958Y104443D01*
X879090Y104435D01*
X879221Y104425D01*
X879231Y104427D01*
X879240Y104426D01*
X879315Y104444D01*
X879497Y104482D01*
X879519Y104494D01*
X879540Y104499D01*
X883494Y106137D01*
X888446Y106137D01*
X893021Y104242D01*
X896522Y100741D01*
X898417Y96166D01*
X898417Y91214D01*
X896522Y86639D01*
X893021Y83138D01*
X888446Y81243D01*
X883494Y81243D01*
X878919Y83138D01*
X875418Y86639D01*
X873523Y91214D01*
X873523Y96166D01*
X875321Y100505D01*
X875323Y100514D01*
X875328Y100522D01*
X875358Y100651D01*
X875391Y100778D01*
X875390Y100788D01*
X875393Y100797D01*
X875386Y100930D01*
X875382Y101060D01*
X875379Y101069D01*
X875378Y101079D01*
X875335Y101203D01*
X875294Y101328D01*
X875289Y101336D01*
X875286Y101345D01*
X875240Y101407D01*
X875135Y101561D01*
X875117Y101577D01*
X875104Y101594D01*
X820673Y156025D01*
X820673Y276476D01*
X820672Y276485D01*
X820673Y276494D01*
X820652Y276624D01*
X820633Y276755D01*
X820630Y276763D01*
X820628Y276773D01*
X820571Y276892D01*
X820517Y277012D01*
X820511Y277019D01*
X820507Y277028D01*
X820419Y277126D01*
X820334Y277226D01*
X820326Y277231D01*
X820320Y277238D01*
X820254Y277278D01*
X820098Y277380D01*
X820075Y277388D01*
X820056Y277399D01*
X819954Y277441D01*
X819095Y278301D01*
X819043Y278339D01*
X818998Y278385D01*
X818931Y278423D01*
X818869Y278470D01*
X818809Y278493D01*
X818753Y278524D01*
X818678Y278542D01*
X818605Y278569D01*
X818541Y278574D01*
X818478Y278589D01*
X818401Y278585D01*
X818324Y278591D01*
X818261Y278578D01*
X818197Y278575D01*
X818124Y278549D01*
X818048Y278534D01*
X817991Y278503D01*
X817930Y278482D01*
X817874Y278441D01*
X817799Y278401D01*
X817738Y278342D01*
X817681Y278301D01*
X816822Y277441D01*
X816720Y277399D01*
X816711Y277394D01*
X816702Y277391D01*
X816590Y277322D01*
X816477Y277255D01*
X816470Y277248D01*
X816462Y277243D01*
X816374Y277146D01*
X816284Y277049D01*
X816280Y277041D01*
X816273Y277034D01*
X816216Y276915D01*
X816156Y276798D01*
X816154Y276789D01*
X816150Y276780D01*
X816138Y276704D01*
X816104Y276521D01*
X816106Y276497D01*
X816103Y276476D01*
X816103Y132425D01*
X816116Y132330D01*
X816121Y132234D01*
X816136Y132191D01*
X816143Y132146D01*
X816182Y132058D01*
X816214Y131968D01*
X816239Y131933D01*
X816259Y131889D01*
X816342Y131792D01*
X816395Y131719D01*
X843414Y104700D01*
X843421Y104694D01*
X843427Y104687D01*
X843534Y104610D01*
X843639Y104531D01*
X843648Y104527D01*
X843656Y104522D01*
X843780Y104478D01*
X843903Y104431D01*
X843913Y104431D01*
X843922Y104427D01*
X844053Y104420D01*
X844184Y104409D01*
X844194Y104411D01*
X844203Y104411D01*
X844279Y104429D01*
X844461Y104467D01*
X844482Y104478D01*
X844503Y104483D01*
X848494Y106137D01*
X853446Y106137D01*
X858021Y104242D01*
X861522Y100741D01*
X863417Y96166D01*
X863417Y91214D01*
X861522Y86639D01*
X858021Y83138D01*
X853446Y81243D01*
X848494Y81243D01*
G37*
%LPD*%
%LPC*%
G36*
X269964Y81753D02*
X269964Y81753D01*
X265389Y83648D01*
X261888Y87149D01*
X259993Y91724D01*
X259993Y96676D01*
X261888Y101251D01*
X265389Y104752D01*
X269964Y106647D01*
X274916Y106647D01*
X278825Y105028D01*
X278834Y105025D01*
X278842Y105021D01*
X278971Y104990D01*
X279098Y104958D01*
X279107Y104958D01*
X279117Y104956D01*
X279249Y104962D01*
X279380Y104967D01*
X279389Y104969D01*
X279398Y104970D01*
X279523Y105013D01*
X279648Y105054D01*
X279656Y105059D01*
X279665Y105062D01*
X279727Y105108D01*
X279881Y105213D01*
X279896Y105232D01*
X279914Y105244D01*
X314973Y140303D01*
X316744Y142075D01*
X359110Y142075D01*
X359205Y142088D01*
X359301Y142093D01*
X359345Y142108D01*
X359390Y142115D01*
X359477Y142154D01*
X359568Y142186D01*
X359602Y142211D01*
X359646Y142231D01*
X359744Y142314D01*
X359817Y142367D01*
X371633Y154183D01*
X371690Y154260D01*
X371755Y154331D01*
X371775Y154372D01*
X371802Y154409D01*
X371836Y154499D01*
X371878Y154585D01*
X371884Y154627D01*
X371901Y154673D01*
X371911Y154800D01*
X371925Y154890D01*
X371925Y160895D01*
X371924Y160904D01*
X371925Y160914D01*
X371904Y161044D01*
X371885Y161174D01*
X371882Y161183D01*
X371880Y161192D01*
X371823Y161312D01*
X371769Y161431D01*
X371763Y161438D01*
X371759Y161447D01*
X371671Y161546D01*
X371586Y161645D01*
X371578Y161650D01*
X371572Y161658D01*
X371506Y161698D01*
X371350Y161800D01*
X371327Y161807D01*
X371308Y161818D01*
X369414Y162603D01*
X366913Y165104D01*
X365559Y168371D01*
X365559Y171908D01*
X366913Y175176D01*
X369414Y177677D01*
X372682Y179031D01*
X376218Y179031D01*
X379486Y177677D01*
X381987Y175176D01*
X383341Y171908D01*
X383341Y168371D01*
X381987Y165104D01*
X379486Y162603D01*
X377592Y161818D01*
X377583Y161813D01*
X377574Y161811D01*
X377462Y161741D01*
X377349Y161674D01*
X377342Y161668D01*
X377334Y161663D01*
X377246Y161565D01*
X377156Y161469D01*
X377152Y161460D01*
X377145Y161453D01*
X377088Y161335D01*
X377028Y161217D01*
X377026Y161208D01*
X377022Y161199D01*
X377010Y161123D01*
X376976Y160940D01*
X376978Y160916D01*
X376975Y160895D01*
X376975Y152384D01*
X375203Y150613D01*
X364651Y140061D01*
X364632Y140035D01*
X364607Y140014D01*
X364547Y139922D01*
X364482Y139835D01*
X364470Y139805D01*
X364453Y139778D01*
X364421Y139673D01*
X364382Y139571D01*
X364380Y139539D01*
X364370Y139508D01*
X364369Y139399D01*
X364360Y139290D01*
X364367Y139258D01*
X364367Y139226D01*
X364396Y139121D01*
X364418Y139014D01*
X364433Y138985D01*
X364442Y138954D01*
X364499Y138861D01*
X364551Y138765D01*
X364573Y138742D01*
X364590Y138714D01*
X364671Y138641D01*
X364747Y138563D01*
X364775Y138547D01*
X364799Y138525D01*
X364898Y138478D01*
X364993Y138424D01*
X365024Y138416D01*
X365053Y138402D01*
X365142Y138388D01*
X365267Y138359D01*
X365316Y138361D01*
X365358Y138355D01*
X385190Y138355D01*
X385285Y138368D01*
X385381Y138373D01*
X385425Y138388D01*
X385470Y138395D01*
X385557Y138434D01*
X385648Y138466D01*
X385682Y138491D01*
X385726Y138511D01*
X385824Y138594D01*
X385897Y138647D01*
X397033Y149783D01*
X397090Y149860D01*
X397155Y149931D01*
X397175Y149972D01*
X397202Y150009D01*
X397236Y150099D01*
X397278Y150185D01*
X397284Y150227D01*
X397301Y150273D01*
X397311Y150400D01*
X397325Y150490D01*
X397325Y160895D01*
X397324Y160904D01*
X397325Y160914D01*
X397304Y161044D01*
X397285Y161174D01*
X397282Y161183D01*
X397280Y161192D01*
X397223Y161312D01*
X397169Y161431D01*
X397163Y161438D01*
X397159Y161447D01*
X397071Y161546D01*
X396986Y161645D01*
X396978Y161650D01*
X396972Y161658D01*
X396906Y161698D01*
X396750Y161800D01*
X396727Y161807D01*
X396708Y161818D01*
X394814Y162603D01*
X392313Y165104D01*
X390959Y168371D01*
X390959Y171908D01*
X392313Y175176D01*
X394814Y177677D01*
X398082Y179031D01*
X401618Y179031D01*
X404886Y177677D01*
X407387Y175176D01*
X408741Y171908D01*
X408741Y168371D01*
X407387Y165104D01*
X404886Y162603D01*
X402992Y161818D01*
X402983Y161813D01*
X402974Y161811D01*
X402862Y161741D01*
X402749Y161674D01*
X402742Y161668D01*
X402734Y161663D01*
X402646Y161565D01*
X402556Y161469D01*
X402552Y161460D01*
X402545Y161453D01*
X402488Y161335D01*
X402428Y161217D01*
X402426Y161208D01*
X402422Y161199D01*
X402410Y161123D01*
X402376Y160940D01*
X402378Y160916D01*
X402375Y160895D01*
X402375Y147984D01*
X387696Y133305D01*
X350530Y133305D01*
X350435Y133292D01*
X350339Y133287D01*
X350295Y133272D01*
X350250Y133265D01*
X350163Y133226D01*
X350072Y133194D01*
X350038Y133169D01*
X349994Y133149D01*
X349896Y133066D01*
X349823Y133013D01*
X318484Y101674D01*
X318479Y101666D01*
X318471Y101660D01*
X318394Y101553D01*
X318315Y101448D01*
X318312Y101439D01*
X318306Y101432D01*
X318262Y101308D01*
X318215Y101184D01*
X318215Y101175D01*
X318212Y101166D01*
X318204Y101034D01*
X318194Y100903D01*
X318196Y100894D01*
X318195Y100884D01*
X318213Y100809D01*
X318251Y100627D01*
X318263Y100606D01*
X318268Y100585D01*
X319887Y96676D01*
X319887Y91724D01*
X317992Y87149D01*
X314491Y83648D01*
X309916Y81753D01*
X304964Y81753D01*
X300389Y83648D01*
X296888Y87149D01*
X294993Y91724D01*
X294993Y96676D01*
X296888Y101251D01*
X300389Y104752D01*
X304964Y106647D01*
X309916Y106647D01*
X313825Y105028D01*
X313834Y105025D01*
X313842Y105021D01*
X313971Y104990D01*
X314098Y104958D01*
X314107Y104958D01*
X314117Y104956D01*
X314249Y104962D01*
X314380Y104967D01*
X314389Y104969D01*
X314398Y104970D01*
X314523Y105013D01*
X314648Y105054D01*
X314656Y105059D01*
X314665Y105062D01*
X314727Y105108D01*
X314881Y105213D01*
X314896Y105232D01*
X314914Y105244D01*
X344989Y135319D01*
X345008Y135345D01*
X345033Y135366D01*
X345093Y135458D01*
X345158Y135545D01*
X345170Y135575D01*
X345187Y135602D01*
X345219Y135707D01*
X345258Y135809D01*
X345260Y135841D01*
X345270Y135872D01*
X345271Y135981D01*
X345280Y136090D01*
X345273Y136122D01*
X345273Y136154D01*
X345244Y136259D01*
X345222Y136366D01*
X345207Y136395D01*
X345198Y136426D01*
X345141Y136519D01*
X345089Y136615D01*
X345067Y136638D01*
X345050Y136666D01*
X344969Y136739D01*
X344893Y136817D01*
X344865Y136833D01*
X344841Y136855D01*
X344742Y136902D01*
X344647Y136956D01*
X344616Y136964D01*
X344587Y136978D01*
X344498Y136992D01*
X344373Y137021D01*
X344324Y137019D01*
X344282Y137025D01*
X319250Y137025D01*
X319155Y137012D01*
X319059Y137007D01*
X319015Y136992D01*
X318970Y136985D01*
X318883Y136946D01*
X318792Y136914D01*
X318758Y136889D01*
X318714Y136869D01*
X318616Y136786D01*
X318543Y136733D01*
X283484Y101674D01*
X283479Y101666D01*
X283471Y101660D01*
X283394Y101553D01*
X283315Y101448D01*
X283312Y101439D01*
X283306Y101432D01*
X283262Y101308D01*
X283215Y101184D01*
X283215Y101175D01*
X283211Y101166D01*
X283204Y101034D01*
X283194Y100903D01*
X283196Y100894D01*
X283195Y100884D01*
X283213Y100809D01*
X283251Y100627D01*
X283262Y100606D01*
X283268Y100585D01*
X284887Y96676D01*
X284887Y91724D01*
X282992Y87149D01*
X279491Y83648D01*
X274916Y81753D01*
X269964Y81753D01*
G37*
%LPD*%
%LPC*%
G36*
X880628Y249835D02*
X880628Y249835D01*
X876392Y251590D01*
X873150Y254832D01*
X871395Y259068D01*
X871395Y263190D01*
X871389Y263231D01*
X871392Y263272D01*
X871372Y263356D01*
X871355Y263469D01*
X871331Y263522D01*
X871319Y263572D01*
X870473Y265614D01*
X870473Y270566D01*
X871319Y272608D01*
X871330Y272648D01*
X871348Y272686D01*
X871361Y272771D01*
X871389Y272881D01*
X871387Y272940D01*
X871395Y272990D01*
X871395Y298190D01*
X871389Y298231D01*
X871392Y298272D01*
X871372Y298356D01*
X871355Y298469D01*
X871331Y298522D01*
X871319Y298572D01*
X870473Y300614D01*
X870473Y305566D01*
X871319Y307608D01*
X871330Y307648D01*
X871348Y307686D01*
X871361Y307771D01*
X871389Y307881D01*
X871387Y307940D01*
X871395Y307990D01*
X871395Y333190D01*
X871389Y333231D01*
X871392Y333272D01*
X871372Y333356D01*
X871355Y333469D01*
X871331Y333522D01*
X871319Y333572D01*
X870473Y335614D01*
X870473Y340566D01*
X872368Y345141D01*
X875869Y348642D01*
X880444Y350537D01*
X885396Y350537D01*
X889971Y348642D01*
X893472Y345141D01*
X895367Y340566D01*
X895367Y335614D01*
X894521Y333572D01*
X894510Y333532D01*
X894492Y333494D01*
X894479Y333409D01*
X894451Y333299D01*
X894453Y333240D01*
X894445Y333190D01*
X894445Y307990D01*
X894451Y307949D01*
X894448Y307908D01*
X894468Y307824D01*
X894485Y307711D01*
X894509Y307658D01*
X894521Y307608D01*
X895367Y305566D01*
X895367Y300614D01*
X894521Y298572D01*
X894510Y298532D01*
X894492Y298494D01*
X894479Y298409D01*
X894451Y298299D01*
X894453Y298240D01*
X894445Y298190D01*
X894445Y273278D01*
X894458Y273183D01*
X894463Y273086D01*
X894478Y273043D01*
X894485Y272998D01*
X894524Y272911D01*
X894556Y272820D01*
X894581Y272786D01*
X894601Y272741D01*
X894684Y272644D01*
X894737Y272571D01*
X896090Y271218D01*
X897845Y266982D01*
X897845Y259068D01*
X896090Y254832D01*
X892848Y251590D01*
X888612Y249835D01*
X880628Y249835D01*
G37*
%LPD*%
%LPC*%
G36*
X601308Y364325D02*
X601308Y364325D01*
X597072Y366080D01*
X593830Y369322D01*
X592075Y373558D01*
X592075Y378142D01*
X593830Y382378D01*
X601593Y390141D01*
X601650Y390218D01*
X601715Y390289D01*
X601735Y390330D01*
X601762Y390367D01*
X601796Y390457D01*
X601838Y390543D01*
X601844Y390585D01*
X601861Y390630D01*
X601871Y390758D01*
X601885Y390848D01*
X601885Y455892D01*
X603640Y460128D01*
X606882Y463370D01*
X611118Y465125D01*
X615702Y465125D01*
X619938Y463370D01*
X623180Y460128D01*
X624935Y455892D01*
X624935Y383368D01*
X623180Y379132D01*
X610128Y366080D01*
X605892Y364325D01*
X601308Y364325D01*
G37*
%LPD*%
%LPC*%
G36*
X234964Y81753D02*
X234964Y81753D01*
X230389Y83648D01*
X226888Y87149D01*
X224993Y91724D01*
X224993Y96676D01*
X226888Y101251D01*
X230389Y104752D01*
X234964Y106647D01*
X239916Y106647D01*
X243825Y105028D01*
X243834Y105025D01*
X243842Y105021D01*
X243971Y104990D01*
X244098Y104958D01*
X244107Y104958D01*
X244117Y104956D01*
X244249Y104962D01*
X244380Y104967D01*
X244389Y104969D01*
X244398Y104970D01*
X244523Y105013D01*
X244648Y105054D01*
X244656Y105059D01*
X244665Y105062D01*
X244727Y105108D01*
X244881Y105213D01*
X244896Y105232D01*
X244914Y105244D01*
X288253Y148583D01*
X290024Y150355D01*
X340480Y150355D01*
X340575Y150368D01*
X340671Y150373D01*
X340715Y150388D01*
X340760Y150395D01*
X340847Y150434D01*
X340938Y150466D01*
X340972Y150491D01*
X341016Y150511D01*
X341114Y150594D01*
X341187Y150647D01*
X347823Y157283D01*
X347880Y157360D01*
X347945Y157431D01*
X347965Y157472D01*
X347992Y157509D01*
X348026Y157599D01*
X348068Y157685D01*
X348074Y157727D01*
X348091Y157773D01*
X348101Y157900D01*
X348115Y157990D01*
X348115Y160250D01*
X348106Y160314D01*
X348107Y160378D01*
X348086Y160453D01*
X348075Y160529D01*
X348049Y160588D01*
X348032Y160650D01*
X347991Y160716D01*
X347959Y160786D01*
X347917Y160835D01*
X347884Y160890D01*
X347826Y160942D01*
X347776Y161000D01*
X347722Y161036D01*
X347674Y161079D01*
X347605Y161112D01*
X347540Y161155D01*
X347478Y161174D01*
X347421Y161202D01*
X347382Y161208D01*
X344014Y162603D01*
X341513Y165104D01*
X340159Y168371D01*
X340159Y171908D01*
X341513Y175176D01*
X344014Y177677D01*
X347282Y179031D01*
X350818Y179031D01*
X354086Y177677D01*
X356587Y175176D01*
X357941Y171908D01*
X357941Y168371D01*
X356587Y165104D01*
X354086Y162603D01*
X353782Y162477D01*
X353773Y162472D01*
X353764Y162469D01*
X353652Y162400D01*
X353539Y162333D01*
X353532Y162326D01*
X353524Y162321D01*
X353436Y162223D01*
X353346Y162127D01*
X353342Y162119D01*
X353335Y162112D01*
X353278Y161993D01*
X353218Y161876D01*
X353216Y161867D01*
X353212Y161858D01*
X353200Y161782D01*
X353166Y161599D01*
X353168Y161575D01*
X353165Y161553D01*
X353165Y155484D01*
X342986Y145305D01*
X292530Y145305D01*
X292435Y145292D01*
X292339Y145287D01*
X292295Y145272D01*
X292250Y145265D01*
X292163Y145226D01*
X292072Y145194D01*
X292038Y145169D01*
X291994Y145149D01*
X291896Y145066D01*
X291823Y145013D01*
X248484Y101674D01*
X248479Y101666D01*
X248471Y101660D01*
X248394Y101553D01*
X248315Y101448D01*
X248312Y101439D01*
X248306Y101432D01*
X248262Y101308D01*
X248215Y101184D01*
X248215Y101175D01*
X248211Y101166D01*
X248204Y101034D01*
X248194Y100903D01*
X248196Y100894D01*
X248195Y100884D01*
X248213Y100809D01*
X248251Y100627D01*
X248262Y100606D01*
X248268Y100585D01*
X249887Y96676D01*
X249887Y91724D01*
X247992Y87149D01*
X244491Y83648D01*
X239916Y81753D01*
X234964Y81753D01*
G37*
%LPD*%
%LPC*%
G36*
X603463Y712443D02*
X603463Y712443D01*
X596613Y715281D01*
X591371Y720523D01*
X588533Y727373D01*
X588533Y734787D01*
X591371Y741637D01*
X596613Y746879D01*
X603463Y749717D01*
X610877Y749717D01*
X617727Y746879D01*
X622969Y741637D01*
X625807Y734787D01*
X625807Y727373D01*
X622969Y720523D01*
X617727Y715281D01*
X610877Y712443D01*
X603463Y712443D01*
G37*
%LPD*%
%LPC*%
G36*
X813494Y81243D02*
X813494Y81243D01*
X808919Y83138D01*
X805418Y86639D01*
X803523Y91214D01*
X803523Y96166D01*
X805418Y100741D01*
X808919Y104242D01*
X813494Y106137D01*
X818446Y106137D01*
X823021Y104242D01*
X826522Y100741D01*
X828417Y96166D01*
X828417Y91214D01*
X826522Y86639D01*
X823021Y83138D01*
X818446Y81243D01*
X813494Y81243D01*
G37*
%LPD*%
%LPC*%
G36*
X778494Y81243D02*
X778494Y81243D01*
X773919Y83138D01*
X770418Y86639D01*
X768523Y91214D01*
X768523Y96166D01*
X770418Y100741D01*
X773919Y104242D01*
X778494Y106137D01*
X783446Y106137D01*
X788021Y104242D01*
X791522Y100741D01*
X793417Y96166D01*
X793417Y91214D01*
X791522Y86639D01*
X788021Y83138D01*
X783446Y81243D01*
X778494Y81243D01*
G37*
%LPD*%
%LPC*%
G36*
X199964Y81753D02*
X199964Y81753D01*
X195389Y83648D01*
X191888Y87149D01*
X189993Y91724D01*
X189993Y96676D01*
X191888Y101251D01*
X195389Y104752D01*
X199964Y106647D01*
X204916Y106647D01*
X209491Y104752D01*
X212992Y101251D01*
X214887Y96676D01*
X214887Y91724D01*
X212992Y87149D01*
X209491Y83648D01*
X204916Y81753D01*
X199964Y81753D01*
G37*
%LPD*%
%LPC*%
G36*
X164964Y81753D02*
X164964Y81753D01*
X160389Y83648D01*
X156888Y87149D01*
X154993Y91724D01*
X154993Y96676D01*
X156888Y101251D01*
X160389Y104752D01*
X164964Y106647D01*
X169916Y106647D01*
X174491Y104752D01*
X177992Y101251D01*
X179887Y96676D01*
X179887Y91724D01*
X177992Y87149D01*
X174491Y83648D01*
X169916Y81753D01*
X164964Y81753D01*
G37*
%LPD*%
%LPC*%
G36*
X129964Y81753D02*
X129964Y81753D01*
X125389Y83648D01*
X121888Y87149D01*
X119993Y91724D01*
X119993Y96676D01*
X121888Y101251D01*
X125389Y104752D01*
X129964Y106647D01*
X134916Y106647D01*
X139491Y104752D01*
X142992Y101251D01*
X144887Y96676D01*
X144887Y91724D01*
X142992Y87149D01*
X139491Y83648D01*
X134916Y81753D01*
X129964Y81753D01*
G37*
%LPD*%
%LPC*%
G36*
X94964Y81753D02*
X94964Y81753D01*
X90389Y83648D01*
X86888Y87149D01*
X84993Y91724D01*
X84993Y96676D01*
X86888Y101251D01*
X90389Y104752D01*
X94964Y106647D01*
X99916Y106647D01*
X104491Y104752D01*
X107992Y101251D01*
X109887Y96676D01*
X109887Y91724D01*
X107992Y87149D01*
X104491Y83648D01*
X99916Y81753D01*
X94964Y81753D01*
G37*
%LPD*%
%LPC*%
G36*
X652840Y464972D02*
X652840Y464972D01*
X652790Y465030D01*
X652736Y465066D01*
X652688Y465109D01*
X652619Y465142D01*
X652554Y465185D01*
X652492Y465204D01*
X652434Y465232D01*
X652365Y465243D01*
X652284Y465267D01*
X652199Y465268D01*
X652130Y465279D01*
X643384Y465279D01*
X643394Y465342D01*
X643465Y465790D01*
X643934Y467235D01*
X644624Y468589D01*
X645517Y469818D01*
X646592Y470893D01*
X647821Y471786D01*
X649175Y472476D01*
X650620Y472945D01*
X650915Y472992D01*
X650923Y472994D01*
X650931Y472995D01*
X651057Y473036D01*
X651185Y473075D01*
X651192Y473079D01*
X651200Y473082D01*
X651309Y473157D01*
X651420Y473230D01*
X651426Y473236D01*
X651433Y473241D01*
X651516Y473343D01*
X651603Y473444D01*
X651607Y473452D01*
X651612Y473459D01*
X651664Y473580D01*
X651719Y473702D01*
X651720Y473710D01*
X651723Y473718D01*
X651739Y473849D01*
X651758Y473981D01*
X651757Y473989D01*
X651758Y473998D01*
X651737Y474128D01*
X651718Y474260D01*
X651714Y474268D01*
X651713Y474276D01*
X651656Y474396D01*
X651601Y474517D01*
X651595Y474523D01*
X651592Y474531D01*
X651503Y474630D01*
X651417Y474731D01*
X651410Y474735D01*
X651404Y474741D01*
X651342Y474780D01*
X651181Y474885D01*
X651159Y474891D01*
X651141Y474902D01*
X647988Y476208D01*
X645558Y478638D01*
X644243Y481812D01*
X644243Y485248D01*
X645558Y488422D01*
X647988Y490852D01*
X651162Y492167D01*
X654598Y492167D01*
X657772Y490852D01*
X660202Y488422D01*
X661517Y485248D01*
X661517Y481812D01*
X660202Y478638D01*
X657772Y476208D01*
X654619Y474902D01*
X654612Y474898D01*
X654604Y474895D01*
X654490Y474826D01*
X654376Y474758D01*
X654370Y474752D01*
X654363Y474748D01*
X654273Y474648D01*
X654183Y474553D01*
X654180Y474545D01*
X654174Y474539D01*
X654116Y474419D01*
X654055Y474301D01*
X654054Y474293D01*
X654050Y474285D01*
X654028Y474155D01*
X654003Y474024D01*
X654004Y474016D01*
X654002Y474007D01*
X654017Y473875D01*
X654030Y473743D01*
X654033Y473736D01*
X654034Y473727D01*
X654085Y473605D01*
X654135Y473481D01*
X654140Y473475D01*
X654143Y473467D01*
X654227Y473363D01*
X654308Y473259D01*
X654315Y473254D01*
X654320Y473248D01*
X654429Y473172D01*
X654537Y473094D01*
X654545Y473091D01*
X654552Y473086D01*
X654622Y473064D01*
X654803Y472999D01*
X654825Y472998D01*
X654845Y472992D01*
X655140Y472945D01*
X656585Y472476D01*
X657939Y471786D01*
X659168Y470893D01*
X660243Y469818D01*
X661136Y468589D01*
X661826Y467235D01*
X662295Y465790D01*
X662376Y465279D01*
X653630Y465279D01*
X653567Y465270D01*
X653502Y465271D01*
X653428Y465250D01*
X653351Y465239D01*
X653293Y465213D01*
X653231Y465196D01*
X653165Y465155D01*
X653094Y465123D01*
X653045Y465081D01*
X652991Y465048D01*
X652939Y464990D01*
X652880Y464940D01*
X652878Y464937D01*
X652840Y464972D01*
G37*
%LPD*%
%LPC*%
G36*
X626682Y161249D02*
X626682Y161249D01*
X623414Y162603D01*
X620913Y165104D01*
X619559Y168371D01*
X619559Y171908D01*
X620913Y175176D01*
X623414Y177677D01*
X626682Y179031D01*
X630218Y179031D01*
X633486Y177677D01*
X635987Y175176D01*
X637341Y171908D01*
X637341Y168371D01*
X635987Y165104D01*
X633486Y162603D01*
X630218Y161249D01*
X626682Y161249D01*
G37*
%LPD*%
%LPC*%
G36*
X245682Y161249D02*
X245682Y161249D01*
X242414Y162603D01*
X239913Y165104D01*
X238559Y168371D01*
X238559Y171908D01*
X239913Y175176D01*
X242414Y177677D01*
X245682Y179031D01*
X249218Y179031D01*
X252486Y177677D01*
X254987Y175176D01*
X256341Y171908D01*
X256341Y168371D01*
X254987Y165104D01*
X252486Y162603D01*
X249218Y161249D01*
X245682Y161249D01*
G37*
%LPD*%
%LPC*%
G36*
X448882Y161249D02*
X448882Y161249D01*
X445614Y162603D01*
X443113Y165104D01*
X441759Y168371D01*
X441759Y171908D01*
X443113Y175176D01*
X445614Y177677D01*
X448882Y179031D01*
X452418Y179031D01*
X455686Y177677D01*
X458187Y175176D01*
X459541Y171908D01*
X459541Y168371D01*
X458187Y165104D01*
X455686Y162603D01*
X452418Y161249D01*
X448882Y161249D01*
G37*
%LPD*%
%LPC*%
G36*
X474282Y313649D02*
X474282Y313649D01*
X471014Y315003D01*
X468513Y317504D01*
X467159Y320771D01*
X467159Y324308D01*
X468513Y327576D01*
X471014Y330077D01*
X474282Y331431D01*
X477818Y331431D01*
X481086Y330077D01*
X483587Y327576D01*
X484941Y324308D01*
X484941Y320771D01*
X483587Y317504D01*
X481086Y315003D01*
X477818Y313649D01*
X474282Y313649D01*
G37*
%LPD*%
%LPC*%
G36*
X423482Y313649D02*
X423482Y313649D01*
X420214Y315003D01*
X417713Y317504D01*
X416359Y320771D01*
X416359Y324308D01*
X417713Y327576D01*
X420214Y330077D01*
X423482Y331431D01*
X427018Y331431D01*
X430286Y330077D01*
X432787Y327576D01*
X434141Y324308D01*
X434141Y320771D01*
X432787Y317504D01*
X430286Y315003D01*
X427018Y313649D01*
X423482Y313649D01*
G37*
%LPD*%
%LPC*%
G36*
X398082Y313649D02*
X398082Y313649D01*
X394814Y315003D01*
X392313Y317504D01*
X390959Y320771D01*
X390959Y324308D01*
X392313Y327576D01*
X394814Y330077D01*
X398082Y331431D01*
X401618Y331431D01*
X404886Y330077D01*
X407387Y327576D01*
X408741Y324308D01*
X408741Y320771D01*
X407387Y317504D01*
X404886Y315003D01*
X401618Y313649D01*
X398082Y313649D01*
G37*
%LPD*%
%LPC*%
G36*
X652082Y313649D02*
X652082Y313649D01*
X648814Y315003D01*
X646313Y317504D01*
X644959Y320771D01*
X644959Y324308D01*
X646313Y327576D01*
X648814Y330077D01*
X652082Y331431D01*
X655618Y331431D01*
X658886Y330077D01*
X661387Y327576D01*
X662741Y324308D01*
X662741Y320771D01*
X661387Y317504D01*
X658886Y315003D01*
X655618Y313649D01*
X652082Y313649D01*
G37*
%LPD*%
%LPC*%
G36*
X626682Y313649D02*
X626682Y313649D01*
X623414Y315003D01*
X620913Y317504D01*
X619559Y320771D01*
X619559Y324308D01*
X620913Y327576D01*
X623414Y330077D01*
X626682Y331431D01*
X630218Y331431D01*
X633486Y330077D01*
X635987Y327576D01*
X637341Y324308D01*
X637341Y320771D01*
X635987Y317504D01*
X633486Y315003D01*
X630218Y313649D01*
X626682Y313649D01*
G37*
%LPD*%
%LPC*%
G36*
X601282Y313649D02*
X601282Y313649D01*
X598014Y315003D01*
X595513Y317504D01*
X594159Y320771D01*
X594159Y324308D01*
X595513Y327576D01*
X598014Y330077D01*
X601282Y331431D01*
X604818Y331431D01*
X608086Y330077D01*
X610587Y327576D01*
X611941Y324308D01*
X611941Y320771D01*
X610587Y317504D01*
X608086Y315003D01*
X604818Y313649D01*
X601282Y313649D01*
G37*
%LPD*%
%LPC*%
G36*
X575882Y313649D02*
X575882Y313649D01*
X572614Y315003D01*
X570113Y317504D01*
X568759Y320771D01*
X568759Y324308D01*
X570113Y327576D01*
X572614Y330077D01*
X575882Y331431D01*
X579418Y331431D01*
X582686Y330077D01*
X585187Y327576D01*
X586541Y324308D01*
X586541Y320771D01*
X585187Y317504D01*
X582686Y315003D01*
X579418Y313649D01*
X575882Y313649D01*
G37*
%LPD*%
%LPC*%
G36*
X550482Y313649D02*
X550482Y313649D01*
X547214Y315003D01*
X544713Y317504D01*
X543359Y320771D01*
X543359Y324308D01*
X544713Y327576D01*
X547214Y330077D01*
X550482Y331431D01*
X554018Y331431D01*
X557286Y330077D01*
X559787Y327576D01*
X561141Y324308D01*
X561141Y320771D01*
X559787Y317504D01*
X557286Y315003D01*
X554018Y313649D01*
X550482Y313649D01*
G37*
%LPD*%
%LPC*%
G36*
X677482Y313649D02*
X677482Y313649D01*
X674214Y315003D01*
X671713Y317504D01*
X670359Y320771D01*
X670359Y324308D01*
X671713Y327576D01*
X674214Y330077D01*
X677482Y331431D01*
X681018Y331431D01*
X684286Y330077D01*
X686787Y327576D01*
X688141Y324308D01*
X688141Y320771D01*
X686787Y317504D01*
X684286Y315003D01*
X681018Y313649D01*
X677482Y313649D01*
G37*
%LPD*%
%LPC*%
G36*
X702882Y313649D02*
X702882Y313649D01*
X699614Y315003D01*
X697113Y317504D01*
X695759Y320771D01*
X695759Y324308D01*
X697113Y327576D01*
X699614Y330077D01*
X702882Y331431D01*
X706418Y331431D01*
X709686Y330077D01*
X712187Y327576D01*
X713541Y324308D01*
X713541Y320771D01*
X712187Y317504D01*
X709686Y315003D01*
X706418Y313649D01*
X702882Y313649D01*
G37*
%LPD*%
%LPC*%
G36*
X626682Y186649D02*
X626682Y186649D01*
X623414Y188003D01*
X620913Y190504D01*
X619559Y193771D01*
X619559Y197308D01*
X620913Y200576D01*
X623414Y203077D01*
X626682Y204431D01*
X630218Y204431D01*
X633486Y203077D01*
X635987Y200576D01*
X637341Y197308D01*
X637341Y193771D01*
X635987Y190504D01*
X633486Y188003D01*
X630218Y186649D01*
X626682Y186649D01*
G37*
%LPD*%
%LPC*%
G36*
X753682Y313649D02*
X753682Y313649D01*
X750414Y315003D01*
X747913Y317504D01*
X746559Y320771D01*
X746559Y324308D01*
X747913Y327576D01*
X750414Y330077D01*
X753682Y331431D01*
X757218Y331431D01*
X760486Y330077D01*
X762987Y327576D01*
X764341Y324308D01*
X764341Y320771D01*
X762987Y317504D01*
X760486Y315003D01*
X757218Y313649D01*
X753682Y313649D01*
G37*
%LPD*%
%LPC*%
G36*
X499682Y313649D02*
X499682Y313649D01*
X496414Y315003D01*
X493913Y317504D01*
X492559Y320771D01*
X492559Y324308D01*
X493913Y327576D01*
X496414Y330077D01*
X499682Y331431D01*
X503218Y331431D01*
X506486Y330077D01*
X508987Y327576D01*
X510341Y324308D01*
X510341Y320771D01*
X508987Y317504D01*
X506486Y315003D01*
X503218Y313649D01*
X499682Y313649D01*
G37*
%LPD*%
%LPC*%
G36*
X728282Y313649D02*
X728282Y313649D01*
X725014Y315003D01*
X722513Y317504D01*
X721159Y320771D01*
X721159Y324308D01*
X722513Y327576D01*
X725014Y330077D01*
X728282Y331431D01*
X731818Y331431D01*
X735086Y330077D01*
X737587Y327576D01*
X738941Y324308D01*
X738941Y320771D01*
X737587Y317504D01*
X735086Y315003D01*
X731818Y313649D01*
X728282Y313649D01*
G37*
%LPD*%
%LPC*%
G36*
X334582Y192999D02*
X334582Y192999D01*
X331314Y194353D01*
X328813Y196854D01*
X327459Y200121D01*
X327459Y203658D01*
X328813Y206926D01*
X331314Y209427D01*
X334582Y210781D01*
X338118Y210781D01*
X341386Y209427D01*
X343887Y206926D01*
X345241Y203658D01*
X345241Y200121D01*
X343887Y196854D01*
X341386Y194353D01*
X338118Y192999D01*
X334582Y192999D01*
G37*
%LPD*%
%LPC*%
G36*
X258382Y192999D02*
X258382Y192999D01*
X255114Y194353D01*
X252613Y196854D01*
X251259Y200121D01*
X251259Y203658D01*
X252613Y206926D01*
X255114Y209427D01*
X258382Y210781D01*
X261918Y210781D01*
X265186Y209427D01*
X267687Y206926D01*
X269041Y203658D01*
X269041Y200121D01*
X267687Y196854D01*
X265186Y194353D01*
X261918Y192999D01*
X258382Y192999D01*
G37*
%LPD*%
%LPC*%
G36*
X232982Y192999D02*
X232982Y192999D01*
X229714Y194353D01*
X227213Y196854D01*
X225859Y200121D01*
X225859Y203658D01*
X227213Y206926D01*
X229714Y209427D01*
X232982Y210781D01*
X236518Y210781D01*
X239786Y209427D01*
X242287Y206926D01*
X243641Y203658D01*
X243641Y200121D01*
X242287Y196854D01*
X239786Y194353D01*
X236518Y192999D01*
X232982Y192999D01*
G37*
%LPD*%
%LPC*%
G36*
X309182Y192999D02*
X309182Y192999D01*
X305914Y194353D01*
X303413Y196854D01*
X302059Y200121D01*
X302059Y203658D01*
X303413Y206926D01*
X305914Y209427D01*
X309182Y210781D01*
X312718Y210781D01*
X315986Y209427D01*
X318487Y206926D01*
X319841Y203658D01*
X319841Y200121D01*
X318487Y196854D01*
X315986Y194353D01*
X312718Y192999D01*
X309182Y192999D01*
G37*
%LPD*%
%LPC*%
G36*
X283782Y192999D02*
X283782Y192999D01*
X280514Y194353D01*
X278013Y196854D01*
X276659Y200121D01*
X276659Y203658D01*
X278013Y206926D01*
X280514Y209427D01*
X283782Y210781D01*
X287318Y210781D01*
X290586Y209427D01*
X293087Y206926D01*
X294441Y203658D01*
X294441Y200121D01*
X293087Y196854D01*
X290586Y194353D01*
X287318Y192999D01*
X283782Y192999D01*
G37*
%LPD*%
%LPC*%
G36*
X448882Y313649D02*
X448882Y313649D01*
X445614Y315003D01*
X443113Y317504D01*
X441759Y320771D01*
X441759Y324308D01*
X443113Y327576D01*
X445614Y330077D01*
X448882Y331431D01*
X452418Y331431D01*
X455686Y330077D01*
X458187Y327576D01*
X459541Y324308D01*
X459541Y320771D01*
X458187Y317504D01*
X455686Y315003D01*
X452418Y313649D01*
X448882Y313649D01*
G37*
%LPD*%
%LPC*%
G36*
X296482Y161249D02*
X296482Y161249D01*
X293214Y162603D01*
X290713Y165104D01*
X289359Y168371D01*
X289359Y171908D01*
X290713Y175176D01*
X293214Y177677D01*
X296482Y179031D01*
X300018Y179031D01*
X303286Y177677D01*
X305787Y175176D01*
X307141Y171908D01*
X307141Y168371D01*
X305787Y165104D01*
X303286Y162603D01*
X300018Y161249D01*
X296482Y161249D01*
G37*
%LPD*%
%LPC*%
G36*
X321882Y161249D02*
X321882Y161249D01*
X318614Y162603D01*
X316113Y165104D01*
X314759Y168371D01*
X314759Y171908D01*
X316113Y175176D01*
X318614Y177677D01*
X321882Y179031D01*
X325418Y179031D01*
X328686Y177677D01*
X331187Y175176D01*
X332541Y171908D01*
X332541Y168371D01*
X331187Y165104D01*
X328686Y162603D01*
X325418Y161249D01*
X321882Y161249D01*
G37*
%LPD*%
%LPC*%
G36*
X626682Y288249D02*
X626682Y288249D01*
X623414Y289603D01*
X620913Y292104D01*
X619559Y295371D01*
X619559Y298908D01*
X620913Y302176D01*
X623414Y304677D01*
X626682Y306031D01*
X630218Y306031D01*
X633486Y304677D01*
X635987Y302176D01*
X637341Y298908D01*
X637341Y295371D01*
X635987Y292104D01*
X633486Y289603D01*
X630218Y288249D01*
X626682Y288249D01*
G37*
%LPD*%
%LPC*%
G36*
X271082Y161249D02*
X271082Y161249D01*
X267814Y162603D01*
X265313Y165104D01*
X263959Y168371D01*
X263959Y171908D01*
X265313Y175176D01*
X267814Y177677D01*
X271082Y179031D01*
X274618Y179031D01*
X277886Y177677D01*
X280387Y175176D01*
X281741Y171908D01*
X281741Y168371D01*
X280387Y165104D01*
X277886Y162603D01*
X274618Y161249D01*
X271082Y161249D01*
G37*
%LPD*%
%LPC*%
G36*
X626682Y262849D02*
X626682Y262849D01*
X623414Y264203D01*
X620913Y266704D01*
X619559Y269971D01*
X619559Y273508D01*
X620913Y276776D01*
X623414Y279277D01*
X626682Y280631D01*
X630218Y280631D01*
X633486Y279277D01*
X635987Y276776D01*
X637341Y273508D01*
X637341Y269971D01*
X635987Y266704D01*
X633486Y264203D01*
X630218Y262849D01*
X626682Y262849D01*
G37*
%LPD*%
%LPC*%
G36*
X220282Y161249D02*
X220282Y161249D01*
X217014Y162603D01*
X214513Y165104D01*
X213159Y168371D01*
X213159Y171908D01*
X214513Y175176D01*
X217014Y177677D01*
X220282Y179031D01*
X223818Y179031D01*
X227086Y177677D01*
X229587Y175176D01*
X230941Y171908D01*
X230941Y168371D01*
X229587Y165104D01*
X227086Y162603D01*
X223818Y161249D01*
X220282Y161249D01*
G37*
%LPD*%
%LPC*%
G36*
X194882Y161249D02*
X194882Y161249D01*
X191614Y162603D01*
X189113Y165104D01*
X187759Y168371D01*
X187759Y171908D01*
X189113Y175176D01*
X191614Y177677D01*
X194882Y179031D01*
X198418Y179031D01*
X201686Y177677D01*
X204187Y175176D01*
X205541Y171908D01*
X205541Y168371D01*
X204187Y165104D01*
X201686Y162603D01*
X198418Y161249D01*
X194882Y161249D01*
G37*
%LPD*%
%LPC*%
G36*
X728282Y161249D02*
X728282Y161249D01*
X725014Y162603D01*
X722513Y165104D01*
X721159Y168371D01*
X721159Y171908D01*
X722513Y175176D01*
X725014Y177677D01*
X728282Y179031D01*
X731818Y179031D01*
X735086Y177677D01*
X737587Y175176D01*
X738941Y171908D01*
X738941Y168371D01*
X737587Y165104D01*
X735086Y162603D01*
X731818Y161249D01*
X728282Y161249D01*
G37*
%LPD*%
%LPC*%
G36*
X753682Y161249D02*
X753682Y161249D01*
X750414Y162603D01*
X747913Y165104D01*
X746559Y168371D01*
X746559Y171908D01*
X747913Y175176D01*
X750414Y177677D01*
X753682Y179031D01*
X757218Y179031D01*
X760486Y177677D01*
X762987Y175176D01*
X764341Y171908D01*
X764341Y168371D01*
X762987Y165104D01*
X760486Y162603D01*
X757218Y161249D01*
X753682Y161249D01*
G37*
%LPD*%
%LPC*%
G36*
X702882Y161249D02*
X702882Y161249D01*
X699614Y162603D01*
X697113Y165104D01*
X695759Y168371D01*
X695759Y171908D01*
X697113Y175176D01*
X699614Y177677D01*
X702882Y179031D01*
X706418Y179031D01*
X709686Y177677D01*
X712187Y175176D01*
X713541Y171908D01*
X713541Y168371D01*
X712187Y165104D01*
X709686Y162603D01*
X706418Y161249D01*
X702882Y161249D01*
G37*
%LPD*%
%LPC*%
G36*
X677482Y161249D02*
X677482Y161249D01*
X674214Y162603D01*
X671713Y165104D01*
X670359Y168371D01*
X670359Y171908D01*
X671713Y175176D01*
X674214Y177677D01*
X677482Y179031D01*
X681018Y179031D01*
X684286Y177677D01*
X686787Y175176D01*
X688141Y171908D01*
X688141Y168371D01*
X686787Y165104D01*
X684286Y162603D01*
X681018Y161249D01*
X677482Y161249D01*
G37*
%LPD*%
%LPC*%
G36*
X652082Y161249D02*
X652082Y161249D01*
X648814Y162603D01*
X646313Y165104D01*
X644959Y168371D01*
X644959Y171908D01*
X646313Y175176D01*
X648814Y177677D01*
X652082Y179031D01*
X655618Y179031D01*
X658886Y177677D01*
X661387Y175176D01*
X662741Y171908D01*
X662741Y168371D01*
X661387Y165104D01*
X658886Y162603D01*
X655618Y161249D01*
X652082Y161249D01*
G37*
%LPD*%
%LPC*%
G36*
X443694Y732704D02*
X443694Y732704D01*
X443694Y750688D01*
X445912Y750396D01*
X448401Y749730D01*
X450781Y748744D01*
X453012Y747456D01*
X455056Y745887D01*
X456877Y744066D01*
X458446Y742022D01*
X459734Y739791D01*
X460720Y737411D01*
X461386Y734922D01*
X461678Y732704D01*
X443694Y732704D01*
G37*
%LPD*%
%LPC*%
G36*
X443694Y542204D02*
X443694Y542204D01*
X443694Y560188D01*
X445912Y559896D01*
X448401Y559230D01*
X450781Y558244D01*
X453012Y556956D01*
X455056Y555387D01*
X456877Y553566D01*
X458446Y551522D01*
X459734Y549291D01*
X460720Y546911D01*
X461386Y544422D01*
X461678Y542204D01*
X443694Y542204D01*
G37*
%LPD*%
%LPC*%
G36*
X443694Y729456D02*
X443694Y729456D01*
X461678Y729456D01*
X461386Y727238D01*
X460720Y724749D01*
X459734Y722369D01*
X458446Y720138D01*
X456877Y718094D01*
X455056Y716273D01*
X453012Y714704D01*
X450781Y713416D01*
X448401Y712430D01*
X445912Y711764D01*
X443694Y711472D01*
X443694Y729456D01*
G37*
%LPD*%
%LPC*%
G36*
X422462Y732704D02*
X422462Y732704D01*
X422754Y734922D01*
X423420Y737411D01*
X424406Y739791D01*
X425694Y742022D01*
X427263Y744066D01*
X429084Y745887D01*
X431128Y747456D01*
X433359Y748744D01*
X435739Y749730D01*
X438228Y750396D01*
X440446Y750688D01*
X440446Y732704D01*
X422462Y732704D01*
G37*
%LPD*%
%LPC*%
G36*
X443694Y538956D02*
X443694Y538956D01*
X461678Y538956D01*
X461386Y536738D01*
X460720Y534249D01*
X459734Y531869D01*
X458446Y529638D01*
X456877Y527594D01*
X455056Y525773D01*
X453012Y524204D01*
X450781Y522916D01*
X448401Y521930D01*
X445912Y521264D01*
X443694Y520972D01*
X443694Y538956D01*
G37*
%LPD*%
%LPC*%
G36*
X422462Y542204D02*
X422462Y542204D01*
X422754Y544422D01*
X423420Y546911D01*
X424406Y549291D01*
X425694Y551522D01*
X427263Y553566D01*
X429084Y555387D01*
X431128Y556956D01*
X433359Y558244D01*
X435739Y559230D01*
X438228Y559896D01*
X440446Y560188D01*
X440446Y542204D01*
X422462Y542204D01*
G37*
%LPD*%
%LPC*%
G36*
X438228Y521264D02*
X438228Y521264D01*
X435739Y521930D01*
X433359Y522916D01*
X431128Y524204D01*
X429084Y525773D01*
X427263Y527594D01*
X425694Y529638D01*
X424406Y531869D01*
X423420Y534249D01*
X422754Y536738D01*
X422462Y538956D01*
X440446Y538956D01*
X440446Y520972D01*
X438228Y521264D01*
G37*
%LPD*%
%LPC*%
G36*
X438228Y711764D02*
X438228Y711764D01*
X435739Y712430D01*
X433359Y713416D01*
X431128Y714704D01*
X429084Y716273D01*
X427263Y718094D01*
X425694Y720138D01*
X424406Y722369D01*
X423420Y724749D01*
X422754Y727238D01*
X422462Y729456D01*
X440446Y729456D01*
X440446Y711472D01*
X438228Y711764D01*
G37*
%LPD*%
%LPC*%
G36*
X651162Y494893D02*
X651162Y494893D01*
X647988Y496208D01*
X645558Y498638D01*
X644243Y501812D01*
X644243Y505248D01*
X645558Y508422D01*
X647988Y510852D01*
X651162Y512167D01*
X654598Y512167D01*
X657772Y510852D01*
X660202Y508422D01*
X661517Y505248D01*
X661517Y501812D01*
X660202Y498638D01*
X657772Y496208D01*
X654598Y494893D01*
X651162Y494893D01*
G37*
%LPD*%
%LPC*%
G36*
X871162Y474893D02*
X871162Y474893D01*
X867988Y476208D01*
X865558Y478638D01*
X864243Y481812D01*
X864243Y485248D01*
X865558Y488422D01*
X867988Y490852D01*
X871162Y492167D01*
X874598Y492167D01*
X877772Y490852D01*
X880202Y488422D01*
X881517Y485248D01*
X881517Y481812D01*
X880202Y478638D01*
X877772Y476208D01*
X874598Y474893D01*
X871162Y474893D01*
G37*
%LPD*%
%LPC*%
G36*
X871162Y454893D02*
X871162Y454893D01*
X867988Y456208D01*
X865558Y458638D01*
X864243Y461812D01*
X864243Y465248D01*
X865558Y468422D01*
X867988Y470852D01*
X871162Y472167D01*
X874598Y472167D01*
X877772Y470852D01*
X880202Y468422D01*
X881517Y465248D01*
X881517Y461812D01*
X880202Y458638D01*
X877772Y456208D01*
X874598Y454893D01*
X871162Y454893D01*
G37*
%LPD*%
%LPC*%
G36*
X871162Y514893D02*
X871162Y514893D01*
X867988Y516208D01*
X865558Y518638D01*
X864243Y521812D01*
X864243Y525248D01*
X865558Y528422D01*
X867988Y530852D01*
X871162Y532167D01*
X874598Y532167D01*
X877772Y530852D01*
X880202Y528422D01*
X881517Y525248D01*
X881517Y521812D01*
X880202Y518638D01*
X877772Y516208D01*
X874598Y514893D01*
X871162Y514893D01*
G37*
%LPD*%
%LPC*%
G36*
X871162Y634893D02*
X871162Y634893D01*
X867988Y636208D01*
X865558Y638638D01*
X864243Y641812D01*
X864243Y645248D01*
X865558Y648422D01*
X867988Y650852D01*
X871162Y652167D01*
X874598Y652167D01*
X877772Y650852D01*
X880202Y648422D01*
X881517Y645248D01*
X881517Y641812D01*
X880202Y638638D01*
X877772Y636208D01*
X874598Y634893D01*
X871162Y634893D01*
G37*
%LPD*%
%LPC*%
G36*
X871162Y614893D02*
X871162Y614893D01*
X867988Y616208D01*
X865558Y618638D01*
X864243Y621812D01*
X864243Y625248D01*
X865558Y628422D01*
X867988Y630852D01*
X871162Y632167D01*
X874598Y632167D01*
X877772Y630852D01*
X880202Y628422D01*
X881517Y625248D01*
X881517Y621812D01*
X880202Y618638D01*
X877772Y616208D01*
X874598Y614893D01*
X871162Y614893D01*
G37*
%LPD*%
%LPC*%
G36*
X871162Y594893D02*
X871162Y594893D01*
X867988Y596208D01*
X865558Y598638D01*
X864243Y601812D01*
X864243Y605248D01*
X865558Y608422D01*
X867988Y610852D01*
X871162Y612167D01*
X874598Y612167D01*
X877772Y610852D01*
X880202Y608422D01*
X881517Y605248D01*
X881517Y601812D01*
X880202Y598638D01*
X877772Y596208D01*
X874598Y594893D01*
X871162Y594893D01*
G37*
%LPD*%
%LPC*%
G36*
X651162Y594893D02*
X651162Y594893D01*
X647988Y596208D01*
X645558Y598638D01*
X644243Y601812D01*
X644243Y605248D01*
X645558Y608422D01*
X647988Y610852D01*
X651162Y612167D01*
X654598Y612167D01*
X657772Y610852D01*
X660202Y608422D01*
X661517Y605248D01*
X661517Y601812D01*
X660202Y598638D01*
X657772Y596208D01*
X654598Y594893D01*
X651162Y594893D01*
G37*
%LPD*%
%LPC*%
G36*
X871162Y574893D02*
X871162Y574893D01*
X867988Y576208D01*
X865558Y578638D01*
X864243Y581812D01*
X864243Y585248D01*
X865558Y588422D01*
X867988Y590852D01*
X871162Y592167D01*
X874598Y592167D01*
X877772Y590852D01*
X880202Y588422D01*
X881517Y585248D01*
X881517Y581812D01*
X880202Y578638D01*
X877772Y576208D01*
X874598Y574893D01*
X871162Y574893D01*
G37*
%LPD*%
%LPC*%
G36*
X651162Y574893D02*
X651162Y574893D01*
X647988Y576208D01*
X645558Y578638D01*
X644243Y581812D01*
X644243Y585248D01*
X645558Y588422D01*
X647988Y590852D01*
X651162Y592167D01*
X654598Y592167D01*
X657772Y590852D01*
X660202Y588422D01*
X661517Y585248D01*
X661517Y581812D01*
X660202Y578638D01*
X657772Y576208D01*
X654598Y574893D01*
X651162Y574893D01*
G37*
%LPD*%
%LPC*%
G36*
X651162Y554893D02*
X651162Y554893D01*
X647988Y556208D01*
X645558Y558638D01*
X644243Y561812D01*
X644243Y565248D01*
X645558Y568422D01*
X647988Y570852D01*
X651162Y572167D01*
X654598Y572167D01*
X657772Y570852D01*
X660202Y568422D01*
X661517Y565248D01*
X661517Y561812D01*
X660202Y558638D01*
X657772Y556208D01*
X654598Y554893D01*
X651162Y554893D01*
G37*
%LPD*%
%LPC*%
G36*
X871162Y554893D02*
X871162Y554893D01*
X867988Y556208D01*
X865558Y558638D01*
X864243Y561812D01*
X864243Y565248D01*
X865558Y568422D01*
X867988Y570852D01*
X871162Y572167D01*
X874598Y572167D01*
X877772Y570852D01*
X880202Y568422D01*
X881517Y565248D01*
X881517Y561812D01*
X880202Y558638D01*
X877772Y556208D01*
X874598Y554893D01*
X871162Y554893D01*
G37*
%LPD*%
%LPC*%
G36*
X871162Y534893D02*
X871162Y534893D01*
X867988Y536208D01*
X865558Y538638D01*
X864243Y541812D01*
X864243Y545248D01*
X865558Y548422D01*
X867988Y550852D01*
X871162Y552167D01*
X874598Y552167D01*
X877772Y550852D01*
X880202Y548422D01*
X881517Y545248D01*
X881517Y541812D01*
X880202Y538638D01*
X877772Y536208D01*
X874598Y534893D01*
X871162Y534893D01*
G37*
%LPD*%
%LPC*%
G36*
X651162Y534893D02*
X651162Y534893D01*
X647988Y536208D01*
X645558Y538638D01*
X644243Y541812D01*
X644243Y545248D01*
X645558Y548422D01*
X647988Y550852D01*
X651162Y552167D01*
X654598Y552167D01*
X657772Y550852D01*
X660202Y548422D01*
X661517Y545248D01*
X661517Y541812D01*
X660202Y538638D01*
X657772Y536208D01*
X654598Y534893D01*
X651162Y534893D01*
G37*
%LPD*%
%LPC*%
G36*
X651162Y514893D02*
X651162Y514893D01*
X647988Y516208D01*
X645558Y518638D01*
X644243Y521812D01*
X644243Y525248D01*
X645558Y528422D01*
X647988Y530852D01*
X651162Y532167D01*
X654598Y532167D01*
X657772Y530852D01*
X660202Y528422D01*
X661517Y525248D01*
X661517Y521812D01*
X660202Y518638D01*
X657772Y516208D01*
X654598Y514893D01*
X651162Y514893D01*
G37*
%LPD*%
%LPC*%
G36*
X871162Y494893D02*
X871162Y494893D01*
X867988Y496208D01*
X865558Y498638D01*
X864243Y501812D01*
X864243Y505248D01*
X865558Y508422D01*
X867988Y510852D01*
X871162Y512167D01*
X874598Y512167D01*
X877772Y510852D01*
X880202Y508422D01*
X881517Y505248D01*
X881517Y501812D01*
X880202Y498638D01*
X877772Y496208D01*
X874598Y494893D01*
X871162Y494893D01*
G37*
%LPD*%
%LPC*%
G36*
X479708Y365265D02*
X479708Y365265D01*
X478815Y366158D01*
X478815Y378502D01*
X479708Y379395D01*
X492052Y379395D01*
X492945Y378502D01*
X492945Y366158D01*
X492052Y365265D01*
X479708Y365265D01*
G37*
%LPD*%
%LPC*%
G36*
X530508Y365265D02*
X530508Y365265D01*
X529615Y366158D01*
X529615Y378502D01*
X530508Y379395D01*
X542852Y379395D01*
X543745Y378502D01*
X543745Y366158D01*
X542852Y365265D01*
X530508Y365265D01*
G37*
%LPD*%
%LPC*%
G36*
X555908Y365265D02*
X555908Y365265D01*
X555015Y366158D01*
X555015Y378502D01*
X555908Y379395D01*
X568252Y379395D01*
X569145Y378502D01*
X569145Y366158D01*
X568252Y365265D01*
X555908Y365265D01*
G37*
%LPD*%
%LPC*%
G36*
X387075Y621465D02*
X387075Y621465D01*
X384478Y622541D01*
X382491Y624528D01*
X381415Y627125D01*
X381415Y629935D01*
X382491Y632532D01*
X384478Y634519D01*
X387075Y635595D01*
X389885Y635595D01*
X392482Y634519D01*
X394469Y632532D01*
X395545Y629935D01*
X395545Y627125D01*
X394469Y624528D01*
X392482Y622541D01*
X389885Y621465D01*
X387075Y621465D01*
G37*
%LPD*%
%LPC*%
G36*
X361675Y621465D02*
X361675Y621465D01*
X359078Y622541D01*
X357091Y624528D01*
X356015Y627125D01*
X356015Y629935D01*
X357091Y632532D01*
X359078Y634519D01*
X361675Y635595D01*
X364485Y635595D01*
X367082Y634519D01*
X369069Y632532D01*
X370145Y629935D01*
X370145Y627125D01*
X369069Y624528D01*
X367082Y622541D01*
X364485Y621465D01*
X361675Y621465D01*
G37*
%LPD*%
%LPC*%
G36*
X183875Y621465D02*
X183875Y621465D01*
X181278Y622541D01*
X179291Y624528D01*
X178215Y627125D01*
X178215Y629935D01*
X179291Y632532D01*
X181278Y634519D01*
X183875Y635595D01*
X186685Y635595D01*
X189282Y634519D01*
X191269Y632532D01*
X192345Y629935D01*
X192345Y627125D01*
X191269Y624528D01*
X189282Y622541D01*
X186685Y621465D01*
X183875Y621465D01*
G37*
%LPD*%
%LPC*%
G36*
X310875Y621465D02*
X310875Y621465D01*
X308278Y622541D01*
X306291Y624528D01*
X305215Y627125D01*
X305215Y629935D01*
X306291Y632532D01*
X308278Y634519D01*
X310875Y635595D01*
X313685Y635595D01*
X316282Y634519D01*
X318269Y632532D01*
X319345Y629935D01*
X319345Y627125D01*
X318269Y624528D01*
X316282Y622541D01*
X313685Y621465D01*
X310875Y621465D01*
G37*
%LPD*%
%LPC*%
G36*
X285475Y621465D02*
X285475Y621465D01*
X282878Y622541D01*
X280891Y624528D01*
X279815Y627125D01*
X279815Y629935D01*
X280891Y632532D01*
X282878Y634519D01*
X285475Y635595D01*
X288285Y635595D01*
X290882Y634519D01*
X292869Y632532D01*
X293945Y629935D01*
X293945Y627125D01*
X292869Y624528D01*
X290882Y622541D01*
X288285Y621465D01*
X285475Y621465D01*
G37*
%LPD*%
%LPC*%
G36*
X260075Y621465D02*
X260075Y621465D01*
X257478Y622541D01*
X255491Y624528D01*
X254415Y627125D01*
X254415Y629935D01*
X255491Y632532D01*
X257478Y634519D01*
X260075Y635595D01*
X262885Y635595D01*
X265482Y634519D01*
X267469Y632532D01*
X268545Y629935D01*
X268545Y627125D01*
X267469Y624528D01*
X265482Y622541D01*
X262885Y621465D01*
X260075Y621465D01*
G37*
%LPD*%
%LPC*%
G36*
X336275Y621465D02*
X336275Y621465D01*
X333678Y622541D01*
X331691Y624528D01*
X330615Y627125D01*
X330615Y629935D01*
X331691Y632532D01*
X333678Y634519D01*
X336275Y635595D01*
X339085Y635595D01*
X341682Y634519D01*
X343669Y632532D01*
X344745Y629935D01*
X344745Y627125D01*
X343669Y624528D01*
X341682Y622541D01*
X339085Y621465D01*
X336275Y621465D01*
G37*
%LPD*%
%LPC*%
G36*
X209275Y621465D02*
X209275Y621465D01*
X206678Y622541D01*
X204691Y624528D01*
X203615Y627125D01*
X203615Y629935D01*
X204691Y632532D01*
X206678Y634519D01*
X209275Y635595D01*
X212085Y635595D01*
X214682Y634519D01*
X216669Y632532D01*
X217745Y629935D01*
X217745Y627125D01*
X216669Y624528D01*
X214682Y622541D01*
X212085Y621465D01*
X209275Y621465D01*
G37*
%LPD*%
%LPC*%
G36*
X884919Y375089D02*
X884919Y375089D01*
X884919Y386404D01*
X886072Y386221D01*
X888088Y385566D01*
X889976Y384604D01*
X891690Y383359D01*
X893189Y381860D01*
X894434Y380146D01*
X895396Y378258D01*
X896051Y376242D01*
X896234Y375089D01*
X884919Y375089D01*
G37*
%LPD*%
%LPC*%
G36*
X884919Y410089D02*
X884919Y410089D01*
X884919Y421404D01*
X886072Y421221D01*
X888088Y420566D01*
X889976Y419604D01*
X891690Y418359D01*
X893189Y416860D01*
X894434Y415146D01*
X895396Y413258D01*
X896051Y411242D01*
X896234Y410089D01*
X884919Y410089D01*
G37*
%LPD*%
%LPC*%
G36*
X884919Y406091D02*
X884919Y406091D01*
X896234Y406091D01*
X896171Y405695D01*
X896051Y404938D01*
X895396Y402922D01*
X894434Y401034D01*
X893189Y399320D01*
X891690Y397821D01*
X889976Y396576D01*
X888088Y395614D01*
X886072Y394959D01*
X884919Y394776D01*
X884919Y406091D01*
G37*
%LPD*%
%LPC*%
G36*
X884919Y371091D02*
X884919Y371091D01*
X896234Y371091D01*
X896175Y370722D01*
X896175Y370721D01*
X896051Y369938D01*
X895396Y367922D01*
X894434Y366034D01*
X893189Y364320D01*
X891690Y362821D01*
X889976Y361576D01*
X888088Y360614D01*
X886072Y359959D01*
X884919Y359776D01*
X884919Y371091D01*
G37*
%LPD*%
%LPC*%
G36*
X869606Y410089D02*
X869606Y410089D01*
X869789Y411242D01*
X870444Y413258D01*
X871406Y415146D01*
X872651Y416860D01*
X874150Y418359D01*
X875864Y419604D01*
X877752Y420566D01*
X879768Y421221D01*
X880921Y421404D01*
X880921Y410089D01*
X869606Y410089D01*
G37*
%LPD*%
%LPC*%
G36*
X869606Y375089D02*
X869606Y375089D01*
X869789Y376242D01*
X870444Y378258D01*
X871406Y380146D01*
X872651Y381860D01*
X874150Y383359D01*
X875864Y384604D01*
X877752Y385566D01*
X879768Y386221D01*
X880921Y386404D01*
X880921Y375089D01*
X869606Y375089D01*
G37*
%LPD*%
%LPC*%
G36*
X879768Y394959D02*
X879768Y394959D01*
X877752Y395614D01*
X875864Y396576D01*
X874150Y397821D01*
X872651Y399320D01*
X871406Y401034D01*
X870444Y402922D01*
X869789Y404938D01*
X869606Y406091D01*
X880921Y406091D01*
X880921Y394776D01*
X879768Y394959D01*
G37*
%LPD*%
%LPC*%
G36*
X879768Y359959D02*
X879768Y359959D01*
X877752Y360614D01*
X875864Y361576D01*
X874150Y362821D01*
X872651Y364320D01*
X871406Y366034D01*
X870444Y367922D01*
X869789Y369938D01*
X869606Y371091D01*
X880921Y371091D01*
X880921Y359776D01*
X879768Y359959D01*
G37*
%LPD*%
%LPC*%
G36*
X654629Y461781D02*
X654629Y461781D01*
X662376Y461781D01*
X662295Y461270D01*
X661826Y459825D01*
X661136Y458471D01*
X660243Y457242D01*
X659168Y456167D01*
X657939Y455274D01*
X656585Y454584D01*
X655140Y454115D01*
X654629Y454034D01*
X654629Y461781D01*
G37*
%LPD*%
%LPC*%
G36*
X650620Y454115D02*
X650620Y454115D01*
X649175Y454584D01*
X647821Y455274D01*
X646592Y456167D01*
X645517Y457242D01*
X644624Y458471D01*
X643934Y459825D01*
X643465Y461270D01*
X643384Y461781D01*
X651131Y461781D01*
X651131Y454034D01*
X650620Y454115D01*
G37*
%LPD*%
%LPC*%
G36*
X512779Y373829D02*
X512779Y373829D01*
X512779Y380411D01*
X517155Y380411D01*
X517801Y380238D01*
X518380Y379903D01*
X518853Y379430D01*
X519188Y378851D01*
X519361Y378205D01*
X519361Y373829D01*
X512779Y373829D01*
G37*
%LPD*%
%LPC*%
G36*
X512779Y370831D02*
X512779Y370831D01*
X519361Y370831D01*
X519361Y366455D01*
X519188Y365809D01*
X518853Y365230D01*
X518380Y364757D01*
X517801Y364422D01*
X517155Y364249D01*
X512779Y364249D01*
X512779Y370831D01*
G37*
%LPD*%
%LPC*%
G36*
X503199Y373829D02*
X503199Y373829D01*
X503199Y378205D01*
X503372Y378851D01*
X503707Y379430D01*
X504180Y379903D01*
X504759Y380238D01*
X505405Y380411D01*
X509781Y380411D01*
X509781Y373829D01*
X503199Y373829D01*
G37*
%LPD*%
%LPC*%
G36*
X505405Y364249D02*
X505405Y364249D01*
X504759Y364422D01*
X504180Y364757D01*
X503707Y365230D01*
X503372Y365809D01*
X503199Y366455D01*
X503199Y370831D01*
X509781Y370831D01*
X509781Y364249D01*
X505405Y364249D01*
G37*
%LPD*%
%LPC*%
G36*
X528849Y324539D02*
X528849Y324539D01*
X528849Y332254D01*
X529170Y332203D01*
X530653Y331721D01*
X532042Y331013D01*
X533304Y330096D01*
X534406Y328994D01*
X535323Y327732D01*
X536031Y326343D01*
X536513Y324860D01*
X536564Y324539D01*
X528849Y324539D01*
G37*
%LPD*%
%LPC*%
G36*
X198649Y324539D02*
X198649Y324539D01*
X198649Y332254D01*
X198970Y332203D01*
X200453Y331721D01*
X201842Y331013D01*
X203104Y330096D01*
X204206Y328994D01*
X205123Y327732D01*
X205831Y326343D01*
X206313Y324860D01*
X206364Y324539D01*
X198649Y324539D01*
G37*
%LPD*%
%LPC*%
G36*
X630449Y248339D02*
X630449Y248339D01*
X630449Y256054D01*
X630770Y256003D01*
X632253Y255521D01*
X633642Y254813D01*
X634904Y253896D01*
X636006Y252794D01*
X636923Y251532D01*
X637631Y250143D01*
X638113Y248660D01*
X638164Y248339D01*
X630449Y248339D01*
G37*
%LPD*%
%LPC*%
G36*
X173249Y172139D02*
X173249Y172139D01*
X173249Y179854D01*
X173570Y179803D01*
X175053Y179321D01*
X176442Y178613D01*
X177704Y177696D01*
X178806Y176594D01*
X179723Y175332D01*
X180431Y173943D01*
X180913Y172460D01*
X180964Y172139D01*
X173249Y172139D01*
G37*
%LPD*%
%LPC*%
G36*
X528849Y320541D02*
X528849Y320541D01*
X536564Y320541D01*
X536513Y320220D01*
X536031Y318737D01*
X535323Y317348D01*
X534406Y316086D01*
X533304Y314984D01*
X532042Y314067D01*
X530653Y313359D01*
X529170Y312877D01*
X528849Y312826D01*
X528849Y320541D01*
G37*
%LPD*%
%LPC*%
G36*
X618736Y248339D02*
X618736Y248339D01*
X618787Y248660D01*
X619269Y250143D01*
X619977Y251532D01*
X620894Y252794D01*
X621996Y253896D01*
X623258Y254813D01*
X624647Y255521D01*
X626130Y256003D01*
X626451Y256054D01*
X626451Y248339D01*
X618736Y248339D01*
G37*
%LPD*%
%LPC*%
G36*
X630449Y244341D02*
X630449Y244341D01*
X638164Y244341D01*
X638113Y244020D01*
X637631Y242537D01*
X636923Y241148D01*
X636006Y239886D01*
X634904Y238784D01*
X633642Y237867D01*
X632253Y237159D01*
X630770Y236677D01*
X630449Y236626D01*
X630449Y244341D01*
G37*
%LPD*%
%LPC*%
G36*
X161536Y172139D02*
X161536Y172139D01*
X161587Y172460D01*
X162069Y173943D01*
X162777Y175332D01*
X163694Y176594D01*
X164796Y177696D01*
X166058Y178613D01*
X167447Y179321D01*
X168930Y179803D01*
X169251Y179854D01*
X169251Y172139D01*
X161536Y172139D01*
G37*
%LPD*%
%LPC*%
G36*
X186936Y324539D02*
X186936Y324539D01*
X186987Y324860D01*
X187469Y326343D01*
X188177Y327732D01*
X189094Y328994D01*
X190196Y330096D01*
X191458Y331013D01*
X192847Y331721D01*
X194330Y332203D01*
X194651Y332254D01*
X194651Y324539D01*
X186936Y324539D01*
G37*
%LPD*%
%LPC*%
G36*
X517136Y324539D02*
X517136Y324539D01*
X517187Y324860D01*
X517669Y326343D01*
X518377Y327732D01*
X519294Y328994D01*
X520396Y330096D01*
X521658Y331013D01*
X523047Y331721D01*
X524530Y332203D01*
X524851Y332254D01*
X524851Y324539D01*
X517136Y324539D01*
G37*
%LPD*%
%LPC*%
G36*
X198649Y320541D02*
X198649Y320541D01*
X206364Y320541D01*
X206313Y320220D01*
X205831Y318737D01*
X205123Y317348D01*
X204206Y316086D01*
X203104Y314984D01*
X201842Y314067D01*
X200453Y313359D01*
X198970Y312877D01*
X198649Y312826D01*
X198649Y320541D01*
G37*
%LPD*%
%LPC*%
G36*
X173249Y168141D02*
X173249Y168141D01*
X180964Y168141D01*
X180921Y167874D01*
X180921Y167873D01*
X180913Y167820D01*
X180431Y166337D01*
X179723Y164948D01*
X178806Y163686D01*
X177704Y162584D01*
X176442Y161667D01*
X175053Y160959D01*
X173570Y160477D01*
X173249Y160426D01*
X173249Y168141D01*
G37*
%LPD*%
%LPC*%
G36*
X626130Y236677D02*
X626130Y236677D01*
X624647Y237159D01*
X623258Y237867D01*
X621996Y238784D01*
X620894Y239886D01*
X619977Y241148D01*
X619269Y242537D01*
X618787Y244020D01*
X618736Y244341D01*
X626451Y244341D01*
X626451Y236626D01*
X626130Y236677D01*
G37*
%LPD*%
%LPC*%
G36*
X194330Y312877D02*
X194330Y312877D01*
X192847Y313359D01*
X191458Y314067D01*
X190196Y314984D01*
X189094Y316086D01*
X188177Y317348D01*
X187469Y318737D01*
X186987Y320220D01*
X186936Y320541D01*
X194651Y320541D01*
X194651Y312826D01*
X194330Y312877D01*
G37*
%LPD*%
%LPC*%
G36*
X524530Y312877D02*
X524530Y312877D01*
X523047Y313359D01*
X521658Y314067D01*
X520396Y314984D01*
X519294Y316086D01*
X518377Y317348D01*
X517669Y318737D01*
X517187Y320220D01*
X517136Y320541D01*
X524851Y320541D01*
X524851Y312826D01*
X524530Y312877D01*
G37*
%LPD*%
%LPC*%
G36*
X168930Y160477D02*
X168930Y160477D01*
X167447Y160959D01*
X166058Y161667D01*
X164796Y162584D01*
X163694Y163686D01*
X162777Y164948D01*
X162069Y166337D01*
X161587Y167820D01*
X161536Y168141D01*
X169251Y168141D01*
X169251Y160426D01*
X168930Y160477D01*
G37*
%LPD*%
%LPC*%
G36*
X262379Y427229D02*
X262379Y427229D01*
X262379Y433671D01*
X263237Y433500D01*
X264708Y432891D01*
X266031Y432007D01*
X267157Y430881D01*
X268041Y429558D01*
X268650Y428087D01*
X268821Y427229D01*
X262379Y427229D01*
G37*
%LPD*%
%LPC*%
G36*
X252939Y427229D02*
X252939Y427229D01*
X253110Y428087D01*
X253719Y429558D01*
X254603Y430881D01*
X255729Y432007D01*
X257052Y432891D01*
X258523Y433500D01*
X259381Y433671D01*
X259381Y427229D01*
X252939Y427229D01*
G37*
%LPD*%
%LPC*%
G36*
X262379Y424231D02*
X262379Y424231D01*
X268821Y424231D01*
X268650Y423373D01*
X268041Y421902D01*
X267157Y420579D01*
X266031Y419453D01*
X264708Y418569D01*
X263237Y417960D01*
X262379Y417789D01*
X262379Y424231D01*
G37*
%LPD*%
%LPC*%
G36*
X258523Y417960D02*
X258523Y417960D01*
X257052Y418569D01*
X255729Y419453D01*
X254603Y420579D01*
X253719Y421902D01*
X253110Y423373D01*
X252939Y424231D01*
X259381Y424231D01*
X259381Y417789D01*
X258523Y417960D01*
G37*
%LPD*%
%LPC*%
G36*
X882919Y408089D02*
X882919Y408089D01*
X882919Y408091D01*
X882921Y408091D01*
X882921Y408089D01*
X882919Y408089D01*
G37*
%LPD*%
%LPC*%
G36*
X628449Y246339D02*
X628449Y246339D01*
X628449Y246341D01*
X628451Y246341D01*
X628451Y246339D01*
X628449Y246339D01*
G37*
%LPD*%
%LPC*%
G36*
X171249Y170139D02*
X171249Y170139D01*
X171249Y170141D01*
X171251Y170141D01*
X171251Y170139D01*
X171249Y170139D01*
G37*
%LPD*%
%LPC*%
G36*
X882919Y373089D02*
X882919Y373089D01*
X882919Y373091D01*
X882921Y373091D01*
X882921Y373089D01*
X882919Y373089D01*
G37*
%LPD*%
%LPC*%
G36*
X196649Y322539D02*
X196649Y322539D01*
X196649Y322541D01*
X196651Y322541D01*
X196651Y322539D01*
X196649Y322539D01*
G37*
%LPD*%
%LPC*%
G36*
X526849Y322539D02*
X526849Y322539D01*
X526849Y322541D01*
X526851Y322541D01*
X526851Y322539D01*
X526849Y322539D01*
G37*
%LPD*%
D10*
X237440Y94200D03*
X202440Y94200D03*
X167440Y94200D03*
X132440Y94200D03*
X97440Y94200D03*
X272440Y94200D03*
X307440Y94200D03*
X342440Y94200D03*
X780970Y93690D03*
X745970Y93690D03*
X710970Y93690D03*
X675970Y93690D03*
X640970Y93690D03*
X815970Y93690D03*
X850970Y93690D03*
X885970Y93690D03*
X882920Y303090D03*
X882920Y268090D03*
X882920Y233090D03*
X882920Y198090D03*
X882920Y163090D03*
X882920Y338090D03*
X882920Y373090D03*
X882920Y408090D03*
D11*
X222050Y170140D03*
X247450Y170140D03*
X272850Y170140D03*
X298250Y170140D03*
X323650Y170140D03*
X349050Y170140D03*
X374450Y170140D03*
X399850Y170140D03*
X425250Y170140D03*
X450650Y170140D03*
X476050Y170140D03*
X501450Y170140D03*
X501450Y322540D03*
X476050Y322540D03*
X450650Y322540D03*
X425250Y322540D03*
X399850Y322540D03*
X374450Y322540D03*
X349050Y322540D03*
X323650Y322540D03*
X298250Y322540D03*
X272850Y322540D03*
X247450Y322540D03*
X196650Y170140D03*
X222050Y322540D03*
X196650Y322540D03*
X171250Y170140D03*
X171250Y322540D03*
X526850Y170140D03*
X526850Y322540D03*
X552250Y170140D03*
X577650Y170140D03*
X603050Y170140D03*
X628450Y170140D03*
X653850Y170140D03*
X679250Y170140D03*
X704650Y170140D03*
X730050Y170140D03*
X755450Y170140D03*
X755450Y322540D03*
X730050Y322540D03*
X704650Y322540D03*
X679250Y322540D03*
X653850Y322540D03*
X628450Y322540D03*
X603050Y322540D03*
X577650Y322540D03*
X552250Y322540D03*
X628450Y195540D03*
X628450Y246340D03*
X628450Y271740D03*
X628450Y220940D03*
X628450Y297140D03*
X196650Y297140D03*
X247450Y297140D03*
X272850Y297140D03*
X298250Y297140D03*
X234750Y201890D03*
X260150Y201890D03*
X285550Y201890D03*
X310950Y201890D03*
X336350Y201890D03*
D12*
X652880Y463530D03*
X652880Y483530D03*
X652880Y503530D03*
X652880Y523530D03*
X652880Y543530D03*
X652880Y563530D03*
X652880Y583530D03*
X652880Y603530D03*
X652880Y623530D03*
D13*
X652880Y643530D03*
D12*
X872880Y463530D03*
X872880Y483530D03*
X872880Y503530D03*
X872880Y523530D03*
X872880Y543530D03*
X872880Y563530D03*
X872880Y583530D03*
X872880Y603530D03*
X872880Y623530D03*
X872880Y643530D03*
D14*
X442070Y540580D03*
X607170Y540580D03*
X607170Y731080D03*
X442070Y731080D03*
D15*
X485880Y372330D03*
X511280Y372330D03*
X536680Y372330D03*
X562080Y372330D03*
D16*
X185280Y628530D03*
X210680Y628530D03*
X236080Y628530D03*
X261480Y628530D03*
X286880Y628530D03*
X312280Y628530D03*
X337680Y628530D03*
X363080Y628530D03*
X388480Y628530D03*
X260880Y425730D03*
X286280Y425730D03*
X311680Y425730D03*
X337080Y425730D03*
D17*
X589880Y144780D02*
X640970Y93690D01*
X589880Y144780D02*
X589880Y185620D01*
X600900Y196640D01*
D18*
X600900Y196640D03*
X556880Y348140D03*
D17*
X259080Y348140D01*
X247450Y336510D02*
X247450Y322540D01*
X247450Y336510D02*
X259080Y348140D01*
D19*
X432816Y187452D02*
X432816Y176784D01*
X435864Y173736D01*
X435864Y152400D01*
X429768Y146304D01*
X429768Y134112D01*
X411480Y115824D01*
X411480Y108204D01*
X443484Y76200D01*
X748284Y76200D01*
X760476Y88392D01*
X760476Y99060D01*
X751332Y108204D01*
X725424Y108204D01*
X711708Y94488D01*
X710970Y93690D01*
D20*
X432816Y187452D03*
D19*
X429768Y216408D02*
X469392Y216408D01*
X516636Y169164D01*
X516636Y166116D01*
X603504Y79248D01*
X731520Y79248D01*
X745236Y92964D01*
X745970Y93690D01*
D20*
X429768Y216408D03*
D19*
X348996Y321564D02*
X336804Y321564D01*
X327660Y312420D01*
X243840Y312420D01*
X237744Y318516D01*
X237744Y332232D01*
X330708Y425196D01*
X336804Y425196D01*
X349050Y322540D02*
X348996Y321564D01*
X336804Y425196D02*
X337080Y425730D01*
X362712Y321564D02*
X373380Y321564D01*
X362712Y321564D02*
X350520Y309372D01*
X242316Y309372D01*
X234696Y316992D01*
X234696Y348996D01*
X310896Y425196D01*
X374450Y322540D02*
X373380Y321564D01*
X310896Y425196D02*
X311680Y425730D01*
X813816Y281940D02*
X813816Y131064D01*
X850392Y94488D01*
X850970Y93690D01*
D20*
X813816Y281940D03*
D19*
X822960Y281940D02*
X822960Y156972D01*
X885444Y94488D01*
X885970Y93690D01*
D20*
X822960Y281940D03*
D18*
X613410Y453600D03*
D21*
X613410Y385660D01*
X603600Y375850D01*
D18*
X603600Y375850D03*
D21*
X375730Y540580D02*
X260880Y425730D01*
X375730Y540580D02*
X442070Y540580D01*
X882920Y408090D02*
X882920Y373090D01*
X442070Y686000D02*
X442070Y731080D01*
X442070Y686000D02*
X442070Y540580D01*
X652880Y463530D02*
X652880Y413990D01*
X693780Y373090D02*
X807810Y373090D01*
X882920Y373090D01*
X693780Y373090D02*
X652880Y413990D01*
X628450Y246340D02*
X756540Y246340D01*
X807810Y297610D02*
X807810Y373090D01*
X807810Y297610D02*
X756540Y246340D01*
D18*
X526850Y284360D03*
D21*
X565440Y245770D01*
X627880Y245770D01*
X628450Y246340D01*
D18*
X442070Y686000D03*
X781300Y197970D03*
D21*
X756540Y222730D01*
X756540Y246340D01*
D17*
X291070Y147830D02*
X237440Y94200D01*
X341940Y147830D02*
X350640Y156530D01*
X350640Y168550D01*
X349050Y170140D01*
X341940Y147830D02*
X291070Y147830D01*
X317790Y139550D02*
X272440Y94200D01*
X317790Y139550D02*
X360570Y139550D01*
X374450Y153430D01*
X374450Y170140D01*
X399850Y149030D02*
X386650Y135830D01*
X399850Y149030D02*
X399850Y170140D01*
X349070Y135830D02*
X307440Y94200D01*
X349070Y135830D02*
X386650Y135830D01*
X376200Y127960D02*
X342440Y94200D01*
X376200Y127960D02*
X413980Y127960D01*
X425250Y139230D01*
X425250Y170140D01*
D18*
X439230Y144550D03*
D17*
X462810Y144550D01*
X476070Y157810D01*
X476070Y170120D01*
X476050Y170140D01*
D19*
X234696Y530352D02*
X234696Y627888D01*
X234696Y530352D02*
X158496Y454152D01*
X158496Y316992D01*
X228600Y246888D01*
X390144Y246888D01*
X426720Y210312D01*
X470916Y210312D01*
X501396Y179832D01*
X501396Y170688D01*
X236080Y628530D02*
X234696Y627888D01*
X501396Y170688D02*
X501450Y170140D01*
D18*
X526850Y201730D03*
D21*
X572990Y201730D01*
X591680Y220420D02*
X631430Y220420D01*
X630910Y220940D01*
X591680Y220420D02*
X572990Y201730D01*
X628450Y220940D02*
X630910Y220940D01*
X526850Y201730D02*
X468740Y259840D01*
X238000Y259840D01*
X221720Y276120D02*
X221720Y322210D01*
X222050Y322540D01*
X221720Y276120D02*
X238000Y259840D01*
D18*
X737680Y430010D03*
D21*
X737680Y601890D01*
X690390Y649180D01*
X658530Y649180D02*
X652880Y643530D01*
X658530Y649180D02*
X690390Y649180D01*
D18*
X536670Y643530D03*
D21*
X536670Y509430D01*
X514900Y487660D01*
X462130Y487660D01*
X428740Y454270D02*
X428740Y372330D01*
D18*
X428740Y372330D03*
D21*
X428740Y454270D02*
X462130Y487660D01*
X882920Y268090D02*
X882920Y261360D01*
X886320Y261360D01*
X886320Y264690D01*
X882920Y268090D01*
X882920Y303090D02*
X882920Y338090D01*
X882920Y303090D02*
X882920Y268090D01*
D19*
X562356Y185928D02*
X559308Y185928D01*
X562356Y185928D02*
X577596Y170688D01*
X577650Y170140D01*
D20*
X559308Y185928D03*
D19*
X536448Y156972D02*
X579120Y114300D01*
X495300Y355092D02*
X419100Y355092D01*
X339852Y434340D01*
X306324Y434340D01*
X259080Y387096D01*
D20*
X579120Y114300D03*
X536448Y156972D03*
X495300Y355092D03*
X259080Y387096D03*
D18*
X418810Y112420D03*
D17*
X444090Y112420D01*
X489520Y157850D01*
X489520Y185740D01*
X419110Y206730D02*
X386040Y239800D01*
X247770Y239800D01*
X246910Y238940D01*
D18*
X246910Y238940D03*
D17*
X468530Y206730D02*
X489520Y185740D01*
X468530Y206730D02*
X419110Y206730D01*
D21*
X882920Y198090D02*
X882920Y233090D01*
X882920Y198090D02*
X882920Y193390D01*
X882920Y163090D01*
X607170Y540580D02*
X607170Y579170D01*
X607170Y666840D01*
X631350Y691020D01*
X869480Y691020D01*
X917000Y227470D02*
X885785Y196255D01*
X882920Y193390D01*
X917000Y643500D02*
X869480Y691020D01*
X917000Y643500D02*
X917000Y227470D01*
X171250Y322540D02*
X171250Y449300D01*
X304100Y582150D01*
X399010Y582150D01*
D18*
X399010Y582150D03*
X607170Y579170D03*
D19*
X882920Y198090D02*
X883920Y198120D01*
X885785Y196255D01*
M02*
