G04 EAGLE Gerber RS-274X export*
G75*
%MOMM*%
%FSLAX34Y34*%
%LPD*%
%INSoldermask Top*%
%IPPOS*%
%AMOC8*
5,1,8,0,0,1.08239X$1,22.5*%
G01*
%ADD10C,2.387600*%
%ADD11R,1.703200X1.703200*%
%ADD12R,2.006200X1.803200*%
%ADD13R,1.803200X2.006200*%
%ADD14C,1.676400*%
%ADD15C,1.625600*%
%ADD16R,1.625600X1.625600*%
%ADD17C,3.625600*%
%ADD18R,1.311200X1.311200*%
%ADD19C,1.311200*%
%ADD20C,1.209600*%
%ADD21C,0.959600*%


D10*
X237440Y94200D03*
X202440Y94200D03*
X167440Y94200D03*
X132440Y94200D03*
X97440Y94200D03*
X272440Y94200D03*
X307440Y94200D03*
X342440Y94200D03*
X780970Y93690D03*
X745970Y93690D03*
X710970Y93690D03*
X675970Y93690D03*
X640970Y93690D03*
X815970Y93690D03*
X850970Y93690D03*
X885970Y93690D03*
X882920Y303090D03*
X882920Y268090D03*
X882920Y233090D03*
X882920Y198090D03*
X882920Y163090D03*
X882920Y338090D03*
X882920Y373090D03*
X882920Y408090D03*
D11*
X609200Y78740D03*
X609200Y113740D03*
X445340Y75710D03*
X445340Y110710D03*
X499080Y77290D03*
X499080Y112290D03*
X391270Y76050D03*
X391270Y111050D03*
X554600Y78300D03*
X554600Y113300D03*
D12*
X221250Y386940D03*
X221250Y358500D03*
X451120Y225260D03*
X451120Y253700D03*
X502540Y226580D03*
X502540Y255020D03*
X585960Y256170D03*
X585960Y227730D03*
X219740Y260910D03*
X219740Y232470D03*
D13*
X529740Y453600D03*
X501300Y453600D03*
X529260Y417290D03*
X500820Y417290D03*
X311250Y522580D03*
X282810Y522580D03*
X312350Y471780D03*
X283910Y471780D03*
D14*
X222050Y170140D03*
X247450Y170140D03*
X272850Y170140D03*
X298250Y170140D03*
X323650Y170140D03*
X349050Y170140D03*
X374450Y170140D03*
X399850Y170140D03*
X425250Y170140D03*
X450650Y170140D03*
X476050Y170140D03*
X501450Y170140D03*
X501450Y322540D03*
X476050Y322540D03*
X450650Y322540D03*
X425250Y322540D03*
X399850Y322540D03*
X374450Y322540D03*
X349050Y322540D03*
X323650Y322540D03*
X298250Y322540D03*
X272850Y322540D03*
X247450Y322540D03*
X196650Y170140D03*
X222050Y322540D03*
X196650Y322540D03*
X171250Y170140D03*
X171250Y322540D03*
X526850Y170140D03*
X526850Y322540D03*
X552250Y170140D03*
X577650Y170140D03*
X603050Y170140D03*
X628450Y170140D03*
X653850Y170140D03*
X679250Y170140D03*
X704650Y170140D03*
X730050Y170140D03*
X755450Y170140D03*
X755450Y322540D03*
X730050Y322540D03*
X704650Y322540D03*
X679250Y322540D03*
X653850Y322540D03*
X628450Y322540D03*
X603050Y322540D03*
X577650Y322540D03*
X552250Y322540D03*
X628450Y195540D03*
X628450Y246340D03*
X628450Y271740D03*
X628450Y220940D03*
X628450Y297140D03*
X196650Y297140D03*
X247450Y297140D03*
X272850Y297140D03*
X298250Y297140D03*
X234750Y201890D03*
X260150Y201890D03*
X285550Y201890D03*
X310950Y201890D03*
X336350Y201890D03*
D15*
X652880Y463530D03*
X652880Y483530D03*
X652880Y503530D03*
X652880Y523530D03*
X652880Y543530D03*
X652880Y563530D03*
X652880Y583530D03*
X652880Y603530D03*
X652880Y623530D03*
D16*
X652880Y643530D03*
D15*
X872880Y463530D03*
X872880Y483530D03*
X872880Y503530D03*
X872880Y523530D03*
X872880Y543530D03*
X872880Y563530D03*
X872880Y583530D03*
X872880Y603530D03*
X872880Y623530D03*
X872880Y643530D03*
D17*
X442070Y540580D03*
X607170Y540580D03*
X607170Y731080D03*
X442070Y731080D03*
D18*
X485880Y372330D03*
X511280Y372330D03*
X536680Y372330D03*
X562080Y372330D03*
D19*
X185280Y628530D03*
X210680Y628530D03*
X236080Y628530D03*
X261480Y628530D03*
X286880Y628530D03*
X312280Y628530D03*
X337680Y628530D03*
X363080Y628530D03*
X388480Y628530D03*
X260880Y425730D03*
X286280Y425730D03*
X311680Y425730D03*
X337080Y425730D03*
D20*
X600900Y196640D03*
X556880Y348140D03*
D21*
X432816Y187452D03*
X429768Y216408D03*
X813816Y281940D03*
X822960Y281940D03*
D20*
X613410Y453600D03*
X603600Y375850D03*
X526850Y284360D03*
X442070Y686000D03*
X781300Y197970D03*
X439230Y144550D03*
X526850Y201730D03*
X737680Y430010D03*
X536670Y643530D03*
X428740Y372330D03*
D21*
X559308Y185928D03*
X579120Y114300D03*
X536448Y156972D03*
X495300Y355092D03*
X259080Y387096D03*
D20*
X418810Y112420D03*
X246910Y238940D03*
X399010Y582150D03*
X607170Y579170D03*
M02*
