M48
;GenerationSoftware,Autodesk,EAGLE,9.4.0*%
;CreationDate,2019-05-10T08:56:53Z*%
FMAT,2
ICI,OFF
METRIC,TZ,000.000
T6C0.350
T5C0.600
T4C0.650
T3C0.700
T2C0.965
T1C1.000
%
G90
M71
T1
X81597Y9369
X88292Y33809
X23744Y9420
X88292Y37309
X16744Y9420
X13244Y9420
X9744Y9420
X27244Y9420
X30744Y9420
X34244Y9420
X78097Y9369
X74597Y9369
X71097Y9369
X20244Y9420
X67597Y9369
X64097Y9369
X88292Y40809
X85097Y9369
X88597Y9369
X88292Y30309
X88292Y26809
X88292Y23309
X88292Y19809
X88292Y16309
T2
X62845Y22094
X62845Y27174
X62845Y24634
X62845Y19554
X55225Y32254
X57765Y32254
X60305Y32254
X62845Y32254
X65385Y32254
X67925Y32254
X70465Y32254
X73005Y32254
X75545Y17014
X73005Y17014
X70465Y17014
X67925Y17014
X65385Y17014
X17125Y32254
X62845Y17014
X60305Y17014
X57765Y17014
X55225Y17014
X52685Y32254
X75545Y32254
X52685Y17014
X22205Y17014
X24745Y17014
X27285Y17014
X29825Y17014
X32365Y17014
X34905Y17014
X37445Y17014
X39985Y17014
X42525Y17014
X45065Y17014
X47605Y17014
X50145Y17014
X50145Y32254
X47605Y32254
X45065Y32254
X42525Y32254
X39985Y32254
X37445Y32254
X34905Y32254
X32365Y32254
X29825Y32254
X27285Y32254
X24745Y32254
X19665Y17014
X22205Y32254
X19665Y32254
X17125Y17014
X62845Y29714
X19665Y29714
X24745Y29714
X27285Y29714
X29825Y29714
X23475Y20189
X26015Y20189
X28555Y20189
X31095Y20189
X33635Y20189
T3
X65288Y46353
X65288Y48353
X65288Y50353
X65288Y52353
X65288Y54353
X65288Y56353
X65288Y58353
X65288Y60353
X65288Y62353
X65288Y64353
X87288Y46353
X87288Y48353
X87288Y50353
X87288Y52353
X87288Y54353
X87288Y56353
X87288Y58353
X87288Y60353
X87288Y62353
X87288Y64353
T4
X60717Y54058
X44207Y54058
X60717Y73108
X44207Y73108
T5
X42874Y37233
X53667Y64353
X73768Y43001
X52685Y20173
X43923Y14455
X78130Y19797
X44207Y68600
X52685Y28436
X60360Y37585
X61341Y45360
X36308Y62853
X38848Y62853
X26088Y42573
X28628Y42573
X55688Y34814
X31168Y42573
X60717Y57917
X39901Y58215
X24691Y23894
X41881Y11242
X33708Y42573
X51128Y37233
X60090Y19664
X48588Y37233
X53668Y37233
X56208Y37233
X18528Y62853
X21068Y62853
X23608Y62853
X26148Y62853
X28688Y62853
X31228Y62853
X33768Y62853
T6
X82296Y28194
X81382Y28194
X42977Y21641
X43282Y18745
X49530Y35509
X25908Y38710
X55931Y18593
X57912Y11430
X53645Y15697
M30